<?xml version="1.0" encoding="utf-8"?>
<svg xmlns="http://www.w3.org/2000/svg" xmlns:xlink="http://www.w3.org/1999/xlink" width="600" height="400" viewBox="0 0 2400 1600">
<defs>
  <clipPath id="clip660">
    <rect x="0" y="0" width="2400" height="1600"/>
  </clipPath>
</defs>
<path clip-path="url(#clip660)" d="
M0 1600 L2400 1600 L2400 0 L0 0  Z
  " fill="#ffffff" fill-rule="evenodd" fill-opacity="1"/>
<defs>
  <clipPath id="clip661">
    <rect x="480" y="0" width="1681" height="1600"/>
  </clipPath>
</defs>
<path clip-path="url(#clip660)" d="
M251.071 1410.9 L2352.76 1410.9 L2352.76 47.2441 L251.071 47.2441  Z
  " fill="#ffffff" fill-rule="evenodd" fill-opacity="1"/>
<defs>
  <clipPath id="clip662">
    <rect x="251" y="47" width="2103" height="1365"/>
  </clipPath>
</defs>
<polyline clip-path="url(#clip662)" style="stroke:#000000; stroke-linecap:round; stroke-linejoin:round; stroke-width:2; stroke-opacity:0.1; fill:none" points="
  310.553,1410.9 310.553,47.2441 
  "/>
<polyline clip-path="url(#clip662)" style="stroke:#000000; stroke-linecap:round; stroke-linejoin:round; stroke-width:2; stroke-opacity:0.1; fill:none" points="
  1441.78,1410.9 1441.78,47.2441 
  "/>
<polyline clip-path="url(#clip660)" style="stroke:#000000; stroke-linecap:round; stroke-linejoin:round; stroke-width:4; stroke-opacity:1; fill:none" points="
  251.071,1410.9 2352.76,1410.9 
  "/>
<polyline clip-path="url(#clip660)" style="stroke:#000000; stroke-linecap:round; stroke-linejoin:round; stroke-width:4; stroke-opacity:1; fill:none" points="
  310.553,1410.9 310.553,1392 
  "/>
<polyline clip-path="url(#clip660)" style="stroke:#000000; stroke-linecap:round; stroke-linejoin:round; stroke-width:4; stroke-opacity:1; fill:none" points="
  1441.78,1410.9 1441.78,1392 
  "/>
<path clip-path="url(#clip660)" d="M275.536 1485.02 L283.175 1485.02 L283.175 1458.66 L274.864 1460.32 L274.864 1456.06 L283.128 1454.4 L287.804 1454.4 L287.804 1485.02 L295.443 1485.02 L295.443 1488.96 L275.536 1488.96 L275.536 1485.02 Z" fill="#000000" fill-rule="evenodd" fill-opacity="1" /><path clip-path="url(#clip660)" d="M314.887 1457.48 Q311.276 1457.48 309.448 1461.04 Q307.642 1464.58 307.642 1471.71 Q307.642 1478.82 309.448 1482.38 Q311.276 1485.92 314.887 1485.92 Q318.522 1485.92 320.327 1482.38 Q322.156 1478.82 322.156 1471.71 Q322.156 1464.58 320.327 1461.04 Q318.522 1457.48 314.887 1457.48 M314.887 1453.77 Q320.698 1453.77 323.753 1458.38 Q326.832 1462.96 326.832 1471.71 Q326.832 1480.44 323.753 1485.04 Q320.698 1489.63 314.887 1489.63 Q309.077 1489.63 305.999 1485.04 Q302.943 1480.44 302.943 1471.71 Q302.943 1462.96 305.999 1458.38 Q309.077 1453.77 314.887 1453.77 Z" fill="#000000" fill-rule="evenodd" fill-opacity="1" /><path clip-path="url(#clip660)" d="M336.537 1435.97 Q333.603 1435.97 332.117 1438.86 Q330.65 1441.74 330.65 1447.53 Q330.65 1453.31 332.117 1456.2 Q333.603 1459.08 336.537 1459.08 Q339.489 1459.08 340.956 1456.2 Q342.442 1453.31 342.442 1447.53 Q342.442 1441.74 340.956 1438.86 Q339.489 1435.97 336.537 1435.97 M336.537 1432.96 Q341.257 1432.96 343.74 1436.7 Q346.241 1440.43 346.241 1447.53 Q346.241 1454.62 343.74 1458.37 Q341.257 1462.09 336.537 1462.09 Q331.816 1462.09 329.314 1458.37 Q326.832 1454.62 326.832 1447.53 Q326.832 1440.43 329.314 1436.7 Q331.816 1432.96 336.537 1432.96 Z" fill="#000000" fill-rule="evenodd" fill-opacity="1" /><path clip-path="url(#clip660)" d="M1407.56 1485.02 L1415.2 1485.02 L1415.2 1458.66 L1406.89 1460.32 L1406.89 1456.06 L1415.15 1454.4 L1419.83 1454.4 L1419.83 1485.02 L1427.46 1485.02 L1427.46 1488.96 L1407.56 1488.96 L1407.56 1485.02 Z" fill="#000000" fill-rule="evenodd" fill-opacity="1" /><path clip-path="url(#clip660)" d="M1446.91 1457.48 Q1443.3 1457.48 1441.47 1461.04 Q1439.66 1464.58 1439.66 1471.71 Q1439.66 1478.82 1441.47 1482.38 Q1443.3 1485.92 1446.91 1485.92 Q1450.54 1485.92 1452.35 1482.38 Q1454.18 1478.82 1454.18 1471.71 Q1454.18 1464.58 1452.35 1461.04 Q1450.54 1457.48 1446.91 1457.48 M1446.91 1453.77 Q1452.72 1453.77 1455.77 1458.38 Q1458.85 1462.96 1458.85 1471.71 Q1458.85 1480.44 1455.77 1485.04 Q1452.72 1489.63 1446.91 1489.63 Q1441.1 1489.63 1438.02 1485.04 Q1434.96 1480.44 1434.96 1471.71 Q1434.96 1462.96 1438.02 1458.38 Q1441.1 1453.77 1446.91 1453.77 Z" fill="#000000" fill-rule="evenodd" fill-opacity="1" /><path clip-path="url(#clip660)" d="M1463.42 1458.35 L1476.68 1458.35 L1476.68 1461.55 L1458.85 1461.55 L1458.85 1458.35 Q1461.02 1456.11 1464.74 1452.35 Q1468.48 1448.57 1469.44 1447.48 Q1471.27 1445.43 1471.98 1444.02 Q1472.71 1442.59 1472.71 1441.22 Q1472.71 1438.98 1471.13 1437.57 Q1469.57 1436.16 1467.05 1436.16 Q1465.27 1436.16 1463.27 1436.78 Q1461.3 1437.4 1459.04 1438.66 L1459.04 1434.82 Q1461.34 1433.9 1463.33 1433.43 Q1465.32 1432.96 1466.98 1432.96 Q1471.34 1432.96 1473.94 1435.14 Q1476.53 1437.32 1476.53 1440.97 Q1476.53 1442.7 1475.87 1444.26 Q1475.23 1445.8 1473.52 1447.91 Q1473.05 1448.46 1470.53 1451.07 Q1468.01 1453.67 1463.42 1458.35 Z" fill="#000000" fill-rule="evenodd" fill-opacity="1" /><path clip-path="url(#clip660)" d="M1151.48 1526.67 L1157.91 1526.67 L1157.91 1574.19 L1151.48 1574.19 L1151.48 1526.67 Z" fill="#000000" fill-rule="evenodd" fill-opacity="1" /><path clip-path="url(#clip660)" d="M1176.24 1528.42 L1176.24 1538.54 L1188.3 1538.54 L1188.3 1543.09 L1176.24 1543.09 L1176.24 1562.44 Q1176.24 1566.8 1177.42 1568.04 Q1178.63 1569.28 1182.29 1569.28 L1188.3 1569.28 L1188.3 1574.19 L1182.29 1574.19 Q1175.51 1574.19 1172.93 1571.67 Q1170.35 1569.12 1170.35 1562.44 L1170.35 1543.09 L1166.05 1543.09 L1166.05 1538.54 L1170.35 1538.54 L1170.35 1528.42 L1176.24 1528.42 Z" fill="#000000" fill-rule="evenodd" fill-opacity="1" /><path clip-path="url(#clip660)" d="M1226.5 1554.9 L1226.5 1557.76 L1199.57 1557.76 Q1199.95 1563.81 1203.2 1566.99 Q1206.48 1570.14 1212.3 1570.14 Q1215.67 1570.14 1218.83 1569.32 Q1222.01 1568.49 1225.13 1566.83 L1225.13 1572.37 Q1221.98 1573.71 1218.67 1574.41 Q1215.36 1575.11 1211.95 1575.11 Q1203.42 1575.11 1198.42 1570.14 Q1193.46 1565.18 1193.46 1556.71 Q1193.46 1547.96 1198.17 1542.83 Q1202.91 1537.68 1210.93 1537.68 Q1218.12 1537.68 1222.29 1542.33 Q1226.5 1546.94 1226.5 1554.9 M1220.64 1553.18 Q1220.58 1548.37 1217.93 1545.51 Q1215.32 1542.64 1211 1542.64 Q1206.09 1542.64 1203.13 1545.41 Q1200.21 1548.18 1199.76 1553.21 L1220.64 1553.18 Z" fill="#000000" fill-rule="evenodd" fill-opacity="1" /><path clip-path="url(#clip660)" d="M1256.76 1544.01 Q1255.78 1543.44 1254.6 1543.18 Q1253.45 1542.9 1252.05 1542.9 Q1247.09 1542.9 1244.42 1546.14 Q1241.77 1549.36 1241.77 1555.41 L1241.77 1574.19 L1235.89 1574.19 L1235.89 1538.54 L1241.77 1538.54 L1241.77 1544.08 Q1243.62 1540.83 1246.58 1539.27 Q1249.54 1537.68 1253.77 1537.68 Q1254.38 1537.68 1255.11 1537.77 Q1255.84 1537.84 1256.73 1538 L1256.76 1544.01 Z" fill="#000000" fill-rule="evenodd" fill-opacity="1" /><path clip-path="url(#clip660)" d="M1279.11 1556.27 Q1272.01 1556.27 1269.27 1557.89 Q1266.54 1559.51 1266.54 1563.43 Q1266.54 1566.55 1268.57 1568.39 Q1270.64 1570.21 1274.18 1570.21 Q1279.04 1570.21 1281.97 1566.77 Q1284.93 1563.3 1284.93 1557.57 L1284.93 1556.27 L1279.11 1556.27 M1290.79 1553.85 L1290.79 1574.19 L1284.93 1574.19 L1284.93 1568.77 Q1282.93 1572.02 1279.94 1573.58 Q1276.94 1575.11 1272.62 1575.11 Q1267.14 1575.11 1263.89 1572.05 Q1260.68 1568.97 1260.68 1563.81 Q1260.68 1557.79 1264.69 1554.74 Q1268.73 1551.68 1276.72 1551.68 L1284.93 1551.68 L1284.93 1551.11 Q1284.93 1547.07 1282.26 1544.87 Q1279.62 1542.64 1274.81 1542.64 Q1271.76 1542.64 1268.86 1543.38 Q1265.96 1544.11 1263.29 1545.57 L1263.29 1540.16 Q1266.5 1538.92 1269.53 1538.31 Q1272.55 1537.68 1275.42 1537.68 Q1283.15 1537.68 1286.97 1541.69 Q1290.79 1545.7 1290.79 1553.85 Z" fill="#000000" fill-rule="evenodd" fill-opacity="1" /><path clip-path="url(#clip660)" d="M1308.65 1528.42 L1308.65 1538.54 L1320.71 1538.54 L1320.71 1543.09 L1308.65 1543.09 L1308.65 1562.44 Q1308.65 1566.8 1309.82 1568.04 Q1311.03 1569.28 1314.69 1569.28 L1320.71 1569.28 L1320.71 1574.19 L1314.69 1574.19 Q1307.91 1574.19 1305.34 1571.67 Q1302.76 1569.12 1302.76 1562.44 L1302.76 1543.09 L1298.46 1543.09 L1298.46 1538.54 L1302.76 1538.54 L1302.76 1528.42 L1308.65 1528.42 Z" fill="#000000" fill-rule="evenodd" fill-opacity="1" /><path clip-path="url(#clip660)" d="M1328.41 1538.54 L1334.27 1538.54 L1334.27 1574.19 L1328.41 1574.19 L1328.41 1538.54 M1328.41 1524.66 L1334.27 1524.66 L1334.27 1532.08 L1328.41 1532.08 L1328.41 1524.66 Z" fill="#000000" fill-rule="evenodd" fill-opacity="1" /><path clip-path="url(#clip660)" d="M1360.33 1542.64 Q1355.62 1542.64 1352.89 1546.34 Q1350.15 1550 1350.15 1556.39 Q1350.15 1562.79 1352.86 1566.48 Q1355.59 1570.14 1360.33 1570.14 Q1365.01 1570.14 1367.75 1566.45 Q1370.49 1562.76 1370.49 1556.39 Q1370.49 1550.06 1367.75 1546.37 Q1365.01 1542.64 1360.33 1542.64 M1360.33 1537.68 Q1367.97 1537.68 1372.33 1542.64 Q1376.69 1547.61 1376.69 1556.39 Q1376.69 1565.15 1372.33 1570.14 Q1367.97 1575.11 1360.33 1575.11 Q1352.66 1575.11 1348.3 1570.14 Q1343.97 1565.15 1343.97 1556.39 Q1343.97 1547.61 1348.3 1542.64 Q1352.66 1537.68 1360.33 1537.68 Z" fill="#000000" fill-rule="evenodd" fill-opacity="1" /><path clip-path="url(#clip660)" d="M1416.03 1552.67 L1416.03 1574.19 L1410.18 1574.19 L1410.18 1552.86 Q1410.18 1547.8 1408.2 1545.29 Q1406.23 1542.77 1402.28 1542.77 Q1397.54 1542.77 1394.81 1545.79 Q1392.07 1548.82 1392.07 1554.04 L1392.07 1574.19 L1386.18 1574.19 L1386.18 1538.54 L1392.07 1538.54 L1392.07 1544.08 Q1394.17 1540.86 1397 1539.27 Q1399.87 1537.68 1403.59 1537.68 Q1409.73 1537.68 1412.88 1541.5 Q1416.03 1545.29 1416.03 1552.67 Z" fill="#000000" fill-rule="evenodd" fill-opacity="1" /><path clip-path="url(#clip660)" d="M1450.44 1539.59 L1450.44 1545.13 Q1447.96 1543.85 1445.29 1543.22 Q1442.61 1542.58 1439.75 1542.58 Q1435.39 1542.58 1433.19 1543.92 Q1431.03 1545.25 1431.03 1547.93 Q1431.03 1549.96 1432.59 1551.14 Q1434.15 1552.29 1438.86 1553.34 L1440.86 1553.78 Q1447.1 1555.12 1449.71 1557.57 Q1452.35 1559.99 1452.35 1564.35 Q1452.35 1569.32 1448.4 1572.21 Q1444.49 1575.11 1437.61 1575.11 Q1434.75 1575.11 1431.63 1574.54 Q1428.54 1573.99 1425.11 1572.88 L1425.11 1566.83 Q1428.35 1568.52 1431.5 1569.38 Q1434.65 1570.21 1437.74 1570.21 Q1441.88 1570.21 1444.11 1568.81 Q1446.34 1567.37 1446.34 1564.8 Q1446.34 1562.41 1444.71 1561.14 Q1443.12 1559.86 1437.68 1558.68 L1435.64 1558.21 Q1430.2 1557.06 1427.78 1554.71 Q1425.36 1552.32 1425.36 1548.18 Q1425.36 1543.15 1428.93 1540.42 Q1432.49 1537.68 1439.05 1537.68 Q1442.29 1537.68 1445.16 1538.16 Q1448.02 1538.63 1450.44 1539.59 Z" fill="#000000" fill-rule="evenodd" fill-opacity="1" /><polyline clip-path="url(#clip662)" style="stroke:#000000; stroke-linecap:round; stroke-linejoin:round; stroke-width:2; stroke-opacity:0.1; fill:none" points="
  251.071,1166.06 2352.76,1166.06 
  "/>
<polyline clip-path="url(#clip662)" style="stroke:#000000; stroke-linecap:round; stroke-linejoin:round; stroke-width:2; stroke-opacity:0.1; fill:none" points="
  251.071,762.525 2352.76,762.525 
  "/>
<polyline clip-path="url(#clip662)" style="stroke:#000000; stroke-linecap:round; stroke-linejoin:round; stroke-width:2; stroke-opacity:0.1; fill:none" points="
  251.071,358.993 2352.76,358.993 
  "/>
<polyline clip-path="url(#clip660)" style="stroke:#000000; stroke-linecap:round; stroke-linejoin:round; stroke-width:4; stroke-opacity:1; fill:none" points="
  251.071,1410.9 251.071,47.2441 
  "/>
<polyline clip-path="url(#clip660)" style="stroke:#000000; stroke-linecap:round; stroke-linejoin:round; stroke-width:4; stroke-opacity:1; fill:none" points="
  251.071,1166.06 269.969,1166.06 
  "/>
<polyline clip-path="url(#clip660)" style="stroke:#000000; stroke-linecap:round; stroke-linejoin:round; stroke-width:4; stroke-opacity:1; fill:none" points="
  251.071,762.525 269.969,762.525 
  "/>
<polyline clip-path="url(#clip660)" style="stroke:#000000; stroke-linecap:round; stroke-linejoin:round; stroke-width:4; stroke-opacity:1; fill:none" points="
  251.071,358.993 269.969,358.993 
  "/>
<path clip-path="url(#clip660)" d="M114.931 1185.85 L122.57 1185.85 L122.57 1159.48 L114.26 1161.15 L114.26 1156.89 L122.524 1155.23 L127.2 1155.23 L127.2 1185.85 L134.839 1185.85 L134.839 1189.79 L114.931 1189.79 L114.931 1185.85 Z" fill="#000000" fill-rule="evenodd" fill-opacity="1" /><path clip-path="url(#clip660)" d="M154.283 1158.3 Q150.672 1158.3 148.843 1161.87 Q147.038 1165.41 147.038 1172.54 Q147.038 1179.65 148.843 1183.21 Q150.672 1186.75 154.283 1186.75 Q157.917 1186.75 159.723 1183.21 Q161.552 1179.65 161.552 1172.54 Q161.552 1165.41 159.723 1161.87 Q157.917 1158.3 154.283 1158.3 M154.283 1154.6 Q160.093 1154.6 163.149 1159.21 Q166.227 1163.79 166.227 1172.54 Q166.227 1181.27 163.149 1185.87 Q160.093 1190.46 154.283 1190.46 Q148.473 1190.46 145.394 1185.87 Q142.339 1181.27 142.339 1172.54 Q142.339 1163.79 145.394 1159.21 Q148.473 1154.6 154.283 1154.6 Z" fill="#000000" fill-rule="evenodd" fill-opacity="1" /><path clip-path="url(#clip660)" d="M166.227 1148.7 L190.339 1148.7 L190.339 1151.9 L166.227 1151.9 L166.227 1148.7 Z" fill="#000000" fill-rule="evenodd" fill-opacity="1" /><path clip-path="url(#clip660)" d="M201.812 1159.18 L215.071 1159.18 L215.071 1162.37 L197.241 1162.37 L197.241 1159.18 Q199.404 1156.94 203.128 1153.18 Q206.871 1149.4 207.83 1148.31 Q209.655 1146.26 210.369 1144.85 Q211.103 1143.42 211.103 1142.04 Q211.103 1139.81 209.523 1138.4 Q207.962 1136.98 205.442 1136.98 Q203.655 1136.98 201.661 1137.61 Q199.686 1138.23 197.43 1139.49 L197.43 1135.65 Q199.724 1134.73 201.718 1134.26 Q203.711 1133.79 205.366 1133.79 Q209.73 1133.79 212.325 1135.97 Q214.921 1138.15 214.921 1141.8 Q214.921 1143.53 214.263 1145.09 Q213.623 1146.63 211.912 1148.74 Q211.441 1149.28 208.921 1151.9 Q206.401 1154.49 201.812 1159.18 Z" fill="#000000" fill-rule="evenodd" fill-opacity="1" /><path clip-path="url(#clip660)" d="M144.366 782.318 L152.004 782.318 L152.004 755.952 L143.694 757.619 L143.694 753.359 L151.958 751.693 L156.634 751.693 L156.634 782.318 L164.273 782.318 L164.273 786.253 L144.366 786.253 L144.366 782.318 Z" fill="#000000" fill-rule="evenodd" fill-opacity="1" /><path clip-path="url(#clip660)" d="M183.717 754.771 Q180.106 754.771 178.277 758.336 Q176.472 761.878 176.472 769.007 Q176.472 776.114 178.277 779.679 Q180.106 783.22 183.717 783.22 Q187.351 783.22 189.157 779.679 Q190.986 776.114 190.986 769.007 Q190.986 761.878 189.157 758.336 Q187.351 754.771 183.717 754.771 M183.717 751.068 Q189.527 751.068 192.583 755.674 Q195.662 760.258 195.662 769.007 Q195.662 777.734 192.583 782.341 Q189.527 786.924 183.717 786.924 Q177.907 786.924 174.828 782.341 Q171.773 777.734 171.773 769.007 Q171.773 760.258 174.828 755.674 Q177.907 751.068 183.717 751.068 Z" fill="#000000" fill-rule="evenodd" fill-opacity="1" /><path clip-path="url(#clip660)" d="M205.366 733.264 Q202.432 733.264 200.947 736.16 Q199.48 739.038 199.48 744.831 Q199.48 750.605 200.947 753.501 Q202.432 756.379 205.366 756.379 Q208.319 756.379 209.786 753.501 Q211.272 750.605 211.272 744.831 Q211.272 739.038 209.786 736.16 Q208.319 733.264 205.366 733.264 M205.366 730.255 Q210.087 730.255 212.57 733.997 Q215.071 737.721 215.071 744.831 Q215.071 751.921 212.57 755.664 Q210.087 759.388 205.366 759.388 Q200.646 759.388 198.144 755.664 Q195.662 751.921 195.662 744.831 Q195.662 737.721 198.144 733.997 Q200.646 730.255 205.366 730.255 Z" fill="#000000" fill-rule="evenodd" fill-opacity="1" /><path clip-path="url(#clip660)" d="M145.945 378.785 L153.584 378.785 L153.584 352.419 L145.274 354.086 L145.274 349.827 L153.538 348.16 L158.214 348.16 L158.214 378.785 L165.853 378.785 L165.853 382.72 L145.945 382.72 L145.945 378.785 Z" fill="#000000" fill-rule="evenodd" fill-opacity="1" /><path clip-path="url(#clip660)" d="M185.297 351.239 Q181.686 351.239 179.857 354.804 Q178.052 358.345 178.052 365.475 Q178.052 372.581 179.857 376.146 Q181.686 379.688 185.297 379.688 Q188.931 379.688 190.737 376.146 Q192.566 372.581 192.566 365.475 Q192.566 358.345 190.737 354.804 Q188.931 351.239 185.297 351.239 M185.297 347.535 Q191.107 347.535 194.163 352.142 Q197.241 356.725 197.241 365.475 Q197.241 374.202 194.163 378.808 Q191.107 383.391 185.297 383.391 Q179.487 383.391 176.408 378.808 Q173.353 374.202 173.353 365.475 Q173.353 356.725 176.408 352.142 Q179.487 347.535 185.297 347.535 Z" fill="#000000" fill-rule="evenodd" fill-opacity="1" /><path clip-path="url(#clip660)" d="M201.812 352.112 L215.071 352.112 L215.071 355.31 L197.241 355.31 L197.241 352.112 Q199.404 349.874 203.128 346.113 Q206.871 342.332 207.83 341.242 Q209.655 339.192 210.369 337.781 Q211.103 336.352 211.103 334.979 Q211.103 332.74 209.523 331.33 Q207.962 329.919 205.442 329.919 Q203.655 329.919 201.661 330.54 Q199.686 331.161 197.43 332.421 L197.43 328.584 Q199.724 327.662 201.718 327.192 Q203.711 326.722 205.366 326.722 Q209.73 326.722 212.325 328.904 Q214.921 331.085 214.921 334.734 Q214.921 336.464 214.263 338.025 Q213.623 339.568 211.912 341.674 Q211.441 342.22 208.921 344.834 Q206.401 347.429 201.812 352.112 Z" fill="#000000" fill-rule="evenodd" fill-opacity="1" /><path clip-path="url(#clip660)" d="M16.4842 795.767 L16.4842 789.338 L58.5933 789.338 L58.5933 766.198 L64.0042 766.198 L64.0042 795.767 L16.4842 795.767 Z" fill="#000000" fill-rule="evenodd" fill-opacity="1" /><path clip-path="url(#clip660)" d="M32.4621 747.038 Q32.4621 751.748 36.1542 754.485 Q39.8145 757.223 46.212 757.223 Q52.6095 757.223 56.3017 754.517 Q59.9619 751.78 59.9619 747.038 Q59.9619 742.359 56.2698 739.622 Q52.5777 736.884 46.212 736.884 Q39.8781 736.884 36.186 739.622 Q32.4621 742.359 32.4621 747.038 M27.4968 747.038 Q27.4968 739.399 32.4621 735.038 Q37.4273 730.678 46.212 730.678 Q54.9649 730.678 59.9619 735.038 Q64.9272 739.399 64.9272 747.038 Q64.9272 754.708 59.9619 759.069 Q54.9649 763.397 46.212 763.397 Q37.4273 763.397 32.4621 759.069 Q27.4968 754.708 27.4968 747.038 Z" fill="#000000" fill-rule="evenodd" fill-opacity="1" /><path clip-path="url(#clip660)" d="M29.4065 698.244 L34.9447 698.244 Q33.6716 700.727 33.035 703.401 Q32.3984 706.074 32.3984 708.939 Q32.3984 713.299 33.7352 715.495 Q35.072 717.66 37.7456 717.66 Q39.7826 717.66 40.9603 716.1 Q42.1061 714.541 43.1565 709.83 L43.6021 707.825 Q44.9389 701.586 47.3897 698.976 Q49.8086 696.335 54.1691 696.335 Q59.1344 696.335 62.0308 700.281 Q64.9272 704.196 64.9272 711.071 Q64.9272 713.936 64.3543 717.055 Q63.8132 720.142 62.6992 723.58 L56.6518 723.58 Q58.3387 720.333 59.198 717.182 Q60.0256 714.031 60.0256 710.944 Q60.0256 706.806 58.6251 704.578 Q57.1929 702.35 54.6147 702.35 Q52.2276 702.35 50.9545 703.974 Q49.6813 705.565 48.5037 711.008 L48.0262 713.045 Q46.8804 718.487 44.5251 720.906 Q42.138 723.325 38.0002 723.325 Q32.9713 723.325 30.2341 719.761 Q27.4968 716.196 27.4968 709.639 Q27.4968 706.393 27.9743 703.528 Q28.4517 700.663 29.4065 698.244 Z" fill="#000000" fill-rule="evenodd" fill-opacity="1" /><path clip-path="url(#clip660)" d="M29.4065 664.283 L34.9447 664.283 Q33.6716 666.766 33.035 669.44 Q32.3984 672.113 32.3984 674.978 Q32.3984 679.338 33.7352 681.534 Q35.072 683.699 37.7456 683.699 Q39.7826 683.699 40.9603 682.139 Q42.1061 680.58 43.1565 675.869 L43.6021 673.864 Q44.9389 667.625 47.3897 665.015 Q49.8086 662.374 54.1691 662.374 Q59.1344 662.374 62.0308 666.32 Q64.9272 670.235 64.9272 677.11 Q64.9272 679.975 64.3543 683.094 Q63.8132 686.181 62.6992 689.619 L56.6518 689.619 Q58.3387 686.372 59.198 683.221 Q60.0256 680.07 60.0256 676.983 Q60.0256 672.845 58.6251 670.617 Q57.1929 668.389 54.6147 668.389 Q52.2276 668.389 50.9545 670.013 Q49.6813 671.604 48.5037 677.047 L48.0262 679.084 Q46.8804 684.526 44.5251 686.945 Q42.138 689.364 38.0002 689.364 Q32.9713 689.364 30.2341 685.799 Q27.4968 682.235 27.4968 675.678 Q27.4968 672.431 27.9743 669.567 Q28.4517 666.702 29.4065 664.283 Z" fill="#000000" fill-rule="evenodd" fill-opacity="1" /><polyline clip-path="url(#clip662)" style="stroke:#0000ff; stroke-linecap:round; stroke-linejoin:round; stroke-width:4; stroke-opacity:1; fill:none" points="
  310.553,386.992 480.82,85.838 580.42,334.967 651.087,240.349 705.901,238.325 750.687,382.593 788.554,504.652 821.355,332.452 850.287,292.621 876.169,304.356 
  899.581,358.91 920.955,476.618 940.617,584.57 958.821,421.787 975.769,365.698 991.622,367.945 1006.51,411.079 1020.55,501.637 1033.84,612.386 1046.44,552.323 
  1058.42,477.306 1069.85,444.194 1080.77,442.104 1091.22,467.799 1101.25,525.428 1110.88,622.014 1120.15,657.291 1129.09,571.322 1137.71,519.82 1146.04,504.597 
  1154.09,519.432 1161.89,565.779 1169.45,650.517 1176.78,715.206 1183.9,644.898 1190.82,585.855 1197.55,562.369 1204.1,567.764 1210.48,599.872 1216.7,656.265 
  1222.77,702.363 1228.69,673.968 1234.47,628.718 1240.12,606.898 1245.64,610.902 1251.03,638.344 1256.32,680.896 1261.49,706.33 1266.55,686.957 1271.52,658.119 
  1276.38,645.498 1281.15,652.987 1285.83,677.539 1290.42,706.545 1294.93,714.285 1299.36,696.757 1303.7,678.798 1307.98,674.371 1312.17,684.594 1316.3,702.725 
  1320.36,714.398 1324.36,709.682 1328.29,697.424 1332.16,690.48 1335.97,693.436 1339.72,703.566 1343.41,712.832 1347.05,713.611 1350.63,707.452 1354.17,702.152 
  1357.65,702.628 1361.09,708.255 1364.48,714.25 1367.82,715.673 1371.12,712.501 1374.37,709.036 1377.58,708.765 1380.75,711.709 1383.88,715.069 1386.97,715.921 
  1390.02,714.124 1393.04,712.086 1396.01,711.924 1398.96,713.645 1401.86,715.52 1404.74,715.913 1407.58,714.886 1410.38,713.867 1413.16,713.997 1415.9,715.11 
  1418.62,716.116 1421.3,716.183 1423.96,715.541 1426.59,715.07 1429.18,715.308 1431.76,715.98 1434.3,716.415 1436.82,716.281 1439.32,715.881 1441.78,715.727 
  1444.23,715.986 1446.65,716.371 1449.05,716.513 1451.42,716.358 1453.77,716.174 1456.1,716.209 1458.4,716.436 1460.69,716.628 1462.95,716.633 1465.2,716.522 
  1467.42,716.478 1469.62,716.575 1471.81,716.719 1473.97,716.781 1476.12,716.741 1478.24,716.693 1480.35,716.723 1482.44,716.814 1484.51,716.883 1486.57,716.887 
  1488.61,716.862 1490.63,716.872 1492.64,716.929 1494.63,716.989 1496.6,717.014 1498.56,717.012 1500.5,717.019 1502.42,717.056 1504.34,717.103 1506.23,717.133 
  1508.11,717.142 1509.98,717.151 1511.84,717.179 1513.68,717.216 1515.5,717.246 1517.32,717.263 1519.12,717.277 1520.9,717.302 1522.68,717.334 1524.44,717.363 
  1526.18,717.383 1527.92,717.402 1529.64,717.425 1531.36,717.455 1533.06,717.482 1534.74,717.505 1536.42,717.526 1538.09,717.55 1539.74,717.577 1541.38,717.604 
  1543.02,717.628 1544.64,717.65 1546.25,717.675 1547.85,717.702 1549.44,717.729 1551.02,717.754 1552.59,717.778 1554.15,717.804 1555.7,717.831 1557.24,717.857 
  1558.77,717.883 1560.29,717.908 1561.8,717.935 1563.3,717.962 1564.8,717.989 1566.28,718.016 1567.76,718.043 1569.22,718.07 1570.68,718.098 1572.13,718.125 
  1573.57,718.153 1575,718.181 1576.43,718.209 1577.84,718.237 1579.25,718.266 1580.65,718.295 1582.04,718.323 1583.43,718.353 1584.8,718.382 1586.17,718.412 
  1587.53,718.441 1588.88,718.471 1590.23,718.501 1591.57,718.532 1592.9,718.563 1594.23,718.593 1595.54,718.625 1596.85,718.656 1598.16,718.688 1599.45,718.719 
  1600.74,718.752 1602.02,718.784 1603.3,718.817 1604.57,718.85 1605.83,718.883 1607.09,718.917 1608.34,718.95 1609.58,718.985 1610.82,719.019 1612.05,719.054 
  
  "/>
<polyline clip-path="url(#clip662)" style="stroke:#ff0000; stroke-linecap:round; stroke-linejoin:round; stroke-width:4; stroke-opacity:1; fill:none" points="
  1613.28,719.054 1614.5,719.054 1615.71,719.057 1616.92,720.193 1618.12,720.368 1619.31,721.423 1620.5,723.631 1621.69,732.976 1622.86,800.236 1624.04,816.56 
  1625.2,827.73 1626.37,863.054 1627.52,865.426 1628.67,878.32 1629.82,880.275 1630.96,887.766 1632.09,894.199 1633.22,902.894 1634.34,916.006 1635.46,922.348 
  1636.58,927.987 1637.69,941.564 1638.79,956.454 1639.89,978.466 1640.98,991.229 1642.07,997.25 1643.16,1002.06 1644.24,1007.11 1645.31,1012.59 1646.38,1018.69 
  1647.45,1022.23 1648.51,1029.4 1649.57,1034.03 1650.62,1043.65 1651.67,1049.97 1652.71,1056.56 1653.75,1058.6 1654.78,1061.87 1655.81,1066.21 1656.84,1072.59 
  1657.86,1074.85 1658.88,1076.08 1659.89,1076.52 1660.9,1076.89 1661.9,1078.45 1662.9,1082.79 1663.9,1084.72 1664.89,1086.31 1665.88,1087.79 1666.87,1090.59 
  1667.85,1097.84 1668.82,1099.03 1669.8,1101.71 1670.76,1102.15 1671.73,1102.44 1672.69,1102.78 1673.65,1103.55 1674.6,1104.01 1675.55,1104.55 1676.5,1104.64 
  1677.44,1104.72 1678.38,1104.78 1679.32,1104.98 1680.25,1105.15 1681.18,1106.1 1682.1,1106.77 1683.03,1108.14 1683.94,1108.39 1684.86,1108.55 1685.77,1108.8 
  1686.68,1108.9 1687.58,1108.94 1688.48,1108.99 1689.38,1109.39 1690.28,1109.53 1691.17,1109.78 1692.06,1110.96 1692.94,1111.01 1693.83,1111.13 1694.7,1111.16 
  1695.58,1111.46 1696.45,1111.93 1697.32,1113.05 1698.19,1114.18 1699.05,1114.27 1699.91,1115.86 1700.77,1116.13 1701.62,1116.32 1702.48,1116.76 1703.32,1117.85 
  1704.17,1118.28 1705.01,1119.12 1705.85,1121.61 1706.69,1121.75 1707.52,1125.02 1708.35,1130.38 1709.18,1135.02 1710.01,1135.72 1710.83,1137.65 1711.65,1138.17 
  1712.47,1140 1713.28,1144.95 1714.1,1148.31 1714.91,1154.95 1715.71,1158.9 1716.52,1159.46 1717.32,1161.89 1718.12,1163.99 1718.91,1164.78 1719.71,1165.55 
  1720.5,1166.95 1721.29,1168.34 1722.07,1171.9 1722.86,1173.63 1723.64,1179.11 1724.42,1181.66 1725.19,1190.86 1725.96,1201.85 1726.74,1204.88 1727.51,1210.32 
  1728.27,1216.55 1729.04,1219.41 1729.8,1225.74 1730.56,1227.09 1731.31,1233.08 1732.07,1237.75 1732.82,1242.32 1733.57,1243.57 1734.32,1245.99 1735.06,1248.5 
  1735.81,1249.49 1736.55,1250.74 1737.29,1252.36 1738.02,1253.18 1738.76,1253.49 1739.49,1253.9 1740.22,1255 1740.95,1255.58 1741.67,1256.13 1742.4,1256.56 
  1743.12,1257.46 1743.84,1257.76 1744.56,1258.21 1745.27,1258.89 1745.98,1259.19 1746.69,1260.13 1747.4,1261.01 1748.11,1262.09 1748.81,1263.24 1749.52,1263.79 
  1750.22,1266.09 1750.92,1266.92 1751.61,1269.62 1752.31,1270.65 1753,1274.21 1753.69,1276.39 1754.38,1276.68 1755.07,1277.35 1755.75,1278 1756.44,1279.66 
  1757.12,1280.81 1757.8,1282.04 1758.48,1284.59 1759.15,1287.38 1759.83,1289.77 1760.5,1293.02 1761.17,1296.62 1761.84,1298.89 1762.5,1299.85 1763.17,1301.03 
  1763.83,1301.52 1764.49,1301.93 1765.15,1302.74 1765.81,1303.66 1766.47,1305.11 1767.12,1305.51 1767.77,1305.63 1768.42,1305.68 1769.07,1305.69 1769.72,1305.75 
  1770.36,1306.61 1771.01,1307.04 1771.65,1307.82 1772.29,1309.25 1772.93,1309.58 1773.57,1310.2 1774.2,1311.39 1774.84,1312.56 1775.47,1312.9 1776.1,1313.28 
  1776.73,1313.79 1777.36,1314.08 1777.98,1314.55 1778.61,1314.87 1779.23,1315.59 1779.85,1315.89 1780.47,1316.37 1781.09,1316.71 1781.7,1317.25 1782.32,1317.61 
  1782.93,1317.92 1783.54,1318.17 1784.15,1318.81 1784.76,1318.95 1785.37,1319.37 1785.98,1319.53 1786.58,1320.03 1787.18,1320.19 1787.78,1320.35 1788.38,1320.42 
  1788.98,1320.57 1789.58,1320.78 1790.18,1320.87 1790.77,1321.04 1791.36,1321.21 1791.95,1321.43 1792.54,1321.51 1793.13,1321.64 1793.72,1321.82 1794.3,1321.86 
  1794.89,1322 1795.47,1322.1 1796.05,1322.25 1796.63,1322.34 1797.21,1322.43 1797.79,1322.5 1798.36,1322.57 1798.94,1322.72 1799.51,1322.77 1800.08,1322.87 
  1800.65,1322.9 1801.22,1322.96 1801.79,1323 1802.36,1323.07 1802.92,1323.13 1803.49,1323.21 1804.05,1323.23 1804.61,1323.28 1805.17,1323.35 1805.73,1323.4 
  1806.29,1323.53 1806.85,1323.64 1807.4,1323.68 1807.95,1323.76 1808.51,1323.79 1809.06,1323.82 1809.61,1323.87 1810.16,1323.96 1810.71,1324.04 1811.25,1324.2 
  1811.8,1324.23 1812.34,1324.34 1812.88,1324.51 1813.43,1324.56 1813.97,1324.68 1814.51,1324.85 1815.04,1324.9 1815.58,1325.03 1816.12,1325.18 1816.65,1325.62 
  1817.18,1325.82 1817.72,1326.43 1818.25,1326.58 1818.78,1327.05 1819.31,1327.15 1819.83,1327.51 1820.36,1327.74 1820.89,1328.3 1821.41,1328.38 1821.93,1328.82 
  1822.46,1329.01 1822.98,1329.15 1823.5,1329.37 1824.02,1329.56 1824.53,1330.02 1825.05,1330.11 1825.56,1330.49 1826.08,1330.9 1826.59,1331.6 1827.11,1331.71 
  1827.62,1331.96 1828.13,1332.28 1828.64,1332.88 1829.14,1332.96 1829.65,1333.4 1830.16,1333.87 1830.66,1334.83 1831.17,1334.95 1831.67,1335.39 1832.17,1335.81 
  1832.67,1335.91 1833.17,1336.3 1833.67,1336.53 1834.17,1336.86 1834.66,1336.98 1835.16,1337.2 1835.65,1337.25 1836.15,1337.3 1836.64,1337.33 1837.13,1337.36 
  1837.62,1337.37 1838.11,1337.38 1838.6,1337.41 1839.09,1337.57 1839.58,1337.71 1840.06,1337.86 1840.55,1338.01 1841.03,1338.41 1841.51,1339.23 1842,1340.22 
  1842.48,1340.55 1842.96,1341.23 1843.44,1341.41 1843.92,1341.53 1844.39,1341.64 1844.87,1341.68 1845.35,1341.76 1845.82,1341.88 1846.29,1342.31 1846.77,1342.93 
  1847.24,1343.36 1847.71,1343.56 1848.18,1343.93 1848.65,1344.06 1849.12,1344.43 1849.59,1344.81 1850.05,1345.37 1850.52,1345.82 1850.98,1346.02 1851.45,1346.9 
  1851.91,1347.31 1852.37,1347.51 1852.83,1347.56 1853.29,1347.74 1853.75,1347.86 1854.21,1348.2 1854.67,1348.32 1855.13,1348.41 1855.58,1348.78 1856.04,1348.79 
  1856.49,1348.86 1856.95,1348.89 1857.4,1348.97 1857.85,1349.14 1858.3,1349.22 1858.75,1349.39 1859.2,1349.61 1859.65,1349.68 1860.1,1349.8 1860.55,1349.93 
  1860.99,1349.98 1861.44,1350.13 1861.88,1350.23 1862.33,1350.37 1862.77,1350.41 1863.21,1350.45 1863.65,1350.5 1864.09,1350.55 1864.53,1350.65 1864.97,1350.67 
  1865.41,1350.77 1865.85,1350.9 1866.28,1350.96 1866.72,1351.1 1867.15,1351.18 1867.59,1351.38 1868.02,1351.61 1868.46,1351.63 1868.89,1351.7 1869.32,1351.75 
  1869.75,1351.8 1870.18,1351.88 1870.61,1351.98 1871.04,1352.08 1871.46,1352.26 1871.89,1352.37 1872.32,1352.71 1872.74,1352.9 1873.17,1353.32 1873.59,1353.42 
  1874.01,1353.7 1874.44,1353.87 1874.86,1354.16 1875.28,1354.27 1875.7,1354.48 1876.12,1354.79 1876.54,1355.09 1876.96,1355.63 1877.37,1355.94 1877.79,1356.24 
  1878.21,1356.45 1878.62,1356.95 1879.04,1357.31 1879.45,1357.96 1879.86,1358.11 1880.28,1358.42 1880.69,1358.54 1881.1,1358.64 1881.51,1358.77 1881.92,1358.91 
  1882.33,1358.96 1882.74,1359.02 1883.14,1359.1 1883.55,1359.29 1883.96,1359.35 1884.36,1359.46 1884.77,1359.56 1885.17,1359.81 1885.58,1359.92 1885.98,1359.97 
  1886.38,1360.05 1886.78,1360.15 1887.18,1360.18 1887.58,1360.21 1887.98,1360.23 1888.38,1360.33 1888.78,1360.44 1889.18,1360.46 1889.58,1360.5 1889.97,1360.62 
  1890.37,1361.05 1890.76,1361.4 1891.16,1361.97 1891.55,1362.37 1891.95,1362.5 1892.34,1362.85 1892.73,1363.13 1893.12,1363.73 1893.51,1363.85 1893.9,1364.03 
  1894.29,1364.13 1894.68,1364.35 1895.07,1364.48 1895.46,1364.69 1895.85,1365.22 1896.23,1365.3 1896.62,1365.67 1897,1366.39 1897.39,1366.92 1897.77,1367.18 
  1898.16,1367.41 1898.54,1367.56 1898.92,1367.76 1899.3,1367.82 1899.68,1367.89 1900.06,1367.93 1900.44,1367.95 1900.82,1367.96 1901.2,1367.97 1901.58,1367.97 
  1901.96,1368.01 1902.34,1368.02 1902.71,1368.03 1903.09,1368.04 1903.46,1368.04 1903.84,1368.05 1904.21,1368.05 1904.59,1368.06 1904.96,1368.07 1905.33,1368.09 
  1905.7,1368.15 1906.07,1368.23 1906.45,1368.23 1906.82,1368.25 1907.19,1368.26 1907.55,1368.26 1907.92,1368.27 1908.29,1368.27 1908.66,1368.28 1909.03,1368.28 
  1909.39,1368.29 1909.76,1368.31 1910.12,1368.39 1910.49,1368.41 1910.85,1368.43 1911.22,1368.43 1911.58,1368.46 1911.94,1368.48 1912.3,1368.51 1912.66,1368.53 
  1913.03,1368.54 1913.39,1368.57 1913.75,1368.59 1914.11,1368.64 1914.46,1368.7 1914.82,1368.72 1915.18,1368.76 1915.54,1368.77 1915.89,1368.79 1916.25,1368.82 
  1916.61,1368.84 1916.96,1368.86 1917.32,1368.88 1917.67,1368.89 1918.02,1368.9 1918.38,1368.9 1918.73,1368.91 1919.08,1368.91 1919.43,1368.92 1919.79,1368.92 
  1920.14,1368.92 1920.49,1368.92 1920.84,1368.93 1921.18,1368.93 1921.53,1368.93 1921.88,1368.93 1922.23,1368.93 1922.58,1368.93 1922.92,1368.93 1923.27,1368.93 
  1923.62,1368.93 1923.96,1368.93 1924.31,1368.93 1924.65,1368.93 1924.99,1368.93 1925.34,1368.94 1925.68,1368.94 1926.02,1368.97 1926.36,1368.98 1926.71,1369.01 
  1927.05,1369.1 1927.39,1369.12 1927.73,1369.17 1928.07,1369.23 1928.41,1369.25 1928.74,1369.26 1929.08,1369.3 1929.42,1369.31 1929.76,1369.31 1930.09,1369.31 
  1930.43,1369.31 1930.77,1369.32 1931.1,1369.33 1931.44,1369.33 1931.77,1369.34 1932.1,1369.34 1932.44,1369.34 1932.77,1369.35 1933.1,1369.36 1933.44,1369.36 
  1933.77,1369.37 1934.1,1369.38 1934.43,1369.39 1934.76,1369.42 1935.09,1369.42 1935.42,1369.45 1935.75,1369.46 1936.08,1369.48 1936.4,1369.48 1936.73,1369.48 
  1937.06,1369.48 1937.39,1369.48 1937.71,1369.48 1938.04,1369.48 1938.36,1369.49 1938.69,1369.5 1939.01,1369.51 1939.34,1369.51 1939.66,1369.52 1939.99,1369.52 
  1940.31,1369.52 1940.63,1369.52 1940.95,1369.52 1941.28,1369.52 1941.6,1369.52 1941.92,1369.52 1942.24,1369.52 1942.56,1369.52 1942.88,1369.53 1943.2,1369.54 
  1943.52,1369.54 1943.83,1369.54 1944.15,1369.55 1944.47,1369.55 1944.79,1369.55 1945.1,1369.55 1945.42,1369.55 1945.74,1369.55 1946.05,1369.55 1946.37,1369.56 
  1946.68,1369.56 1947,1369.56 1947.31,1369.56 1947.62,1369.58 1947.94,1369.58 1948.25,1369.59 1948.56,1369.59 1948.87,1369.6 1949.19,1369.6 1949.5,1369.6 
  1949.81,1369.6 1950.12,1369.6 1950.43,1369.6 1950.74,1369.6 1951.05,1369.61 1951.35,1369.61 1951.66,1369.62 1951.97,1369.62 1952.28,1369.62 1952.59,1369.62 
  1952.89,1369.62 1953.2,1369.62 1953.51,1369.62 1953.81,1369.62 1954.12,1369.63 1954.42,1369.63 1954.73,1369.63 1955.03,1369.63 1955.33,1369.64 1955.64,1369.64 
  1955.94,1369.64 1956.24,1369.64 1956.55,1369.64 1956.85,1369.64 1957.15,1369.64 1957.45,1369.64 1957.75,1369.64 1958.05,1369.64 1958.35,1369.65 1958.65,1369.65 
  1958.95,1369.65 1959.25,1369.65 1959.55,1369.65 1959.85,1369.65 1960.15,1369.65 1960.44,1369.65 1960.74,1369.65 1961.04,1369.65 1961.33,1369.65 1961.63,1369.65 
  1961.93,1369.65 1962.22,1369.65 1962.52,1369.65 1962.81,1369.65 1963.1,1369.65 1963.4,1369.65 1963.69,1369.65 1963.99,1369.65 1964.28,1369.65 1964.57,1369.65 
  1964.86,1369.65 1965.16,1369.65 1965.45,1369.65 1965.74,1369.65 1966.03,1369.65 1966.32,1369.65 1966.61,1369.65 1966.9,1369.65 1967.19,1369.65 1967.48,1369.65 
  1967.77,1369.65 1968.06,1369.65 1968.34,1369.65 1968.63,1369.65 1968.92,1369.65 1969.21,1369.66 1969.49,1369.66 1969.78,1369.66 1970.07,1369.67 1970.35,1369.67 
  1970.64,1369.68 1970.92,1369.69 1971.21,1369.71 1971.49,1369.71 1971.78,1369.73 1972.06,1369.74 1972.34,1369.74 1972.63,1369.75 1972.91,1369.75 1973.19,1369.75 
  1973.47,1369.75 1973.76,1369.75 1974.04,1369.75 1974.32,1369.76 1974.6,1369.76 1974.88,1369.77 1975.16,1369.77 1975.44,1369.78 1975.72,1369.79 1976,1369.79 
  1976.28,1369.8 1976.56,1369.81 1976.83,1369.81 1977.11,1369.82 1977.39,1369.82 1977.67,1369.82 1977.94,1369.82 1978.22,1369.83 1978.5,1369.83 1978.77,1369.83 
  1979.05,1369.83 1979.33,1369.83 1979.6,1369.83 1979.88,1369.83 1980.15,1369.84 1980.42,1369.84 1980.7,1369.84 1980.97,1369.84 1981.25,1369.84 1981.52,1369.84 
  1981.79,1369.84 1982.06,1369.84 1982.34,1369.84 1982.61,1369.84 1982.88,1369.84 1983.15,1369.84 1983.42,1369.85 1983.69,1369.86 1983.96,1369.87 1984.23,1369.87 
  1984.5,1369.92 1984.77,1369.92 1985.04,1369.93 1985.31,1369.93 1985.58,1369.93 1985.85,1369.93 1986.12,1369.93 1986.38,1369.93 1986.65,1369.93 1986.92,1369.93 
  1987.18,1369.93 1987.45,1369.93 1987.72,1369.93 1987.98,1369.94 1988.25,1369.94 1988.51,1369.94 1988.78,1369.95 1989.04,1369.95 1989.31,1369.95 1989.57,1369.96 
  1989.84,1369.96 1990.1,1369.97 1990.36,1369.97 1990.63,1369.98 1990.89,1370.01 1991.15,1370.02 1991.42,1370.02 1991.68,1370.03 1991.94,1370.03 1992.2,1370.04 
  1992.46,1370.05 1992.72,1370.05 1992.98,1370.06 1993.24,1370.06 1993.5,1370.06 1993.76,1370.07 1994.02,1370.08 1994.28,1370.08 1994.54,1370.1 1994.8,1370.1 
  1995.06,1370.11 1995.32,1370.11 1995.57,1370.12 1995.83,1370.12 1996.09,1370.12 1996.35,1370.13 1996.6,1370.14 1996.86,1370.14 1997.12,1370.15 1997.37,1370.15 
  1997.63,1370.15 1997.88,1370.16 1998.14,1370.16 1998.39,1370.17 1998.65,1370.17 1998.9,1370.18 1999.16,1370.18 1999.41,1370.19 1999.66,1370.19 1999.92,1370.2 
  2000.17,1370.2 2000.42,1370.2 2000.68,1370.2 2000.93,1370.21 2001.18,1370.21 2001.43,1370.21 2001.68,1370.22 2001.94,1370.22 2002.19,1370.22 2002.44,1370.22 
  2002.69,1370.23 2002.94,1370.23 2003.19,1370.23 2003.44,1370.24 2003.69,1370.24 2003.94,1370.24 2004.19,1370.24 2004.43,1370.24 2004.68,1370.24 2004.93,1370.24 
  2005.18,1370.24 2005.43,1370.24 2005.67,1370.24 2005.92,1370.25 2006.17,1370.25 2006.42,1370.25 2006.66,1370.25 2006.91,1370.25 2007.15,1370.25 2007.4,1370.25 
  2007.65,1370.25 2007.89,1370.25 2008.14,1370.25 2008.38,1370.25 2008.63,1370.25 2008.87,1370.25 2009.11,1370.25 2009.36,1370.25 2009.6,1370.25 2009.84,1370.25 
  2010.09,1370.25 2010.33,1370.25 2010.57,1370.26 2010.82,1370.26 2011.06,1370.27 2011.3,1370.27 2011.54,1370.28 2011.78,1370.28 2012.02,1370.28 2012.26,1370.29 
  2012.51,1370.29 2012.75,1370.29 2012.99,1370.29 2013.23,1370.29 2013.47,1370.29 2013.71,1370.29 2013.94,1370.29 2014.18,1370.29 2014.42,1370.29 2014.66,1370.3 
  2014.9,1370.3 2015.14,1370.3 2015.38,1370.3 2015.61,1370.3 2015.85,1370.3 2016.09,1370.3 2016.32,1370.3 2016.56,1370.3 2016.8,1370.3 2017.03,1370.3 
  2017.27,1370.3 2017.51,1370.3 2017.74,1370.3 2017.98,1370.3 2018.21,1370.3 2018.45,1370.3 2018.68,1370.3 2018.92,1370.3 2019.15,1370.3 2019.39,1370.31 
  2019.62,1370.31 2019.85,1370.31 2020.09,1370.31 2020.32,1370.31 2020.55,1370.31 2020.78,1370.31 2021.02,1370.31 2021.25,1370.31 2021.48,1370.31 2021.71,1370.31 
  2021.95,1370.31 2022.18,1370.31 2022.41,1370.31 2022.64,1370.31 2022.87,1370.31 2023.1,1370.31 2023.33,1370.31 2023.56,1370.31 2023.79,1370.31 2024.02,1370.31 
  2024.25,1370.31 2024.48,1370.31 2024.71,1370.31 2024.94,1370.31 2025.17,1370.31 2025.39,1370.31 2025.62,1370.31 2025.85,1370.31 2026.08,1370.31 2026.31,1370.31 
  2026.53,1370.31 2026.76,1370.31 2026.99,1370.31 2027.21,1370.31 2027.44,1370.31 2027.67,1370.31 2027.89,1370.31 2028.12,1370.32 2028.34,1370.32 2028.57,1370.32 
  2028.79,1370.32 2029.02,1370.32 2029.24,1370.32 2029.47,1370.32 2029.69,1370.32 2029.92,1370.32 2030.14,1370.32 2030.37,1370.33 2030.59,1370.33 2030.81,1370.33 
  2031.04,1370.34 2031.26,1370.34 2031.48,1370.35 2031.7,1370.36 2031.93,1370.37 2032.15,1370.37 2032.37,1370.38 2032.59,1370.38 2032.81,1370.38 2033.04,1370.39 
  2033.26,1370.39 2033.48,1370.39 2033.7,1370.39 2033.92,1370.4 2034.14,1370.4 2034.36,1370.4 2034.58,1370.4 2034.8,1370.4 2035.02,1370.41 2035.24,1370.41 
  2035.46,1370.42 2035.68,1370.43 2035.9,1370.43 2036.11,1370.45 2036.33,1370.46 2036.55,1370.47 2036.77,1370.48 2036.99,1370.5 2037.2,1370.52 2037.42,1370.53 
  2037.64,1370.55 2037.86,1370.56 2038.07,1370.57 2038.29,1370.6 2038.51,1370.61 2038.72,1370.64 2038.94,1370.66 2039.15,1370.7 2039.37,1370.71 2039.59,1370.73 
  2039.8,1370.74 2040.02,1370.75 2040.23,1370.78 2040.45,1370.79 2040.66,1370.83 2040.88,1370.84 2041.09,1370.84 2041.3,1370.85 2041.52,1370.87 2041.73,1370.88 
  2041.95,1370.91 2042.16,1370.92 2042.37,1370.93 2042.58,1370.93 2042.8,1370.95 2043.01,1370.95 2043.22,1370.96 2043.43,1370.97 2043.65,1370.97 2043.86,1370.98 
  2044.07,1370.99 2044.28,1370.99 2044.49,1371 2044.7,1371.01 2044.92,1371.01 2045.13,1371.01 2045.34,1371.02 2045.55,1371.02 2045.76,1371.03 2045.97,1371.03 
  2046.18,1371.03 2046.39,1371.04 2046.6,1371.05 2046.81,1371.06 2047.01,1371.06 2047.22,1371.07 2047.43,1371.07 2047.64,1371.08 2047.85,1371.09 2048.06,1371.09 
  2048.27,1371.1 2048.47,1371.1 2048.68,1371.11 2048.89,1371.11 2049.1,1371.12 2049.3,1371.12 2049.51,1371.13 2049.72,1371.13 2049.92,1371.13 2050.13,1371.14 
  2050.34,1371.14 2050.54,1371.15 2050.75,1371.15 2050.95,1371.15 2051.16,1371.16 2051.37,1371.16 2051.57,1371.16 2051.78,1371.16 2051.98,1371.17 2052.19,1371.17 
  2052.39,1371.17 2052.6,1371.17 2052.8,1371.17 2053,1371.17 2053.21,1371.17 2053.41,1371.17 2053.61,1371.17 2053.82,1371.17 2054.02,1371.17 2054.22,1371.17 
  2054.43,1371.17 2054.63,1371.17 2054.83,1371.17 2055.04,1371.17 2055.24,1371.18 2055.44,1371.18 2055.64,1371.18 2055.84,1371.18 2056.05,1371.19 2056.25,1371.19 
  2056.45,1371.19 2056.65,1371.19 2056.85,1371.19 2057.05,1371.19 2057.25,1371.19 2057.45,1371.19 2057.65,1371.19 2057.85,1371.19 2058.05,1371.19 2058.25,1371.19 
  2058.45,1371.19 2058.65,1371.19 2058.85,1371.19 2059.05,1371.19 2059.25,1371.19 2059.45,1371.19 2059.65,1371.19 2059.84,1371.19 2060.04,1371.19 2060.24,1371.19 
  2060.44,1371.2 2060.64,1371.2 2060.83,1371.21 2061.03,1371.22 2061.23,1371.24 2061.43,1371.24 2061.62,1371.25 2061.82,1371.27 2062.02,1371.28 2062.21,1371.28 
  2062.41,1371.3 2062.61,1371.31 2062.8,1371.32 2063,1371.33 2063.19,1371.35 2063.39,1371.36 2063.59,1371.36 2063.78,1371.37 2063.98,1371.38 2064.17,1371.39 
  2064.37,1371.39 2064.56,1371.4 2064.76,1371.41 2064.95,1371.41 2065.14,1371.41 2065.34,1371.41 2065.53,1371.42 2065.73,1371.42 2065.92,1371.42 2066.11,1371.42 
  2066.31,1371.43 2066.5,1371.43 2066.69,1371.43 2066.89,1371.43 2067.08,1371.43 2067.27,1371.43 2067.46,1371.43 2067.66,1371.43 2067.85,1371.43 2068.04,1371.43 
  2068.23,1371.43 2068.42,1371.43 2068.61,1371.43 2068.81,1371.43 2069,1371.43 2069.19,1371.43 2069.38,1371.43 2069.57,1371.44 2069.76,1371.44 2069.95,1371.44 
  2070.14,1371.45 2070.33,1371.46 2070.52,1371.46 2070.71,1371.47 2070.9,1371.47 2071.09,1371.47 2071.28,1371.47 2071.47,1371.48 2071.66,1371.48 2071.85,1371.48 
  2072.04,1371.48 2072.23,1371.48 2072.41,1371.48 2072.6,1371.48 2072.79,1371.48 2072.98,1371.48 2073.17,1371.48 2073.36,1371.49 2073.54,1371.49 2073.73,1371.49 
  2073.92,1371.49 2074.11,1371.49 2074.29,1371.5 2074.48,1371.5 2074.67,1371.5 2074.85,1371.5 2075.04,1371.5 2075.23,1371.5 2075.41,1371.51 2075.6,1371.51 
  2075.78,1371.51 2075.97,1371.52 2076.16,1371.52 2076.34,1371.52 2076.53,1371.52 2076.71,1371.52 2076.9,1371.53 2077.08,1371.53 2077.27,1371.53 2077.45,1371.53 
  2077.64,1371.53 2077.82,1371.53 2078.01,1371.53 2078.19,1371.53 2078.37,1371.53 2078.56,1371.53 2078.74,1371.53 2078.93,1371.53 2079.11,1371.53 2079.29,1371.53 
  2079.48,1371.53 2079.66,1371.53 2079.84,1371.53 2080.02,1371.53 2080.21,1371.54 2080.39,1371.54 2080.57,1371.55 2080.75,1371.55 2080.94,1371.56 2081.12,1371.56 
  2081.3,1371.57 2081.48,1371.57 2081.66,1371.57 2081.85,1371.57 2082.03,1371.57 2082.21,1371.58 2082.39,1371.58 2082.57,1371.58 2082.75,1371.58 2082.93,1371.58 
  2083.11,1371.58 2083.29,1371.58 2083.47,1371.58 2083.65,1371.58 2083.83,1371.58 2084.01,1371.58 2084.19,1371.58 2084.37,1371.58 2084.55,1371.59 2084.73,1371.59 
  2084.91,1371.59 2085.09,1371.6 2085.27,1371.6 2085.45,1371.6 2085.63,1371.61 2085.8,1371.61 2085.98,1371.61 2086.16,1371.61 2086.34,1371.61 2086.52,1371.61 
  2086.7,1371.61 2086.87,1371.62 2087.05,1371.62 2087.23,1371.62 2087.41,1371.62 2087.58,1371.62 2087.76,1371.62 2087.94,1371.62 2088.11,1371.62 2088.29,1371.62 
  2088.47,1371.62 2088.64,1371.62 2088.82,1371.62 2089,1371.62 2089.17,1371.62 2089.35,1371.62 2089.53,1371.62 2089.7,1371.63 2089.88,1371.63 2090.05,1371.63 
  2090.23,1371.64 2090.4,1371.64 2090.58,1371.64 2090.75,1371.64 2090.93,1371.64 2091.1,1371.64 2091.28,1371.64 2091.45,1371.64 2091.63,1371.64 2091.8,1371.64 
  2091.97,1371.64 2092.15,1371.64 2092.32,1371.65 2092.5,1371.65 2092.67,1371.65 2092.84,1371.65 2093.02,1371.65 2093.19,1371.65 2093.36,1371.65 2093.54,1371.65 
  2093.71,1371.65 2093.88,1371.65 2094.06,1371.65 2094.23,1371.65 2094.4,1371.65 2094.57,1371.65 2094.74,1371.65 2094.92,1371.65 2095.09,1371.65 2095.26,1371.65 
  2095.43,1371.65 2095.6,1371.65 2095.78,1371.65 2095.95,1371.65 2096.12,1371.65 2096.29,1371.65 2096.46,1371.65 2096.63,1371.65 2096.8,1371.66 2096.97,1371.66 
  2097.14,1371.66 2097.31,1371.66 2097.48,1371.66 2097.65,1371.67 2097.82,1371.67 2097.99,1371.68 2098.16,1371.68 2098.33,1371.68 2098.5,1371.68 2098.67,1371.68 
  2098.84,1371.68 2099.01,1371.68 2099.18,1371.68 2099.35,1371.68 2099.52,1371.69 2099.69,1371.69 2099.86,1371.69 2100.02,1371.69 2100.19,1371.69 2100.36,1371.69 
  2100.53,1371.69 2100.7,1371.69 2100.86,1371.69 2101.03,1371.69 2101.2,1371.69 2101.37,1371.69 2101.54,1371.69 2101.7,1371.69 2101.87,1371.69 2102.04,1371.69 
  2102.2,1371.69 2102.37,1371.69 2102.54,1371.69 2102.7,1371.69 2102.87,1371.69 2103.04,1371.69 2103.2,1371.69 2103.37,1371.7 2103.54,1371.7 2103.7,1371.7 
  2103.87,1371.7 2104.03,1371.7 2104.2,1371.7 2104.37,1371.7 2104.53,1371.7 2104.7,1371.7 2104.86,1371.7 2105.03,1371.7 2105.19,1371.7 2105.36,1371.7 
  2105.52,1371.7 2105.69,1371.7 2105.85,1371.7 2106.02,1371.7 2106.18,1371.7 2106.34,1371.7 2106.51,1371.7 2106.67,1371.7 2106.84,1371.7 2107,1371.7 
  2107.16,1371.7 2107.33,1371.7 2107.49,1371.7 2107.65,1371.7 2107.82,1371.7 2107.98,1371.7 2108.14,1371.7 2108.31,1371.7 2108.47,1371.7 2108.63,1371.7 
  2108.79,1371.7 2108.96,1371.7 2109.12,1371.7 2109.28,1371.7 2109.44,1371.7 2109.61,1371.7 2109.77,1371.7 2109.93,1371.7 2110.09,1371.7 2110.25,1371.7 
  2110.42,1371.7 2110.58,1371.7 2110.74,1371.7 2110.9,1371.7 2111.06,1371.7 2111.22,1371.7 2111.38,1371.7 2111.54,1371.7 2111.7,1371.7 2111.86,1371.7 
  2112.02,1371.7 2112.19,1371.7 2112.35,1371.71 2112.51,1371.71 2112.67,1371.71 2112.83,1371.71 2112.99,1371.71 2113.15,1371.71 2113.31,1371.71 2113.46,1371.71 
  2113.62,1371.72 2113.78,1371.72 2113.94,1371.72 2114.1,1371.72 2114.26,1371.73 2114.42,1371.73 2114.58,1371.73 2114.74,1371.74 2114.9,1371.75 2115.05,1371.76 
  2115.21,1371.76 2115.37,1371.77 2115.53,1371.77 2115.69,1371.77 2115.85,1371.77 2116,1371.77 2116.16,1371.78 2116.32,1371.78 2116.48,1371.78 2116.63,1371.78 
  2116.79,1371.78 2116.95,1371.78 2117.11,1371.78 2117.26,1371.78 2117.42,1371.78 2117.58,1371.78 2117.73,1371.78 2117.89,1371.79 2118.05,1371.79 2118.2,1371.8 
  2118.36,1371.8 2118.52,1371.8 2118.67,1371.81 2118.83,1371.82 2118.99,1371.83 2119.14,1371.83 2119.3,1371.83 2119.45,1371.83 2119.61,1371.84 2119.76,1371.84 
  2119.92,1371.84 2120.07,1371.85 2120.23,1371.85 2120.38,1371.85 2120.54,1371.85 2120.69,1371.85 2120.85,1371.85 2121,1371.85 2121.16,1371.85 2121.31,1371.85 
  2121.47,1371.85 2121.62,1371.85 2121.78,1371.85 2121.93,1371.85 2122.08,1371.85 2122.24,1371.86 2122.39,1371.86 2122.55,1371.86 2122.7,1371.86 2122.85,1371.86 
  2123.01,1371.86 2123.16,1371.86 2123.31,1371.86 2123.47,1371.86 2123.62,1371.87 2123.77,1371.87 2123.93,1371.87 2124.08,1371.87 2124.23,1371.87 2124.38,1371.88 
  2124.54,1371.88 2124.69,1371.89 2124.84,1371.89 2124.99,1371.89 2125.15,1371.9 2125.3,1371.9 2125.45,1371.91 2125.6,1371.91 2125.75,1371.91 2125.91,1371.92 
  2126.06,1371.92 2126.21,1371.92 2126.36,1371.92 2126.51,1371.92 2126.66,1371.92 2126.81,1371.92 2126.96,1371.92 2127.12,1371.92 2127.27,1371.92 2127.42,1371.92 
  2127.57,1371.92 2127.72,1371.92 2127.87,1371.92 2128.02,1371.93 2128.17,1371.93 2128.32,1371.93 2128.47,1371.93 2128.62,1371.93 2128.77,1371.93 2128.92,1371.93 
  2129.07,1371.93 2129.22,1371.93 2129.37,1371.93 2129.52,1371.93 2129.67,1371.93 2129.82,1371.93 2129.97,1371.93 2130.11,1371.94 2130.26,1371.94 2130.41,1371.94 
  2130.56,1371.94 2130.71,1371.94 2130.86,1371.94 2131.01,1371.94 2131.16,1371.94 2131.3,1371.94 2131.45,1371.94 2131.6,1371.94 2131.75,1371.94 2131.9,1371.94 
  2132.04,1371.94 2132.19,1371.94 2132.34,1371.94 2132.49,1371.94 2132.64,1371.94 2132.78,1371.94 2132.93,1371.94 2133.08,1371.95 2133.22,1371.95 2133.37,1371.95 
  2133.52,1371.95 2133.67,1371.95 2133.81,1371.95 2133.96,1371.95 2134.11,1371.95 2134.25,1371.95 2134.4,1371.95 2134.55,1371.95 2134.69,1371.95 2134.84,1371.95 
  2134.98,1371.95 2135.13,1371.95 2135.28,1371.95 2135.42,1371.95 2135.57,1371.95 2135.71,1371.95 2135.86,1371.95 2136.01,1371.96 2136.15,1371.96 2136.3,1371.96 
  2136.44,1371.96 2136.59,1371.96 2136.73,1371.96 2136.88,1371.97 2137.02,1371.97 2137.17,1371.97 2137.31,1371.97 2137.46,1371.97 2137.6,1371.97 2137.75,1371.97 
  2137.89,1371.98 2138.03,1371.98 2138.18,1371.98 2138.32,1371.98 2138.47,1371.98 2138.61,1371.98 2138.75,1371.98 2138.9,1371.98 2139.04,1371.98 2139.19,1371.98 
  2139.33,1371.98 2139.47,1371.98 2139.62,1371.98 2139.76,1371.98 2139.9,1371.98 2140.05,1371.98 2140.19,1371.98 2140.33,1371.98 2140.48,1371.98 2140.62,1371.98 
  2140.76,1371.98 2140.9,1371.98 2141.05,1371.98 2141.19,1371.98 2141.33,1371.98 2141.47,1371.98 2141.62,1371.98 2141.76,1371.98 2141.9,1371.98 2142.04,1371.98 
  2142.18,1371.98 2142.33,1371.98 2142.47,1371.98 2142.61,1371.98 2142.75,1371.98 2142.89,1371.98 2143.03,1371.98 2143.18,1371.98 2143.32,1371.98 2143.46,1371.98 
  2143.6,1371.98 2143.74,1371.98 2143.88,1371.98 2144.02,1371.98 2144.16,1371.98 2144.3,1371.98 2144.44,1371.98 2144.59,1371.98 2144.73,1371.98 2144.87,1371.98 
  2145.01,1371.98 2145.15,1371.98 2145.29,1371.98 2145.43,1371.98 2145.57,1371.98 2145.71,1371.98 2145.85,1371.98 2145.99,1371.98 2146.13,1371.98 2146.27,1371.98 
  2146.41,1371.99 2146.54,1371.99 2146.68,1371.99 2146.82,1371.99 2146.96,1371.99 2147.1,1371.99 2147.24,1371.99 2147.38,1371.99 2147.52,1371.99 2147.66,1371.99 
  2147.8,1371.99 2147.94,1371.99 2148.07,1371.99 2148.21,1371.99 2148.35,1371.99 2148.49,1371.99 2148.63,1371.99 2148.77,1371.99 2148.9,1372 2149.04,1372 
  2149.18,1372 2149.32,1372 2149.46,1372 2149.59,1372 2149.73,1372 2149.87,1372 2150.01,1372 2150.14,1372 2150.28,1372 2150.42,1372 
  2150.55,1372 2150.69,1372 2150.83,1372 2150.97,1372 2151.1,1372 2151.24,1372 2151.38,1372 2151.51,1372 2151.65,1372 2151.79,1372 
  2151.92,1372 2152.06,1372 2152.2,1372 2152.33,1372 2152.47,1372 2152.6,1372 2152.74,1372 2152.88,1372 2153.01,1372.01 2153.15,1372.01 
  2153.28,1372.01 2153.42,1372.01 2153.55,1372.01 2153.69,1372.01 2153.82,1372.01 2153.96,1372.01 2154.1,1372.01 2154.23,1372.01 2154.37,1372.01 2154.5,1372.01 
  2154.64,1372.01 2154.77,1372.01 2154.91,1372.01 2155.04,1372.01 2155.17,1372.01 2155.31,1372.01 2155.44,1372.01 2155.58,1372.01 2155.71,1372.01 2155.85,1372.01 
  2155.98,1372.01 2156.11,1372.01 2156.25,1372.01 2156.38,1372.01 2156.52,1372.01 2156.65,1372.01 2156.78,1372.01 2156.92,1372.02 2157.05,1372.02 2157.19,1372.02 
  2157.32,1372.02 2157.45,1372.02 2157.59,1372.02 2157.72,1372.02 2157.85,1372.02 2157.98,1372.02 2158.12,1372.02 2158.25,1372.02 2158.38,1372.02 2158.52,1372.02 
  2158.65,1372.02 2158.78,1372.02 2158.91,1372.02 2159.05,1372.02 2159.18,1372.02 2159.31,1372.02 2159.44,1372.02 2159.58,1372.02 2159.71,1372.02 2159.84,1372.02 
  2159.97,1372.02 2160.1,1372.02 2160.24,1372.02 2160.37,1372.02 2160.5,1372.02 2160.63,1372.02 2160.76,1372.02 2160.9,1372.02 2161.03,1372.02 2161.16,1372.02 
  2161.29,1372.02 2161.42,1372.02 2161.55,1372.02 2161.68,1372.02 2161.81,1372.02 2161.94,1372.02 2162.08,1372.02 2162.21,1372.02 2162.34,1372.02 2162.47,1372.02 
  2162.6,1372.02 2162.73,1372.02 2162.86,1372.02 2162.99,1372.02 2163.12,1372.02 2163.25,1372.02 2163.38,1372.02 2163.51,1372.02 2163.64,1372.02 2163.77,1372.03 
  2163.9,1372.03 2164.03,1372.03 2164.16,1372.03 2164.29,1372.03 2164.42,1372.03 2164.55,1372.03 2164.68,1372.03 2164.81,1372.03 2164.94,1372.03 2165.07,1372.03 
  2165.2,1372.03 2165.33,1372.03 2165.45,1372.04 2165.58,1372.04 2165.71,1372.04 2165.84,1372.04 2165.97,1372.04 2166.1,1372.04 2166.23,1372.04 2166.36,1372.04 
  2166.49,1372.04 2166.61,1372.04 2166.74,1372.04 2166.87,1372.04 2167,1372.04 2167.13,1372.04 2167.26,1372.04 2167.38,1372.04 2167.51,1372.04 2167.64,1372.04 
  2167.77,1372.04 2167.9,1372.04 2168.02,1372.04 2168.15,1372.04 2168.28,1372.04 2168.41,1372.04 2168.53,1372.04 2168.66,1372.04 2168.79,1372.04 2168.92,1372.04 
  2169.04,1372.04 2169.17,1372.04 2169.3,1372.04 2169.42,1372.04 2169.55,1372.04 2169.68,1372.04 2169.81,1372.04 2169.93,1372.04 2170.06,1372.04 2170.19,1372.04 
  2170.31,1372.04 2170.44,1372.04 2170.56,1372.04 2170.69,1372.04 2170.82,1372.04 2170.94,1372.04 2171.07,1372.04 2171.2,1372.05 2171.32,1372.05 2171.45,1372.05 
  2171.57,1372.05 2171.7,1372.05 2171.83,1372.05 2171.95,1372.05 2172.08,1372.05 2172.2,1372.05 2172.33,1372.05 2172.45,1372.05 2172.58,1372.05 2172.7,1372.05 
  2172.83,1372.05 2172.96,1372.05 2173.08,1372.05 2173.21,1372.05 2173.33,1372.05 2173.46,1372.05 2173.58,1372.05 2173.71,1372.05 2173.83,1372.05 2173.95,1372.05 
  2174.08,1372.05 2174.2,1372.05 2174.33,1372.05 2174.45,1372.05 2174.58,1372.05 2174.7,1372.05 2174.83,1372.05 2174.95,1372.05 2175.07,1372.05 2175.2,1372.05 
  2175.32,1372.05 2175.45,1372.05 2175.57,1372.05 2175.69,1372.05 2175.82,1372.05 2175.94,1372.05 2176.07,1372.05 2176.19,1372.05 2176.31,1372.05 2176.44,1372.05 
  2176.56,1372.05 2176.68,1372.05 2176.81,1372.05 2176.93,1372.05 2177.05,1372.05 2177.18,1372.05 2177.3,1372.06 2177.42,1372.06 2177.54,1372.06 2177.67,1372.06 
  2177.79,1372.06 2177.91,1372.06 2178.04,1372.06 2178.16,1372.06 2178.28,1372.06 2178.4,1372.06 2178.53,1372.06 2178.65,1372.06 2178.77,1372.06 2178.89,1372.06 
  2179.01,1372.06 2179.14,1372.06 2179.26,1372.06 2179.38,1372.06 2179.5,1372.06 2179.62,1372.06 2179.75,1372.06 2179.87,1372.06 2179.99,1372.06 2180.11,1372.06 
  2180.23,1372.06 2180.35,1372.06 2180.48,1372.06 2180.6,1372.06 2180.72,1372.06 2180.84,1372.06 2180.96,1372.06 2181.08,1372.06 2181.2,1372.06 2181.32,1372.06 
  2181.45,1372.06 2181.57,1372.06 2181.69,1372.06 2181.81,1372.07 2181.93,1372.07 2182.05,1372.07 2182.17,1372.07 2182.29,1372.07 2182.41,1372.07 2182.53,1372.07 
  2182.65,1372.07 2182.77,1372.07 2182.89,1372.07 2183.01,1372.07 2183.13,1372.08 2183.25,1372.08 2183.37,1372.08 2183.49,1372.08 2183.61,1372.08 2183.73,1372.08 
  2183.85,1372.09 2183.97,1372.09 2184.09,1372.09 2184.21,1372.09 2184.33,1372.09 2184.45,1372.09 2184.57,1372.09 2184.69,1372.09 2184.81,1372.09 2184.93,1372.1 
  2185.05,1372.1 2185.17,1372.1 2185.29,1372.1 2185.4,1372.1 2185.52,1372.1 2185.64,1372.1 2185.76,1372.1 2185.88,1372.1 2186,1372.1 2186.12,1372.1 
  2186.24,1372.1 2186.36,1372.11 2186.47,1372.11 2186.59,1372.11 2186.71,1372.11 2186.83,1372.11 2186.95,1372.11 2187.07,1372.11 2187.18,1372.11 2187.3,1372.11 
  2187.42,1372.11 2187.54,1372.11 2187.66,1372.11 2187.77,1372.11 2187.89,1372.11 2188.01,1372.12 2188.13,1372.12 2188.24,1372.12 2188.36,1372.12 2188.48,1372.12 
  2188.6,1372.12 2188.71,1372.12 2188.83,1372.12 2188.95,1372.12 2189.07,1372.12 2189.18,1372.12 2189.3,1372.12 2189.42,1372.12 2189.54,1372.12 2189.65,1372.12 
  2189.77,1372.12 2189.89,1372.12 2190,1372.12 2190.12,1372.12 2190.24,1372.12 2190.35,1372.12 2190.47,1372.12 2190.59,1372.12 2190.7,1372.12 2190.82,1372.12 
  2190.94,1372.12 2191.05,1372.12 2191.17,1372.12 2191.28,1372.12 2191.4,1372.12 2191.52,1372.12 2191.63,1372.12 2191.75,1372.12 2191.86,1372.12 2191.98,1372.12 
  2192.1,1372.12 2192.21,1372.12 2192.33,1372.12 2192.44,1372.12 2192.56,1372.12 2192.67,1372.12 2192.79,1372.12 2192.91,1372.12 2193.02,1372.12 2193.14,1372.12 
  2193.25,1372.12 2193.37,1372.12 2193.48,1372.12 2193.6,1372.12 2193.71,1372.12 2193.83,1372.12 2193.94,1372.12 2194.06,1372.12 2194.17,1372.12 2194.29,1372.12 
  2194.4,1372.12 2194.52,1372.13 2194.63,1372.13 2194.75,1372.13 2194.86,1372.13 2194.97,1372.13 2195.09,1372.13 2195.2,1372.13 2195.32,1372.13 2195.43,1372.13 
  2195.55,1372.13 2195.66,1372.13 2195.77,1372.13 2195.89,1372.13 2196,1372.13 2196.12,1372.13 2196.23,1372.13 2196.34,1372.13 2196.46,1372.13 2196.57,1372.13 
  2196.69,1372.13 2196.8,1372.13 2196.91,1372.13 2197.03,1372.13 2197.14,1372.13 2197.25,1372.13 2197.37,1372.13 2197.48,1372.13 2197.59,1372.13 2197.71,1372.13 
  2197.82,1372.13 2197.93,1372.13 2198.05,1372.13 2198.16,1372.13 2198.27,1372.13 2198.39,1372.13 2198.5,1372.13 2198.61,1372.13 2198.72,1372.13 2198.84,1372.13 
  2198.95,1372.13 2199.06,1372.13 2199.17,1372.13 2199.29,1372.13 2199.4,1372.13 2199.51,1372.13 2199.62,1372.13 2199.74,1372.13 2199.85,1372.13 2199.96,1372.13 
  2200.07,1372.13 2200.18,1372.13 2200.3,1372.13 2200.41,1372.13 2200.52,1372.13 2200.63,1372.13 2200.74,1372.13 2200.86,1372.13 2200.97,1372.13 2201.08,1372.13 
  2201.19,1372.13 2201.3,1372.13 2201.41,1372.13 2201.53,1372.13 2201.64,1372.13 2201.75,1372.13 2201.86,1372.13 2201.97,1372.13 2202.08,1372.13 2202.19,1372.13 
  2202.3,1372.13 2202.42,1372.13 2202.53,1372.13 2202.64,1372.13 2202.75,1372.13 2202.86,1372.13 2202.97,1372.13 2203.08,1372.14 2203.19,1372.14 2203.3,1372.14 
  2203.41,1372.14 2203.52,1372.14 2203.63,1372.14 2203.74,1372.14 2203.86,1372.14 2203.97,1372.14 2204.08,1372.14 2204.19,1372.14 2204.3,1372.14 2204.41,1372.14 
  2204.52,1372.14 2204.63,1372.14 2204.74,1372.14 2204.85,1372.14 2204.96,1372.15 2205.07,1372.15 2205.18,1372.15 2205.29,1372.15 2205.4,1372.15 2205.51,1372.15 
  2205.62,1372.15 2205.73,1372.15 2205.83,1372.15 2205.94,1372.15 2206.05,1372.15 2206.16,1372.15 2206.27,1372.16 2206.38,1372.16 2206.49,1372.16 2206.6,1372.16 
  2206.71,1372.16 2206.82,1372.16 2206.93,1372.16 2207.04,1372.16 2207.15,1372.16 2207.25,1372.16 2207.36,1372.16 2207.47,1372.16 2207.58,1372.16 2207.69,1372.16 
  2207.8,1372.16 2207.91,1372.16 2208.02,1372.16 2208.12,1372.16 2208.23,1372.16 2208.34,1372.16 2208.45,1372.16 2208.56,1372.16 2208.67,1372.16 2208.77,1372.16 
  2208.88,1372.16 2208.99,1372.16 2209.1,1372.16 2209.21,1372.16 2209.31,1372.16 2209.42,1372.16 2209.53,1372.16 2209.64,1372.16 2209.75,1372.16 2209.85,1372.16 
  2209.96,1372.16 2210.07,1372.16 2210.18,1372.16 2210.28,1372.16 2210.39,1372.16 2210.5,1372.16 2210.61,1372.16 2210.71,1372.16 2210.82,1372.16 2210.93,1372.16 
  2211.04,1372.16 2211.14,1372.16 2211.25,1372.16 2211.36,1372.16 2211.46,1372.16 2211.57,1372.16 2211.68,1372.17 2211.79,1372.17 2211.89,1372.17 2212,1372.17 
  2212.11,1372.17 2212.21,1372.17 2212.32,1372.17 2212.43,1372.17 2212.53,1372.17 2212.64,1372.18 2212.75,1372.18 2212.85,1372.18 2212.96,1372.18 2213.06,1372.18 
  2213.17,1372.18 2213.28,1372.18 2213.38,1372.18 2213.49,1372.18 2213.6,1372.18 2213.7,1372.18 2213.81,1372.18 2213.91,1372.18 2214.02,1372.18 2214.13,1372.18 
  2214.23,1372.18 2214.34,1372.18 2214.44,1372.18 2214.55,1372.18 2214.65,1372.18 2214.76,1372.18 2214.87,1372.18 2214.97,1372.18 2215.08,1372.18 2215.18,1372.18 
  2215.29,1372.18 2215.39,1372.18 2215.5,1372.18 2215.6,1372.18 2215.71,1372.18 2215.81,1372.18 2215.92,1372.18 2216.02,1372.18 2216.13,1372.18 2216.23,1372.18 
  2216.34,1372.18 2216.44,1372.18 2216.55,1372.19 2216.65,1372.19 2216.76,1372.19 2216.86,1372.19 2216.97,1372.19 2217.07,1372.19 2217.18,1372.19 2217.28,1372.19 
  2217.39,1372.19 2217.49,1372.19 2217.6,1372.19 2217.7,1372.19 2217.8,1372.19 2217.91,1372.19 2218.01,1372.19 2218.12,1372.19 2218.22,1372.19 2218.32,1372.19 
  2218.43,1372.19 2218.53,1372.19 2218.64,1372.19 2218.74,1372.19 2218.84,1372.19 2218.95,1372.19 2219.05,1372.19 2219.16,1372.19 2219.26,1372.19 2219.36,1372.19 
  2219.47,1372.19 2219.57,1372.19 2219.67,1372.19 2219.78,1372.19 2219.88,1372.19 2219.98,1372.19 2220.09,1372.19 2220.19,1372.19 2220.29,1372.19 2220.4,1372.19 
  2220.5,1372.2 2220.6,1372.2 2220.71,1372.2 2220.81,1372.2 2220.91,1372.2 2221.02,1372.2 2221.12,1372.2 2221.22,1372.2 2221.33,1372.2 2221.43,1372.2 
  2221.53,1372.2 2221.63,1372.2 2221.74,1372.2 2221.84,1372.2 2221.94,1372.2 2222.04,1372.2 2222.15,1372.2 2222.25,1372.2 2222.35,1372.2 2222.45,1372.2 
  2222.56,1372.2 2222.66,1372.2 2222.76,1372.2 2222.86,1372.2 2222.96,1372.2 2223.07,1372.2 2223.17,1372.2 2223.27,1372.2 2223.37,1372.21 2223.47,1372.21 
  2223.58,1372.21 2223.68,1372.21 2223.78,1372.21 2223.88,1372.21 2223.98,1372.21 2224.09,1372.21 2224.19,1372.21 2224.29,1372.21 2224.39,1372.21 2224.49,1372.21 
  2224.59,1372.21 2224.69,1372.21 2224.8,1372.21 2224.9,1372.21 2225,1372.21 2225.1,1372.21 2225.2,1372.21 2225.3,1372.21 2225.4,1372.21 2225.5,1372.21 
  2225.61,1372.21 2225.71,1372.21 2225.81,1372.21 2225.91,1372.21 2226.01,1372.21 2226.11,1372.21 2226.21,1372.21 2226.31,1372.21 2226.41,1372.21 2226.51,1372.21 
  2226.61,1372.21 2226.72,1372.21 2226.82,1372.21 2226.92,1372.21 2227.02,1372.21 2227.12,1372.21 2227.22,1372.21 2227.32,1372.21 2227.42,1372.21 2227.52,1372.21 
  2227.62,1372.21 2227.72,1372.21 2227.82,1372.21 2227.92,1372.21 2228.02,1372.21 2228.12,1372.21 2228.22,1372.21 2228.32,1372.21 2228.42,1372.21 2228.52,1372.21 
  2228.62,1372.21 2228.72,1372.21 2228.82,1372.21 2228.92,1372.21 2229.02,1372.21 2229.12,1372.21 2229.22,1372.21 2229.32,1372.21 2229.42,1372.21 2229.52,1372.21 
  2229.62,1372.21 2229.71,1372.22 2229.81,1372.22 2229.91,1372.22 2230.01,1372.22 2230.11,1372.22 2230.21,1372.22 2230.31,1372.22 2230.41,1372.22 2230.51,1372.22 
  2230.61,1372.22 2230.71,1372.22 2230.81,1372.22 2230.9,1372.22 2231,1372.22 2231.1,1372.22 2231.2,1372.22 2231.3,1372.22 2231.4,1372.22 2231.5,1372.22 
  2231.6,1372.22 2231.69,1372.22 2231.79,1372.22 2231.89,1372.22 2231.99,1372.22 2232.09,1372.22 2232.19,1372.22 2232.28,1372.22 2232.38,1372.22 2232.48,1372.22 
  2232.58,1372.22 2232.68,1372.22 2232.78,1372.22 2232.87,1372.22 2232.97,1372.22 2233.07,1372.22 2233.17,1372.22 2233.27,1372.22 2233.36,1372.22 2233.46,1372.22 
  2233.56,1372.22 2233.66,1372.22 2233.76,1372.22 2233.85,1372.22 2233.95,1372.22 2234.05,1372.22 2234.15,1372.22 2234.24,1372.22 2234.34,1372.22 2234.44,1372.22 
  2234.54,1372.22 2234.63,1372.22 2234.73,1372.22 2234.83,1372.22 2234.93,1372.22 2235.02,1372.22 2235.12,1372.22 2235.22,1372.22 2235.31,1372.22 2235.41,1372.22 
  2235.51,1372.22 2235.61,1372.22 2235.7,1372.22 2235.8,1372.22 2235.9,1372.22 2235.99,1372.22 2236.09,1372.22 2236.19,1372.22 2236.28,1372.22 2236.38,1372.22 
  2236.48,1372.22 2236.57,1372.22 2236.67,1372.22 2236.77,1372.22 2236.86,1372.22 2236.96,1372.22 2237.06,1372.22 2237.15,1372.22 2237.25,1372.22 2237.35,1372.22 
  2237.44,1372.22 2237.54,1372.22 2237.63,1372.22 2237.73,1372.22 2237.83,1372.22 2237.92,1372.22 2238.02,1372.22 2238.11,1372.22 2238.21,1372.22 2238.31,1372.22 
  2238.4,1372.22 2238.5,1372.22 2238.59,1372.22 2238.69,1372.22 2238.79,1372.22 2238.88,1372.22 2238.98,1372.22 2239.07,1372.22 2239.17,1372.22 2239.26,1372.22 
  2239.36,1372.22 2239.46,1372.22 2239.55,1372.22 2239.65,1372.23 2239.74,1372.23 2239.84,1372.23 2239.93,1372.23 2240.03,1372.23 2240.12,1372.23 2240.22,1372.23 
  2240.31,1372.23 2240.41,1372.23 2240.5,1372.23 2240.6,1372.23 2240.69,1372.23 2240.79,1372.23 2240.88,1372.23 2240.98,1372.23 2241.07,1372.23 2241.17,1372.23 
  2241.26,1372.23 2241.36,1372.23 2241.45,1372.23 2241.55,1372.23 2241.64,1372.23 2241.74,1372.23 2241.83,1372.23 2241.93,1372.23 2242.02,1372.23 2242.12,1372.23 
  2242.21,1372.23 2242.3,1372.23 2242.4,1372.23 2242.49,1372.23 2242.59,1372.23 2242.68,1372.23 2242.78,1372.23 2242.87,1372.23 2242.96,1372.23 2243.06,1372.24 
  2243.15,1372.24 2243.25,1372.24 2243.34,1372.24 2243.43,1372.24 2243.53,1372.24 2243.62,1372.24 2243.72,1372.24 2243.81,1372.24 2243.9,1372.24 2244,1372.24 
  2244.09,1372.24 2244.19,1372.24 2244.28,1372.24 2244.37,1372.24 2244.47,1372.24 2244.56,1372.24 2244.65,1372.24 2244.75,1372.24 2244.84,1372.24 2244.93,1372.24 
  2245.03,1372.24 2245.12,1372.24 2245.21,1372.24 2245.31,1372.24 2245.4,1372.24 2245.49,1372.24 2245.59,1372.24 2245.68,1372.24 2245.77,1372.24 2245.87,1372.24 
  2245.96,1372.24 2246.05,1372.24 2246.14,1372.24 2246.24,1372.24 2246.33,1372.24 2246.42,1372.24 2246.52,1372.24 2246.61,1372.24 2246.7,1372.24 2246.79,1372.24 
  2246.89,1372.24 2246.98,1372.24 2247.07,1372.24 2247.17,1372.24 2247.26,1372.24 2247.35,1372.24 2247.44,1372.24 2247.53,1372.24 2247.63,1372.24 2247.72,1372.24 
  2247.81,1372.24 2247.9,1372.24 2248,1372.24 2248.09,1372.24 2248.18,1372.24 2248.27,1372.24 2248.37,1372.24 2248.46,1372.24 2248.55,1372.24 2248.64,1372.24 
  2248.73,1372.24 2248.83,1372.24 2248.92,1372.24 2249.01,1372.24 2249.1,1372.24 2249.19,1372.24 2249.28,1372.24 2249.38,1372.24 2249.47,1372.24 2249.56,1372.24 
  2249.65,1372.24 2249.74,1372.24 2249.83,1372.24 2249.93,1372.24 2250.02,1372.24 2250.11,1372.24 2250.2,1372.24 2250.29,1372.24 2250.38,1372.24 2250.47,1372.24 
  2250.57,1372.24 2250.66,1372.24 2250.75,1372.24 2250.84,1372.24 2250.93,1372.24 2251.02,1372.24 2251.11,1372.25 2251.2,1372.25 2251.3,1372.25 2251.39,1372.25 
  2251.48,1372.25 2251.57,1372.25 2251.66,1372.25 2251.75,1372.25 2251.84,1372.25 2251.93,1372.25 2252.02,1372.25 2252.11,1372.25 2252.2,1372.25 2252.29,1372.25 
  2252.38,1372.25 2252.48,1372.25 2252.57,1372.25 2252.66,1372.25 2252.75,1372.25 2252.84,1372.25 2252.93,1372.25 2253.02,1372.25 2253.11,1372.25 2253.2,1372.25 
  2253.29,1372.25 2253.38,1372.25 2253.47,1372.25 2253.56,1372.25 2253.65,1372.26 2253.74,1372.26 2253.83,1372.26 2253.92,1372.26 2254.01,1372.26 2254.1,1372.26 
  2254.19,1372.26 2254.28,1372.26 2254.37,1372.26 2254.46,1372.26 2254.55,1372.26 2254.64,1372.26 2254.73,1372.26 2254.82,1372.26 2254.91,1372.26 2255,1372.26 
  2255.09,1372.26 2255.18,1372.26 2255.27,1372.26 2255.36,1372.26 2255.45,1372.26 2255.54,1372.26 2255.63,1372.26 2255.71,1372.26 2255.8,1372.26 2255.89,1372.26 
  2255.98,1372.26 2256.07,1372.26 2256.16,1372.26 2256.25,1372.26 2256.34,1372.26 2256.43,1372.26 2256.52,1372.26 2256.61,1372.26 2256.7,1372.26 2256.79,1372.26 
  2256.87,1372.26 2256.96,1372.26 2257.05,1372.26 2257.14,1372.26 2257.23,1372.26 2257.32,1372.26 2257.41,1372.26 2257.5,1372.26 2257.58,1372.26 2257.67,1372.26 
  2257.76,1372.26 2257.85,1372.26 2257.94,1372.26 2258.03,1372.26 2258.12,1372.26 2258.21,1372.26 2258.29,1372.26 2258.38,1372.26 2258.47,1372.26 2258.56,1372.26 
  2258.65,1372.26 2258.74,1372.26 2258.82,1372.26 2258.91,1372.26 2259,1372.26 2259.09,1372.26 2259.18,1372.26 2259.26,1372.26 2259.35,1372.26 2259.44,1372.26 
  2259.53,1372.26 2259.62,1372.26 2259.7,1372.26 2259.79,1372.26 2259.88,1372.26 2259.97,1372.26 2260.06,1372.26 2260.14,1372.26 2260.23,1372.26 2260.32,1372.26 
  2260.41,1372.26 2260.5,1372.26 2260.58,1372.26 2260.67,1372.26 2260.76,1372.26 2260.85,1372.26 2260.93,1372.26 2261.02,1372.26 2261.11,1372.26 2261.2,1372.26 
  2261.28,1372.26 2261.37,1372.26 2261.46,1372.26 2261.54,1372.26 2261.63,1372.26 2261.72,1372.26 2261.81,1372.26 2261.89,1372.26 2261.98,1372.26 2262.07,1372.26 
  2262.16,1372.26 2262.24,1372.26 2262.33,1372.26 2262.42,1372.26 2262.5,1372.26 2262.59,1372.26 2262.68,1372.26 2262.76,1372.26 2262.85,1372.26 2262.94,1372.26 
  2263.02,1372.26 2263.11,1372.26 2263.2,1372.26 2263.28,1372.26 2263.37,1372.26 2263.46,1372.26 2263.54,1372.26 2263.63,1372.26 2263.72,1372.26 2263.8,1372.26 
  2263.89,1372.26 2263.98,1372.26 2264.06,1372.26 2264.15,1372.26 2264.24,1372.26 2264.32,1372.26 2264.41,1372.26 2264.49,1372.26 2264.58,1372.26 2264.67,1372.26 
  2264.75,1372.26 2264.84,1372.26 2264.93,1372.26 2265.01,1372.26 2265.1,1372.26 2265.18,1372.26 2265.27,1372.26 2265.36,1372.26 2265.44,1372.26 2265.53,1372.26 
  2265.61,1372.26 2265.7,1372.26 2265.79,1372.27 2265.87,1372.27 2265.96,1372.27 2266.04,1372.27 2266.13,1372.27 2266.21,1372.27 2266.3,1372.27 2266.39,1372.27 
  2266.47,1372.27 2266.56,1372.27 2266.64,1372.27 2266.73,1372.27 2266.81,1372.27 2266.9,1372.27 2266.98,1372.27 2267.07,1372.27 2267.15,1372.27 2267.24,1372.27 
  2267.32,1372.27 2267.41,1372.27 2267.5,1372.27 2267.58,1372.27 2267.67,1372.27 2267.75,1372.27 2267.84,1372.27 2267.92,1372.27 2268.01,1372.27 2268.09,1372.27 
  2268.18,1372.27 2268.26,1372.27 2268.35,1372.27 2268.43,1372.27 2268.52,1372.27 2268.6,1372.28 2268.69,1372.28 2268.77,1372.28 2268.85,1372.28 2268.94,1372.28 
  2269.02,1372.28 2269.11,1372.28 2269.19,1372.28 2269.28,1372.28 2269.36,1372.28 2269.45,1372.28 2269.53,1372.28 2269.62,1372.28 2269.7,1372.28 2269.79,1372.28 
  2269.87,1372.28 2269.95,1372.28 2270.04,1372.28 2270.12,1372.28 2270.21,1372.28 2270.29,1372.28 2270.38,1372.28 2270.46,1372.28 2270.54,1372.28 2270.63,1372.28 
  2270.71,1372.28 2270.8,1372.28 2270.88,1372.28 2270.96,1372.28 2271.05,1372.28 2271.13,1372.28 2271.22,1372.28 2271.3,1372.28 2271.38,1372.28 2271.47,1372.28 
  2271.55,1372.28 2271.64,1372.28 2271.72,1372.28 2271.8,1372.28 2271.89,1372.28 2271.97,1372.28 2272.05,1372.28 2272.14,1372.28 2272.22,1372.28 2272.3,1372.28 
  2272.39,1372.28 2272.47,1372.28 2272.56,1372.28 2272.64,1372.28 2272.72,1372.28 2272.81,1372.28 2272.89,1372.28 2272.97,1372.28 2273.06,1372.28 2273.14,1372.28 
  2273.22,1372.28 2273.31,1372.28 2273.39,1372.28 2273.47,1372.28 2273.55,1372.28 2273.64,1372.28 2273.72,1372.28 2273.8,1372.28 2273.89,1372.28 2273.97,1372.28 
  2274.05,1372.28 2274.14,1372.28 2274.22,1372.28 2274.3,1372.28 2274.38,1372.28 2274.47,1372.28 2274.55,1372.28 2274.63,1372.28 2274.72,1372.28 2274.8,1372.28 
  2274.88,1372.28 2274.96,1372.28 2275.05,1372.28 2275.13,1372.28 2275.21,1372.28 2275.29,1372.28 2275.38,1372.28 2275.46,1372.28 2275.54,1372.28 2275.62,1372.28 
  2275.71,1372.28 2275.79,1372.28 2275.87,1372.28 2275.95,1372.28 2276.04,1372.29 2276.12,1372.29 2276.2,1372.29 2276.28,1372.29 2276.36,1372.29 2276.45,1372.29 
  2276.53,1372.29 2276.61,1372.29 2276.69,1372.29 2276.78,1372.29 2276.86,1372.29 2276.94,1372.29 2277.02,1372.29 2277.1,1372.29 2277.19,1372.29 2277.27,1372.29 
  2277.35,1372.29 2277.43,1372.29 2277.51,1372.29 2277.59,1372.29 2277.68,1372.29 2277.76,1372.29 2277.84,1372.29 2277.92,1372.29 2278,1372.29 2278.08,1372.29 
  2278.17,1372.29 2278.25,1372.29 2278.33,1372.29 2278.41,1372.29 2278.49,1372.29 2278.57,1372.29 2278.66,1372.29 2278.74,1372.29 2278.82,1372.29 2278.9,1372.29 
  2278.98,1372.29 2279.06,1372.29 2279.14,1372.29 2279.22,1372.29 2279.31,1372.29 2279.39,1372.29 2279.47,1372.29 2279.55,1372.29 2279.63,1372.29 2279.71,1372.29 
  2279.79,1372.29 2279.87,1372.29 2279.95,1372.29 2280.04,1372.29 2280.12,1372.29 2280.2,1372.29 2280.28,1372.29 2280.36,1372.29 2280.44,1372.29 2280.52,1372.29 
  2280.6,1372.29 2280.68,1372.29 2280.76,1372.29 2280.84,1372.29 2280.92,1372.29 2281.01,1372.29 2281.09,1372.29 2281.17,1372.29 2281.25,1372.29 2281.33,1372.29 
  2281.41,1372.29 2281.49,1372.29 2281.57,1372.29 2281.65,1372.29 2281.73,1372.29 2281.81,1372.29 2281.89,1372.29 2281.97,1372.29 2282.05,1372.29 2282.13,1372.29 
  2282.21,1372.29 2282.29,1372.29 2282.37,1372.29 2282.45,1372.29 2282.53,1372.29 2282.61,1372.29 2282.69,1372.29 2282.77,1372.29 2282.85,1372.29 2282.93,1372.29 
  2283.01,1372.29 2283.09,1372.29 2283.17,1372.29 2283.25,1372.29 2283.33,1372.29 2283.41,1372.29 2283.49,1372.29 2283.57,1372.29 2283.65,1372.29 2283.73,1372.29 
  2283.81,1372.29 2283.89,1372.29 2283.97,1372.3 2284.05,1372.3 2284.13,1372.3 2284.21,1372.3 2284.29,1372.3 2284.37,1372.3 2284.45,1372.3 2284.53,1372.3 
  2284.61,1372.3 2284.69,1372.3 2284.77,1372.3 2284.85,1372.3 2284.93,1372.3 2285,1372.3 2285.08,1372.3 2285.16,1372.3 2285.24,1372.3 2285.32,1372.3 
  2285.4,1372.3 2285.48,1372.3 2285.56,1372.3 2285.64,1372.3 2285.72,1372.3 2285.8,1372.3 2285.88,1372.3 2285.96,1372.3 2286.03,1372.3 2286.11,1372.3 
  2286.19,1372.3 2286.27,1372.3 2286.35,1372.3 2286.43,1372.3 2286.51,1372.3 2286.59,1372.3 2286.67,1372.3 2286.74,1372.3 2286.82,1372.3 2286.9,1372.3 
  2286.98,1372.3 2287.06,1372.3 2287.14,1372.3 2287.22,1372.3 2287.29,1372.3 2287.37,1372.3 2287.45,1372.3 2287.53,1372.3 2287.61,1372.3 2287.69,1372.3 
  2287.77,1372.3 2287.84,1372.3 2287.92,1372.3 2288,1372.3 2288.08,1372.3 2288.16,1372.3 2288.24,1372.3 2288.31,1372.3 2288.39,1372.3 2288.47,1372.3 
  2288.55,1372.3 2288.63,1372.3 2288.71,1372.3 2288.78,1372.3 2288.86,1372.3 2288.94,1372.3 2289.02,1372.3 2289.1,1372.3 2289.17,1372.3 2289.25,1372.3 
  2289.33,1372.3 2289.41,1372.3 2289.49,1372.3 2289.56,1372.3 2289.64,1372.3 2289.72,1372.3 2289.8,1372.3 2289.88,1372.3 2289.95,1372.3 2290.03,1372.3 
  2290.11,1372.3 2290.19,1372.3 2290.26,1372.3 2290.34,1372.3 2290.42,1372.3 2290.5,1372.3 2290.57,1372.3 2290.65,1372.3 2290.73,1372.3 2290.81,1372.3 
  2290.88,1372.3 2290.96,1372.3 2291.04,1372.3 2291.12,1372.3 2291.19,1372.3 2291.27,1372.3 2291.35,1372.3 2291.43,1372.3 2291.5,1372.3 2291.58,1372.3 
  2291.66,1372.3 2291.74,1372.3 2291.81,1372.3 2291.89,1372.3 2291.97,1372.3 2292.04,1372.3 2292.12,1372.3 2292.2,1372.3 2292.27,1372.3 2292.35,1372.3 
  2292.43,1372.3 2292.51,1372.3 2292.58,1372.3 2292.66,1372.3 2292.74,1372.3 2292.81,1372.3 2292.89,1372.3 2292.97,1372.3 2293.04,1372.3 2293.12,1372.3 
  2293.2,1372.3 2293.27,1372.3 
  "/>
<path clip-path="url(#clip660)" d="
M1912.74 248.219 L2282.7 248.219 L2282.7 92.6992 L1912.74 92.6992  Z
  " fill="#ffffff" fill-rule="evenodd" fill-opacity="1"/>
<polyline clip-path="url(#clip660)" style="stroke:#000000; stroke-linecap:round; stroke-linejoin:round; stroke-width:4; stroke-opacity:1; fill:none" points="
  1912.74,248.219 2282.7,248.219 2282.7,92.6992 1912.74,92.6992 1912.74,248.219 
  "/>
<polyline clip-path="url(#clip660)" style="stroke:#0000ff; stroke-linecap:round; stroke-linejoin:round; stroke-width:4; stroke-opacity:1; fill:none" points="
  1936.1,144.539 2076.21,144.539 
  "/>
<path clip-path="url(#clip660)" d="M2115.39 131.866 L2109.05 149.065 L2121.76 149.065 L2115.39 131.866 M2112.76 127.259 L2118.06 127.259 L2131.23 161.819 L2126.37 161.819 L2123.22 152.953 L2107.64 152.953 L2104.49 161.819 L2099.56 161.819 L2112.76 127.259 Z" fill="#000000" fill-rule="evenodd" fill-opacity="1" /><path clip-path="url(#clip660)" d="M2140.95 131.102 L2140.95 157.977 L2146.6 157.977 Q2153.75 157.977 2157.06 154.736 Q2160.39 151.495 2160.39 144.504 Q2160.39 137.56 2157.06 134.342 Q2153.75 131.102 2146.6 131.102 L2140.95 131.102 M2136.27 127.259 L2145.88 127.259 Q2155.93 127.259 2160.63 131.449 Q2165.32 135.616 2165.32 144.504 Q2165.32 153.44 2160.6 157.629 Q2155.88 161.819 2145.88 161.819 L2136.27 161.819 L2136.27 127.259 Z" fill="#000000" fill-rule="evenodd" fill-opacity="1" /><path clip-path="url(#clip660)" d="M2183.5 131.866 L2177.15 149.065 L2189.86 149.065 L2183.5 131.866 M2180.86 127.259 L2186.16 127.259 L2199.33 161.819 L2194.47 161.819 L2191.32 152.953 L2175.74 152.953 L2172.59 161.819 L2167.66 161.819 L2180.86 127.259 Z" fill="#000000" fill-rule="evenodd" fill-opacity="1" /><path clip-path="url(#clip660)" d="M2204.38 127.259 L2211.34 127.259 L2220.16 150.778 L2229.03 127.259 L2236 127.259 L2236 161.819 L2231.44 161.819 L2231.44 131.472 L2222.52 155.176 L2217.82 155.176 L2208.91 131.472 L2208.91 161.819 L2204.38 161.819 L2204.38 127.259 Z" fill="#000000" fill-rule="evenodd" fill-opacity="1" /><polyline clip-path="url(#clip660)" style="stroke:#ff0000; stroke-linecap:round; stroke-linejoin:round; stroke-width:4; stroke-opacity:1; fill:none" points="
  1936.1,196.379 2076.21,196.379 
  "/>
<path clip-path="url(#clip660)" d="M2104.24 197.155 L2104.24 209.817 L2111.74 209.817 Q2115.51 209.817 2117.32 208.266 Q2119.14 206.692 2119.14 203.474 Q2119.14 200.233 2117.32 198.706 Q2115.51 197.155 2111.74 197.155 L2104.24 197.155 M2104.24 182.942 L2104.24 193.358 L2111.16 193.358 Q2114.58 193.358 2116.25 192.085 Q2117.94 190.789 2117.94 188.15 Q2117.94 185.534 2116.25 184.238 Q2114.58 182.942 2111.16 182.942 L2104.24 182.942 M2099.56 179.099 L2111.51 179.099 Q2116.85 179.099 2119.75 181.321 Q2122.64 183.544 2122.64 187.641 Q2122.64 190.812 2121.16 192.687 Q2119.68 194.562 2116.81 195.025 Q2120.26 195.766 2122.15 198.127 Q2124.07 200.465 2124.07 203.983 Q2124.07 208.613 2120.93 211.136 Q2117.78 213.659 2111.97 213.659 L2099.56 213.659 L2099.56 179.099 Z" fill="#000000" fill-rule="evenodd" fill-opacity="1" /><path clip-path="url(#clip660)" d="M2132.08 179.099 L2151.95 179.099 L2151.95 183.034 L2136.76 183.034 L2136.76 193.219 L2150.46 193.219 L2150.46 197.155 L2136.76 197.155 L2136.76 213.659 L2132.08 213.659 L2132.08 179.099 Z" fill="#000000" fill-rule="evenodd" fill-opacity="1" /><path clip-path="url(#clip660)" d="M2182.92 208.729 L2182.92 199.446 L2175.28 199.446 L2175.28 195.604 L2187.55 195.604 L2187.55 210.442 Q2184.84 212.363 2181.57 213.358 Q2178.31 214.33 2174.61 214.33 Q2166.51 214.33 2161.92 209.608 Q2157.36 204.863 2157.36 196.414 Q2157.36 187.942 2161.92 183.22 Q2166.51 178.474 2174.61 178.474 Q2177.99 178.474 2181.02 179.308 Q2184.07 180.141 2186.64 181.761 L2186.64 186.738 Q2184.05 184.539 2181.13 183.428 Q2178.22 182.317 2175 182.317 Q2168.66 182.317 2165.46 185.858 Q2162.29 189.4 2162.29 196.414 Q2162.29 203.405 2165.46 206.946 Q2168.66 210.488 2175 210.488 Q2177.48 210.488 2179.42 210.071 Q2181.37 209.631 2182.92 208.729 Z" fill="#000000" fill-rule="evenodd" fill-opacity="1" /><path clip-path="url(#clip660)" d="M2216.81 180.233 L2216.81 184.794 Q2214.14 183.52 2211.78 182.895 Q2209.42 182.27 2207.22 182.27 Q2203.4 182.27 2201.32 183.752 Q2199.26 185.233 2199.26 187.965 Q2199.26 190.257 2200.63 191.437 Q2202.01 192.594 2205.86 193.312 L2208.68 193.891 Q2213.91 194.886 2216.39 197.409 Q2218.89 199.909 2218.89 204.122 Q2218.89 209.145 2215.51 211.738 Q2212.15 214.33 2205.65 214.33 Q2203.19 214.33 2200.42 213.775 Q2197.66 213.219 2194.7 212.131 L2194.7 207.317 Q2197.55 208.914 2200.28 209.724 Q2203.01 210.534 2205.65 210.534 Q2209.65 210.534 2211.83 208.96 Q2214.01 207.386 2214.01 204.469 Q2214.01 201.923 2212.43 200.488 Q2210.88 199.053 2207.32 198.335 L2204.47 197.78 Q2199.24 196.738 2196.9 194.516 Q2194.56 192.294 2194.56 188.335 Q2194.56 183.752 2197.78 181.113 Q2201.02 178.474 2206.69 178.474 Q2209.12 178.474 2211.64 178.914 Q2214.17 179.354 2216.81 180.233 Z" fill="#000000" fill-rule="evenodd" fill-opacity="1" /></svg>
