<?xml version="1.0" encoding="utf-8"?>
<svg xmlns="http://www.w3.org/2000/svg" xmlns:xlink="http://www.w3.org/1999/xlink" width="600" height="400" viewBox="0 0 2400 1600">
<defs>
  <clipPath id="clip420">
    <rect x="0" y="0" width="2400" height="1600"/>
  </clipPath>
</defs>
<path clip-path="url(#clip420)" d="
M0 1600 L2400 1600 L2400 0 L0 0  Z
  " fill="#ffffff" fill-rule="evenodd" fill-opacity="1"/>
<defs>
  <clipPath id="clip421">
    <rect x="480" y="0" width="1681" height="1600"/>
  </clipPath>
</defs>
<path clip-path="url(#clip420)" d="
M112.177 1423.18 L2352.76 1423.18 L2352.76 47.2441 L112.177 47.2441  Z
  " fill="#ffffff" fill-rule="evenodd" fill-opacity="1"/>
<defs>
  <clipPath id="clip422">
    <rect x="112" y="47" width="2242" height="1377"/>
  </clipPath>
</defs>
<polyline clip-path="url(#clip422)" style="stroke:#000000; stroke-linecap:round; stroke-linejoin:round; stroke-width:2; stroke-opacity:0.1; fill:none" points="
  112.177,1423.18 112.177,47.2441 
  "/>
<polyline clip-path="url(#clip422)" style="stroke:#000000; stroke-linecap:round; stroke-linejoin:round; stroke-width:2; stroke-opacity:0.1; fill:none" points="
  859.037,1423.18 859.037,47.2441 
  "/>
<polyline clip-path="url(#clip422)" style="stroke:#000000; stroke-linecap:round; stroke-linejoin:round; stroke-width:2; stroke-opacity:0.1; fill:none" points="
  1605.9,1423.18 1605.9,47.2441 
  "/>
<polyline clip-path="url(#clip422)" style="stroke:#000000; stroke-linecap:round; stroke-linejoin:round; stroke-width:2; stroke-opacity:0.1; fill:none" points="
  2352.76,1423.18 2352.76,47.2441 
  "/>
<polyline clip-path="url(#clip420)" style="stroke:#000000; stroke-linecap:round; stroke-linejoin:round; stroke-width:4; stroke-opacity:1; fill:none" points="
  112.177,1423.18 2352.76,1423.18 
  "/>
<polyline clip-path="url(#clip420)" style="stroke:#000000; stroke-linecap:round; stroke-linejoin:round; stroke-width:4; stroke-opacity:1; fill:none" points="
  112.177,1423.18 112.177,1404.28 
  "/>
<polyline clip-path="url(#clip420)" style="stroke:#000000; stroke-linecap:round; stroke-linejoin:round; stroke-width:4; stroke-opacity:1; fill:none" points="
  859.037,1423.18 859.037,1404.28 
  "/>
<polyline clip-path="url(#clip420)" style="stroke:#000000; stroke-linecap:round; stroke-linejoin:round; stroke-width:4; stroke-opacity:1; fill:none" points="
  1605.9,1423.18 1605.9,1404.28 
  "/>
<polyline clip-path="url(#clip420)" style="stroke:#000000; stroke-linecap:round; stroke-linejoin:round; stroke-width:4; stroke-opacity:1; fill:none" points="
  2352.76,1423.18 2352.76,1404.28 
  "/>
<path clip-path="url(#clip420)" d="M112.177 1454.1 Q108.566 1454.1 106.737 1457.66 Q104.932 1461.2 104.932 1468.33 Q104.932 1475.44 106.737 1479.01 Q108.566 1482.55 112.177 1482.55 Q115.811 1482.55 117.617 1479.01 Q119.446 1475.44 119.446 1468.33 Q119.446 1461.2 117.617 1457.66 Q115.811 1454.1 112.177 1454.1 M112.177 1450.39 Q117.987 1450.39 121.043 1455 Q124.122 1459.58 124.122 1468.33 Q124.122 1477.06 121.043 1481.67 Q117.987 1486.25 112.177 1486.25 Q106.367 1486.25 103.288 1481.67 Q100.233 1477.06 100.233 1468.33 Q100.233 1459.58 103.288 1455 Q106.367 1450.39 112.177 1450.39 Z" fill="#000000" fill-rule="evenodd" fill-opacity="1" /><path clip-path="url(#clip420)" d="M849.419 1481.64 L857.058 1481.64 L857.058 1455.28 L848.747 1456.95 L848.747 1452.69 L857.011 1451.02 L861.687 1451.02 L861.687 1481.64 L869.326 1481.64 L869.326 1485.58 L849.419 1485.58 L849.419 1481.64 Z" fill="#000000" fill-rule="evenodd" fill-opacity="1" /><path clip-path="url(#clip420)" d="M1600.55 1481.64 L1616.87 1481.64 L1616.87 1485.58 L1594.92 1485.58 L1594.92 1481.64 Q1597.59 1478.89 1602.17 1474.26 Q1606.78 1469.61 1607.96 1468.27 Q1610.2 1465.74 1611.08 1464.01 Q1611.98 1462.25 1611.98 1460.56 Q1611.98 1457.8 1610.04 1456.07 Q1608.12 1454.33 1605.02 1454.33 Q1602.82 1454.33 1600.36 1455.09 Q1597.93 1455.86 1595.16 1457.41 L1595.16 1452.69 Q1597.98 1451.55 1600.43 1450.97 Q1602.89 1450.39 1604.92 1450.39 Q1610.29 1450.39 1613.49 1453.08 Q1616.68 1455.77 1616.68 1460.26 Q1616.68 1462.39 1615.87 1464.31 Q1615.09 1466.2 1612.98 1468.8 Q1612.4 1469.47 1609.3 1472.69 Q1606.2 1475.88 1600.55 1481.64 Z" fill="#000000" fill-rule="evenodd" fill-opacity="1" /><path clip-path="url(#clip420)" d="M2357 1466.95 Q2360.36 1467.66 2362.24 1469.93 Q2364.13 1472.2 2364.13 1475.53 Q2364.13 1480.65 2360.61 1483.45 Q2357.1 1486.25 2350.61 1486.25 Q2348.44 1486.25 2346.12 1485.81 Q2343.83 1485.39 2341.38 1484.54 L2341.38 1480.02 Q2343.32 1481.16 2345.64 1481.74 Q2347.95 1482.32 2350.48 1482.32 Q2354.87 1482.32 2357.17 1480.58 Q2359.48 1478.84 2359.48 1475.53 Q2359.48 1472.48 2357.33 1470.77 Q2355.2 1469.03 2351.38 1469.03 L2347.35 1469.03 L2347.35 1465.19 L2351.56 1465.19 Q2355.01 1465.19 2356.84 1463.82 Q2358.67 1462.43 2358.67 1459.84 Q2358.67 1457.18 2356.77 1455.77 Q2354.9 1454.33 2351.38 1454.33 Q2349.46 1454.33 2347.26 1454.75 Q2345.06 1455.16 2342.42 1456.04 L2342.42 1451.88 Q2345.08 1451.14 2347.4 1450.77 Q2349.74 1450.39 2351.8 1450.39 Q2357.12 1450.39 2360.22 1452.83 Q2363.32 1455.23 2363.32 1459.35 Q2363.32 1462.22 2361.68 1464.21 Q2360.04 1466.18 2357 1466.95 Z" fill="#000000" fill-rule="evenodd" fill-opacity="1" /><path clip-path="url(#clip420)" d="M1231.53 1522.27 L1231.53 1532.4 L1243.59 1532.4 L1243.59 1536.95 L1231.53 1536.95 L1231.53 1556.3 Q1231.53 1560.66 1232.71 1561.9 Q1233.91 1563.14 1237.58 1563.14 L1243.59 1563.14 L1243.59 1568.04 L1237.58 1568.04 Q1230.8 1568.04 1228.22 1565.53 Q1225.64 1562.98 1225.64 1556.3 L1225.64 1536.95 L1221.34 1536.95 L1221.34 1532.4 L1225.64 1532.4 L1225.64 1522.27 L1231.53 1522.27 Z" fill="#000000" fill-rule="evenodd" fill-opacity="1" /><polyline clip-path="url(#clip422)" style="stroke:#000000; stroke-linecap:round; stroke-linejoin:round; stroke-width:2; stroke-opacity:0.1; fill:none" points="
  112.177,1401.76 2352.76,1401.76 
  "/>
<polyline clip-path="url(#clip422)" style="stroke:#000000; stroke-linecap:round; stroke-linejoin:round; stroke-width:2; stroke-opacity:0.1; fill:none" points="
  112.177,1117.5 2352.76,1117.5 
  "/>
<polyline clip-path="url(#clip422)" style="stroke:#000000; stroke-linecap:round; stroke-linejoin:round; stroke-width:2; stroke-opacity:0.1; fill:none" points="
  112.177,833.238 2352.76,833.238 
  "/>
<polyline clip-path="url(#clip422)" style="stroke:#000000; stroke-linecap:round; stroke-linejoin:round; stroke-width:2; stroke-opacity:0.1; fill:none" points="
  112.177,548.978 2352.76,548.978 
  "/>
<polyline clip-path="url(#clip422)" style="stroke:#000000; stroke-linecap:round; stroke-linejoin:round; stroke-width:2; stroke-opacity:0.1; fill:none" points="
  112.177,264.718 2352.76,264.718 
  "/>
<polyline clip-path="url(#clip420)" style="stroke:#000000; stroke-linecap:round; stroke-linejoin:round; stroke-width:4; stroke-opacity:1; fill:none" points="
  112.177,1423.18 112.177,47.2441 
  "/>
<polyline clip-path="url(#clip420)" style="stroke:#000000; stroke-linecap:round; stroke-linejoin:round; stroke-width:4; stroke-opacity:1; fill:none" points="
  112.177,1401.76 131.075,1401.76 
  "/>
<polyline clip-path="url(#clip420)" style="stroke:#000000; stroke-linecap:round; stroke-linejoin:round; stroke-width:4; stroke-opacity:1; fill:none" points="
  112.177,1117.5 131.075,1117.5 
  "/>
<polyline clip-path="url(#clip420)" style="stroke:#000000; stroke-linecap:round; stroke-linejoin:round; stroke-width:4; stroke-opacity:1; fill:none" points="
  112.177,833.238 131.075,833.238 
  "/>
<polyline clip-path="url(#clip420)" style="stroke:#000000; stroke-linecap:round; stroke-linejoin:round; stroke-width:4; stroke-opacity:1; fill:none" points="
  112.177,548.978 131.075,548.978 
  "/>
<polyline clip-path="url(#clip420)" style="stroke:#000000; stroke-linecap:round; stroke-linejoin:round; stroke-width:4; stroke-opacity:1; fill:none" points="
  112.177,264.718 131.075,264.718 
  "/>
<path clip-path="url(#clip420)" d="M64.2328 1387.56 Q60.6217 1387.56 58.793 1391.12 Q56.9875 1394.66 56.9875 1401.79 Q56.9875 1408.9 58.793 1412.46 Q60.6217 1416.01 64.2328 1416.01 Q67.867 1416.01 69.6726 1412.46 Q71.5013 1408.9 71.5013 1401.79 Q71.5013 1394.66 69.6726 1391.12 Q67.867 1387.56 64.2328 1387.56 M64.2328 1383.85 Q70.0429 1383.85 73.0985 1388.46 Q76.1772 1393.04 76.1772 1401.79 Q76.1772 1410.52 73.0985 1415.13 Q70.0429 1419.71 64.2328 1419.71 Q58.4226 1419.71 55.344 1415.13 Q52.2884 1410.52 52.2884 1401.79 Q52.2884 1393.04 55.344 1388.46 Q58.4226 1383.85 64.2328 1383.85 Z" fill="#000000" fill-rule="evenodd" fill-opacity="1" /><path clip-path="url(#clip420)" d="M56.2699 1130.84 L63.9087 1130.84 L63.9087 1104.48 L55.5986 1106.14 L55.5986 1101.89 L63.8624 1100.22 L68.5383 1100.22 L68.5383 1130.84 L76.1772 1130.84 L76.1772 1134.78 L56.2699 1134.78 L56.2699 1130.84 Z" fill="#000000" fill-rule="evenodd" fill-opacity="1" /><path clip-path="url(#clip420)" d="M59.8578 846.583 L76.1772 846.583 L76.1772 850.518 L54.2328 850.518 L54.2328 846.583 Q56.8949 843.829 61.4782 839.199 Q66.0846 834.546 67.2652 833.204 Q69.5105 830.681 70.3902 828.944 Q71.2929 827.185 71.2929 825.495 Q71.2929 822.741 69.3485 821.005 Q67.4272 819.269 64.3254 819.269 Q62.1263 819.269 59.6726 820.032 Q57.2421 820.796 54.4643 822.347 L54.4643 817.625 Q57.2884 816.491 59.7421 815.912 Q62.1958 815.333 64.2328 815.333 Q69.6031 815.333 72.7976 818.019 Q75.992 820.704 75.992 825.195 Q75.992 827.324 75.1818 829.245 Q74.3948 831.144 72.2883 833.736 Q71.7096 834.407 68.6078 837.625 Q65.5059 840.819 59.8578 846.583 Z" fill="#000000" fill-rule="evenodd" fill-opacity="1" /><path clip-path="url(#clip420)" d="M69.0476 547.624 Q72.404 548.342 74.279 550.61 Q76.1772 552.879 76.1772 556.212 Q76.1772 561.328 72.6587 564.129 Q69.1402 566.93 62.6587 566.93 Q60.4828 566.93 58.168 566.49 Q55.8764 566.073 53.4227 565.217 L53.4227 560.703 Q55.3671 561.837 57.6819 562.416 Q59.9967 562.994 62.5198 562.994 Q66.918 562.994 69.2096 561.258 Q71.5244 559.522 71.5244 556.212 Q71.5244 553.156 69.3717 551.443 Q67.242 549.707 63.4226 549.707 L59.3949 549.707 L59.3949 545.865 L63.6078 545.865 Q67.0569 545.865 68.8855 544.499 Q70.7142 543.11 70.7142 540.518 Q70.7142 537.856 68.8161 536.444 Q66.9411 535.008 63.4226 535.008 Q61.5013 535.008 59.3023 535.425 Q57.1032 535.842 54.4643 536.721 L54.4643 532.555 Q57.1264 531.814 59.4412 531.444 Q61.7791 531.073 63.8393 531.073 Q69.1633 531.073 72.2652 533.504 Q75.367 535.911 75.367 540.032 Q75.367 542.902 73.7235 544.893 Q72.08 546.86 69.0476 547.624 Z" fill="#000000" fill-rule="evenodd" fill-opacity="1" /><path clip-path="url(#clip420)" d="M66.5939 251.512 L54.7884 269.961 L66.5939 269.961 L66.5939 251.512 M65.367 247.438 L71.2466 247.438 L71.2466 269.961 L76.1772 269.961 L76.1772 273.85 L71.2466 273.85 L71.2466 281.998 L66.5939 281.998 L66.5939 273.85 L50.9921 273.85 L50.9921 269.336 L65.367 247.438 Z" fill="#000000" fill-rule="evenodd" fill-opacity="1" /><polyline clip-path="url(#clip422)" style="stroke:#000000; stroke-linecap:round; stroke-linejoin:round; stroke-width:4; stroke-opacity:0.75; fill:none" points="
  112.177,1275.98 186.863,1304.51 261.549,1322.34 336.235,1333.68 410.921,1340.89 485.607,1345.32 560.293,1347.77 634.979,1348.74 709.665,1348.49 784.351,1347.22 
  859.037,1345.01 933.723,1341.89 1008.41,1337.88 1083.09,1332.92 1157.78,1326.97 1232.47,1319.95 1307.15,1311.74 1381.84,1302.21 1456.52,1291.22 1531.21,1278.59 
  1605.9,1264.1 1680.58,1247.54 1755.27,1228.61 1829.95,1207.03 1904.64,1182.43 1979.33,1154.42 2054.01,1122.54 2128.7,1086.29 2203.38,1045.09 2278.07,998.283 
  2352.76,945.137 
  "/>
<polyline clip-path="url(#clip422)" style="stroke:#000000; stroke-linecap:round; stroke-linejoin:round; stroke-width:4; stroke-opacity:0.75; fill:none" points="
  112.177,86.1857 186.863,268.23 261.549,431.308 336.235,574.268 410.921,697.979 485.607,804.161 560.293,894.806 634.979,971.906 709.665,1037.31 784.351,1092.7 
  859.037,1139.55 933.723,1179.12 1008.41,1212.53 1083.09,1240.73 1157.78,1264.51 1232.47,1284.57 1307.15,1301.48 1381.84,1315.74 1456.52,1327.76 1531.21,1337.88 
  1605.9,1346.41 1680.58,1353.59 1755.27,1359.63 1829.95,1364.71 1904.64,1368.96 1979.33,1372.5 2054.01,1375.44 2128.7,1377.86 2203.38,1379.82 2278.07,1381.37 
  2352.76,1382.54 
  "/>
<circle clip-path="url(#clip422)" cx="112.177" cy="1275.96" r="14.4" fill="#ff0000" fill-rule="evenodd" fill-opacity="1" stroke="#000000" stroke-opacity="1" stroke-width="3.2"/>
<circle clip-path="url(#clip422)" cx="186.863" cy="1303.28" r="14.4" fill="#ff0000" fill-rule="evenodd" fill-opacity="1" stroke="#000000" stroke-opacity="1" stroke-width="3.2"/>
<circle clip-path="url(#clip422)" cx="261.549" cy="1321.07" r="14.4" fill="#ff0000" fill-rule="evenodd" fill-opacity="1" stroke="#000000" stroke-opacity="1" stroke-width="3.2"/>
<circle clip-path="url(#clip422)" cx="336.235" cy="1333.81" r="14.4" fill="#ff0000" fill-rule="evenodd" fill-opacity="1" stroke="#000000" stroke-opacity="1" stroke-width="3.2"/>
<circle clip-path="url(#clip422)" cx="410.921" cy="1341.36" r="14.4" fill="#ff0000" fill-rule="evenodd" fill-opacity="1" stroke="#000000" stroke-opacity="1" stroke-width="3.2"/>
<circle clip-path="url(#clip422)" cx="485.607" cy="1345.23" r="14.4" fill="#ff0000" fill-rule="evenodd" fill-opacity="1" stroke="#000000" stroke-opacity="1" stroke-width="3.2"/>
<circle clip-path="url(#clip422)" cx="560.293" cy="1347.77" r="14.4" fill="#ff0000" fill-rule="evenodd" fill-opacity="1" stroke="#000000" stroke-opacity="1" stroke-width="3.2"/>
<circle clip-path="url(#clip422)" cx="634.979" cy="1348.71" r="14.4" fill="#ff0000" fill-rule="evenodd" fill-opacity="1" stroke="#000000" stroke-opacity="1" stroke-width="3.2"/>
<circle clip-path="url(#clip422)" cx="709.665" cy="1348.08" r="14.4" fill="#ff0000" fill-rule="evenodd" fill-opacity="1" stroke="#000000" stroke-opacity="1" stroke-width="3.2"/>
<circle clip-path="url(#clip422)" cx="784.351" cy="1346.58" r="14.4" fill="#ff0000" fill-rule="evenodd" fill-opacity="1" stroke="#000000" stroke-opacity="1" stroke-width="3.2"/>
<circle clip-path="url(#clip422)" cx="859.037" cy="1345.13" r="14.4" fill="#ff0000" fill-rule="evenodd" fill-opacity="1" stroke="#000000" stroke-opacity="1" stroke-width="3.2"/>
<circle clip-path="url(#clip422)" cx="933.723" cy="1342.59" r="14.4" fill="#ff0000" fill-rule="evenodd" fill-opacity="1" stroke="#000000" stroke-opacity="1" stroke-width="3.2"/>
<circle clip-path="url(#clip422)" cx="1008.41" cy="1338.86" r="14.4" fill="#ff0000" fill-rule="evenodd" fill-opacity="1" stroke="#000000" stroke-opacity="1" stroke-width="3.2"/>
<circle clip-path="url(#clip422)" cx="1083.09" cy="1332.5" r="14.4" fill="#ff0000" fill-rule="evenodd" fill-opacity="1" stroke="#000000" stroke-opacity="1" stroke-width="3.2"/>
<circle clip-path="url(#clip422)" cx="1157.78" cy="1324.89" r="14.4" fill="#ff0000" fill-rule="evenodd" fill-opacity="1" stroke="#000000" stroke-opacity="1" stroke-width="3.2"/>
<circle clip-path="url(#clip422)" cx="1232.47" cy="1320.26" r="14.4" fill="#ff0000" fill-rule="evenodd" fill-opacity="1" stroke="#000000" stroke-opacity="1" stroke-width="3.2"/>
<circle clip-path="url(#clip422)" cx="1307.15" cy="1311.52" r="14.4" fill="#ff0000" fill-rule="evenodd" fill-opacity="1" stroke="#000000" stroke-opacity="1" stroke-width="3.2"/>
<circle clip-path="url(#clip422)" cx="1381.84" cy="1301.97" r="14.4" fill="#ff0000" fill-rule="evenodd" fill-opacity="1" stroke="#000000" stroke-opacity="1" stroke-width="3.2"/>
<circle clip-path="url(#clip422)" cx="1456.52" cy="1290.51" r="14.4" fill="#ff0000" fill-rule="evenodd" fill-opacity="1" stroke="#000000" stroke-opacity="1" stroke-width="3.2"/>
<circle clip-path="url(#clip422)" cx="1531.21" cy="1277.76" r="14.4" fill="#ff0000" fill-rule="evenodd" fill-opacity="1" stroke="#000000" stroke-opacity="1" stroke-width="3.2"/>
<circle clip-path="url(#clip422)" cx="1605.9" cy="1264.6" r="14.4" fill="#ff0000" fill-rule="evenodd" fill-opacity="1" stroke="#000000" stroke-opacity="1" stroke-width="3.2"/>
<circle clip-path="url(#clip422)" cx="1680.58" cy="1247.64" r="14.4" fill="#ff0000" fill-rule="evenodd" fill-opacity="1" stroke="#000000" stroke-opacity="1" stroke-width="3.2"/>
<circle clip-path="url(#clip422)" cx="1755.27" cy="1229.57" r="14.4" fill="#ff0000" fill-rule="evenodd" fill-opacity="1" stroke="#000000" stroke-opacity="1" stroke-width="3.2"/>
<circle clip-path="url(#clip422)" cx="1829.95" cy="1207.19" r="14.4" fill="#ff0000" fill-rule="evenodd" fill-opacity="1" stroke="#000000" stroke-opacity="1" stroke-width="3.2"/>
<circle clip-path="url(#clip422)" cx="1904.64" cy="1184" r="14.4" fill="#ff0000" fill-rule="evenodd" fill-opacity="1" stroke="#000000" stroke-opacity="1" stroke-width="3.2"/>
<circle clip-path="url(#clip422)" cx="1979.33" cy="1154.34" r="14.4" fill="#ff0000" fill-rule="evenodd" fill-opacity="1" stroke="#000000" stroke-opacity="1" stroke-width="3.2"/>
<circle clip-path="url(#clip422)" cx="2054.01" cy="1123.53" r="14.4" fill="#ff0000" fill-rule="evenodd" fill-opacity="1" stroke="#000000" stroke-opacity="1" stroke-width="3.2"/>
<circle clip-path="url(#clip422)" cx="2128.7" cy="1087.03" r="14.4" fill="#ff0000" fill-rule="evenodd" fill-opacity="1" stroke="#000000" stroke-opacity="1" stroke-width="3.2"/>
<circle clip-path="url(#clip422)" cx="2203.38" cy="1045.5" r="14.4" fill="#ff0000" fill-rule="evenodd" fill-opacity="1" stroke="#000000" stroke-opacity="1" stroke-width="3.2"/>
<circle clip-path="url(#clip422)" cx="2278.07" cy="996.466" r="14.4" fill="#ff0000" fill-rule="evenodd" fill-opacity="1" stroke="#000000" stroke-opacity="1" stroke-width="3.2"/>
<circle clip-path="url(#clip422)" cx="2352.76" cy="945.775" r="14.4" fill="#ff0000" fill-rule="evenodd" fill-opacity="1" stroke="#000000" stroke-opacity="1" stroke-width="3.2"/>
<circle clip-path="url(#clip422)" cx="112.177" cy="87.4344" r="14.4" fill="#ff0000" fill-rule="evenodd" fill-opacity="1" stroke="#000000" stroke-opacity="1" stroke-width="3.2"/>
<circle clip-path="url(#clip422)" cx="186.863" cy="268.751" r="14.4" fill="#ff0000" fill-rule="evenodd" fill-opacity="1" stroke="#000000" stroke-opacity="1" stroke-width="3.2"/>
<circle clip-path="url(#clip422)" cx="261.549" cy="430.667" r="14.4" fill="#ff0000" fill-rule="evenodd" fill-opacity="1" stroke="#000000" stroke-opacity="1" stroke-width="3.2"/>
<circle clip-path="url(#clip422)" cx="336.235" cy="573.526" r="14.4" fill="#ff0000" fill-rule="evenodd" fill-opacity="1" stroke="#000000" stroke-opacity="1" stroke-width="3.2"/>
<circle clip-path="url(#clip422)" cx="410.921" cy="696.06" r="14.4" fill="#ff0000" fill-rule="evenodd" fill-opacity="1" stroke="#000000" stroke-opacity="1" stroke-width="3.2"/>
<circle clip-path="url(#clip422)" cx="485.607" cy="805.864" r="14.4" fill="#ff0000" fill-rule="evenodd" fill-opacity="1" stroke="#000000" stroke-opacity="1" stroke-width="3.2"/>
<circle clip-path="url(#clip422)" cx="560.293" cy="897.483" r="14.4" fill="#ff0000" fill-rule="evenodd" fill-opacity="1" stroke="#000000" stroke-opacity="1" stroke-width="3.2"/>
<circle clip-path="url(#clip422)" cx="634.979" cy="972.212" r="14.4" fill="#ff0000" fill-rule="evenodd" fill-opacity="1" stroke="#000000" stroke-opacity="1" stroke-width="3.2"/>
<circle clip-path="url(#clip422)" cx="709.665" cy="1037.71" r="14.4" fill="#ff0000" fill-rule="evenodd" fill-opacity="1" stroke="#000000" stroke-opacity="1" stroke-width="3.2"/>
<circle clip-path="url(#clip422)" cx="784.351" cy="1091.55" r="14.4" fill="#ff0000" fill-rule="evenodd" fill-opacity="1" stroke="#000000" stroke-opacity="1" stroke-width="3.2"/>
<circle clip-path="url(#clip422)" cx="859.037" cy="1141" r="14.4" fill="#ff0000" fill-rule="evenodd" fill-opacity="1" stroke="#000000" stroke-opacity="1" stroke-width="3.2"/>
<circle clip-path="url(#clip422)" cx="933.723" cy="1181.01" r="14.4" fill="#ff0000" fill-rule="evenodd" fill-opacity="1" stroke="#000000" stroke-opacity="1" stroke-width="3.2"/>
<circle clip-path="url(#clip422)" cx="1008.41" cy="1213.76" r="14.4" fill="#ff0000" fill-rule="evenodd" fill-opacity="1" stroke="#000000" stroke-opacity="1" stroke-width="3.2"/>
<circle clip-path="url(#clip422)" cx="1083.09" cy="1241.27" r="14.4" fill="#ff0000" fill-rule="evenodd" fill-opacity="1" stroke="#000000" stroke-opacity="1" stroke-width="3.2"/>
<circle clip-path="url(#clip422)" cx="1157.78" cy="1264.86" r="14.4" fill="#ff0000" fill-rule="evenodd" fill-opacity="1" stroke="#000000" stroke-opacity="1" stroke-width="3.2"/>
<circle clip-path="url(#clip422)" cx="1232.47" cy="1287.29" r="14.4" fill="#ff0000" fill-rule="evenodd" fill-opacity="1" stroke="#000000" stroke-opacity="1" stroke-width="3.2"/>
<circle clip-path="url(#clip422)" cx="1307.15" cy="1299.66" r="14.4" fill="#ff0000" fill-rule="evenodd" fill-opacity="1" stroke="#000000" stroke-opacity="1" stroke-width="3.2"/>
<circle clip-path="url(#clip422)" cx="1381.84" cy="1315.95" r="14.4" fill="#ff0000" fill-rule="evenodd" fill-opacity="1" stroke="#000000" stroke-opacity="1" stroke-width="3.2"/>
<circle clip-path="url(#clip422)" cx="1456.52" cy="1327.51" r="14.4" fill="#ff0000" fill-rule="evenodd" fill-opacity="1" stroke="#000000" stroke-opacity="1" stroke-width="3.2"/>
<circle clip-path="url(#clip422)" cx="1531.21" cy="1336.22" r="14.4" fill="#ff0000" fill-rule="evenodd" fill-opacity="1" stroke="#000000" stroke-opacity="1" stroke-width="3.2"/>
<circle clip-path="url(#clip422)" cx="1605.9" cy="1345.88" r="14.4" fill="#ff0000" fill-rule="evenodd" fill-opacity="1" stroke="#000000" stroke-opacity="1" stroke-width="3.2"/>
<circle clip-path="url(#clip422)" cx="1680.58" cy="1352.87" r="14.4" fill="#ff0000" fill-rule="evenodd" fill-opacity="1" stroke="#000000" stroke-opacity="1" stroke-width="3.2"/>
<circle clip-path="url(#clip422)" cx="1755.27" cy="1360.72" r="14.4" fill="#ff0000" fill-rule="evenodd" fill-opacity="1" stroke="#000000" stroke-opacity="1" stroke-width="3.2"/>
<circle clip-path="url(#clip422)" cx="1829.95" cy="1365.74" r="14.4" fill="#ff0000" fill-rule="evenodd" fill-opacity="1" stroke="#000000" stroke-opacity="1" stroke-width="3.2"/>
<circle clip-path="url(#clip422)" cx="1904.64" cy="1369.96" r="14.4" fill="#ff0000" fill-rule="evenodd" fill-opacity="1" stroke="#000000" stroke-opacity="1" stroke-width="3.2"/>
<circle clip-path="url(#clip422)" cx="1979.33" cy="1369.94" r="14.4" fill="#ff0000" fill-rule="evenodd" fill-opacity="1" stroke="#000000" stroke-opacity="1" stroke-width="3.2"/>
<circle clip-path="url(#clip422)" cx="2054.01" cy="1374.81" r="14.4" fill="#ff0000" fill-rule="evenodd" fill-opacity="1" stroke="#000000" stroke-opacity="1" stroke-width="3.2"/>
<circle clip-path="url(#clip422)" cx="2128.7" cy="1376.9" r="14.4" fill="#ff0000" fill-rule="evenodd" fill-opacity="1" stroke="#000000" stroke-opacity="1" stroke-width="3.2"/>
<circle clip-path="url(#clip422)" cx="2203.38" cy="1380.51" r="14.4" fill="#ff0000" fill-rule="evenodd" fill-opacity="1" stroke="#000000" stroke-opacity="1" stroke-width="3.2"/>
<circle clip-path="url(#clip422)" cx="2278.07" cy="1384.24" r="14.4" fill="#ff0000" fill-rule="evenodd" fill-opacity="1" stroke="#000000" stroke-opacity="1" stroke-width="3.2"/>
<circle clip-path="url(#clip422)" cx="2352.76" cy="1384.14" r="14.4" fill="#ff0000" fill-rule="evenodd" fill-opacity="1" stroke="#000000" stroke-opacity="1" stroke-width="3.2"/>
<path clip-path="url(#clip420)" d="
M1779.42 248.629 L2278.07 248.629 L2278.07 93.1086 L1779.42 93.1086  Z
  " fill="#ffffff" fill-rule="evenodd" fill-opacity="1"/>
<polyline clip-path="url(#clip420)" style="stroke:#000000; stroke-linecap:round; stroke-linejoin:round; stroke-width:4; stroke-opacity:1; fill:none" points="
  1779.42,248.629 2278.07,248.629 2278.07,93.1086 1779.42,93.1086 1779.42,248.629 
  "/>
<polyline clip-path="url(#clip420)" style="stroke:#000000; stroke-linecap:round; stroke-linejoin:round; stroke-width:4; stroke-opacity:0.75; fill:none" points="
  1804.31,144.949 1953.69,144.949 
  "/>
<path clip-path="url(#clip420)" d="M1978.58 127.669 L2007.82 127.669 L2007.82 131.604 L1995.55 131.604 L1995.55 162.229 L1990.85 162.229 L1990.85 131.604 L1978.58 131.604 L1978.58 127.669 Z" fill="#000000" fill-rule="evenodd" fill-opacity="1" /><path clip-path="url(#clip420)" d="M2020.2 140.284 Q2019.48 139.868 2018.63 139.682 Q2017.79 139.474 2016.78 139.474 Q2013.16 139.474 2011.22 141.835 Q2009.3 144.173 2009.3 148.571 L2009.3 162.229 L2005.02 162.229 L2005.02 136.303 L2009.3 136.303 L2009.3 140.331 Q2010.64 137.969 2012.79 136.835 Q2014.95 135.678 2018.03 135.678 Q2018.47 135.678 2019 135.747 Q2019.53 135.794 2020.18 135.909 L2020.2 140.284 Z" fill="#000000" fill-rule="evenodd" fill-opacity="1" /><path clip-path="url(#clip420)" d="M2024.23 151.997 L2024.23 136.303 L2028.49 136.303 L2028.49 151.835 Q2028.49 155.516 2029.92 157.368 Q2031.36 159.196 2034.23 159.196 Q2037.68 159.196 2039.67 156.997 Q2041.68 154.798 2041.68 151.002 L2041.68 136.303 L2045.94 136.303 L2045.94 162.229 L2041.68 162.229 L2041.68 158.247 Q2040.13 160.608 2038.07 161.766 Q2036.03 162.9 2033.33 162.9 Q2028.86 162.9 2026.54 160.122 Q2024.23 157.344 2024.23 151.997 M2034.95 135.678 L2034.95 135.678 Z" fill="#000000" fill-rule="evenodd" fill-opacity="1" /><path clip-path="url(#clip420)" d="M2076.89 148.201 L2076.89 150.284 L2057.31 150.284 Q2057.59 154.682 2059.95 156.997 Q2062.33 159.289 2066.57 159.289 Q2069.02 159.289 2071.31 158.687 Q2073.63 158.085 2075.9 156.881 L2075.9 160.909 Q2073.6 161.881 2071.2 162.391 Q2068.79 162.9 2066.31 162.9 Q2060.11 162.9 2056.47 159.289 Q2052.86 155.678 2052.86 149.52 Q2052.86 143.155 2056.29 139.428 Q2059.74 135.678 2065.57 135.678 Q2070.8 135.678 2073.84 139.057 Q2076.89 142.414 2076.89 148.201 M2072.63 146.951 Q2072.59 143.456 2070.66 141.372 Q2068.77 139.289 2065.62 139.289 Q2062.05 139.289 2059.9 141.303 Q2057.77 143.317 2057.45 146.974 L2072.63 146.951 Z" fill="#000000" fill-rule="evenodd" fill-opacity="1" /><path clip-path="url(#clip420)" d="M2103.81 131.511 L2103.81 158.386 L2109.46 158.386 Q2116.61 158.386 2119.92 155.145 Q2123.26 151.905 2123.26 144.914 Q2123.26 137.969 2119.92 134.752 Q2116.61 131.511 2109.46 131.511 L2103.81 131.511 M2099.14 127.669 L2108.74 127.669 Q2118.79 127.669 2123.49 131.858 Q2128.19 136.025 2128.19 144.914 Q2128.19 153.849 2123.47 158.039 Q2118.74 162.229 2108.74 162.229 L2099.14 162.229 L2099.14 127.669 Z" fill="#000000" fill-rule="evenodd" fill-opacity="1" /><path clip-path="url(#clip420)" d="M2147.24 149.196 Q2142.08 149.196 2140.09 150.377 Q2138.09 151.557 2138.09 154.405 Q2138.09 156.673 2139.58 158.016 Q2141.08 159.335 2143.65 159.335 Q2147.19 159.335 2149.32 156.835 Q2151.47 154.312 2151.47 150.145 L2151.47 149.196 L2147.24 149.196 M2155.73 147.437 L2155.73 162.229 L2151.47 162.229 L2151.47 158.293 Q2150.02 160.655 2147.84 161.789 Q2145.66 162.9 2142.52 162.9 Q2138.53 162.9 2136.17 160.678 Q2133.84 158.432 2133.84 154.682 Q2133.84 150.307 2136.75 148.085 Q2139.69 145.863 2145.5 145.863 L2151.47 145.863 L2151.47 145.446 Q2151.47 142.507 2149.53 140.909 Q2147.61 139.289 2144.11 139.289 Q2141.89 139.289 2139.78 139.821 Q2137.68 140.354 2135.73 141.419 L2135.73 137.483 Q2138.07 136.581 2140.27 136.141 Q2142.47 135.678 2144.55 135.678 Q2150.18 135.678 2152.96 138.594 Q2155.73 141.511 2155.73 147.437 Z" fill="#000000" fill-rule="evenodd" fill-opacity="1" /><path clip-path="url(#clip420)" d="M2168.72 128.942 L2168.72 136.303 L2177.49 136.303 L2177.49 139.613 L2168.72 139.613 L2168.72 153.687 Q2168.72 156.858 2169.58 157.761 Q2170.46 158.664 2173.12 158.664 L2177.49 158.664 L2177.49 162.229 L2173.12 162.229 Q2168.19 162.229 2166.31 160.4 Q2164.44 158.548 2164.44 153.687 L2164.44 139.613 L2161.31 139.613 L2161.31 136.303 L2164.44 136.303 L2164.44 128.942 L2168.72 128.942 Z" fill="#000000" fill-rule="evenodd" fill-opacity="1" /><path clip-path="url(#clip420)" d="M2194.88 149.196 Q2189.71 149.196 2187.72 150.377 Q2185.73 151.557 2185.73 154.405 Q2185.73 156.673 2187.21 158.016 Q2188.72 159.335 2191.29 159.335 Q2194.83 159.335 2196.96 156.835 Q2199.11 154.312 2199.11 150.145 L2199.11 149.196 L2194.88 149.196 M2203.37 147.437 L2203.37 162.229 L2199.11 162.229 L2199.11 158.293 Q2197.65 160.655 2195.48 161.789 Q2193.3 162.9 2190.15 162.9 Q2186.17 162.9 2183.81 160.678 Q2181.47 158.432 2181.47 154.682 Q2181.47 150.307 2184.39 148.085 Q2187.33 145.863 2193.14 145.863 L2199.11 145.863 L2199.11 145.446 Q2199.11 142.507 2197.17 140.909 Q2195.25 139.289 2191.75 139.289 Q2189.53 139.289 2187.42 139.821 Q2185.32 140.354 2183.37 141.419 L2183.37 137.483 Q2185.71 136.581 2187.91 136.141 Q2190.11 135.678 2192.19 135.678 Q2197.82 135.678 2200.59 138.594 Q2203.37 141.511 2203.37 147.437 Z" fill="#000000" fill-rule="evenodd" fill-opacity="1" /><circle clip-path="url(#clip420)" cx="1879" cy="196.789" r="23.04" fill="#ff0000" fill-rule="evenodd" fill-opacity="1" stroke="#000000" stroke-opacity="1" stroke-width="5.12"/>
<path clip-path="url(#clip420)" d="M1978.58 179.509 L1984.88 179.509 L2000.2 208.421 L2000.2 179.509 L2004.74 179.509 L2004.74 214.069 L1998.44 214.069 L1983.12 185.157 L1983.12 214.069 L1978.58 214.069 L1978.58 179.509 Z" fill="#000000" fill-rule="evenodd" fill-opacity="1" /><path clip-path="url(#clip420)" d="M2023.91 191.129 Q2020.48 191.129 2018.49 193.814 Q2016.5 196.476 2016.5 201.129 Q2016.5 205.782 2018.47 208.467 Q2020.46 211.129 2023.91 211.129 Q2027.31 211.129 2029.3 208.444 Q2031.29 205.758 2031.29 201.129 Q2031.29 196.522 2029.3 193.837 Q2027.31 191.129 2023.91 191.129 M2023.91 187.518 Q2029.46 187.518 2032.63 191.129 Q2035.8 194.74 2035.8 201.129 Q2035.8 207.495 2032.63 211.129 Q2029.46 214.74 2023.91 214.74 Q2018.33 214.74 2015.16 211.129 Q2012.01 207.495 2012.01 201.129 Q2012.01 194.74 2015.16 191.129 Q2018.33 187.518 2023.91 187.518 Z" fill="#000000" fill-rule="evenodd" fill-opacity="1" /><path clip-path="url(#clip420)" d="M2042.86 188.143 L2047.12 188.143 L2047.12 214.069 L2042.86 214.069 L2042.86 188.143 M2042.86 178.05 L2047.12 178.05 L2047.12 183.444 L2042.86 183.444 L2042.86 178.05 Z" fill="#000000" fill-rule="evenodd" fill-opacity="1" /><path clip-path="url(#clip420)" d="M2072.56 188.907 L2072.56 192.934 Q2070.76 192.009 2068.81 191.546 Q2066.87 191.083 2064.78 191.083 Q2061.61 191.083 2060.02 192.055 Q2058.44 193.027 2058.44 194.971 Q2058.44 196.453 2059.58 197.309 Q2060.71 198.143 2064.14 198.907 L2065.59 199.231 Q2070.13 200.203 2072.03 201.985 Q2073.95 203.745 2073.95 206.916 Q2073.95 210.527 2071.08 212.633 Q2068.23 214.74 2063.23 214.74 Q2061.15 214.74 2058.88 214.323 Q2056.64 213.93 2054.14 213.12 L2054.14 208.721 Q2056.5 209.948 2058.79 210.573 Q2061.08 211.175 2063.33 211.175 Q2066.34 211.175 2067.96 210.157 Q2069.58 209.115 2069.58 207.24 Q2069.58 205.504 2068.4 204.578 Q2067.24 203.652 2063.28 202.796 L2061.8 202.448 Q2057.84 201.615 2056.08 199.902 Q2054.32 198.166 2054.32 195.157 Q2054.32 191.499 2056.91 189.509 Q2059.51 187.518 2064.28 187.518 Q2066.64 187.518 2068.72 187.865 Q2070.8 188.212 2072.56 188.907 Z" fill="#000000" fill-rule="evenodd" fill-opacity="1" /><path clip-path="url(#clip420)" d="M2091.52 216.476 Q2089.72 221.106 2088 222.518 Q2086.29 223.93 2083.42 223.93 L2080.02 223.93 L2080.02 220.365 L2082.52 220.365 Q2084.28 220.365 2085.25 219.532 Q2086.22 218.698 2087.4 215.596 L2088.16 213.652 L2077.68 188.143 L2082.19 188.143 L2090.29 208.421 L2098.4 188.143 L2102.91 188.143 L2091.52 216.476 Z" fill="#000000" fill-rule="evenodd" fill-opacity="1" /><path clip-path="url(#clip420)" d="M2128.72 183.351 L2128.72 210.226 L2134.37 210.226 Q2141.52 210.226 2144.83 206.985 Q2148.16 203.745 2148.16 196.754 Q2148.16 189.809 2144.83 186.592 Q2141.52 183.351 2134.37 183.351 L2128.72 183.351 M2124.04 179.509 L2133.65 179.509 Q2143.7 179.509 2148.4 183.698 Q2153.09 187.865 2153.09 196.754 Q2153.09 205.689 2148.37 209.879 Q2143.65 214.069 2133.65 214.069 L2124.04 214.069 L2124.04 179.509 Z" fill="#000000" fill-rule="evenodd" fill-opacity="1" /><path clip-path="url(#clip420)" d="M2172.15 201.036 Q2166.98 201.036 2164.99 202.217 Q2163 203.397 2163 206.245 Q2163 208.513 2164.48 209.856 Q2165.99 211.175 2168.56 211.175 Q2172.1 211.175 2174.23 208.675 Q2176.38 206.152 2176.38 201.985 L2176.38 201.036 L2172.15 201.036 M2180.64 199.277 L2180.64 214.069 L2176.38 214.069 L2176.38 210.133 Q2174.92 212.495 2172.75 213.629 Q2170.57 214.74 2167.42 214.74 Q2163.44 214.74 2161.08 212.518 Q2158.74 210.272 2158.74 206.522 Q2158.74 202.147 2161.66 199.925 Q2164.6 197.703 2170.41 197.703 L2176.38 197.703 L2176.38 197.286 Q2176.38 194.347 2174.44 192.749 Q2172.52 191.129 2169.02 191.129 Q2166.8 191.129 2164.69 191.661 Q2162.59 192.194 2160.64 193.259 L2160.64 189.323 Q2162.98 188.421 2165.18 187.981 Q2167.38 187.518 2169.46 187.518 Q2175.09 187.518 2177.86 190.434 Q2180.64 193.351 2180.64 199.277 Z" fill="#000000" fill-rule="evenodd" fill-opacity="1" /><path clip-path="url(#clip420)" d="M2193.63 180.782 L2193.63 188.143 L2202.4 188.143 L2202.4 191.453 L2193.63 191.453 L2193.63 205.527 Q2193.63 208.698 2194.48 209.601 Q2195.36 210.504 2198.02 210.504 L2202.4 210.504 L2202.4 214.069 L2198.02 214.069 Q2193.09 214.069 2191.22 212.24 Q2189.34 210.388 2189.34 205.527 L2189.34 191.453 L2186.22 191.453 L2186.22 188.143 L2189.34 188.143 L2189.34 180.782 L2193.63 180.782 Z" fill="#000000" fill-rule="evenodd" fill-opacity="1" /><path clip-path="url(#clip420)" d="M2219.78 201.036 Q2214.62 201.036 2212.63 202.217 Q2210.64 203.397 2210.64 206.245 Q2210.64 208.513 2212.12 209.856 Q2213.63 211.175 2216.2 211.175 Q2219.74 211.175 2221.87 208.675 Q2224.02 206.152 2224.02 201.985 L2224.02 201.036 L2219.78 201.036 M2228.28 199.277 L2228.28 214.069 L2224.02 214.069 L2224.02 210.133 Q2222.56 212.495 2220.39 213.629 Q2218.21 214.74 2215.06 214.74 Q2211.08 214.74 2208.72 212.518 Q2206.38 210.272 2206.38 206.522 Q2206.38 202.147 2209.3 199.925 Q2212.24 197.703 2218.05 197.703 L2224.02 197.703 L2224.02 197.286 Q2224.02 194.347 2222.08 192.749 Q2220.15 191.129 2216.66 191.129 Q2214.44 191.129 2212.33 191.661 Q2210.22 192.194 2208.28 193.259 L2208.28 189.323 Q2210.62 188.421 2212.82 187.981 Q2215.02 187.518 2217.1 187.518 Q2222.72 187.518 2225.5 190.434 Q2228.28 193.351 2228.28 199.277 Z" fill="#000000" fill-rule="evenodd" fill-opacity="1" /></svg>
