<?xml version="1.0" encoding="utf-8"?>
<svg xmlns="http://www.w3.org/2000/svg" xmlns:xlink="http://www.w3.org/1999/xlink" width="600" height="400" viewBox="0 0 2400 1600">
<defs>
  <clipPath id="clip500">
    <rect x="0" y="0" width="2400" height="1600"/>
  </clipPath>
</defs>
<path clip-path="url(#clip500)" d="
M0 1600 L2400 1600 L2400 0 L0 0  Z
  " fill="#ffffff" fill-rule="evenodd" fill-opacity="1"/>
<defs>
  <clipPath id="clip501">
    <rect x="480" y="0" width="1681" height="1600"/>
  </clipPath>
</defs>
<path clip-path="url(#clip500)" d="
M175.445 1423.18 L1111.88 1423.18 L1111.88 47.2441 L175.445 47.2441  Z
  " fill="#ffffff" fill-rule="evenodd" fill-opacity="1"/>
<defs>
  <clipPath id="clip502">
    <rect x="175" y="47" width="937" height="1377"/>
  </clipPath>
</defs>
<polyline clip-path="url(#clip502)" style="stroke:#000000; stroke-linecap:round; stroke-linejoin:round; stroke-width:2; stroke-opacity:0.1; fill:none" points="
  201.948,1423.18 201.948,47.2441 
  "/>
<polyline clip-path="url(#clip502)" style="stroke:#000000; stroke-linecap:round; stroke-linejoin:round; stroke-width:2; stroke-opacity:0.1; fill:none" points="
  496.423,1423.18 496.423,47.2441 
  "/>
<polyline clip-path="url(#clip502)" style="stroke:#000000; stroke-linecap:round; stroke-linejoin:round; stroke-width:2; stroke-opacity:0.1; fill:none" points="
  790.898,1423.18 790.898,47.2441 
  "/>
<polyline clip-path="url(#clip502)" style="stroke:#000000; stroke-linecap:round; stroke-linejoin:round; stroke-width:2; stroke-opacity:0.1; fill:none" points="
  1085.37,1423.18 1085.37,47.2441 
  "/>
<polyline clip-path="url(#clip500)" style="stroke:#000000; stroke-linecap:round; stroke-linejoin:round; stroke-width:4; stroke-opacity:1; fill:none" points="
  175.445,1423.18 1111.88,1423.18 
  "/>
<polyline clip-path="url(#clip500)" style="stroke:#000000; stroke-linecap:round; stroke-linejoin:round; stroke-width:4; stroke-opacity:1; fill:none" points="
  201.948,1423.18 201.948,1404.28 
  "/>
<polyline clip-path="url(#clip500)" style="stroke:#000000; stroke-linecap:round; stroke-linejoin:round; stroke-width:4; stroke-opacity:1; fill:none" points="
  496.423,1423.18 496.423,1404.28 
  "/>
<polyline clip-path="url(#clip500)" style="stroke:#000000; stroke-linecap:round; stroke-linejoin:round; stroke-width:4; stroke-opacity:1; fill:none" points="
  790.898,1423.18 790.898,1404.28 
  "/>
<polyline clip-path="url(#clip500)" style="stroke:#000000; stroke-linecap:round; stroke-linejoin:round; stroke-width:4; stroke-opacity:1; fill:none" points="
  1085.37,1423.18 1085.37,1404.28 
  "/>
<path clip-path="url(#clip500)" d="M201.948 1454.1 Q198.337 1454.1 196.508 1457.66 Q194.703 1461.2 194.703 1468.33 Q194.703 1475.44 196.508 1479.01 Q198.337 1482.55 201.948 1482.55 Q205.582 1482.55 207.388 1479.01 Q209.216 1475.44 209.216 1468.33 Q209.216 1461.2 207.388 1457.66 Q205.582 1454.1 201.948 1454.1 M201.948 1450.39 Q207.758 1450.39 210.814 1455 Q213.892 1459.58 213.892 1468.33 Q213.892 1477.06 210.814 1481.67 Q207.758 1486.25 201.948 1486.25 Q196.138 1486.25 193.059 1481.67 Q190.004 1477.06 190.004 1468.33 Q190.004 1459.58 193.059 1455 Q196.138 1450.39 201.948 1450.39 Z" fill="#000000" fill-rule="evenodd" fill-opacity="1" /><path clip-path="url(#clip500)" d="M486.805 1481.64 L494.444 1481.64 L494.444 1455.28 L486.134 1456.95 L486.134 1452.69 L494.398 1451.02 L499.074 1451.02 L499.074 1481.64 L506.713 1481.64 L506.713 1485.58 L486.805 1485.58 L486.805 1481.64 Z" fill="#000000" fill-rule="evenodd" fill-opacity="1" /><path clip-path="url(#clip500)" d="M785.551 1481.64 L801.871 1481.64 L801.871 1485.58 L779.926 1485.58 L779.926 1481.64 Q782.588 1478.89 787.172 1474.26 Q791.778 1469.61 792.959 1468.27 Q795.204 1465.74 796.084 1464.01 Q796.986 1462.25 796.986 1460.56 Q796.986 1457.8 795.042 1456.07 Q793.121 1454.33 790.019 1454.33 Q787.82 1454.33 785.366 1455.09 Q782.936 1455.86 780.158 1457.41 L780.158 1452.69 Q782.982 1451.55 785.436 1450.97 Q787.889 1450.39 789.926 1450.39 Q795.297 1450.39 798.491 1453.08 Q801.685 1455.77 801.685 1460.26 Q801.685 1462.39 800.875 1464.31 Q800.088 1466.2 797.982 1468.8 Q797.403 1469.47 794.301 1472.69 Q791.199 1475.88 785.551 1481.64 Z" fill="#000000" fill-rule="evenodd" fill-opacity="1" /><path clip-path="url(#clip500)" d="M1089.62 1466.95 Q1092.98 1467.66 1094.85 1469.93 Q1096.75 1472.2 1096.75 1475.53 Q1096.75 1480.65 1093.23 1483.45 Q1089.71 1486.25 1083.23 1486.25 Q1081.06 1486.25 1078.74 1485.81 Q1076.45 1485.39 1074 1484.54 L1074 1480.02 Q1075.94 1481.16 1078.26 1481.74 Q1080.57 1482.32 1083.09 1482.32 Q1087.49 1482.32 1089.78 1480.58 Q1092.1 1478.84 1092.1 1475.53 Q1092.1 1472.48 1089.95 1470.77 Q1087.82 1469.03 1084 1469.03 L1079.97 1469.03 L1079.97 1465.19 L1084.18 1465.19 Q1087.63 1465.19 1089.46 1463.82 Q1091.29 1462.43 1091.29 1459.84 Q1091.29 1457.18 1089.39 1455.77 Q1087.51 1454.33 1084 1454.33 Q1082.08 1454.33 1079.88 1454.75 Q1077.68 1455.16 1075.04 1456.04 L1075.04 1451.88 Q1077.7 1451.14 1080.01 1450.77 Q1082.35 1450.39 1084.41 1450.39 Q1089.74 1450.39 1092.84 1452.83 Q1095.94 1455.23 1095.94 1459.35 Q1095.94 1462.22 1094.3 1464.21 Q1092.65 1466.18 1089.62 1466.95 Z" fill="#000000" fill-rule="evenodd" fill-opacity="1" /><path clip-path="url(#clip500)" d="M642.722 1522.27 L642.722 1532.4 L654.785 1532.4 L654.785 1536.95 L642.722 1536.95 L642.722 1556.3 Q642.722 1560.66 643.9 1561.9 Q645.109 1563.14 648.769 1563.14 L654.785 1563.14 L654.785 1568.04 L648.769 1568.04 Q641.99 1568.04 639.412 1565.53 Q636.834 1562.98 636.834 1556.3 L636.834 1536.95 L632.537 1536.95 L632.537 1532.4 L636.834 1532.4 L636.834 1522.27 L642.722 1522.27 Z" fill="#000000" fill-rule="evenodd" fill-opacity="1" /><polyline clip-path="url(#clip502)" style="stroke:#000000; stroke-linecap:round; stroke-linejoin:round; stroke-width:2; stroke-opacity:0.1; fill:none" points="
  175.445,1401.59 1111.88,1401.59 
  "/>
<polyline clip-path="url(#clip502)" style="stroke:#000000; stroke-linecap:round; stroke-linejoin:round; stroke-width:2; stroke-opacity:0.1; fill:none" points="
  175.445,1117.09 1111.88,1117.09 
  "/>
<polyline clip-path="url(#clip502)" style="stroke:#000000; stroke-linecap:round; stroke-linejoin:round; stroke-width:2; stroke-opacity:0.1; fill:none" points="
  175.445,832.601 1111.88,832.601 
  "/>
<polyline clip-path="url(#clip502)" style="stroke:#000000; stroke-linecap:round; stroke-linejoin:round; stroke-width:2; stroke-opacity:0.1; fill:none" points="
  175.445,548.108 1111.88,548.108 
  "/>
<polyline clip-path="url(#clip502)" style="stroke:#000000; stroke-linecap:round; stroke-linejoin:round; stroke-width:2; stroke-opacity:0.1; fill:none" points="
  175.445,263.615 1111.88,263.615 
  "/>
<polyline clip-path="url(#clip500)" style="stroke:#000000; stroke-linecap:round; stroke-linejoin:round; stroke-width:4; stroke-opacity:1; fill:none" points="
  175.445,1423.18 175.445,47.2441 
  "/>
<polyline clip-path="url(#clip500)" style="stroke:#000000; stroke-linecap:round; stroke-linejoin:round; stroke-width:4; stroke-opacity:1; fill:none" points="
  175.445,1401.59 194.343,1401.59 
  "/>
<polyline clip-path="url(#clip500)" style="stroke:#000000; stroke-linecap:round; stroke-linejoin:round; stroke-width:4; stroke-opacity:1; fill:none" points="
  175.445,1117.09 194.343,1117.09 
  "/>
<polyline clip-path="url(#clip500)" style="stroke:#000000; stroke-linecap:round; stroke-linejoin:round; stroke-width:4; stroke-opacity:1; fill:none" points="
  175.445,832.601 194.343,832.601 
  "/>
<polyline clip-path="url(#clip500)" style="stroke:#000000; stroke-linecap:round; stroke-linejoin:round; stroke-width:4; stroke-opacity:1; fill:none" points="
  175.445,548.108 194.343,548.108 
  "/>
<polyline clip-path="url(#clip500)" style="stroke:#000000; stroke-linecap:round; stroke-linejoin:round; stroke-width:4; stroke-opacity:1; fill:none" points="
  175.445,263.615 194.343,263.615 
  "/>
<path clip-path="url(#clip500)" d="M127.501 1387.39 Q123.89 1387.39 122.061 1390.95 Q120.255 1394.49 120.255 1401.62 Q120.255 1408.73 122.061 1412.29 Q123.89 1415.84 127.501 1415.84 Q131.135 1415.84 132.941 1412.29 Q134.769 1408.73 134.769 1401.62 Q134.769 1394.49 132.941 1390.95 Q131.135 1387.39 127.501 1387.39 M127.501 1383.68 Q133.311 1383.68 136.367 1388.29 Q139.445 1392.87 139.445 1401.62 Q139.445 1410.35 136.367 1414.96 Q133.311 1419.54 127.501 1419.54 Q121.691 1419.54 118.612 1414.96 Q115.556 1410.35 115.556 1401.62 Q115.556 1392.87 118.612 1388.29 Q121.691 1383.68 127.501 1383.68 Z" fill="#000000" fill-rule="evenodd" fill-opacity="1" /><path clip-path="url(#clip500)" d="M119.538 1130.44 L127.177 1130.44 L127.177 1104.07 L118.867 1105.74 L118.867 1101.48 L127.13 1099.81 L131.806 1099.81 L131.806 1130.44 L139.445 1130.44 L139.445 1134.37 L119.538 1134.37 L119.538 1130.44 Z" fill="#000000" fill-rule="evenodd" fill-opacity="1" /><path clip-path="url(#clip500)" d="M123.126 845.946 L139.445 845.946 L139.445 849.881 L117.501 849.881 L117.501 845.946 Q120.163 843.191 124.746 838.562 Q129.353 833.909 130.533 832.567 Q132.779 830.043 133.658 828.307 Q134.561 826.548 134.561 824.858 Q134.561 822.104 132.617 820.368 Q130.695 818.631 127.593 818.631 Q125.394 818.631 122.941 819.395 Q120.51 820.159 117.732 821.71 L117.732 816.988 Q120.556 815.854 123.01 815.275 Q125.464 814.696 127.501 814.696 Q132.871 814.696 136.066 817.381 Q139.26 820.067 139.26 824.557 Q139.26 826.687 138.45 828.608 Q137.663 830.506 135.556 833.099 Q134.978 833.77 131.876 836.988 Q128.774 840.182 123.126 845.946 Z" fill="#000000" fill-rule="evenodd" fill-opacity="1" /><path clip-path="url(#clip500)" d="M132.316 546.754 Q135.672 547.471 137.547 549.74 Q139.445 552.008 139.445 555.342 Q139.445 560.457 135.927 563.258 Q132.408 566.059 125.927 566.059 Q123.751 566.059 121.436 565.619 Q119.144 565.203 116.691 564.346 L116.691 559.832 Q118.635 560.967 120.95 561.545 Q123.265 562.124 125.788 562.124 Q130.186 562.124 132.478 560.388 Q134.792 558.652 134.792 555.342 Q134.792 552.286 132.64 550.573 Q130.51 548.837 126.691 548.837 L122.663 548.837 L122.663 544.995 L126.876 544.995 Q130.325 544.995 132.154 543.629 Q133.982 542.24 133.982 539.647 Q133.982 536.985 132.084 535.573 Q130.209 534.138 126.691 534.138 Q124.769 534.138 122.57 534.555 Q120.371 534.971 117.732 535.851 L117.732 531.684 Q120.394 530.944 122.709 530.573 Q125.047 530.203 127.107 530.203 Q132.431 530.203 135.533 532.633 Q138.635 535.041 138.635 539.161 Q138.635 542.032 136.992 544.022 Q135.348 545.99 132.316 546.754 Z" fill="#000000" fill-rule="evenodd" fill-opacity="1" /><path clip-path="url(#clip500)" d="M129.862 250.409 L118.056 268.858 L129.862 268.858 L129.862 250.409 M128.635 246.335 L134.515 246.335 L134.515 268.858 L139.445 268.858 L139.445 272.747 L134.515 272.747 L134.515 280.895 L129.862 280.895 L129.862 272.747 L114.26 272.747 L114.26 268.233 L128.635 246.335 Z" fill="#000000" fill-rule="evenodd" fill-opacity="1" /><path clip-path="url(#clip500)" d="M28.3562 833.292 L45.7028 846.182 L64.0042 832.623 L64.0042 839.53 L49.9996 849.906 L64.0042 860.282 L64.0042 867.189 L45.3526 853.344 L28.3562 866.011 L28.3562 859.105 L41.0558 849.651 L28.3562 840.198 L28.3562 833.292 Z" fill="#000000" fill-rule="evenodd" fill-opacity="1" /><path clip-path="url(#clip500)" d="M14.5426 810.28 Q21.8632 814.545 29.0246 816.613 Q36.186 818.682 43.5384 818.682 Q50.8908 818.682 58.1159 816.613 Q65.3091 814.513 72.5979 810.28 L72.5979 815.372 Q65.1182 820.146 57.8931 822.534 Q50.668 824.889 43.5384 824.889 Q36.4406 824.889 29.2474 822.534 Q22.0542 820.178 14.5426 815.372 L14.5426 810.28 Z" fill="#000000" fill-rule="evenodd" fill-opacity="1" /><path clip-path="url(#clip500)" d="M18.2347 793.124 L28.3562 793.124 L28.3562 781.061 L32.9077 781.061 L32.9077 793.124 L52.2594 793.124 Q56.6199 793.124 57.8613 791.946 Q59.1026 790.737 59.1026 787.077 L59.1026 781.061 L64.0042 781.061 L64.0042 787.077 Q64.0042 793.856 61.4897 796.434 Q58.9434 799.012 52.2594 799.012 L32.9077 799.012 L32.9077 803.309 L28.3562 803.309 L28.3562 799.012 L18.2347 799.012 L18.2347 793.124 Z" fill="#000000" fill-rule="evenodd" fill-opacity="1" /><path clip-path="url(#clip500)" d="M14.5426 774.281 L14.5426 769.189 Q22.0542 764.415 29.2474 762.059 Q36.4406 759.672 43.5384 759.672 Q50.668 759.672 57.8931 762.059 Q65.1182 764.415 72.5979 769.189 L72.5979 774.281 Q65.3091 770.048 58.1159 767.979 Q50.8908 765.879 43.5384 765.879 Q36.186 765.879 29.0246 767.979 Q21.8632 770.048 14.5426 774.281 Z" fill="#000000" fill-rule="evenodd" fill-opacity="1" /><path clip-path="url(#clip500)" d="M55.9197 746.432 L55.9197 739.716 L61.3942 739.716 L71.5793 744.936 L71.5793 749.041 L61.3942 746.432 L55.9197 746.432 Z" fill="#000000" fill-rule="evenodd" fill-opacity="1" /><path clip-path="url(#clip500)" d="M67.3143 691.655 Q73.68 694.137 75.6216 696.493 Q77.5631 698.848 77.5631 702.795 L77.5631 707.473 L72.6615 707.473 L72.6615 704.036 Q72.6615 701.617 71.5157 700.28 Q70.3699 698.943 66.1048 697.32 L63.4312 696.27 L28.3562 710.688 L28.3562 704.482 L56.238 693.342 L28.3562 682.202 L28.3562 675.995 L67.3143 691.655 Z" fill="#000000" fill-rule="evenodd" fill-opacity="1" /><path clip-path="url(#clip500)" d="M14.5426 653.842 Q21.8632 658.107 29.0246 660.176 Q36.186 662.245 43.5384 662.245 Q50.8908 662.245 58.1159 660.176 Q65.3091 658.076 72.5979 653.842 L72.5979 658.935 Q65.1182 663.709 57.8931 666.096 Q50.668 668.452 43.5384 668.452 Q36.4406 668.452 29.2474 666.096 Q22.0542 663.741 14.5426 658.935 L14.5426 653.842 Z" fill="#000000" fill-rule="evenodd" fill-opacity="1" /><path clip-path="url(#clip500)" d="M18.2347 636.687 L28.3562 636.687 L28.3562 624.624 L32.9077 624.624 L32.9077 636.687 L52.2594 636.687 Q56.6199 636.687 57.8613 635.509 Q59.1026 634.3 59.1026 630.639 L59.1026 624.624 L64.0042 624.624 L64.0042 630.639 Q64.0042 637.419 61.4897 639.997 Q58.9434 642.575 52.2594 642.575 L32.9077 642.575 L32.9077 646.872 L28.3562 646.872 L28.3562 642.575 L18.2347 642.575 L18.2347 636.687 Z" fill="#000000" fill-rule="evenodd" fill-opacity="1" /><path clip-path="url(#clip500)" d="M14.5426 617.844 L14.5426 612.752 Q22.0542 607.977 29.2474 605.622 Q36.4406 603.235 43.5384 603.235 Q50.668 603.235 57.8931 605.622 Q65.1182 607.977 72.5979 612.752 L72.5979 617.844 Q65.3091 613.611 58.1159 611.542 Q50.8908 609.442 43.5384 609.442 Q36.186 609.442 29.0246 611.542 Q21.8632 613.611 14.5426 617.844 Z" fill="#000000" fill-rule="evenodd" fill-opacity="1" /><polyline clip-path="url(#clip502)" style="stroke:#ff0000; stroke-linecap:round; stroke-linejoin:round; stroke-width:4; stroke-opacity:1; fill:none" points="
  201.948,1275.68 216.672,1289.92 231.396,1303.01 246.119,1313.48 260.843,1321.24 275.567,1327.37 290.291,1332.75 305.014,1337.52 319.738,1341.37 334.462,1344.08 
  349.186,1345.76 363.909,1346.76 378.633,1347.33 393.357,1347.66 408.081,1347.82 422.804,1347.85 437.528,1347.74 452.252,1347.46 466.976,1346.96 481.699,1346.21 
  496.423,1345.15 511.147,1343.78 525.871,1342.1 540.595,1340.12 555.318,1337.86 570.042,1335.33 584.766,1332.56 599.49,1329.54 614.213,1326.29 628.937,1322.79 
  643.661,1319.05 658.385,1315.04 673.108,1310.76 687.832,1306.19 702.556,1301.31 717.28,1296.09 732.003,1290.52 746.727,1284.55 761.451,1278.17 776.175,1271.33 
  790.898,1264 805.622,1256.13 820.346,1247.69 835.07,1238.64 849.794,1228.92 864.517,1218.5 879.241,1207.35 893.965,1195.42 908.689,1182.66 923.412,1169.05 
  938.136,1154.58 952.86,1139.23 967.584,1122.96 982.307,1105.61 997.031,1086.93 1011.75,1066.62 1026.48,1044.58 1041.2,1020.99 1055.93,996.271 1070.65,970.898 
  1085.37,945.135 
  "/>
<polyline clip-path="url(#clip502)" style="stroke:#ff0000; stroke-linecap:round; stroke-linejoin:round; stroke-width:4; stroke-opacity:1; fill:none" points="
  201.948,86.1857 216.672,180.025 231.396,267.731 246.119,350.881 260.843,429.725 275.567,503.59 290.291,572.167 305.014,635.98 319.738,695.968 334.462,752.488 
  349.186,805.017 363.909,853.028 378.633,896.559 393.357,936.084 408.081,972.222 422.804,1005.55 437.528,1036.49 452.252,1065.34 466.976,1092.19 481.699,1117.09 
  496.423,1140.02 511.147,1161.03 525.871,1180.2 540.595,1197.68 555.318,1213.64 570.042,1228.24 584.766,1241.62 599.49,1253.87 614.213,1265.1 628.937,1275.39 
  643.661,1284.81 658.385,1293.43 673.108,1301.31 687.832,1308.52 702.556,1315.12 717.28,1321.18 732.003,1326.75 746.727,1331.89 761.451,1336.67 776.175,1341.15 
  790.898,1345.37 805.622,1349.36 820.346,1353.16 835.07,1356.75 849.794,1360.07 864.517,1363.04 879.241,1365.57 893.965,1367.59 908.689,1369.12 923.412,1370.27 
  938.136,1371.23 952.86,1372.21 967.584,1373.42 982.307,1374.96 997.031,1376.83 1011.75,1378.88 1026.48,1380.85 1041.2,1382.5 1055.93,1383.68 1070.65,1384.24 
  1085.37,1384.01 
  "/>
<circle clip-path="url(#clip502)" cx="201.948" cy="1275.68" r="14.4" fill="#000000" fill-rule="evenodd" fill-opacity="1" stroke="none"/>
<circle clip-path="url(#clip502)" cx="231.396" cy="1303.03" r="14.4" fill="#000000" fill-rule="evenodd" fill-opacity="1" stroke="none"/>
<circle clip-path="url(#clip502)" cx="260.843" cy="1320.83" r="14.4" fill="#000000" fill-rule="evenodd" fill-opacity="1" stroke="none"/>
<circle clip-path="url(#clip502)" cx="290.291" cy="1333.58" r="14.4" fill="#000000" fill-rule="evenodd" fill-opacity="1" stroke="none"/>
<circle clip-path="url(#clip502)" cx="319.738" cy="1341.14" r="14.4" fill="#000000" fill-rule="evenodd" fill-opacity="1" stroke="none"/>
<circle clip-path="url(#clip502)" cx="349.186" cy="1345.01" r="14.4" fill="#000000" fill-rule="evenodd" fill-opacity="1" stroke="none"/>
<circle clip-path="url(#clip502)" cx="378.633" cy="1347.56" r="14.4" fill="#000000" fill-rule="evenodd" fill-opacity="1" stroke="none"/>
<circle clip-path="url(#clip502)" cx="408.081" cy="1348.49" r="14.4" fill="#000000" fill-rule="evenodd" fill-opacity="1" stroke="none"/>
<circle clip-path="url(#clip502)" cx="437.528" cy="1347.87" r="14.4" fill="#000000" fill-rule="evenodd" fill-opacity="1" stroke="none"/>
<circle clip-path="url(#clip502)" cx="466.976" cy="1346.36" r="14.4" fill="#000000" fill-rule="evenodd" fill-opacity="1" stroke="none"/>
<circle clip-path="url(#clip502)" cx="496.423" cy="1344.91" r="14.4" fill="#000000" fill-rule="evenodd" fill-opacity="1" stroke="none"/>
<circle clip-path="url(#clip502)" cx="525.871" cy="1342.37" r="14.4" fill="#000000" fill-rule="evenodd" fill-opacity="1" stroke="none"/>
<circle clip-path="url(#clip502)" cx="555.318" cy="1338.64" r="14.4" fill="#000000" fill-rule="evenodd" fill-opacity="1" stroke="none"/>
<circle clip-path="url(#clip502)" cx="584.766" cy="1332.27" r="14.4" fill="#000000" fill-rule="evenodd" fill-opacity="1" stroke="none"/>
<circle clip-path="url(#clip502)" cx="614.213" cy="1324.66" r="14.4" fill="#000000" fill-rule="evenodd" fill-opacity="1" stroke="none"/>
<circle clip-path="url(#clip502)" cx="643.661" cy="1320.02" r="14.4" fill="#000000" fill-rule="evenodd" fill-opacity="1" stroke="none"/>
<circle clip-path="url(#clip502)" cx="673.108" cy="1311.28" r="14.4" fill="#000000" fill-rule="evenodd" fill-opacity="1" stroke="none"/>
<circle clip-path="url(#clip502)" cx="702.556" cy="1301.71" r="14.4" fill="#000000" fill-rule="evenodd" fill-opacity="1" stroke="none"/>
<circle clip-path="url(#clip502)" cx="732.003" cy="1290.25" r="14.4" fill="#000000" fill-rule="evenodd" fill-opacity="1" stroke="none"/>
<circle clip-path="url(#clip502)" cx="761.451" cy="1277.49" r="14.4" fill="#000000" fill-rule="evenodd" fill-opacity="1" stroke="none"/>
<circle clip-path="url(#clip502)" cx="790.898" cy="1264.31" r="14.4" fill="#000000" fill-rule="evenodd" fill-opacity="1" stroke="none"/>
<circle clip-path="url(#clip502)" cx="820.346" cy="1247.34" r="14.4" fill="#000000" fill-rule="evenodd" fill-opacity="1" stroke="none"/>
<circle clip-path="url(#clip502)" cx="849.794" cy="1229.26" r="14.4" fill="#000000" fill-rule="evenodd" fill-opacity="1" stroke="none"/>
<circle clip-path="url(#clip502)" cx="879.241" cy="1206.86" r="14.4" fill="#000000" fill-rule="evenodd" fill-opacity="1" stroke="none"/>
<circle clip-path="url(#clip502)" cx="908.689" cy="1183.65" r="14.4" fill="#000000" fill-rule="evenodd" fill-opacity="1" stroke="none"/>
<circle clip-path="url(#clip502)" cx="938.136" cy="1153.96" r="14.4" fill="#000000" fill-rule="evenodd" fill-opacity="1" stroke="none"/>
<circle clip-path="url(#clip502)" cx="967.584" cy="1123.13" r="14.4" fill="#000000" fill-rule="evenodd" fill-opacity="1" stroke="none"/>
<circle clip-path="url(#clip502)" cx="997.031" cy="1086.6" r="14.4" fill="#000000" fill-rule="evenodd" fill-opacity="1" stroke="none"/>
<circle clip-path="url(#clip502)" cx="1026.48" cy="1045.04" r="14.4" fill="#000000" fill-rule="evenodd" fill-opacity="1" stroke="none"/>
<circle clip-path="url(#clip502)" cx="1055.93" cy="995.963" r="14.4" fill="#000000" fill-rule="evenodd" fill-opacity="1" stroke="none"/>
<circle clip-path="url(#clip502)" cx="1085.37" cy="945.23" r="14.4" fill="#000000" fill-rule="evenodd" fill-opacity="1" stroke="none"/>
<circle clip-path="url(#clip502)" cx="201.948" cy="86.1857" r="14.4" fill="#000000" fill-rule="evenodd" fill-opacity="1" stroke="none"/>
<circle clip-path="url(#clip502)" cx="231.396" cy="267.651" r="14.4" fill="#000000" fill-rule="evenodd" fill-opacity="1" stroke="none"/>
<circle clip-path="url(#clip502)" cx="260.843" cy="429.699" r="14.4" fill="#000000" fill-rule="evenodd" fill-opacity="1" stroke="none"/>
<circle clip-path="url(#clip502)" cx="290.291" cy="572.676" r="14.4" fill="#000000" fill-rule="evenodd" fill-opacity="1" stroke="none"/>
<circle clip-path="url(#clip502)" cx="319.738" cy="695.311" r="14.4" fill="#000000" fill-rule="evenodd" fill-opacity="1" stroke="none"/>
<circle clip-path="url(#clip502)" cx="349.186" cy="805.205" r="14.4" fill="#000000" fill-rule="evenodd" fill-opacity="1" stroke="none"/>
<circle clip-path="url(#clip502)" cx="378.633" cy="896.899" r="14.4" fill="#000000" fill-rule="evenodd" fill-opacity="1" stroke="none"/>
<circle clip-path="url(#clip502)" cx="408.081" cy="971.689" r="14.4" fill="#000000" fill-rule="evenodd" fill-opacity="1" stroke="none"/>
<circle clip-path="url(#clip502)" cx="437.528" cy="1037.24" r="14.4" fill="#000000" fill-rule="evenodd" fill-opacity="1" stroke="none"/>
<circle clip-path="url(#clip502)" cx="466.976" cy="1091.12" r="14.4" fill="#000000" fill-rule="evenodd" fill-opacity="1" stroke="none"/>
<circle clip-path="url(#clip502)" cx="496.423" cy="1140.61" r="14.4" fill="#000000" fill-rule="evenodd" fill-opacity="1" stroke="none"/>
<circle clip-path="url(#clip502)" cx="525.871" cy="1180.65" r="14.4" fill="#000000" fill-rule="evenodd" fill-opacity="1" stroke="none"/>
<circle clip-path="url(#clip502)" cx="555.318" cy="1213.44" r="14.4" fill="#000000" fill-rule="evenodd" fill-opacity="1" stroke="none"/>
<circle clip-path="url(#clip502)" cx="584.766" cy="1240.97" r="14.4" fill="#000000" fill-rule="evenodd" fill-opacity="1" stroke="none"/>
<circle clip-path="url(#clip502)" cx="614.213" cy="1264.57" r="14.4" fill="#000000" fill-rule="evenodd" fill-opacity="1" stroke="none"/>
<circle clip-path="url(#clip502)" cx="643.661" cy="1287.02" r="14.4" fill="#000000" fill-rule="evenodd" fill-opacity="1" stroke="none"/>
<circle clip-path="url(#clip502)" cx="673.108" cy="1299.41" r="14.4" fill="#000000" fill-rule="evenodd" fill-opacity="1" stroke="none"/>
<circle clip-path="url(#clip502)" cx="702.556" cy="1315.7" r="14.4" fill="#000000" fill-rule="evenodd" fill-opacity="1" stroke="none"/>
<circle clip-path="url(#clip502)" cx="732.003" cy="1327.28" r="14.4" fill="#000000" fill-rule="evenodd" fill-opacity="1" stroke="none"/>
<circle clip-path="url(#clip502)" cx="761.451" cy="1335.99" r="14.4" fill="#000000" fill-rule="evenodd" fill-opacity="1" stroke="none"/>
<circle clip-path="url(#clip502)" cx="790.898" cy="1345.66" r="14.4" fill="#000000" fill-rule="evenodd" fill-opacity="1" stroke="none"/>
<circle clip-path="url(#clip502)" cx="820.346" cy="1352.66" r="14.4" fill="#000000" fill-rule="evenodd" fill-opacity="1" stroke="none"/>
<circle clip-path="url(#clip502)" cx="849.794" cy="1360.51" r="14.4" fill="#000000" fill-rule="evenodd" fill-opacity="1" stroke="none"/>
<circle clip-path="url(#clip502)" cx="879.241" cy="1365.54" r="14.4" fill="#000000" fill-rule="evenodd" fill-opacity="1" stroke="none"/>
<circle clip-path="url(#clip502)" cx="908.689" cy="1369.77" r="14.4" fill="#000000" fill-rule="evenodd" fill-opacity="1" stroke="none"/>
<circle clip-path="url(#clip502)" cx="938.136" cy="1369.74" r="14.4" fill="#000000" fill-rule="evenodd" fill-opacity="1" stroke="none"/>
<circle clip-path="url(#clip502)" cx="967.584" cy="1374.61" r="14.4" fill="#000000" fill-rule="evenodd" fill-opacity="1" stroke="none"/>
<circle clip-path="url(#clip502)" cx="997.031" cy="1376.71" r="14.4" fill="#000000" fill-rule="evenodd" fill-opacity="1" stroke="none"/>
<circle clip-path="url(#clip502)" cx="1026.48" cy="1380.32" r="14.4" fill="#000000" fill-rule="evenodd" fill-opacity="1" stroke="none"/>
<circle clip-path="url(#clip502)" cx="1055.93" cy="1384.05" r="14.4" fill="#000000" fill-rule="evenodd" fill-opacity="1" stroke="none"/>
<circle clip-path="url(#clip502)" cx="1085.37" cy="1383.96" r="14.4" fill="#000000" fill-rule="evenodd" fill-opacity="1" stroke="none"/>
<path clip-path="url(#clip500)" d="
M522.658 248.629 L1080.66 248.629 L1080.66 93.1086 L522.658 93.1086  Z
  " fill="#ffffff" fill-rule="evenodd" fill-opacity="1"/>
<polyline clip-path="url(#clip500)" style="stroke:#000000; stroke-linecap:round; stroke-linejoin:round; stroke-width:4; stroke-opacity:1; fill:none" points="
  522.658,248.629 1080.66,248.629 1080.66,93.1086 522.658,93.1086 522.658,248.629 
  "/>
<polyline clip-path="url(#clip500)" style="stroke:#ff0000; stroke-linecap:round; stroke-linejoin:round; stroke-width:4; stroke-opacity:1; fill:none" points="
  533.063,144.949 595.492,144.949 
  "/>
<path clip-path="url(#clip500)" d="M605.897 127.669 L610.596 127.669 L610.596 148.664 Q610.596 154.219 612.61 156.673 Q614.623 159.104 619.137 159.104 Q623.628 159.104 625.642 156.673 Q627.656 154.219 627.656 148.664 L627.656 127.669 L632.355 127.669 L632.355 149.243 Q632.355 156.002 628.998 159.451 Q625.665 162.9 619.137 162.9 Q612.586 162.9 609.23 159.451 Q605.897 156.002 605.897 149.243 L605.897 127.669 Z" fill="#000000" fill-rule="evenodd" fill-opacity="1" /><path clip-path="url(#clip500)" d="M645.804 131.511 L645.804 158.386 L651.452 158.386 Q658.605 158.386 661.915 155.145 Q665.248 151.905 665.248 144.914 Q665.248 137.969 661.915 134.752 Q658.605 131.511 651.452 131.511 L645.804 131.511 M641.128 127.669 L650.734 127.669 Q660.781 127.669 665.48 131.858 Q670.179 136.025 670.179 144.914 Q670.179 153.849 665.456 158.039 Q660.734 162.229 650.734 162.229 L641.128 162.229 L641.128 127.669 Z" fill="#000000" fill-rule="evenodd" fill-opacity="1" /><path clip-path="url(#clip500)" d="M677.632 127.669 L699.484 127.669 L699.484 131.604 L682.308 131.604 L682.308 141.835 L698.767 141.835 L698.767 145.77 L682.308 145.77 L682.308 158.293 L699.901 158.293 L699.901 162.229 L677.632 162.229 L677.632 127.669 Z" fill="#000000" fill-rule="evenodd" fill-opacity="1" /><path clip-path="url(#clip500)" d="M734.206 132.275 L727.864 149.474 L740.572 149.474 L734.206 132.275 M731.567 127.669 L736.868 127.669 L750.039 162.229 L745.178 162.229 L742.03 153.363 L726.452 153.363 L723.303 162.229 L718.373 162.229 L731.567 127.669 Z" fill="#000000" fill-rule="evenodd" fill-opacity="1" /><path clip-path="url(#clip500)" d="M759.021 158.34 L759.021 172.09 L754.738 172.09 L754.738 136.303 L759.021 136.303 L759.021 140.238 Q760.363 137.923 762.4 136.812 Q764.461 135.678 767.308 135.678 Q772.03 135.678 774.97 139.428 Q777.933 143.178 777.933 149.289 Q777.933 155.4 774.97 159.15 Q772.03 162.9 767.308 162.9 Q764.461 162.9 762.4 161.789 Q760.363 160.655 759.021 158.34 M773.511 149.289 Q773.511 144.59 771.567 141.928 Q769.646 139.243 766.266 139.243 Q762.887 139.243 760.942 141.928 Q759.021 144.59 759.021 149.289 Q759.021 153.988 760.942 156.673 Q762.887 159.335 766.266 159.335 Q769.646 159.335 771.567 156.673 Q773.511 153.988 773.511 149.289 Z" fill="#000000" fill-rule="evenodd" fill-opacity="1" /><path clip-path="url(#clip500)" d="M789.113 158.34 L789.113 172.09 L784.831 172.09 L784.831 136.303 L789.113 136.303 L789.113 140.238 Q790.456 137.923 792.493 136.812 Q794.553 135.678 797.4 135.678 Q802.122 135.678 805.062 139.428 Q808.025 143.178 808.025 149.289 Q808.025 155.4 805.062 159.15 Q802.122 162.9 797.4 162.9 Q794.553 162.9 792.493 161.789 Q790.456 160.655 789.113 158.34 M803.604 149.289 Q803.604 144.59 801.659 141.928 Q799.738 139.243 796.359 139.243 Q792.979 139.243 791.035 141.928 Q789.113 144.59 789.113 149.289 Q789.113 153.988 791.035 156.673 Q792.979 159.335 796.359 159.335 Q799.738 159.335 801.659 156.673 Q803.604 153.988 803.604 149.289 Z" fill="#000000" fill-rule="evenodd" fill-opacity="1" /><path clip-path="url(#clip500)" d="M830.108 140.284 Q829.391 139.868 828.534 139.682 Q827.701 139.474 826.682 139.474 Q823.071 139.474 821.127 141.835 Q819.206 144.173 819.206 148.571 L819.206 162.229 L814.923 162.229 L814.923 136.303 L819.206 136.303 L819.206 140.331 Q820.548 137.969 822.701 136.835 Q824.854 135.678 827.932 135.678 Q828.372 135.678 828.905 135.747 Q829.437 135.794 830.085 135.909 L830.108 140.284 Z" fill="#000000" fill-rule="evenodd" fill-opacity="1" /><path clip-path="url(#clip500)" d="M843.581 139.289 Q840.155 139.289 838.164 141.974 Q836.173 144.636 836.173 149.289 Q836.173 153.942 838.141 156.627 Q840.131 159.289 843.581 159.289 Q846.983 159.289 848.974 156.604 Q850.965 153.918 850.965 149.289 Q850.965 144.682 848.974 141.997 Q846.983 139.289 843.581 139.289 M843.581 135.678 Q849.136 135.678 852.307 139.289 Q855.479 142.9 855.479 149.289 Q855.479 155.655 852.307 159.289 Q849.136 162.9 843.581 162.9 Q838.002 162.9 834.831 159.289 Q831.682 155.655 831.682 149.289 Q831.682 142.9 834.831 139.289 Q838.002 135.678 843.581 135.678 Z" fill="#000000" fill-rule="evenodd" fill-opacity="1" /><path clip-path="url(#clip500)" d="M882.631 136.303 L873.256 148.919 L883.117 162.229 L878.094 162.229 L870.548 152.043 L863.002 162.229 L857.979 162.229 L868.048 148.664 L858.835 136.303 L863.858 136.303 L870.733 145.539 L877.608 136.303 L882.631 136.303 Z" fill="#000000" fill-rule="evenodd" fill-opacity="1" /><path clip-path="url(#clip500)" d="M889.136 136.303 L893.395 136.303 L893.395 162.229 L889.136 162.229 L889.136 136.303 M889.136 126.21 L893.395 126.21 L893.395 131.604 L889.136 131.604 L889.136 126.21 Z" fill="#000000" fill-rule="evenodd" fill-opacity="1" /><path clip-path="url(#clip500)" d="M922.492 141.28 Q924.089 138.409 926.312 137.044 Q928.534 135.678 931.543 135.678 Q935.594 135.678 937.793 138.525 Q939.992 141.349 939.992 146.581 L939.992 162.229 L935.71 162.229 L935.71 146.719 Q935.71 142.993 934.39 141.187 Q933.071 139.382 930.362 139.382 Q927.052 139.382 925.131 141.581 Q923.21 143.78 923.21 147.576 L923.21 162.229 L918.927 162.229 L918.927 146.719 Q918.927 142.969 917.608 141.187 Q916.288 139.382 913.534 139.382 Q910.27 139.382 908.349 141.604 Q906.427 143.803 906.427 147.576 L906.427 162.229 L902.145 162.229 L902.145 136.303 L906.427 136.303 L906.427 140.331 Q907.886 137.946 909.923 136.812 Q911.96 135.678 914.761 135.678 Q917.585 135.678 919.552 137.113 Q921.543 138.548 922.492 141.28 Z" fill="#000000" fill-rule="evenodd" fill-opacity="1" /><path clip-path="url(#clip500)" d="M960.27 149.196 Q955.108 149.196 953.117 150.377 Q951.126 151.557 951.126 154.405 Q951.126 156.673 952.608 158.016 Q954.112 159.335 956.682 159.335 Q960.223 159.335 962.353 156.835 Q964.506 154.312 964.506 150.145 L964.506 149.196 L960.27 149.196 M968.765 147.437 L968.765 162.229 L964.506 162.229 L964.506 158.293 Q963.047 160.655 960.872 161.789 Q958.696 162.9 955.548 162.9 Q951.566 162.9 949.205 160.678 Q946.867 158.432 946.867 154.682 Q946.867 150.307 949.784 148.085 Q952.723 145.863 958.534 145.863 L964.506 145.863 L964.506 145.446 Q964.506 142.507 962.561 140.909 Q960.64 139.289 957.145 139.289 Q954.923 139.289 952.816 139.821 Q950.71 140.354 948.765 141.419 L948.765 137.483 Q951.103 136.581 953.302 136.141 Q955.501 135.678 957.585 135.678 Q963.21 135.678 965.987 138.594 Q968.765 141.511 968.765 147.437 Z" fill="#000000" fill-rule="evenodd" fill-opacity="1" /><path clip-path="url(#clip500)" d="M981.751 128.942 L981.751 136.303 L990.524 136.303 L990.524 139.613 L981.751 139.613 L981.751 153.687 Q981.751 156.858 982.608 157.761 Q983.487 158.664 986.149 158.664 L990.524 158.664 L990.524 162.229 L986.149 162.229 Q981.219 162.229 979.344 160.4 Q977.469 158.548 977.469 153.687 L977.469 139.613 L974.344 139.613 L974.344 136.303 L977.469 136.303 L977.469 128.942 L981.751 128.942 Z" fill="#000000" fill-rule="evenodd" fill-opacity="1" /><path clip-path="url(#clip500)" d="M996.126 136.303 L1000.39 136.303 L1000.39 162.229 L996.126 162.229 L996.126 136.303 M996.126 126.21 L1000.39 126.21 L1000.39 131.604 L996.126 131.604 L996.126 126.21 Z" fill="#000000" fill-rule="evenodd" fill-opacity="1" /><path clip-path="url(#clip500)" d="M1019.34 139.289 Q1015.92 139.289 1013.93 141.974 Q1011.94 144.636 1011.94 149.289 Q1011.94 153.942 1013.9 156.627 Q1015.89 159.289 1019.34 159.289 Q1022.75 159.289 1024.74 156.604 Q1026.73 153.918 1026.73 149.289 Q1026.73 144.682 1024.74 141.997 Q1022.75 139.289 1019.34 139.289 M1019.34 135.678 Q1024.9 135.678 1028.07 139.289 Q1031.24 142.9 1031.24 149.289 Q1031.24 155.655 1028.07 159.289 Q1024.9 162.9 1019.34 162.9 Q1013.76 162.9 1010.59 159.289 Q1007.45 155.655 1007.45 149.289 Q1007.45 142.9 1010.59 139.289 Q1013.76 135.678 1019.34 135.678 Z" fill="#000000" fill-rule="evenodd" fill-opacity="1" /><path clip-path="url(#clip500)" d="M1059.85 146.581 L1059.85 162.229 L1055.59 162.229 L1055.59 146.719 Q1055.59 143.039 1054.16 141.21 Q1052.72 139.382 1049.85 139.382 Q1046.4 139.382 1044.41 141.581 Q1042.42 143.78 1042.42 147.576 L1042.42 162.229 L1038.14 162.229 L1038.14 136.303 L1042.42 136.303 L1042.42 140.331 Q1043.95 137.993 1046.01 136.835 Q1048.09 135.678 1050.8 135.678 Q1055.27 135.678 1057.56 138.456 Q1059.85 141.21 1059.85 146.581 Z" fill="#000000" fill-rule="evenodd" fill-opacity="1" /><circle clip-path="url(#clip500)" cx="564.277" cy="196.789" r="23.04" fill="#000000" fill-rule="evenodd" fill-opacity="1" stroke="none"/>
<path clip-path="url(#clip500)" d="M605.897 179.509 L612.864 179.509 L621.684 203.027 L630.549 179.509 L637.517 179.509 L637.517 214.069 L632.957 214.069 L632.957 183.722 L624.045 207.425 L619.346 207.425 L610.434 183.722 L610.434 214.069 L605.897 214.069 L605.897 179.509 Z" fill="#000000" fill-rule="evenodd" fill-opacity="1" /><path clip-path="url(#clip500)" d="M668.79 200.041 L668.79 202.124 L649.207 202.124 Q649.484 206.522 651.845 208.837 Q654.23 211.129 658.466 211.129 Q660.919 211.129 663.211 210.527 Q665.526 209.925 667.794 208.721 L667.794 212.749 Q665.503 213.721 663.095 214.231 Q660.688 214.74 658.211 214.74 Q652.007 214.74 648.373 211.129 Q644.762 207.518 644.762 201.36 Q644.762 194.995 648.188 191.268 Q651.637 187.518 657.47 187.518 Q662.702 187.518 665.734 190.897 Q668.79 194.254 668.79 200.041 M664.531 198.791 Q664.484 195.296 662.563 193.212 Q660.665 191.129 657.517 191.129 Q653.952 191.129 651.799 193.143 Q649.67 195.157 649.345 198.814 L664.531 198.791 Z" fill="#000000" fill-rule="evenodd" fill-opacity="1" /><path clip-path="url(#clip500)" d="M687.563 201.036 Q682.401 201.036 680.41 202.217 Q678.419 203.397 678.419 206.245 Q678.419 208.513 679.901 209.856 Q681.405 211.175 683.975 211.175 Q687.517 211.175 689.646 208.675 Q691.799 206.152 691.799 201.985 L691.799 201.036 L687.563 201.036 M696.058 199.277 L696.058 214.069 L691.799 214.069 L691.799 210.133 Q690.341 212.495 688.165 213.629 Q685.989 214.74 682.841 214.74 Q678.859 214.74 676.498 212.518 Q674.16 210.272 674.16 206.522 Q674.16 202.147 677.077 199.925 Q680.017 197.703 685.827 197.703 L691.799 197.703 L691.799 197.286 Q691.799 194.347 689.855 192.749 Q687.933 191.129 684.438 191.129 Q682.216 191.129 680.109 191.661 Q678.003 192.194 676.058 193.259 L676.058 189.323 Q678.396 188.421 680.595 187.981 Q682.794 187.518 684.878 187.518 Q690.503 187.518 693.28 190.434 Q696.058 193.351 696.058 199.277 Z" fill="#000000" fill-rule="evenodd" fill-opacity="1" /><path clip-path="url(#clip500)" d="M721.359 188.907 L721.359 192.934 Q719.553 192.009 717.609 191.546 Q715.665 191.083 713.581 191.083 Q710.41 191.083 708.813 192.055 Q707.239 193.027 707.239 194.971 Q707.239 196.453 708.373 197.309 Q709.507 198.143 712.933 198.907 L714.391 199.231 Q718.928 200.203 720.827 201.985 Q722.748 203.745 722.748 206.916 Q722.748 210.527 719.878 212.633 Q717.03 214.74 712.03 214.74 Q709.947 214.74 707.678 214.323 Q705.433 213.93 702.933 213.12 L702.933 208.721 Q705.294 209.948 707.586 210.573 Q709.878 211.175 712.123 211.175 Q715.132 211.175 716.753 210.157 Q718.373 209.115 718.373 207.24 Q718.373 205.504 717.192 204.578 Q716.035 203.652 712.077 202.796 L710.595 202.448 Q706.637 201.615 704.878 199.902 Q703.118 198.166 703.118 195.157 Q703.118 191.499 705.711 189.509 Q708.303 187.518 713.072 187.518 Q715.433 187.518 717.516 187.865 Q719.6 188.212 721.359 188.907 Z" fill="#000000" fill-rule="evenodd" fill-opacity="1" /><path clip-path="url(#clip500)" d="M729.09 203.837 L729.09 188.143 L733.35 188.143 L733.35 203.675 Q733.35 207.356 734.785 209.208 Q736.22 211.036 739.09 211.036 Q742.539 211.036 744.53 208.837 Q746.544 206.638 746.544 202.842 L746.544 188.143 L750.803 188.143 L750.803 214.069 L746.544 214.069 L746.544 210.087 Q744.993 212.448 742.933 213.606 Q740.896 214.74 738.188 214.74 Q733.72 214.74 731.405 211.962 Q729.09 209.184 729.09 203.837 M739.808 187.518 L739.808 187.518 Z" fill="#000000" fill-rule="evenodd" fill-opacity="1" /><path clip-path="url(#clip500)" d="M774.599 192.124 Q773.882 191.708 773.025 191.522 Q772.192 191.314 771.174 191.314 Q767.562 191.314 765.618 193.675 Q763.697 196.013 763.697 200.411 L763.697 214.069 L759.414 214.069 L759.414 188.143 L763.697 188.143 L763.697 192.171 Q765.039 189.809 767.192 188.675 Q769.345 187.518 772.424 187.518 Q772.863 187.518 773.396 187.587 Q773.928 187.634 774.576 187.749 L774.599 192.124 Z" fill="#000000" fill-rule="evenodd" fill-opacity="1" /><path clip-path="url(#clip500)" d="M800.201 200.041 L800.201 202.124 L780.618 202.124 Q780.896 206.522 783.257 208.837 Q785.641 211.129 789.877 211.129 Q792.331 211.129 794.622 210.527 Q796.937 209.925 799.206 208.721 L799.206 212.749 Q796.914 213.721 794.507 214.231 Q792.099 214.74 789.623 214.74 Q783.419 214.74 779.785 211.129 Q776.173 207.518 776.173 201.36 Q776.173 194.995 779.599 191.268 Q783.048 187.518 788.882 187.518 Q794.113 187.518 797.146 190.897 Q800.201 194.254 800.201 200.041 M795.942 198.791 Q795.896 195.296 793.974 193.212 Q792.076 191.129 788.928 191.129 Q785.363 191.129 783.21 193.143 Q781.081 195.157 780.757 198.814 L795.942 198.791 Z" fill="#000000" fill-rule="evenodd" fill-opacity="1" /><path clip-path="url(#clip500)" d="M827.377 193.12 Q828.974 190.249 831.196 188.884 Q833.419 187.518 836.428 187.518 Q840.479 187.518 842.678 190.365 Q844.877 193.189 844.877 198.421 L844.877 214.069 L840.594 214.069 L840.594 198.559 Q840.594 194.833 839.275 193.027 Q837.956 191.222 835.247 191.222 Q831.937 191.222 830.016 193.421 Q828.095 195.62 828.095 199.416 L828.095 214.069 L823.812 214.069 L823.812 198.559 Q823.812 194.809 822.493 193.027 Q821.173 191.222 818.419 191.222 Q815.155 191.222 813.233 193.444 Q811.312 195.643 811.312 199.416 L811.312 214.069 L807.03 214.069 L807.03 188.143 L811.312 188.143 L811.312 192.171 Q812.771 189.786 814.808 188.652 Q816.845 187.518 819.645 187.518 Q822.47 187.518 824.437 188.953 Q826.428 190.388 827.377 193.12 Z" fill="#000000" fill-rule="evenodd" fill-opacity="1" /><path clip-path="url(#clip500)" d="M875.548 200.041 L875.548 202.124 L855.965 202.124 Q856.243 206.522 858.604 208.837 Q860.988 211.129 865.224 211.129 Q867.678 211.129 869.969 210.527 Q872.284 209.925 874.553 208.721 L874.553 212.749 Q872.261 213.721 869.854 214.231 Q867.446 214.74 864.969 214.74 Q858.766 214.74 855.131 211.129 Q851.52 207.518 851.52 201.36 Q851.52 194.995 854.946 191.268 Q858.395 187.518 864.229 187.518 Q869.46 187.518 872.492 190.897 Q875.548 194.254 875.548 200.041 M871.289 198.791 Q871.242 195.296 869.321 193.212 Q867.423 191.129 864.275 191.129 Q860.71 191.129 858.557 193.143 Q856.428 195.157 856.104 198.814 L871.289 198.791 Z" fill="#000000" fill-rule="evenodd" fill-opacity="1" /><path clip-path="url(#clip500)" d="M904.089 198.421 L904.089 214.069 L899.83 214.069 L899.83 198.559 Q899.83 194.879 898.395 193.05 Q896.96 191.222 894.09 191.222 Q890.64 191.222 888.65 193.421 Q886.659 195.62 886.659 199.416 L886.659 214.069 L882.377 214.069 L882.377 188.143 L886.659 188.143 L886.659 192.171 Q888.187 189.833 890.247 188.675 Q892.33 187.518 895.039 187.518 Q899.506 187.518 901.798 190.296 Q904.089 193.05 904.089 198.421 Z" fill="#000000" fill-rule="evenodd" fill-opacity="1" /><path clip-path="url(#clip500)" d="M916.798 180.782 L916.798 188.143 L925.571 188.143 L925.571 191.453 L916.798 191.453 L916.798 205.527 Q916.798 208.698 917.654 209.601 Q918.534 210.504 921.196 210.504 L925.571 210.504 L925.571 214.069 L921.196 214.069 Q916.265 214.069 914.39 212.24 Q912.515 210.388 912.515 205.527 L912.515 191.453 L909.39 191.453 L909.39 188.143 L912.515 188.143 L912.515 180.782 L916.798 180.782 Z" fill="#000000" fill-rule="evenodd" fill-opacity="1" /><path clip-path="url(#clip500)" d="M947.7 188.907 L947.7 192.934 Q945.895 192.009 943.95 191.546 Q942.006 191.083 939.923 191.083 Q936.751 191.083 935.154 192.055 Q933.58 193.027 933.58 194.971 Q933.58 196.453 934.714 197.309 Q935.849 198.143 939.274 198.907 L940.733 199.231 Q945.27 200.203 947.168 201.985 Q949.089 203.745 949.089 206.916 Q949.089 210.527 946.219 212.633 Q943.372 214.74 938.372 214.74 Q936.288 214.74 934.02 214.323 Q931.775 213.93 929.275 213.12 L929.275 208.721 Q931.636 209.948 933.927 210.573 Q936.219 211.175 938.464 211.175 Q941.474 211.175 943.094 210.157 Q944.714 209.115 944.714 207.24 Q944.714 205.504 943.534 204.578 Q942.376 203.652 938.418 202.796 L936.937 202.448 Q932.978 201.615 931.219 199.902 Q929.46 198.166 929.46 195.157 Q929.46 191.499 932.052 189.509 Q934.645 187.518 939.413 187.518 Q941.774 187.518 943.858 187.865 Q945.941 188.212 947.7 188.907 Z" fill="#000000" fill-rule="evenodd" fill-opacity="1" /><path clip-path="url(#clip500)" d="
M1416.32 623.18 L2352.76 623.18 L2352.76 47.2441 L1416.32 47.2441  Z
  " fill="#ffffff" fill-rule="evenodd" fill-opacity="1"/>
<defs>
  <clipPath id="clip503">
    <rect x="1416" y="47" width="937" height="577"/>
  </clipPath>
</defs>
<polyline clip-path="url(#clip503)" style="stroke:#000000; stroke-linecap:round; stroke-linejoin:round; stroke-width:2; stroke-opacity:0.1; fill:none" points="
  1442.83,623.18 1442.83,47.2441 
  "/>
<polyline clip-path="url(#clip503)" style="stroke:#000000; stroke-linecap:round; stroke-linejoin:round; stroke-width:2; stroke-opacity:0.1; fill:none" points="
  1737.3,623.18 1737.3,47.2441 
  "/>
<polyline clip-path="url(#clip503)" style="stroke:#000000; stroke-linecap:round; stroke-linejoin:round; stroke-width:2; stroke-opacity:0.1; fill:none" points="
  2031.78,623.18 2031.78,47.2441 
  "/>
<polyline clip-path="url(#clip503)" style="stroke:#000000; stroke-linecap:round; stroke-linejoin:round; stroke-width:2; stroke-opacity:0.1; fill:none" points="
  2326.25,623.18 2326.25,47.2441 
  "/>
<polyline clip-path="url(#clip500)" style="stroke:#000000; stroke-linecap:round; stroke-linejoin:round; stroke-width:4; stroke-opacity:1; fill:none" points="
  1416.32,623.18 2352.76,623.18 
  "/>
<polyline clip-path="url(#clip500)" style="stroke:#000000; stroke-linecap:round; stroke-linejoin:round; stroke-width:4; stroke-opacity:1; fill:none" points="
  1442.83,623.18 1442.83,604.282 
  "/>
<polyline clip-path="url(#clip500)" style="stroke:#000000; stroke-linecap:round; stroke-linejoin:round; stroke-width:4; stroke-opacity:1; fill:none" points="
  1737.3,623.18 1737.3,604.282 
  "/>
<polyline clip-path="url(#clip500)" style="stroke:#000000; stroke-linecap:round; stroke-linejoin:round; stroke-width:4; stroke-opacity:1; fill:none" points="
  2031.78,623.18 2031.78,604.282 
  "/>
<polyline clip-path="url(#clip500)" style="stroke:#000000; stroke-linecap:round; stroke-linejoin:round; stroke-width:4; stroke-opacity:1; fill:none" points="
  2326.25,623.18 2326.25,604.282 
  "/>
<path clip-path="url(#clip500)" d="M1442.83 654.099 Q1439.22 654.099 1437.39 657.663 Q1435.58 661.205 1435.58 668.335 Q1435.58 675.441 1437.39 679.006 Q1439.22 682.547 1442.83 682.547 Q1446.46 682.547 1448.27 679.006 Q1450.1 675.441 1450.1 668.335 Q1450.1 661.205 1448.27 657.663 Q1446.46 654.099 1442.83 654.099 M1442.83 650.395 Q1448.64 650.395 1451.69 655.001 Q1454.77 659.585 1454.77 668.335 Q1454.77 677.061 1451.69 681.668 Q1448.64 686.251 1442.83 686.251 Q1437.02 686.251 1433.94 681.668 Q1430.88 677.061 1430.88 668.335 Q1430.88 659.585 1433.94 655.001 Q1437.02 650.395 1442.83 650.395 Z" fill="#000000" fill-rule="evenodd" fill-opacity="1" /><path clip-path="url(#clip500)" d="M1727.68 681.645 L1735.32 681.645 L1735.32 655.279 L1727.01 656.946 L1727.01 652.687 L1735.28 651.02 L1739.95 651.02 L1739.95 681.645 L1747.59 681.645 L1747.59 685.58 L1727.68 685.58 L1727.68 681.645 Z" fill="#000000" fill-rule="evenodd" fill-opacity="1" /><path clip-path="url(#clip500)" d="M2026.43 681.645 L2042.75 681.645 L2042.75 685.58 L2020.81 685.58 L2020.81 681.645 Q2023.47 678.89 2028.05 674.26 Q2032.66 669.608 2033.84 668.265 Q2036.08 665.742 2036.96 664.006 Q2037.87 662.247 2037.87 660.557 Q2037.87 657.802 2035.92 656.066 Q2034 654.33 2030.9 654.33 Q2028.7 654.33 2026.25 655.094 Q2023.81 655.858 2021.04 657.409 L2021.04 652.687 Q2023.86 651.552 2026.31 650.974 Q2028.77 650.395 2030.81 650.395 Q2036.18 650.395 2039.37 653.08 Q2042.56 655.765 2042.56 660.256 Q2042.56 662.386 2041.75 664.307 Q2040.97 666.205 2038.86 668.798 Q2038.28 669.469 2035.18 672.686 Q2032.08 675.881 2026.43 681.645 Z" fill="#000000" fill-rule="evenodd" fill-opacity="1" /><path clip-path="url(#clip500)" d="M2330.5 666.946 Q2333.86 667.663 2335.73 669.932 Q2337.63 672.2 2337.63 675.534 Q2337.63 680.649 2334.11 683.45 Q2330.59 686.251 2324.11 686.251 Q2321.94 686.251 2319.62 685.811 Q2317.33 685.395 2314.88 684.538 L2314.88 680.024 Q2316.82 681.159 2319.14 681.737 Q2321.45 682.316 2323.97 682.316 Q2328.37 682.316 2330.66 680.58 Q2332.98 678.844 2332.98 675.534 Q2332.98 672.478 2330.82 670.765 Q2328.7 669.029 2324.88 669.029 L2320.85 669.029 L2320.85 665.186 L2325.06 665.186 Q2328.51 665.186 2330.34 663.821 Q2332.17 662.432 2332.17 659.839 Q2332.17 657.177 2330.27 655.765 Q2328.39 654.33 2324.88 654.33 Q2322.95 654.33 2320.76 654.747 Q2318.56 655.163 2315.92 656.043 L2315.92 651.876 Q2318.58 651.136 2320.89 650.765 Q2323.23 650.395 2325.29 650.395 Q2330.62 650.395 2333.72 652.825 Q2336.82 655.233 2336.82 659.353 Q2336.82 662.223 2335.18 664.214 Q2333.53 666.182 2330.5 666.946 Z" fill="#000000" fill-rule="evenodd" fill-opacity="1" /><path clip-path="url(#clip500)" d="M1883.6 722.274 L1883.6 732.396 L1895.66 732.396 L1895.66 736.947 L1883.6 736.947 L1883.6 756.299 Q1883.6 760.66 1884.78 761.901 Q1885.99 763.142 1889.65 763.142 L1895.66 763.142 L1895.66 768.044 L1889.65 768.044 Q1882.87 768.044 1880.29 765.529 Q1877.71 762.983 1877.71 756.299 L1877.71 736.947 L1873.42 736.947 L1873.42 732.396 L1877.71 732.396 L1877.71 722.274 L1883.6 722.274 Z" fill="#000000" fill-rule="evenodd" fill-opacity="1" /><polyline clip-path="url(#clip503)" style="stroke:#000000; stroke-linecap:round; stroke-linejoin:round; stroke-width:2; stroke-opacity:0.1; fill:none" points="
  1416.32,553.523 2352.76,553.523 
  "/>
<polyline clip-path="url(#clip503)" style="stroke:#000000; stroke-linecap:round; stroke-linejoin:round; stroke-width:2; stroke-opacity:0.1; fill:none" points="
  1416.32,475.426 2352.76,475.426 
  "/>
<polyline clip-path="url(#clip503)" style="stroke:#000000; stroke-linecap:round; stroke-linejoin:round; stroke-width:2; stroke-opacity:0.1; fill:none" points="
  1416.32,397.329 2352.76,397.329 
  "/>
<polyline clip-path="url(#clip503)" style="stroke:#000000; stroke-linecap:round; stroke-linejoin:round; stroke-width:2; stroke-opacity:0.1; fill:none" points="
  1416.32,319.232 2352.76,319.232 
  "/>
<polyline clip-path="url(#clip503)" style="stroke:#000000; stroke-linecap:round; stroke-linejoin:round; stroke-width:2; stroke-opacity:0.1; fill:none" points="
  1416.32,241.134 2352.76,241.134 
  "/>
<polyline clip-path="url(#clip503)" style="stroke:#000000; stroke-linecap:round; stroke-linejoin:round; stroke-width:2; stroke-opacity:0.1; fill:none" points="
  1416.32,163.037 2352.76,163.037 
  "/>
<polyline clip-path="url(#clip503)" style="stroke:#000000; stroke-linecap:round; stroke-linejoin:round; stroke-width:2; stroke-opacity:0.1; fill:none" points="
  1416.32,84.9396 2352.76,84.9396 
  "/>
<polyline clip-path="url(#clip500)" style="stroke:#000000; stroke-linecap:round; stroke-linejoin:round; stroke-width:4; stroke-opacity:1; fill:none" points="
  1416.32,623.18 1416.32,47.2441 
  "/>
<polyline clip-path="url(#clip500)" style="stroke:#000000; stroke-linecap:round; stroke-linejoin:round; stroke-width:4; stroke-opacity:1; fill:none" points="
  1416.32,553.523 1435.22,553.523 
  "/>
<polyline clip-path="url(#clip500)" style="stroke:#000000; stroke-linecap:round; stroke-linejoin:round; stroke-width:4; stroke-opacity:1; fill:none" points="
  1416.32,475.426 1435.22,475.426 
  "/>
<polyline clip-path="url(#clip500)" style="stroke:#000000; stroke-linecap:round; stroke-linejoin:round; stroke-width:4; stroke-opacity:1; fill:none" points="
  1416.32,397.329 1435.22,397.329 
  "/>
<polyline clip-path="url(#clip500)" style="stroke:#000000; stroke-linecap:round; stroke-linejoin:round; stroke-width:4; stroke-opacity:1; fill:none" points="
  1416.32,319.232 1435.22,319.232 
  "/>
<polyline clip-path="url(#clip500)" style="stroke:#000000; stroke-linecap:round; stroke-linejoin:round; stroke-width:4; stroke-opacity:1; fill:none" points="
  1416.32,241.134 1435.22,241.134 
  "/>
<polyline clip-path="url(#clip500)" style="stroke:#000000; stroke-linecap:round; stroke-linejoin:round; stroke-width:4; stroke-opacity:1; fill:none" points="
  1416.32,163.037 1435.22,163.037 
  "/>
<polyline clip-path="url(#clip500)" style="stroke:#000000; stroke-linecap:round; stroke-linejoin:round; stroke-width:4; stroke-opacity:1; fill:none" points="
  1416.32,84.9396 1435.22,84.9396 
  "/>
<path clip-path="url(#clip500)" d="M1274.38 553.975 L1304.05 553.975 L1304.05 557.91 L1274.38 557.91 L1274.38 553.975 Z" fill="#000000" fill-rule="evenodd" fill-opacity="1" /><path clip-path="url(#clip500)" d="M1314.95 566.868 L1322.59 566.868 L1322.59 540.503 L1314.28 542.169 L1314.28 537.91 L1322.55 536.243 L1327.22 536.243 L1327.22 566.868 L1334.86 566.868 L1334.86 570.803 L1314.95 570.803 L1314.95 566.868 Z" fill="#000000" fill-rule="evenodd" fill-opacity="1" /><path clip-path="url(#clip500)" d="M1344.31 564.924 L1349.19 564.924 L1349.19 570.803 L1344.31 570.803 L1344.31 564.924 Z" fill="#000000" fill-rule="evenodd" fill-opacity="1" /><path clip-path="url(#clip500)" d="M1359.42 536.243 L1377.78 536.243 L1377.78 540.179 L1363.7 540.179 L1363.7 548.651 Q1364.72 548.304 1365.74 548.142 Q1366.76 547.956 1367.78 547.956 Q1373.57 547.956 1376.95 551.128 Q1380.32 554.299 1380.32 559.716 Q1380.32 565.294 1376.85 568.396 Q1373.38 571.475 1367.06 571.475 Q1364.88 571.475 1362.62 571.104 Q1360.37 570.734 1357.96 569.993 L1357.96 565.294 Q1360.05 566.428 1362.27 566.984 Q1364.49 567.54 1366.97 567.54 Q1370.97 567.54 1373.31 565.433 Q1375.65 563.327 1375.65 559.716 Q1375.65 556.104 1373.31 553.998 Q1370.97 551.892 1366.97 551.892 Q1365.09 551.892 1363.22 552.308 Q1361.37 552.725 1359.42 553.604 L1359.42 536.243 Z" fill="#000000" fill-rule="evenodd" fill-opacity="1" /><path clip-path="url(#clip500)" d="M1273.38 475.878 L1303.06 475.878 L1303.06 479.813 L1273.38 479.813 L1273.38 475.878 Z" fill="#000000" fill-rule="evenodd" fill-opacity="1" /><path clip-path="url(#clip500)" d="M1313.96 488.771 L1321.6 488.771 L1321.6 462.405 L1313.29 464.072 L1313.29 459.813 L1321.55 458.146 L1326.23 458.146 L1326.23 488.771 L1333.87 488.771 L1333.87 492.706 L1313.96 492.706 L1313.96 488.771 Z" fill="#000000" fill-rule="evenodd" fill-opacity="1" /><path clip-path="url(#clip500)" d="M1343.31 486.827 L1348.2 486.827 L1348.2 492.706 L1343.31 492.706 L1343.31 486.827 Z" fill="#000000" fill-rule="evenodd" fill-opacity="1" /><path clip-path="url(#clip500)" d="M1368.38 461.225 Q1364.77 461.225 1362.94 464.79 Q1361.13 468.331 1361.13 475.461 Q1361.13 482.567 1362.94 486.132 Q1364.77 489.674 1368.38 489.674 Q1372.01 489.674 1373.82 486.132 Q1375.65 482.567 1375.65 475.461 Q1375.65 468.331 1373.82 464.79 Q1372.01 461.225 1368.38 461.225 M1368.38 457.521 Q1374.19 457.521 1377.25 462.128 Q1380.32 466.711 1380.32 475.461 Q1380.32 484.188 1377.25 488.794 Q1374.19 493.377 1368.38 493.377 Q1362.57 493.377 1359.49 488.794 Q1356.44 484.188 1356.44 475.461 Q1356.44 466.711 1359.49 462.128 Q1362.57 457.521 1368.38 457.521 Z" fill="#000000" fill-rule="evenodd" fill-opacity="1" /><path clip-path="url(#clip500)" d="M1274.38 397.78 L1304.05 397.78 L1304.05 401.715 L1274.38 401.715 L1274.38 397.78 Z" fill="#000000" fill-rule="evenodd" fill-opacity="1" /><path clip-path="url(#clip500)" d="M1324.14 383.128 Q1320.53 383.128 1318.7 386.692 Q1316.9 390.234 1316.9 397.364 Q1316.9 404.47 1318.7 408.035 Q1320.53 411.576 1324.14 411.576 Q1327.78 411.576 1329.58 408.035 Q1331.41 404.47 1331.41 397.364 Q1331.41 390.234 1329.58 386.692 Q1327.78 383.128 1324.14 383.128 M1324.14 379.424 Q1329.95 379.424 1333.01 384.03 Q1336.09 388.614 1336.09 397.364 Q1336.09 406.09 1333.01 410.697 Q1329.95 415.28 1324.14 415.28 Q1318.33 415.28 1315.26 410.697 Q1312.2 406.09 1312.2 397.364 Q1312.2 388.614 1315.26 384.03 Q1318.33 379.424 1324.14 379.424 Z" fill="#000000" fill-rule="evenodd" fill-opacity="1" /><path clip-path="url(#clip500)" d="M1344.31 408.729 L1349.19 408.729 L1349.19 414.609 L1344.31 414.609 L1344.31 408.729 Z" fill="#000000" fill-rule="evenodd" fill-opacity="1" /><path clip-path="url(#clip500)" d="M1359.42 380.049 L1377.78 380.049 L1377.78 383.984 L1363.7 383.984 L1363.7 392.456 Q1364.72 392.109 1365.74 391.947 Q1366.76 391.762 1367.78 391.762 Q1373.57 391.762 1376.95 394.933 Q1380.32 398.104 1380.32 403.521 Q1380.32 409.1 1376.85 412.201 Q1373.38 415.28 1367.06 415.28 Q1364.88 415.28 1362.62 414.91 Q1360.37 414.539 1357.96 413.799 L1357.96 409.1 Q1360.05 410.234 1362.27 410.789 Q1364.49 411.345 1366.97 411.345 Q1370.97 411.345 1373.31 409.238 Q1375.65 407.132 1375.65 403.521 Q1375.65 399.91 1373.31 397.803 Q1370.97 395.697 1366.97 395.697 Q1365.09 395.697 1363.22 396.114 Q1361.37 396.53 1359.42 397.41 L1359.42 380.049 Z" fill="#000000" fill-rule="evenodd" fill-opacity="1" /><path clip-path="url(#clip500)" d="M1323.15 305.03 Q1319.54 305.03 1317.71 308.595 Q1315.9 312.137 1315.9 319.266 Q1315.9 326.373 1317.71 329.937 Q1319.54 333.479 1323.15 333.479 Q1326.78 333.479 1328.59 329.937 Q1330.42 326.373 1330.42 319.266 Q1330.42 312.137 1328.59 308.595 Q1326.78 305.03 1323.15 305.03 M1323.15 301.327 Q1328.96 301.327 1332.01 305.933 Q1335.09 310.516 1335.09 319.266 Q1335.09 327.993 1332.01 332.599 Q1328.96 337.183 1323.15 337.183 Q1317.34 337.183 1314.26 332.599 Q1311.2 327.993 1311.2 319.266 Q1311.2 310.516 1314.26 305.933 Q1317.34 301.327 1323.15 301.327 Z" fill="#000000" fill-rule="evenodd" fill-opacity="1" /><path clip-path="url(#clip500)" d="M1343.31 330.632 L1348.2 330.632 L1348.2 336.512 L1343.31 336.512 L1343.31 330.632 Z" fill="#000000" fill-rule="evenodd" fill-opacity="1" /><path clip-path="url(#clip500)" d="M1368.38 305.03 Q1364.77 305.03 1362.94 308.595 Q1361.13 312.137 1361.13 319.266 Q1361.13 326.373 1362.94 329.937 Q1364.77 333.479 1368.38 333.479 Q1372.01 333.479 1373.82 329.937 Q1375.65 326.373 1375.65 319.266 Q1375.65 312.137 1373.82 308.595 Q1372.01 305.03 1368.38 305.03 M1368.38 301.327 Q1374.19 301.327 1377.25 305.933 Q1380.32 310.516 1380.32 319.266 Q1380.32 327.993 1377.25 332.599 Q1374.19 337.183 1368.38 337.183 Q1362.57 337.183 1359.49 332.599 Q1356.44 327.993 1356.44 319.266 Q1356.44 310.516 1359.49 305.933 Q1362.57 301.327 1368.38 301.327 Z" fill="#000000" fill-rule="evenodd" fill-opacity="1" /><path clip-path="url(#clip500)" d="M1324.14 226.933 Q1320.53 226.933 1318.7 230.498 Q1316.9 234.039 1316.9 241.169 Q1316.9 248.275 1318.7 251.84 Q1320.53 255.382 1324.14 255.382 Q1327.78 255.382 1329.58 251.84 Q1331.41 248.275 1331.41 241.169 Q1331.41 234.039 1329.58 230.498 Q1327.78 226.933 1324.14 226.933 M1324.14 223.229 Q1329.95 223.229 1333.01 227.836 Q1336.09 232.419 1336.09 241.169 Q1336.09 249.896 1333.01 254.502 Q1329.95 259.085 1324.14 259.085 Q1318.33 259.085 1315.26 254.502 Q1312.2 249.896 1312.2 241.169 Q1312.2 232.419 1315.26 227.836 Q1318.33 223.229 1324.14 223.229 Z" fill="#000000" fill-rule="evenodd" fill-opacity="1" /><path clip-path="url(#clip500)" d="M1344.31 252.535 L1349.19 252.535 L1349.19 258.414 L1344.31 258.414 L1344.31 252.535 Z" fill="#000000" fill-rule="evenodd" fill-opacity="1" /><path clip-path="url(#clip500)" d="M1359.42 223.854 L1377.78 223.854 L1377.78 227.789 L1363.7 227.789 L1363.7 236.262 Q1364.72 235.914 1365.74 235.752 Q1366.76 235.567 1367.78 235.567 Q1373.57 235.567 1376.95 238.738 Q1380.32 241.91 1380.32 247.326 Q1380.32 252.905 1376.85 256.007 Q1373.38 259.085 1367.06 259.085 Q1364.88 259.085 1362.62 258.715 Q1360.37 258.345 1357.96 257.604 L1357.96 252.905 Q1360.05 254.039 1362.27 254.595 Q1364.49 255.15 1366.97 255.15 Q1370.97 255.15 1373.31 253.044 Q1375.65 250.937 1375.65 247.326 Q1375.65 243.715 1373.31 241.609 Q1370.97 239.502 1366.97 239.502 Q1365.09 239.502 1363.22 239.919 Q1361.37 240.336 1359.42 241.215 L1359.42 223.854 Z" fill="#000000" fill-rule="evenodd" fill-opacity="1" /><path clip-path="url(#clip500)" d="M1313.96 176.382 L1321.6 176.382 L1321.6 150.016 L1313.29 151.683 L1313.29 147.424 L1321.55 145.757 L1326.23 145.757 L1326.23 176.382 L1333.87 176.382 L1333.87 180.317 L1313.96 180.317 L1313.96 176.382 Z" fill="#000000" fill-rule="evenodd" fill-opacity="1" /><path clip-path="url(#clip500)" d="M1343.31 174.437 L1348.2 174.437 L1348.2 180.317 L1343.31 180.317 L1343.31 174.437 Z" fill="#000000" fill-rule="evenodd" fill-opacity="1" /><path clip-path="url(#clip500)" d="M1368.38 148.836 Q1364.77 148.836 1362.94 152.4 Q1361.13 155.942 1361.13 163.072 Q1361.13 170.178 1362.94 173.743 Q1364.77 177.284 1368.38 177.284 Q1372.01 177.284 1373.82 173.743 Q1375.65 170.178 1375.65 163.072 Q1375.65 155.942 1373.82 152.4 Q1372.01 148.836 1368.38 148.836 M1368.38 145.132 Q1374.19 145.132 1377.25 149.738 Q1380.32 154.322 1380.32 163.072 Q1380.32 171.798 1377.25 176.405 Q1374.19 180.988 1368.38 180.988 Q1362.57 180.988 1359.49 176.405 Q1356.44 171.798 1356.44 163.072 Q1356.44 154.322 1359.49 149.738 Q1362.57 145.132 1368.38 145.132 Z" fill="#000000" fill-rule="evenodd" fill-opacity="1" /><path clip-path="url(#clip500)" d="M1314.95 98.2844 L1322.59 98.2844 L1322.59 71.9188 L1314.28 73.5854 L1314.28 69.3262 L1322.55 67.6596 L1327.22 67.6596 L1327.22 98.2844 L1334.86 98.2844 L1334.86 102.22 L1314.95 102.22 L1314.95 98.2844 Z" fill="#000000" fill-rule="evenodd" fill-opacity="1" /><path clip-path="url(#clip500)" d="M1344.31 96.34 L1349.19 96.34 L1349.19 102.22 L1344.31 102.22 L1344.31 96.34 Z" fill="#000000" fill-rule="evenodd" fill-opacity="1" /><path clip-path="url(#clip500)" d="M1359.42 67.6596 L1377.78 67.6596 L1377.78 71.5947 L1363.7 71.5947 L1363.7 80.0669 Q1364.72 79.7197 1365.74 79.5576 Q1366.76 79.3725 1367.78 79.3725 Q1373.57 79.3725 1376.95 82.5437 Q1380.32 85.715 1380.32 91.1316 Q1380.32 96.7103 1376.85 99.8122 Q1373.38 102.891 1367.06 102.891 Q1364.88 102.891 1362.62 102.52 Q1360.37 102.15 1357.96 101.409 L1357.96 96.7103 Q1360.05 97.8446 1362.27 98.4001 Q1364.49 98.9557 1366.97 98.9557 Q1370.97 98.9557 1373.31 96.8492 Q1375.65 94.7427 1375.65 91.1316 Q1375.65 87.5206 1373.31 85.4141 Q1370.97 83.3076 1366.97 83.3076 Q1365.09 83.3076 1363.22 83.7243 Q1361.37 84.1409 1359.42 85.0206 L1359.42 67.6596 Z" fill="#000000" fill-rule="evenodd" fill-opacity="1" /><path clip-path="url(#clip500)" d="M1175.6 427.801 L1175.6 421.34 L1204.47 421.34 Q1212.11 421.34 1215.49 418.571 Q1218.83 415.802 1218.83 409.595 Q1218.83 403.421 1215.49 400.651 Q1212.11 397.882 1204.47 397.882 L1175.6 397.882 L1175.6 391.421 L1205.27 391.421 Q1214.56 391.421 1219.31 396.036 Q1224.05 400.62 1224.05 409.595 Q1224.05 418.603 1219.31 423.218 Q1214.56 427.801 1205.27 427.801 L1175.6 427.801 Z" fill="#000000" fill-rule="evenodd" fill-opacity="1" /><path clip-path="url(#clip500)" d="M1173.66 365.545 Q1180.98 369.81 1188.15 371.878 Q1195.31 373.947 1202.66 373.947 Q1210.01 373.947 1217.24 371.878 Q1224.43 369.778 1231.72 365.545 L1231.72 370.637 Q1224.24 375.411 1217.01 377.799 Q1209.79 380.154 1202.66 380.154 Q1195.56 380.154 1188.37 377.799 Q1181.17 375.443 1173.66 370.637 L1173.66 365.545 Z" fill="#000000" fill-rule="evenodd" fill-opacity="1" /><path clip-path="url(#clip500)" d="M1187.48 324.549 L1204.82 337.44 L1223.12 323.881 L1223.12 330.788 L1209.12 341.164 L1223.12 351.54 L1223.12 358.447 L1204.47 344.601 L1187.48 357.269 L1187.48 350.362 L1200.18 340.909 L1187.48 331.456 L1187.48 324.549 Z" fill="#000000" fill-rule="evenodd" fill-opacity="1" /><path clip-path="url(#clip500)" d="M1215.04 314.11 L1215.04 307.394 L1220.51 307.394 L1230.7 312.614 L1230.7 316.72 L1220.51 314.11 L1215.04 314.11 Z" fill="#000000" fill-rule="evenodd" fill-opacity="1" /><path clip-path="url(#clip500)" d="M1226.43 280.053 Q1232.8 282.536 1234.74 284.891 Q1236.68 287.246 1236.68 291.193 L1236.68 295.872 L1231.78 295.872 L1231.78 292.434 Q1231.78 290.015 1230.64 288.679 Q1229.49 287.342 1225.23 285.719 L1222.55 284.668 L1187.48 299.087 L1187.48 292.88 L1215.36 281.74 L1187.48 270.6 L1187.48 264.393 L1226.43 280.053 Z" fill="#000000" fill-rule="evenodd" fill-opacity="1" /><path clip-path="url(#clip500)" d="M1173.66 257.232 L1173.66 252.139 Q1181.17 247.365 1188.37 245.01 Q1195.56 242.623 1202.66 242.623 Q1209.79 242.623 1217.01 245.01 Q1224.24 247.365 1231.72 252.139 L1231.72 257.232 Q1224.43 252.999 1217.24 250.93 Q1210.01 248.829 1202.66 248.829 Q1195.31 248.829 1188.15 250.93 Q1180.98 252.999 1173.66 257.232 Z" fill="#000000" fill-rule="evenodd" fill-opacity="1" /><polyline clip-path="url(#clip503)" style="stroke:#ff0000; stroke-linecap:round; stroke-linejoin:round; stroke-width:4; stroke-opacity:1; fill:none" points="
  1442.83,565.934 1457.55,552.101 1472.27,520.846 1487,480.731 1501.72,450.631 1516.45,434.468 1531.17,424.385 1545.89,413.04 1560.62,398.314 1575.34,383.831 
  1590.07,373.194 1604.79,366.592 1619.51,362.691 1634.24,360.3 1648.96,358.633 1663.68,357.18 1678.41,355.602 1693.13,353.7 1707.86,351.423 1722.58,348.867 
  1737.3,346.225 1752.03,343.722 1766.75,341.535 1781.47,339.758 1796.2,338.397 1810.92,337.405 1825.65,336.711 1840.37,336.242 1855.09,335.935 1869.82,335.741 
  1884.54,335.621 1899.26,335.547 1913.99,335.496 1928.71,335.451 1943.44,335.396 1958.16,335.318 1972.88,335.201 1987.61,335.032 2002.33,334.796 2017.05,334.482 
  2031.78,334.083 2046.5,333.606 2061.23,333.072 2075.95,332.523 2090.67,332.009 2105.4,331.566 2120.12,331.198 2134.84,330.907 2149.57,330.775 2164.29,331.01 
  2179.02,331.824 2193.74,333.07 2208.46,333.937 2223.19,333.198 2237.91,330.172 2252.63,325.808 2267.36,322.898 2282.08,324.704 2296.81,332.759 2311.53,345.665 
  2326.25,360.153 
  "/>
<polyline clip-path="url(#clip503)" style="stroke:#ff0000; stroke-linecap:round; stroke-linejoin:round; stroke-width:4; stroke-opacity:1; fill:none" points="
  1442.83,90.2775 1457.55,105.227 1472.27,134.804 1487,171.173 1501.72,198.459 1516.45,213.631 1531.17,224.772 1545.89,240.748 1560.62,261.914 1575.34,277.797 
  1590.07,282.154 1604.79,279.125 1619.51,275.044 1634.24,273.474 1648.96,275.339 1663.68,280.061 1678.41,286.334 1693.13,292.626 1707.86,297.632 1722.58,300.672 
  1737.3,301.847 1752.03,301.822 1766.75,301.379 1781.47,301.049 1796.2,301.028 1810.92,301.273 1825.65,301.654 1840.37,302.046 1855.09,302.371 1869.82,302.6 
  1884.54,302.738 1899.26,302.816 1913.99,302.877 1928.71,302.971 1943.44,303.15 1958.16,303.471 1972.88,303.987 1987.61,304.75 2002.33,305.797 2017.05,307.137 
  2031.78,308.726 2046.5,310.428 2061.23,311.978 2075.95,312.97 2090.67,312.927 2105.4,311.489 2120.12,308.674 2134.84,305.039 2149.57,301.581 2164.29,299.43 
  2179.02,299.46 2193.74,301.941 2208.46,306.414 2223.19,311.809 2237.91,316.636 2252.63,319.307 2267.36,319.015 2282.08,316.202 2296.81,311.357 2311.53,304.147 
  2326.25,294.456 
  "/>
<polyline clip-path="url(#clip503)" style="stroke:#000000; stroke-linecap:round; stroke-linejoin:round; stroke-width:4; stroke-opacity:1; fill:none" points="
  1442.83,606.88 1457.55,556.162 1472.27,513.366 1487,480.019 1501.72,454.862 1516.45,434.99 1531.17,418.405 1545.89,404.431 1560.62,393.029 1575.34,384.071 
  1590.07,377.077 1604.79,371.475 1619.51,366.823 1634.24,362.835 1648.96,359.329 1663.68,356.198 1678.41,353.379 1693.13,350.845 1707.86,348.586 1722.58,346.597 
  1737.3,344.87 1752.03,343.383 1766.75,342.106 1781.47,341.001 1796.2,340.036 1810.92,339.18 1825.65,338.412 1840.37,337.716 1855.09,337.082 1869.82,336.502 
  1884.54,335.973 1899.26,335.489 1913.99,335.05 1928.71,334.651 1943.44,334.291 1958.16,333.965 1972.88,333.67 1987.61,333.399 2002.33,333.147 2017.05,332.905 
  2031.78,332.667 2046.5,332.425 2061.23,332.175 2075.95,331.922 2090.67,331.683 2105.4,331.489 2120.12,331.383 2134.84,331.405 2149.57,331.576 2164.29,331.879 
  2179.02,332.257 2193.74,332.618 2208.46,332.863 2223.19,332.918 2237.91,332.761 2252.63,332.445 2267.36,332.093 2282.08,331.847 2296.81,331.836 2311.53,332.21 
  2326.25,333.171 
  "/>
<polyline clip-path="url(#clip503)" style="stroke:#000000; stroke-linecap:round; stroke-linejoin:round; stroke-width:4; stroke-opacity:1; fill:none" points="
  1442.83,63.5442 1457.55,108.627 1472.27,146.667 1487,176.309 1501.72,198.671 1516.45,216.335 1531.17,231.077 1545.89,243.499 1560.62,253.634 1575.34,261.596 
  1590.07,267.813 1604.79,272.793 1619.51,276.928 1634.24,280.473 1648.96,283.589 1663.68,286.373 1678.41,288.878 1693.13,291.131 1707.86,293.139 1722.58,294.906 
  1737.3,296.441 1752.03,297.763 1766.75,298.899 1781.47,299.881 1796.2,300.739 1810.92,301.499 1825.65,302.182 1840.37,302.801 1855.09,303.365 1869.82,303.88 
  1884.54,304.351 1899.26,304.78 1913.99,305.171 1928.71,305.525 1943.44,305.845 1958.16,306.135 1972.88,306.398 1987.61,306.638 2002.33,306.862 2017.05,307.077 
  2031.78,307.289 2046.5,307.504 2061.23,307.726 2075.95,307.951 2090.67,308.164 2105.4,308.336 2120.12,308.43 2134.84,308.411 2149.57,308.259 2164.29,307.989 
  2179.02,307.653 2193.74,307.332 2208.46,307.114 2223.19,307.066 2237.91,307.206 2252.63,307.486 2267.36,307.799 2282.08,308.017 2296.81,308.027 2311.53,307.695 
  2326.25,306.841 
  "/>
<path clip-path="url(#clip500)" d="
M1763.54 221.962 L2321.54 221.962 L2321.54 66.442 L1763.54 66.442  Z
  " fill="#ffffff" fill-rule="evenodd" fill-opacity="1"/>
<polyline clip-path="url(#clip500)" style="stroke:#000000; stroke-linecap:round; stroke-linejoin:round; stroke-width:4; stroke-opacity:1; fill:none" points="
  1763.54,221.962 2321.54,221.962 2321.54,66.442 1763.54,66.442 1763.54,221.962 
  "/>
<polyline clip-path="url(#clip500)" style="stroke:#ff0000; stroke-linecap:round; stroke-linejoin:round; stroke-width:4; stroke-opacity:1; fill:none" points="
  1773.94,118.282 1836.37,118.282 
  "/>
<path clip-path="url(#clip500)" d="M1846.78 101.002 L1851.48 101.002 L1851.48 121.997 Q1851.48 127.553 1853.49 130.006 Q1855.5 132.437 1860.02 132.437 Q1864.51 132.437 1866.52 130.006 Q1868.54 127.553 1868.54 121.997 L1868.54 101.002 L1873.23 101.002 L1873.23 122.576 Q1873.23 129.335 1869.88 132.784 Q1866.54 136.233 1860.02 136.233 Q1853.47 136.233 1850.11 132.784 Q1846.78 129.335 1846.78 122.576 L1846.78 101.002 Z" fill="#000000" fill-rule="evenodd" fill-opacity="1" /><path clip-path="url(#clip500)" d="M1886.68 104.845 L1886.68 131.719 L1892.33 131.719 Q1899.48 131.719 1902.79 128.479 Q1906.13 125.238 1906.13 118.247 Q1906.13 111.303 1902.79 108.085 Q1899.48 104.845 1892.33 104.845 L1886.68 104.845 M1882.01 101.002 L1891.61 101.002 Q1901.66 101.002 1906.36 105.192 Q1911.06 109.358 1911.06 118.247 Q1911.06 127.182 1906.34 131.372 Q1901.61 135.562 1891.61 135.562 L1882.01 135.562 L1882.01 101.002 Z" fill="#000000" fill-rule="evenodd" fill-opacity="1" /><path clip-path="url(#clip500)" d="M1918.51 101.002 L1940.36 101.002 L1940.36 104.937 L1923.19 104.937 L1923.19 115.169 L1939.65 115.169 L1939.65 119.104 L1923.19 119.104 L1923.19 131.627 L1940.78 131.627 L1940.78 135.562 L1918.51 135.562 L1918.51 101.002 Z" fill="#000000" fill-rule="evenodd" fill-opacity="1" /><path clip-path="url(#clip500)" d="M1975.09 105.608 L1968.74 122.807 L1981.45 122.807 L1975.09 105.608 M1972.45 101.002 L1977.75 101.002 L1990.92 135.562 L1986.06 135.562 L1982.91 126.696 L1967.33 126.696 L1964.18 135.562 L1959.25 135.562 L1972.45 101.002 Z" fill="#000000" fill-rule="evenodd" fill-opacity="1" /><path clip-path="url(#clip500)" d="M1999.9 131.673 L1999.9 145.423 L1995.62 145.423 L1995.62 109.636 L1999.9 109.636 L1999.9 113.571 Q2001.24 111.257 2003.28 110.145 Q2005.34 109.011 2008.19 109.011 Q2012.91 109.011 2015.85 112.761 Q2018.81 116.511 2018.81 122.622 Q2018.81 128.733 2015.85 132.483 Q2012.91 136.233 2008.19 136.233 Q2005.34 136.233 2003.28 135.122 Q2001.24 133.988 1999.9 131.673 M2014.39 122.622 Q2014.39 117.923 2012.45 115.261 Q2010.53 112.576 2007.15 112.576 Q2003.77 112.576 2001.82 115.261 Q1999.9 117.923 1999.9 122.622 Q1999.9 127.321 2001.82 130.006 Q2003.77 132.668 2007.15 132.668 Q2010.53 132.668 2012.45 130.006 Q2014.39 127.321 2014.39 122.622 Z" fill="#000000" fill-rule="evenodd" fill-opacity="1" /><path clip-path="url(#clip500)" d="M2029.99 131.673 L2029.99 145.423 L2025.71 145.423 L2025.71 109.636 L2029.99 109.636 L2029.99 113.571 Q2031.34 111.257 2033.37 110.145 Q2035.43 109.011 2038.28 109.011 Q2043 109.011 2045.94 112.761 Q2048.9 116.511 2048.9 122.622 Q2048.9 128.733 2045.94 132.483 Q2043 136.233 2038.28 136.233 Q2035.43 136.233 2033.37 135.122 Q2031.34 133.988 2029.99 131.673 M2044.48 122.622 Q2044.48 117.923 2042.54 115.261 Q2040.62 112.576 2037.24 112.576 Q2033.86 112.576 2031.91 115.261 Q2029.99 117.923 2029.99 122.622 Q2029.99 127.321 2031.91 130.006 Q2033.86 132.668 2037.24 132.668 Q2040.62 132.668 2042.54 130.006 Q2044.48 127.321 2044.48 122.622 Z" fill="#000000" fill-rule="evenodd" fill-opacity="1" /><path clip-path="url(#clip500)" d="M2070.99 113.618 Q2070.27 113.201 2069.41 113.016 Q2068.58 112.807 2067.56 112.807 Q2063.95 112.807 2062.01 115.169 Q2060.09 117.506 2060.09 121.905 L2060.09 135.562 L2055.8 135.562 L2055.8 109.636 L2060.09 109.636 L2060.09 113.664 Q2061.43 111.303 2063.58 110.169 Q2065.73 109.011 2068.81 109.011 Q2069.25 109.011 2069.78 109.081 Q2070.32 109.127 2070.96 109.243 L2070.99 113.618 Z" fill="#000000" fill-rule="evenodd" fill-opacity="1" /><path clip-path="url(#clip500)" d="M2084.46 112.622 Q2081.03 112.622 2079.04 115.307 Q2077.05 117.969 2077.05 122.622 Q2077.05 127.275 2079.02 129.96 Q2081.01 132.622 2084.46 132.622 Q2087.86 132.622 2089.85 129.937 Q2091.84 127.252 2091.84 122.622 Q2091.84 118.016 2089.85 115.331 Q2087.86 112.622 2084.46 112.622 M2084.46 109.011 Q2090.02 109.011 2093.19 112.622 Q2096.36 116.233 2096.36 122.622 Q2096.36 128.988 2093.19 132.622 Q2090.02 136.233 2084.46 136.233 Q2078.88 136.233 2075.71 132.622 Q2072.56 128.988 2072.56 122.622 Q2072.56 116.233 2075.71 112.622 Q2078.88 109.011 2084.46 109.011 Z" fill="#000000" fill-rule="evenodd" fill-opacity="1" /><path clip-path="url(#clip500)" d="M2123.51 109.636 L2114.14 122.252 L2124 135.562 L2118.97 135.562 L2111.43 125.377 L2103.88 135.562 L2098.86 135.562 L2108.93 121.997 L2099.71 109.636 L2104.74 109.636 L2111.61 118.872 L2118.49 109.636 L2123.51 109.636 Z" fill="#000000" fill-rule="evenodd" fill-opacity="1" /><path clip-path="url(#clip500)" d="M2130.02 109.636 L2134.27 109.636 L2134.27 135.562 L2130.02 135.562 L2130.02 109.636 M2130.02 99.5436 L2134.27 99.5436 L2134.27 104.937 L2130.02 104.937 L2130.02 99.5436 Z" fill="#000000" fill-rule="evenodd" fill-opacity="1" /><path clip-path="url(#clip500)" d="M2163.37 114.613 Q2164.97 111.743 2167.19 110.377 Q2169.41 109.011 2172.42 109.011 Q2176.47 109.011 2178.67 111.858 Q2180.87 114.682 2180.87 119.914 L2180.87 135.562 L2176.59 135.562 L2176.59 120.053 Q2176.59 116.326 2175.27 114.52 Q2173.95 112.715 2171.24 112.715 Q2167.93 112.715 2166.01 114.914 Q2164.09 117.113 2164.09 120.909 L2164.09 135.562 L2159.81 135.562 L2159.81 120.053 Q2159.81 116.303 2158.49 114.52 Q2157.17 112.715 2154.41 112.715 Q2151.15 112.715 2149.23 114.937 Q2147.31 117.136 2147.31 120.909 L2147.31 135.562 L2143.02 135.562 L2143.02 109.636 L2147.31 109.636 L2147.31 113.664 Q2148.77 111.28 2150.8 110.145 Q2152.84 109.011 2155.64 109.011 Q2158.46 109.011 2160.43 110.446 Q2162.42 111.882 2163.37 114.613 Z" fill="#000000" fill-rule="evenodd" fill-opacity="1" /><path clip-path="url(#clip500)" d="M2201.15 122.53 Q2195.99 122.53 2194 123.71 Q2192.01 124.891 2192.01 127.738 Q2192.01 130.006 2193.49 131.349 Q2194.99 132.668 2197.56 132.668 Q2201.1 132.668 2203.23 130.168 Q2205.39 127.645 2205.39 123.479 L2205.39 122.53 L2201.15 122.53 M2209.64 120.77 L2209.64 135.562 L2205.39 135.562 L2205.39 131.627 Q2203.93 133.988 2201.75 135.122 Q2199.58 136.233 2196.43 136.233 Q2192.45 136.233 2190.08 134.011 Q2187.75 131.766 2187.75 128.016 Q2187.75 123.641 2190.66 121.419 Q2193.6 119.196 2199.41 119.196 L2205.39 119.196 L2205.39 118.78 Q2205.39 115.84 2203.44 114.243 Q2201.52 112.622 2198.02 112.622 Q2195.8 112.622 2193.7 113.155 Q2191.59 113.687 2189.64 114.752 L2189.64 110.817 Q2191.98 109.914 2194.18 109.474 Q2196.38 109.011 2198.46 109.011 Q2204.09 109.011 2206.87 111.928 Q2209.64 114.844 2209.64 120.77 Z" fill="#000000" fill-rule="evenodd" fill-opacity="1" /><path clip-path="url(#clip500)" d="M2222.63 102.275 L2222.63 109.636 L2231.4 109.636 L2231.4 112.946 L2222.63 112.946 L2222.63 127.02 Q2222.63 130.192 2223.49 131.094 Q2224.37 131.997 2227.03 131.997 L2231.4 131.997 L2231.4 135.562 L2227.03 135.562 Q2222.1 135.562 2220.22 133.733 Q2218.35 131.881 2218.35 127.02 L2218.35 112.946 L2215.22 112.946 L2215.22 109.636 L2218.35 109.636 L2218.35 102.275 L2222.63 102.275 Z" fill="#000000" fill-rule="evenodd" fill-opacity="1" /><path clip-path="url(#clip500)" d="M2237.01 109.636 L2241.26 109.636 L2241.26 135.562 L2237.01 135.562 L2237.01 109.636 M2237.01 99.5436 L2241.26 99.5436 L2241.26 104.937 L2237.01 104.937 L2237.01 99.5436 Z" fill="#000000" fill-rule="evenodd" fill-opacity="1" /><path clip-path="url(#clip500)" d="M2260.22 112.622 Q2256.8 112.622 2254.81 115.307 Q2252.82 117.969 2252.82 122.622 Q2252.82 127.275 2254.78 129.96 Q2256.77 132.622 2260.22 132.622 Q2263.63 132.622 2265.62 129.937 Q2267.61 127.252 2267.61 122.622 Q2267.61 118.016 2265.62 115.331 Q2263.63 112.622 2260.22 112.622 M2260.22 109.011 Q2265.78 109.011 2268.95 112.622 Q2272.12 116.233 2272.12 122.622 Q2272.12 128.988 2268.95 132.622 Q2265.78 136.233 2260.22 136.233 Q2254.64 136.233 2251.47 132.622 Q2248.32 128.988 2248.32 122.622 Q2248.32 116.233 2251.47 112.622 Q2254.64 109.011 2260.22 109.011 Z" fill="#000000" fill-rule="evenodd" fill-opacity="1" /><path clip-path="url(#clip500)" d="M2300.73 119.914 L2300.73 135.562 L2296.47 135.562 L2296.47 120.053 Q2296.47 116.372 2295.04 114.544 Q2293.6 112.715 2290.73 112.715 Q2287.28 112.715 2285.29 114.914 Q2283.3 117.113 2283.3 120.909 L2283.3 135.562 L2279.02 135.562 L2279.02 109.636 L2283.3 109.636 L2283.3 113.664 Q2284.83 111.326 2286.89 110.169 Q2288.97 109.011 2291.68 109.011 Q2296.15 109.011 2298.44 111.789 Q2300.73 114.544 2300.73 119.914 Z" fill="#000000" fill-rule="evenodd" fill-opacity="1" /><polyline clip-path="url(#clip500)" style="stroke:#000000; stroke-linecap:round; stroke-linejoin:round; stroke-width:4; stroke-opacity:1; fill:none" points="
  1773.94,170.122 1836.37,170.122 
  "/>
<path clip-path="url(#clip500)" d="M1846.78 152.842 L1876.01 152.842 L1876.01 156.777 L1863.74 156.777 L1863.74 187.402 L1859.04 187.402 L1859.04 156.777 L1846.78 156.777 L1846.78 152.842 Z" fill="#000000" fill-rule="evenodd" fill-opacity="1" /><path clip-path="url(#clip500)" d="M1888.4 165.458 Q1887.68 165.041 1886.82 164.856 Q1885.99 164.647 1884.97 164.647 Q1881.36 164.647 1879.41 167.009 Q1877.49 169.346 1877.49 173.745 L1877.49 187.402 L1873.21 187.402 L1873.21 161.476 L1877.49 161.476 L1877.49 165.504 Q1878.84 163.143 1880.99 162.009 Q1883.14 160.851 1886.22 160.851 Q1886.66 160.851 1887.19 160.921 Q1887.72 160.967 1888.37 161.083 L1888.4 165.458 Z" fill="#000000" fill-rule="evenodd" fill-opacity="1" /><path clip-path="url(#clip500)" d="M1892.42 177.171 L1892.42 161.476 L1896.68 161.476 L1896.68 177.008 Q1896.68 180.689 1898.12 182.541 Q1899.55 184.37 1902.42 184.37 Q1905.87 184.37 1907.86 182.17 Q1909.88 179.971 1909.88 176.175 L1909.88 161.476 L1914.14 161.476 L1914.14 187.402 L1909.88 187.402 L1909.88 183.42 Q1908.33 185.782 1906.27 186.939 Q1904.23 188.073 1901.52 188.073 Q1897.05 188.073 1894.74 185.295 Q1892.42 182.518 1892.42 177.171 M1903.14 160.851 L1903.14 160.851 Z" fill="#000000" fill-rule="evenodd" fill-opacity="1" /><path clip-path="url(#clip500)" d="M1945.09 173.374 L1945.09 175.458 L1925.5 175.458 Q1925.78 179.856 1928.14 182.17 Q1930.53 184.462 1934.76 184.462 Q1937.22 184.462 1939.51 183.86 Q1941.82 183.258 1944.09 182.055 L1944.09 186.083 Q1941.8 187.055 1939.39 187.564 Q1936.98 188.073 1934.51 188.073 Q1928.3 188.073 1924.67 184.462 Q1921.06 180.851 1921.06 174.694 Q1921.06 168.328 1924.48 164.601 Q1927.93 160.851 1933.77 160.851 Q1939 160.851 1942.03 164.231 Q1945.09 167.587 1945.09 173.374 M1940.83 172.124 Q1940.78 168.629 1938.86 166.546 Q1936.96 164.462 1933.81 164.462 Q1930.25 164.462 1928.1 166.476 Q1925.97 168.49 1925.64 172.147 L1940.83 172.124 Z" fill="#000000" fill-rule="evenodd" fill-opacity="1" /><path clip-path="url(#clip500)" d="M1967.33 152.842 L1972.01 152.842 L1972.01 187.402 L1967.33 187.402 L1967.33 152.842 Z" fill="#000000" fill-rule="evenodd" fill-opacity="1" /><path clip-path="url(#clip500)" d="M2002.68 171.754 L2002.68 187.402 L1998.42 187.402 L1998.42 171.893 Q1998.42 168.212 1996.98 166.384 Q1995.55 164.555 1992.68 164.555 Q1989.23 164.555 1987.24 166.754 Q1985.25 168.953 1985.25 172.749 L1985.25 187.402 L1980.97 187.402 L1980.97 161.476 L1985.25 161.476 L1985.25 165.504 Q1986.78 163.166 1988.84 162.009 Q1990.92 160.851 1993.63 160.851 Q1998.09 160.851 2000.39 163.629 Q2002.68 166.384 2002.68 171.754 Z" fill="#000000" fill-rule="evenodd" fill-opacity="1" /><path clip-path="url(#clip500)" d="M2015.39 154.115 L2015.39 161.476 L2024.16 161.476 L2024.16 164.786 L2015.39 164.786 L2015.39 178.86 Q2015.39 182.032 2016.24 182.934 Q2017.12 183.837 2019.78 183.837 L2024.16 183.837 L2024.16 187.402 L2019.78 187.402 Q2014.85 187.402 2012.98 185.573 Q2011.1 183.721 2011.1 178.86 L2011.1 164.786 L2007.98 164.786 L2007.98 161.476 L2011.1 161.476 L2011.1 154.115 L2015.39 154.115 Z" fill="#000000" fill-rule="evenodd" fill-opacity="1" /><path clip-path="url(#clip500)" d="M2051.94 173.374 L2051.94 175.458 L2032.35 175.458 Q2032.63 179.856 2034.99 182.17 Q2037.38 184.462 2041.61 184.462 Q2044.07 184.462 2046.36 183.86 Q2048.67 183.258 2050.94 182.055 L2050.94 186.083 Q2048.65 187.055 2046.24 187.564 Q2043.84 188.073 2041.36 188.073 Q2035.15 188.073 2031.52 184.462 Q2027.91 180.851 2027.91 174.694 Q2027.91 168.328 2031.34 164.601 Q2034.78 160.851 2040.62 160.851 Q2045.85 160.851 2048.88 164.231 Q2051.94 167.587 2051.94 173.374 M2047.68 172.124 Q2047.63 168.629 2045.71 166.546 Q2043.81 164.462 2040.66 164.462 Q2037.1 164.462 2034.95 166.476 Q2032.82 168.49 2032.49 172.147 L2047.68 172.124 Z" fill="#000000" fill-rule="evenodd" fill-opacity="1" /><path clip-path="url(#clip500)" d="M2073.95 165.458 Q2073.23 165.041 2072.38 164.856 Q2071.54 164.647 2070.52 164.647 Q2066.91 164.647 2064.97 167.009 Q2063.05 169.346 2063.05 173.745 L2063.05 187.402 L2058.77 187.402 L2058.77 161.476 L2063.05 161.476 L2063.05 165.504 Q2064.39 163.143 2066.54 162.009 Q2068.7 160.851 2071.77 160.851 Q2072.21 160.851 2072.75 160.921 Q2073.28 160.967 2073.93 161.083 L2073.95 165.458 Z" fill="#000000" fill-rule="evenodd" fill-opacity="1" /><path clip-path="url(#clip500)" d="M2090.2 174.37 Q2085.04 174.37 2083.05 175.55 Q2081.06 176.731 2081.06 179.578 Q2081.06 181.846 2082.54 183.189 Q2084.04 184.508 2086.61 184.508 Q2090.15 184.508 2092.28 182.008 Q2094.44 179.485 2094.44 175.319 L2094.44 174.37 L2090.2 174.37 M2098.7 172.61 L2098.7 187.402 L2094.44 187.402 L2094.44 183.467 Q2092.98 185.828 2090.8 186.962 Q2088.63 188.073 2085.48 188.073 Q2081.5 188.073 2079.14 185.851 Q2076.8 183.606 2076.8 179.856 Q2076.8 175.481 2079.71 173.259 Q2082.65 171.036 2088.46 171.036 L2094.44 171.036 L2094.44 170.62 Q2094.44 167.68 2092.49 166.083 Q2090.57 164.462 2087.08 164.462 Q2084.85 164.462 2082.75 164.995 Q2080.64 165.527 2078.7 166.592 L2078.7 162.657 Q2081.03 161.754 2083.23 161.314 Q2085.43 160.851 2087.52 160.851 Q2093.14 160.851 2095.92 163.768 Q2098.7 166.684 2098.7 172.61 Z" fill="#000000" fill-rule="evenodd" fill-opacity="1" /><path clip-path="url(#clip500)" d="M2126.13 162.472 L2126.13 166.453 Q2124.32 165.458 2122.49 164.972 Q2120.69 164.462 2118.83 164.462 Q2114.69 164.462 2112.4 167.101 Q2110.11 169.717 2110.11 174.462 Q2110.11 179.208 2112.4 181.846 Q2114.69 184.462 2118.83 184.462 Q2120.69 184.462 2122.49 183.976 Q2124.32 183.467 2126.13 182.471 L2126.13 186.407 Q2124.34 187.24 2122.42 187.657 Q2120.52 188.073 2118.37 188.073 Q2112.52 188.073 2109.07 184.393 Q2105.62 180.712 2105.62 174.462 Q2105.62 168.12 2109.09 164.485 Q2112.58 160.851 2118.65 160.851 Q2120.62 160.851 2122.49 161.268 Q2124.37 161.661 2126.13 162.472 Z" fill="#000000" fill-rule="evenodd" fill-opacity="1" /><path clip-path="url(#clip500)" d="M2137.75 154.115 L2137.75 161.476 L2146.52 161.476 L2146.52 164.786 L2137.75 164.786 L2137.75 178.86 Q2137.75 182.032 2138.6 182.934 Q2139.48 183.837 2142.14 183.837 L2146.52 183.837 L2146.52 187.402 L2142.14 187.402 Q2137.21 187.402 2135.34 185.573 Q2133.46 183.721 2133.46 178.86 L2133.46 164.786 L2130.34 164.786 L2130.34 161.476 L2133.46 161.476 L2133.46 154.115 L2137.75 154.115 Z" fill="#000000" fill-rule="evenodd" fill-opacity="1" /><path clip-path="url(#clip500)" d="M2152.12 161.476 L2156.38 161.476 L2156.38 187.402 L2152.12 187.402 L2152.12 161.476 M2152.12 151.384 L2156.38 151.384 L2156.38 156.777 L2152.12 156.777 L2152.12 151.384 Z" fill="#000000" fill-rule="evenodd" fill-opacity="1" /><path clip-path="url(#clip500)" d="M2175.34 164.462 Q2171.91 164.462 2169.92 167.147 Q2167.93 169.809 2167.93 174.462 Q2167.93 179.115 2169.9 181.8 Q2171.89 184.462 2175.34 184.462 Q2178.74 184.462 2180.73 181.777 Q2182.72 179.092 2182.72 174.462 Q2182.72 169.856 2180.73 167.171 Q2178.74 164.462 2175.34 164.462 M2175.34 160.851 Q2180.89 160.851 2184.07 164.462 Q2187.24 168.073 2187.24 174.462 Q2187.24 180.828 2184.07 184.462 Q2180.89 188.073 2175.34 188.073 Q2169.76 188.073 2166.59 184.462 Q2163.44 180.828 2163.44 174.462 Q2163.44 168.073 2166.59 164.462 Q2169.76 160.851 2175.34 160.851 Z" fill="#000000" fill-rule="evenodd" fill-opacity="1" /><path clip-path="url(#clip500)" d="M2215.85 171.754 L2215.85 187.402 L2211.59 187.402 L2211.59 171.893 Q2211.59 168.212 2210.15 166.384 Q2208.72 164.555 2205.85 164.555 Q2202.4 164.555 2200.41 166.754 Q2198.42 168.953 2198.42 172.749 L2198.42 187.402 L2194.14 187.402 L2194.14 161.476 L2198.42 161.476 L2198.42 165.504 Q2199.95 163.166 2202.01 162.009 Q2204.09 160.851 2206.8 160.851 Q2211.26 160.851 2213.56 163.629 Q2215.85 166.384 2215.85 171.754 Z" fill="#000000" fill-rule="evenodd" fill-opacity="1" /><path clip-path="url(#clip500)" d="
M1416.32 1423.18 L2352.76 1423.18 L2352.76 847.244 L1416.32 847.244  Z
  " fill="#ffffff" fill-rule="evenodd" fill-opacity="1"/>
<defs>
  <clipPath id="clip504">
    <rect x="1416" y="847" width="937" height="577"/>
  </clipPath>
</defs>
<polyline clip-path="url(#clip504)" style="stroke:#000000; stroke-linecap:round; stroke-linejoin:round; stroke-width:2; stroke-opacity:0.1; fill:none" points="
  1442.83,1423.18 1442.83,847.244 
  "/>
<polyline clip-path="url(#clip504)" style="stroke:#000000; stroke-linecap:round; stroke-linejoin:round; stroke-width:2; stroke-opacity:0.1; fill:none" points="
  1737.3,1423.18 1737.3,847.244 
  "/>
<polyline clip-path="url(#clip504)" style="stroke:#000000; stroke-linecap:round; stroke-linejoin:round; stroke-width:2; stroke-opacity:0.1; fill:none" points="
  2031.78,1423.18 2031.78,847.244 
  "/>
<polyline clip-path="url(#clip504)" style="stroke:#000000; stroke-linecap:round; stroke-linejoin:round; stroke-width:2; stroke-opacity:0.1; fill:none" points="
  2326.25,1423.18 2326.25,847.244 
  "/>
<polyline clip-path="url(#clip500)" style="stroke:#000000; stroke-linecap:round; stroke-linejoin:round; stroke-width:4; stroke-opacity:1; fill:none" points="
  1416.32,1423.18 2352.76,1423.18 
  "/>
<polyline clip-path="url(#clip500)" style="stroke:#000000; stroke-linecap:round; stroke-linejoin:round; stroke-width:4; stroke-opacity:1; fill:none" points="
  1442.83,1423.18 1442.83,1404.28 
  "/>
<polyline clip-path="url(#clip500)" style="stroke:#000000; stroke-linecap:round; stroke-linejoin:round; stroke-width:4; stroke-opacity:1; fill:none" points="
  1737.3,1423.18 1737.3,1404.28 
  "/>
<polyline clip-path="url(#clip500)" style="stroke:#000000; stroke-linecap:round; stroke-linejoin:round; stroke-width:4; stroke-opacity:1; fill:none" points="
  2031.78,1423.18 2031.78,1404.28 
  "/>
<polyline clip-path="url(#clip500)" style="stroke:#000000; stroke-linecap:round; stroke-linejoin:round; stroke-width:4; stroke-opacity:1; fill:none" points="
  2326.25,1423.18 2326.25,1404.28 
  "/>
<path clip-path="url(#clip500)" d="M1442.83 1454.1 Q1439.22 1454.1 1437.39 1457.66 Q1435.58 1461.2 1435.58 1468.33 Q1435.58 1475.44 1437.39 1479.01 Q1439.22 1482.55 1442.83 1482.55 Q1446.46 1482.55 1448.27 1479.01 Q1450.1 1475.44 1450.1 1468.33 Q1450.1 1461.2 1448.27 1457.66 Q1446.46 1454.1 1442.83 1454.1 M1442.83 1450.39 Q1448.64 1450.39 1451.69 1455 Q1454.77 1459.58 1454.77 1468.33 Q1454.77 1477.06 1451.69 1481.67 Q1448.64 1486.25 1442.83 1486.25 Q1437.02 1486.25 1433.94 1481.67 Q1430.88 1477.06 1430.88 1468.33 Q1430.88 1459.58 1433.94 1455 Q1437.02 1450.39 1442.83 1450.39 Z" fill="#000000" fill-rule="evenodd" fill-opacity="1" /><path clip-path="url(#clip500)" d="M1727.68 1481.64 L1735.32 1481.64 L1735.32 1455.28 L1727.01 1456.95 L1727.01 1452.69 L1735.28 1451.02 L1739.95 1451.02 L1739.95 1481.64 L1747.59 1481.64 L1747.59 1485.58 L1727.68 1485.58 L1727.68 1481.64 Z" fill="#000000" fill-rule="evenodd" fill-opacity="1" /><path clip-path="url(#clip500)" d="M2026.43 1481.64 L2042.75 1481.64 L2042.75 1485.58 L2020.81 1485.58 L2020.81 1481.64 Q2023.47 1478.89 2028.05 1474.26 Q2032.66 1469.61 2033.84 1468.27 Q2036.08 1465.74 2036.96 1464.01 Q2037.87 1462.25 2037.87 1460.56 Q2037.87 1457.8 2035.92 1456.07 Q2034 1454.33 2030.9 1454.33 Q2028.7 1454.33 2026.25 1455.09 Q2023.81 1455.86 2021.04 1457.41 L2021.04 1452.69 Q2023.86 1451.55 2026.31 1450.97 Q2028.77 1450.39 2030.81 1450.39 Q2036.18 1450.39 2039.37 1453.08 Q2042.56 1455.77 2042.56 1460.26 Q2042.56 1462.39 2041.75 1464.31 Q2040.97 1466.2 2038.86 1468.8 Q2038.28 1469.47 2035.18 1472.69 Q2032.08 1475.88 2026.43 1481.64 Z" fill="#000000" fill-rule="evenodd" fill-opacity="1" /><path clip-path="url(#clip500)" d="M2330.5 1466.95 Q2333.86 1467.66 2335.73 1469.93 Q2337.63 1472.2 2337.63 1475.53 Q2337.63 1480.65 2334.11 1483.45 Q2330.59 1486.25 2324.11 1486.25 Q2321.94 1486.25 2319.62 1485.81 Q2317.33 1485.39 2314.88 1484.54 L2314.88 1480.02 Q2316.82 1481.16 2319.14 1481.74 Q2321.45 1482.32 2323.97 1482.32 Q2328.37 1482.32 2330.66 1480.58 Q2332.98 1478.84 2332.98 1475.53 Q2332.98 1472.48 2330.82 1470.77 Q2328.7 1469.03 2324.88 1469.03 L2320.85 1469.03 L2320.85 1465.19 L2325.06 1465.19 Q2328.51 1465.19 2330.34 1463.82 Q2332.17 1462.43 2332.17 1459.84 Q2332.17 1457.18 2330.27 1455.77 Q2328.39 1454.33 2324.88 1454.33 Q2322.95 1454.33 2320.76 1454.75 Q2318.56 1455.16 2315.92 1456.04 L2315.92 1451.88 Q2318.58 1451.14 2320.89 1450.77 Q2323.23 1450.39 2325.29 1450.39 Q2330.62 1450.39 2333.72 1452.83 Q2336.82 1455.23 2336.82 1459.35 Q2336.82 1462.22 2335.18 1464.21 Q2333.53 1466.18 2330.5 1466.95 Z" fill="#000000" fill-rule="evenodd" fill-opacity="1" /><path clip-path="url(#clip500)" d="M1883.6 1522.27 L1883.6 1532.4 L1895.66 1532.4 L1895.66 1536.95 L1883.6 1536.95 L1883.6 1556.3 Q1883.6 1560.66 1884.78 1561.9 Q1885.99 1563.14 1889.65 1563.14 L1895.66 1563.14 L1895.66 1568.04 L1889.65 1568.04 Q1882.87 1568.04 1880.29 1565.53 Q1877.71 1562.98 1877.71 1556.3 L1877.71 1536.95 L1873.42 1536.95 L1873.42 1532.4 L1877.71 1532.4 L1877.71 1522.27 L1883.6 1522.27 Z" fill="#000000" fill-rule="evenodd" fill-opacity="1" /><polyline clip-path="url(#clip504)" style="stroke:#000000; stroke-linecap:round; stroke-linejoin:round; stroke-width:2; stroke-opacity:0.1; fill:none" points="
  1416.32,1232.32 2352.76,1232.32 
  "/>
<polyline clip-path="url(#clip504)" style="stroke:#000000; stroke-linecap:round; stroke-linejoin:round; stroke-width:2; stroke-opacity:0.1; fill:none" points="
  1416.32,985.754 2352.76,985.754 
  "/>
<polyline clip-path="url(#clip500)" style="stroke:#000000; stroke-linecap:round; stroke-linejoin:round; stroke-width:4; stroke-opacity:1; fill:none" points="
  1416.32,1423.18 1416.32,847.244 
  "/>
<polyline clip-path="url(#clip500)" style="stroke:#000000; stroke-linecap:round; stroke-linejoin:round; stroke-width:4; stroke-opacity:1; fill:none" points="
  1416.32,1232.32 1435.22,1232.32 
  "/>
<polyline clip-path="url(#clip500)" style="stroke:#000000; stroke-linecap:round; stroke-linejoin:round; stroke-width:4; stroke-opacity:1; fill:none" points="
  1416.32,985.754 1435.22,985.754 
  "/>
<path clip-path="url(#clip500)" d="M1280.18 1252.11 L1287.82 1252.11 L1287.82 1225.75 L1279.51 1227.41 L1279.51 1223.16 L1287.78 1221.49 L1292.45 1221.49 L1292.45 1252.11 L1300.09 1252.11 L1300.09 1256.05 L1280.18 1256.05 L1280.18 1252.11 Z" fill="#000000" fill-rule="evenodd" fill-opacity="1" /><path clip-path="url(#clip500)" d="M1319.54 1224.57 Q1315.93 1224.57 1314.1 1228.13 Q1312.29 1231.67 1312.29 1238.8 Q1312.29 1245.91 1314.1 1249.47 Q1315.93 1253.02 1319.54 1253.02 Q1323.17 1253.02 1324.98 1249.47 Q1326.8 1245.91 1326.8 1238.8 Q1326.8 1231.67 1324.98 1228.13 Q1323.17 1224.57 1319.54 1224.57 M1319.54 1220.86 Q1325.35 1220.86 1328.4 1225.47 Q1331.48 1230.05 1331.48 1238.8 Q1331.48 1247.53 1328.4 1252.14 Q1325.35 1256.72 1319.54 1256.72 Q1313.73 1256.72 1310.65 1252.14 Q1307.59 1247.53 1307.59 1238.8 Q1307.59 1230.05 1310.65 1225.47 Q1313.73 1220.86 1319.54 1220.86 Z" fill="#000000" fill-rule="evenodd" fill-opacity="1" /><path clip-path="url(#clip500)" d="M1331.48 1214.97 L1355.59 1214.97 L1355.59 1218.16 L1331.48 1218.16 L1331.48 1214.97 Z" fill="#000000" fill-rule="evenodd" fill-opacity="1" /><path clip-path="url(#clip500)" d="M1367.07 1225.44 L1380.32 1225.44 L1380.32 1228.64 L1362.49 1228.64 L1362.49 1225.44 Q1364.66 1223.2 1368.38 1219.44 Q1372.12 1215.66 1373.08 1214.57 Q1374.91 1212.52 1375.62 1211.11 Q1376.36 1209.68 1376.36 1208.31 Q1376.36 1206.07 1374.78 1204.66 Q1373.22 1203.25 1370.7 1203.25 Q1368.91 1203.25 1366.91 1203.87 Q1364.94 1204.49 1362.68 1205.75 L1362.68 1201.91 Q1364.98 1200.99 1366.97 1200.52 Q1368.96 1200.05 1370.62 1200.05 Q1374.98 1200.05 1377.58 1202.23 Q1380.17 1204.41 1380.17 1208.06 Q1380.17 1209.79 1379.52 1211.35 Q1378.88 1212.9 1377.16 1215 Q1376.69 1215.55 1374.17 1218.16 Q1371.65 1220.76 1367.07 1225.44 Z" fill="#000000" fill-rule="evenodd" fill-opacity="1" /><path clip-path="url(#clip500)" d="M1279.88 1005.55 L1287.52 1005.55 L1287.52 979.181 L1279.21 980.847 L1279.21 976.588 L1287.48 974.922 L1292.15 974.922 L1292.15 1005.55 L1299.79 1005.55 L1299.79 1009.48 L1279.88 1009.48 L1279.88 1005.55 Z" fill="#000000" fill-rule="evenodd" fill-opacity="1" /><path clip-path="url(#clip500)" d="M1319.24 978 Q1315.62 978 1313.8 981.565 Q1311.99 985.107 1311.99 992.236 Q1311.99 999.343 1313.8 1002.91 Q1315.62 1006.45 1319.24 1006.45 Q1322.87 1006.45 1324.68 1002.91 Q1326.5 999.343 1326.5 992.236 Q1326.5 985.107 1324.68 981.565 Q1322.87 978 1319.24 978 M1319.24 974.297 Q1325.05 974.297 1328.1 978.903 Q1331.18 983.486 1331.18 992.236 Q1331.18 1000.96 1328.1 1005.57 Q1325.05 1010.15 1319.24 1010.15 Q1313.43 1010.15 1310.35 1005.57 Q1307.29 1000.96 1307.29 992.236 Q1307.29 983.486 1310.35 978.903 Q1313.43 974.297 1319.24 974.297 Z" fill="#000000" fill-rule="evenodd" fill-opacity="1" /><path clip-path="url(#clip500)" d="M1331.18 968.398 L1355.29 968.398 L1355.29 971.595 L1331.18 971.595 L1331.18 968.398 Z" fill="#000000" fill-rule="evenodd" fill-opacity="1" /><path clip-path="url(#clip500)" d="M1364.15 978.874 L1370.36 978.874 L1370.36 957.452 L1363.6 958.806 L1363.6 955.345 L1370.32 953.991 L1374.12 953.991 L1374.12 978.874 L1380.32 978.874 L1380.32 982.071 L1364.15 982.071 L1364.15 978.874 Z" fill="#000000" fill-rule="evenodd" fill-opacity="1" /><path clip-path="url(#clip500)" d="M1181.44 1262.11 L1181.44 1255.68 L1223.55 1255.68 L1223.55 1232.54 L1228.96 1232.54 L1228.96 1262.11 L1181.44 1262.11 Z" fill="#000000" fill-rule="evenodd" fill-opacity="1" /><path clip-path="url(#clip500)" d="M1223.55 1219.68 L1223.55 1197.25 L1228.96 1197.25 L1228.96 1227.42 L1223.55 1227.42 Q1219.76 1223.76 1213.39 1217.46 Q1206.99 1211.12 1205.15 1209.5 Q1201.68 1206.41 1199.29 1205.2 Q1196.87 1203.96 1194.55 1203.96 Q1190.76 1203.96 1188.38 1206.64 Q1185.99 1209.28 1185.99 1213.54 Q1185.99 1216.57 1187.04 1219.94 Q1188.09 1223.28 1190.22 1227.1 L1183.73 1227.1 Q1182.17 1223.22 1181.37 1219.84 Q1180.58 1216.47 1180.58 1213.67 Q1180.58 1206.29 1184.27 1201.89 Q1187.96 1197.5 1194.14 1197.5 Q1197.06 1197.5 1199.71 1198.61 Q1202.32 1199.7 1205.88 1202.59 Q1206.8 1203.39 1211.23 1207.65 Q1215.62 1211.92 1223.55 1219.68 Z" fill="#000000" fill-rule="evenodd" fill-opacity="1" /><path clip-path="url(#clip500)" d="M1208.49 1187.54 L1208.49 1170.38 L1213.71 1170.38 L1213.71 1187.54 L1208.49 1187.54 Z" fill="#000000" fill-rule="evenodd" fill-opacity="1" /><path clip-path="url(#clip500)" d="M1181.44 1160.8 L1181.44 1130.76 L1186.85 1130.76 L1186.85 1154.37 L1200.92 1154.37 L1200.92 1131.74 L1206.33 1131.74 L1206.33 1154.37 L1223.55 1154.37 L1223.55 1130.18 L1228.96 1130.18 L1228.96 1160.8 L1181.44 1160.8 Z" fill="#000000" fill-rule="evenodd" fill-opacity="1" /><path clip-path="url(#clip500)" d="M1198.78 1099.21 Q1198.21 1100.2 1197.96 1101.38 Q1197.67 1102.52 1197.67 1103.92 Q1197.67 1108.89 1200.92 1111.56 Q1204.13 1114.21 1210.18 1114.21 L1228.96 1114.21 L1228.96 1120.09 L1193.31 1120.09 L1193.31 1114.21 L1198.85 1114.21 Q1195.6 1112.36 1194.04 1109.4 Q1192.45 1106.44 1192.45 1102.21 Q1192.45 1101.6 1192.54 1100.87 Q1192.61 1100.14 1192.77 1099.25 L1198.78 1099.21 Z" fill="#000000" fill-rule="evenodd" fill-opacity="1" /><path clip-path="url(#clip500)" d="M1198.78 1073.56 Q1198.21 1074.55 1197.96 1075.72 Q1197.67 1076.87 1197.67 1078.27 Q1197.67 1083.24 1200.92 1085.91 Q1204.13 1088.55 1210.18 1088.55 L1228.96 1088.55 L1228.96 1094.44 L1193.31 1094.44 L1193.31 1088.55 L1198.85 1088.55 Q1195.6 1086.71 1194.04 1083.75 Q1192.45 1080.79 1192.45 1076.55 Q1192.45 1075.95 1192.54 1075.22 Q1192.61 1074.48 1192.77 1073.59 L1198.78 1073.56 Z" fill="#000000" fill-rule="evenodd" fill-opacity="1" /><path clip-path="url(#clip500)" d="M1197.41 1055.04 Q1197.41 1059.75 1201.11 1062.48 Q1204.77 1065.22 1211.16 1065.22 Q1217.56 1065.22 1221.25 1062.52 Q1224.91 1059.78 1224.91 1055.04 Q1224.91 1050.36 1221.22 1047.62 Q1217.53 1044.88 1211.16 1044.88 Q1204.83 1044.88 1201.14 1047.62 Q1197.41 1050.36 1197.41 1055.04 M1192.45 1055.04 Q1192.45 1047.4 1197.41 1043.04 Q1202.38 1038.68 1211.16 1038.68 Q1219.92 1038.68 1224.91 1043.04 Q1229.88 1047.4 1229.88 1055.04 Q1229.88 1062.71 1224.91 1067.07 Q1219.92 1071.4 1211.16 1071.4 Q1202.38 1071.4 1197.41 1067.07 Q1192.45 1062.71 1192.45 1055.04 Z" fill="#000000" fill-rule="evenodd" fill-opacity="1" /><path clip-path="url(#clip500)" d="M1198.78 1008.31 Q1198.21 1009.3 1197.96 1010.48 Q1197.67 1011.62 1197.67 1013.02 Q1197.67 1017.99 1200.92 1020.66 Q1204.13 1023.3 1210.18 1023.3 L1228.96 1023.3 L1228.96 1029.19 L1193.31 1029.19 L1193.31 1023.3 L1198.85 1023.3 Q1195.6 1021.46 1194.04 1018.5 Q1192.45 1015.54 1192.45 1011.3 Q1192.45 1010.7 1192.54 1009.97 Q1192.61 1009.23 1192.77 1008.34 L1198.78 1008.31 Z" fill="#000000" fill-rule="evenodd" fill-opacity="1" /><polyline clip-path="url(#clip504)" style="stroke:#ff0000; stroke-linecap:round; stroke-linejoin:round; stroke-width:4; stroke-opacity:1; fill:none" points="
  1442.83,863.544 1457.55,1101.57 1472.27,997.289 1487,1103.84 1501.72,1125.48 1516.45,1171.59 1531.17,1048.54 1545.89,1044.34 1560.62,1035.42 1575.34,981.832 
  1590.07,991.113 1604.79,1057.45 1619.51,1118.04 1634.24,1065.11 1648.96,1053.73 1663.68,1081.5 1678.41,1149.68 1693.13,1154.75 1707.86,1101.2 1722.58,1084.76 
  1737.3,1096.12 1752.03,1129.68 1766.75,1180.07 1781.47,1222.83 1796.2,1225.51 1810.92,1217.75 1825.65,1218.25 1840.37,1226.05 1855.09,1235.44 1869.82,1237.42 
  1884.54,1226.42 1899.26,1207.76 1913.99,1189.19 1928.71,1174.65 1943.44,1165.58 1958.16,1162.86 1972.88,1167.71 1987.61,1182.12 2002.33,1207.82 2017.05,1231.26 
  2031.78,1204.91 2046.5,1157.1 2061.23,1122.77 2075.95,1106.56 2090.67,1112.67 2105.4,1157.08 2120.12,1406.88 2134.84,1148.77 2149.57,1075.98 2164.29,1049.62 
  2179.02,1054.69 2193.74,1099.29 2208.46,1253.45 2223.19,1113.2 2237.91,1035.9 2252.63,1000.92 2267.36,993.692 2282.08,1024.63 2296.81,1147.29 2311.53,998.123 
  2326.25,916.98 
  "/>
</svg>
