<?xml version="1.0" encoding="utf-8"?>
<svg xmlns="http://www.w3.org/2000/svg" xmlns:xlink="http://www.w3.org/1999/xlink" width="600" height="400" viewBox="0 0 2400 1600">
<defs>
  <clipPath id="clip460">
    <rect x="0" y="0" width="2400" height="1600"/>
  </clipPath>
</defs>
<path clip-path="url(#clip460)" d="
M0 1600 L2400 1600 L2400 0 L0 0  Z
  " fill="#ffffff" fill-rule="evenodd" fill-opacity="1"/>
<defs>
  <clipPath id="clip461">
    <rect x="480" y="0" width="1681" height="1600"/>
  </clipPath>
</defs>
<path clip-path="url(#clip460)" d="
M251.071 1410.9 L2352.76 1410.9 L2352.76 47.2441 L251.071 47.2441  Z
  " fill="#ffffff" fill-rule="evenodd" fill-opacity="1"/>
<defs>
  <clipPath id="clip462">
    <rect x="251" y="47" width="2103" height="1365"/>
  </clipPath>
</defs>
<polyline clip-path="url(#clip462)" style="stroke:#000000; stroke-linecap:round; stroke-linejoin:round; stroke-width:2; stroke-opacity:0.1; fill:none" points="
  310.553,1410.9 310.553,47.2441 
  "/>
<polyline clip-path="url(#clip462)" style="stroke:#000000; stroke-linecap:round; stroke-linejoin:round; stroke-width:2; stroke-opacity:0.1; fill:none" points="
  1441.78,1410.9 1441.78,47.2441 
  "/>
<polyline clip-path="url(#clip460)" style="stroke:#000000; stroke-linecap:round; stroke-linejoin:round; stroke-width:4; stroke-opacity:1; fill:none" points="
  251.071,1410.9 2352.76,1410.9 
  "/>
<polyline clip-path="url(#clip460)" style="stroke:#000000; stroke-linecap:round; stroke-linejoin:round; stroke-width:4; stroke-opacity:1; fill:none" points="
  310.553,1410.9 310.553,1392 
  "/>
<polyline clip-path="url(#clip460)" style="stroke:#000000; stroke-linecap:round; stroke-linejoin:round; stroke-width:4; stroke-opacity:1; fill:none" points="
  1441.78,1410.9 1441.78,1392 
  "/>
<path clip-path="url(#clip460)" d="M275.536 1485.02 L283.175 1485.02 L283.175 1458.66 L274.864 1460.32 L274.864 1456.06 L283.128 1454.4 L287.804 1454.4 L287.804 1485.02 L295.443 1485.02 L295.443 1488.96 L275.536 1488.96 L275.536 1485.02 Z" fill="#000000" fill-rule="evenodd" fill-opacity="1" /><path clip-path="url(#clip460)" d="M314.887 1457.48 Q311.276 1457.48 309.448 1461.04 Q307.642 1464.58 307.642 1471.71 Q307.642 1478.82 309.448 1482.38 Q311.276 1485.92 314.887 1485.92 Q318.522 1485.92 320.327 1482.38 Q322.156 1478.82 322.156 1471.71 Q322.156 1464.58 320.327 1461.04 Q318.522 1457.48 314.887 1457.48 M314.887 1453.77 Q320.698 1453.77 323.753 1458.38 Q326.832 1462.96 326.832 1471.71 Q326.832 1480.44 323.753 1485.04 Q320.698 1489.63 314.887 1489.63 Q309.077 1489.63 305.999 1485.04 Q302.943 1480.44 302.943 1471.71 Q302.943 1462.96 305.999 1458.38 Q309.077 1453.77 314.887 1453.77 Z" fill="#000000" fill-rule="evenodd" fill-opacity="1" /><path clip-path="url(#clip460)" d="M336.537 1435.97 Q333.603 1435.97 332.117 1438.86 Q330.65 1441.74 330.65 1447.53 Q330.65 1453.31 332.117 1456.2 Q333.603 1459.08 336.537 1459.08 Q339.489 1459.08 340.956 1456.2 Q342.442 1453.31 342.442 1447.53 Q342.442 1441.74 340.956 1438.86 Q339.489 1435.97 336.537 1435.97 M336.537 1432.96 Q341.257 1432.96 343.74 1436.7 Q346.241 1440.43 346.241 1447.53 Q346.241 1454.62 343.74 1458.37 Q341.257 1462.09 336.537 1462.09 Q331.816 1462.09 329.314 1458.37 Q326.832 1454.62 326.832 1447.53 Q326.832 1440.43 329.314 1436.7 Q331.816 1432.96 336.537 1432.96 Z" fill="#000000" fill-rule="evenodd" fill-opacity="1" /><path clip-path="url(#clip460)" d="M1407.56 1485.02 L1415.2 1485.02 L1415.2 1458.66 L1406.89 1460.32 L1406.89 1456.06 L1415.15 1454.4 L1419.83 1454.4 L1419.83 1485.02 L1427.46 1485.02 L1427.46 1488.96 L1407.56 1488.96 L1407.56 1485.02 Z" fill="#000000" fill-rule="evenodd" fill-opacity="1" /><path clip-path="url(#clip460)" d="M1446.91 1457.48 Q1443.3 1457.48 1441.47 1461.04 Q1439.66 1464.58 1439.66 1471.71 Q1439.66 1478.82 1441.47 1482.38 Q1443.3 1485.92 1446.91 1485.92 Q1450.54 1485.92 1452.35 1482.38 Q1454.18 1478.82 1454.18 1471.71 Q1454.18 1464.58 1452.35 1461.04 Q1450.54 1457.48 1446.91 1457.48 M1446.91 1453.77 Q1452.72 1453.77 1455.77 1458.38 Q1458.85 1462.96 1458.85 1471.71 Q1458.85 1480.44 1455.77 1485.04 Q1452.72 1489.63 1446.91 1489.63 Q1441.1 1489.63 1438.02 1485.04 Q1434.96 1480.44 1434.96 1471.71 Q1434.96 1462.96 1438.02 1458.38 Q1441.1 1453.77 1446.91 1453.77 Z" fill="#000000" fill-rule="evenodd" fill-opacity="1" /><path clip-path="url(#clip460)" d="M1463.42 1458.35 L1476.68 1458.35 L1476.68 1461.55 L1458.85 1461.55 L1458.85 1458.35 Q1461.02 1456.11 1464.74 1452.35 Q1468.48 1448.57 1469.44 1447.48 Q1471.27 1445.43 1471.98 1444.02 Q1472.71 1442.59 1472.71 1441.22 Q1472.71 1438.98 1471.13 1437.57 Q1469.57 1436.16 1467.05 1436.16 Q1465.27 1436.16 1463.27 1436.78 Q1461.3 1437.4 1459.04 1438.66 L1459.04 1434.82 Q1461.34 1433.9 1463.33 1433.43 Q1465.32 1432.96 1466.98 1432.96 Q1471.34 1432.96 1473.94 1435.14 Q1476.53 1437.32 1476.53 1440.97 Q1476.53 1442.7 1475.87 1444.26 Q1475.23 1445.8 1473.52 1447.91 Q1473.05 1448.46 1470.53 1451.07 Q1468.01 1453.67 1463.42 1458.35 Z" fill="#000000" fill-rule="evenodd" fill-opacity="1" /><path clip-path="url(#clip460)" d="M1151.48 1526.67 L1157.91 1526.67 L1157.91 1574.19 L1151.48 1574.19 L1151.48 1526.67 Z" fill="#000000" fill-rule="evenodd" fill-opacity="1" /><path clip-path="url(#clip460)" d="M1176.24 1528.42 L1176.24 1538.54 L1188.3 1538.54 L1188.3 1543.09 L1176.24 1543.09 L1176.24 1562.44 Q1176.24 1566.8 1177.42 1568.04 Q1178.63 1569.28 1182.29 1569.28 L1188.3 1569.28 L1188.3 1574.19 L1182.29 1574.19 Q1175.51 1574.19 1172.93 1571.67 Q1170.35 1569.12 1170.35 1562.44 L1170.35 1543.09 L1166.05 1543.09 L1166.05 1538.54 L1170.35 1538.54 L1170.35 1528.42 L1176.24 1528.42 Z" fill="#000000" fill-rule="evenodd" fill-opacity="1" /><path clip-path="url(#clip460)" d="M1226.5 1554.9 L1226.5 1557.76 L1199.57 1557.76 Q1199.95 1563.81 1203.2 1566.99 Q1206.48 1570.14 1212.3 1570.14 Q1215.67 1570.14 1218.83 1569.32 Q1222.01 1568.49 1225.13 1566.83 L1225.13 1572.37 Q1221.98 1573.71 1218.67 1574.41 Q1215.36 1575.11 1211.95 1575.11 Q1203.42 1575.11 1198.42 1570.14 Q1193.46 1565.18 1193.46 1556.71 Q1193.46 1547.96 1198.17 1542.83 Q1202.91 1537.68 1210.93 1537.68 Q1218.12 1537.68 1222.29 1542.33 Q1226.5 1546.94 1226.5 1554.9 M1220.64 1553.18 Q1220.58 1548.37 1217.93 1545.51 Q1215.32 1542.64 1211 1542.64 Q1206.09 1542.64 1203.13 1545.41 Q1200.21 1548.18 1199.76 1553.21 L1220.64 1553.18 Z" fill="#000000" fill-rule="evenodd" fill-opacity="1" /><path clip-path="url(#clip460)" d="M1256.76 1544.01 Q1255.78 1543.44 1254.6 1543.18 Q1253.45 1542.9 1252.05 1542.9 Q1247.09 1542.9 1244.42 1546.14 Q1241.77 1549.36 1241.77 1555.41 L1241.77 1574.19 L1235.89 1574.19 L1235.89 1538.54 L1241.77 1538.54 L1241.77 1544.08 Q1243.62 1540.83 1246.58 1539.27 Q1249.54 1537.68 1253.77 1537.68 Q1254.38 1537.68 1255.11 1537.77 Q1255.84 1537.84 1256.73 1538 L1256.76 1544.01 Z" fill="#000000" fill-rule="evenodd" fill-opacity="1" /><path clip-path="url(#clip460)" d="M1279.11 1556.27 Q1272.01 1556.27 1269.27 1557.89 Q1266.54 1559.51 1266.54 1563.43 Q1266.54 1566.55 1268.57 1568.39 Q1270.64 1570.21 1274.18 1570.21 Q1279.04 1570.21 1281.97 1566.77 Q1284.93 1563.3 1284.93 1557.57 L1284.93 1556.27 L1279.11 1556.27 M1290.79 1553.85 L1290.79 1574.19 L1284.93 1574.19 L1284.93 1568.77 Q1282.93 1572.02 1279.94 1573.58 Q1276.94 1575.11 1272.62 1575.11 Q1267.14 1575.11 1263.89 1572.05 Q1260.68 1568.97 1260.68 1563.81 Q1260.68 1557.79 1264.69 1554.74 Q1268.73 1551.68 1276.72 1551.68 L1284.93 1551.68 L1284.93 1551.11 Q1284.93 1547.07 1282.26 1544.87 Q1279.62 1542.64 1274.81 1542.64 Q1271.76 1542.64 1268.86 1543.38 Q1265.96 1544.11 1263.29 1545.57 L1263.29 1540.16 Q1266.5 1538.92 1269.53 1538.31 Q1272.55 1537.68 1275.42 1537.68 Q1283.15 1537.68 1286.97 1541.69 Q1290.79 1545.7 1290.79 1553.85 Z" fill="#000000" fill-rule="evenodd" fill-opacity="1" /><path clip-path="url(#clip460)" d="M1308.65 1528.42 L1308.65 1538.54 L1320.71 1538.54 L1320.71 1543.09 L1308.65 1543.09 L1308.65 1562.44 Q1308.65 1566.8 1309.82 1568.04 Q1311.03 1569.28 1314.69 1569.28 L1320.71 1569.28 L1320.71 1574.19 L1314.69 1574.19 Q1307.91 1574.19 1305.34 1571.67 Q1302.76 1569.12 1302.76 1562.44 L1302.76 1543.09 L1298.46 1543.09 L1298.46 1538.54 L1302.76 1538.54 L1302.76 1528.42 L1308.65 1528.42 Z" fill="#000000" fill-rule="evenodd" fill-opacity="1" /><path clip-path="url(#clip460)" d="M1328.41 1538.54 L1334.27 1538.54 L1334.27 1574.19 L1328.41 1574.19 L1328.41 1538.54 M1328.41 1524.66 L1334.27 1524.66 L1334.27 1532.08 L1328.41 1532.08 L1328.41 1524.66 Z" fill="#000000" fill-rule="evenodd" fill-opacity="1" /><path clip-path="url(#clip460)" d="M1360.33 1542.64 Q1355.62 1542.64 1352.89 1546.34 Q1350.15 1550 1350.15 1556.39 Q1350.15 1562.79 1352.86 1566.48 Q1355.59 1570.14 1360.33 1570.14 Q1365.01 1570.14 1367.75 1566.45 Q1370.49 1562.76 1370.49 1556.39 Q1370.49 1550.06 1367.75 1546.37 Q1365.01 1542.64 1360.33 1542.64 M1360.33 1537.68 Q1367.97 1537.68 1372.33 1542.64 Q1376.69 1547.61 1376.69 1556.39 Q1376.69 1565.15 1372.33 1570.14 Q1367.97 1575.11 1360.33 1575.11 Q1352.66 1575.11 1348.3 1570.14 Q1343.97 1565.15 1343.97 1556.39 Q1343.97 1547.61 1348.3 1542.64 Q1352.66 1537.68 1360.33 1537.68 Z" fill="#000000" fill-rule="evenodd" fill-opacity="1" /><path clip-path="url(#clip460)" d="M1416.03 1552.67 L1416.03 1574.19 L1410.18 1574.19 L1410.18 1552.86 Q1410.18 1547.8 1408.2 1545.29 Q1406.23 1542.77 1402.28 1542.77 Q1397.54 1542.77 1394.81 1545.79 Q1392.07 1548.82 1392.07 1554.04 L1392.07 1574.19 L1386.18 1574.19 L1386.18 1538.54 L1392.07 1538.54 L1392.07 1544.08 Q1394.17 1540.86 1397 1539.27 Q1399.87 1537.68 1403.59 1537.68 Q1409.73 1537.68 1412.88 1541.5 Q1416.03 1545.29 1416.03 1552.67 Z" fill="#000000" fill-rule="evenodd" fill-opacity="1" /><path clip-path="url(#clip460)" d="M1450.44 1539.59 L1450.44 1545.13 Q1447.96 1543.85 1445.29 1543.22 Q1442.61 1542.58 1439.75 1542.58 Q1435.39 1542.58 1433.19 1543.92 Q1431.03 1545.25 1431.03 1547.93 Q1431.03 1549.96 1432.59 1551.14 Q1434.15 1552.29 1438.86 1553.34 L1440.86 1553.78 Q1447.1 1555.12 1449.71 1557.57 Q1452.35 1559.99 1452.35 1564.35 Q1452.35 1569.32 1448.4 1572.21 Q1444.49 1575.11 1437.61 1575.11 Q1434.75 1575.11 1431.63 1574.54 Q1428.54 1573.99 1425.11 1572.88 L1425.11 1566.83 Q1428.35 1568.52 1431.5 1569.38 Q1434.65 1570.21 1437.74 1570.21 Q1441.88 1570.21 1444.11 1568.81 Q1446.34 1567.37 1446.34 1564.8 Q1446.34 1562.41 1444.71 1561.14 Q1443.12 1559.86 1437.68 1558.68 L1435.64 1558.21 Q1430.2 1557.06 1427.78 1554.71 Q1425.36 1552.32 1425.36 1548.18 Q1425.36 1543.15 1428.93 1540.42 Q1432.49 1537.68 1439.05 1537.68 Q1442.29 1537.68 1445.16 1538.16 Q1448.02 1538.63 1450.44 1539.59 Z" fill="#000000" fill-rule="evenodd" fill-opacity="1" /><polyline clip-path="url(#clip462)" style="stroke:#000000; stroke-linecap:round; stroke-linejoin:round; stroke-width:2; stroke-opacity:0.1; fill:none" points="
  251.071,1111.14 2352.76,1111.14 
  "/>
<polyline clip-path="url(#clip462)" style="stroke:#000000; stroke-linecap:round; stroke-linejoin:round; stroke-width:2; stroke-opacity:0.1; fill:none" points="
  251.071,750.334 2352.76,750.334 
  "/>
<polyline clip-path="url(#clip462)" style="stroke:#000000; stroke-linecap:round; stroke-linejoin:round; stroke-width:2; stroke-opacity:0.1; fill:none" points="
  251.071,389.528 2352.76,389.528 
  "/>
<polyline clip-path="url(#clip460)" style="stroke:#000000; stroke-linecap:round; stroke-linejoin:round; stroke-width:4; stroke-opacity:1; fill:none" points="
  251.071,1410.9 251.071,47.2441 
  "/>
<polyline clip-path="url(#clip460)" style="stroke:#000000; stroke-linecap:round; stroke-linejoin:round; stroke-width:4; stroke-opacity:1; fill:none" points="
  251.071,1111.14 269.969,1111.14 
  "/>
<polyline clip-path="url(#clip460)" style="stroke:#000000; stroke-linecap:round; stroke-linejoin:round; stroke-width:4; stroke-opacity:1; fill:none" points="
  251.071,750.334 269.969,750.334 
  "/>
<polyline clip-path="url(#clip460)" style="stroke:#000000; stroke-linecap:round; stroke-linejoin:round; stroke-width:4; stroke-opacity:1; fill:none" points="
  251.071,389.528 269.969,389.528 
  "/>
<path clip-path="url(#clip460)" d="M114.931 1130.93 L122.57 1130.93 L122.57 1104.57 L114.26 1106.23 L114.26 1101.97 L122.524 1100.31 L127.2 1100.31 L127.2 1130.93 L134.839 1130.93 L134.839 1134.87 L114.931 1134.87 L114.931 1130.93 Z" fill="#000000" fill-rule="evenodd" fill-opacity="1" /><path clip-path="url(#clip460)" d="M154.283 1103.39 Q150.672 1103.39 148.843 1106.95 Q147.038 1110.49 147.038 1117.62 Q147.038 1124.73 148.843 1128.29 Q150.672 1131.83 154.283 1131.83 Q157.917 1131.83 159.723 1128.29 Q161.552 1124.73 161.552 1117.62 Q161.552 1110.49 159.723 1106.95 Q157.917 1103.39 154.283 1103.39 M154.283 1099.68 Q160.093 1099.68 163.149 1104.29 Q166.227 1108.87 166.227 1117.62 Q166.227 1126.35 163.149 1130.95 Q160.093 1135.54 154.283 1135.54 Q148.473 1135.54 145.394 1130.95 Q142.339 1126.35 142.339 1117.62 Q142.339 1108.87 145.394 1104.29 Q148.473 1099.68 154.283 1099.68 Z" fill="#000000" fill-rule="evenodd" fill-opacity="1" /><path clip-path="url(#clip460)" d="M166.227 1093.78 L190.339 1093.78 L190.339 1096.98 L166.227 1096.98 L166.227 1093.78 Z" fill="#000000" fill-rule="evenodd" fill-opacity="1" /><path clip-path="url(#clip460)" d="M201.812 1104.26 L215.071 1104.26 L215.071 1107.46 L197.241 1107.46 L197.241 1104.26 Q199.404 1102.02 203.128 1098.26 Q206.871 1094.48 207.83 1093.39 Q209.655 1091.34 210.369 1089.93 Q211.103 1088.5 211.103 1087.13 Q211.103 1084.89 209.523 1083.48 Q207.962 1082.07 205.442 1082.07 Q203.655 1082.07 201.661 1082.69 Q199.686 1083.31 197.43 1084.57 L197.43 1080.73 Q199.724 1079.81 201.718 1079.34 Q203.711 1078.87 205.366 1078.87 Q209.73 1078.87 212.325 1081.05 Q214.921 1083.23 214.921 1086.88 Q214.921 1088.61 214.263 1090.17 Q213.623 1091.71 211.912 1093.82 Q211.441 1094.37 208.921 1096.98 Q206.401 1099.58 201.812 1104.26 Z" fill="#000000" fill-rule="evenodd" fill-opacity="1" /><path clip-path="url(#clip460)" d="M144.366 770.126 L152.004 770.126 L152.004 743.76 L143.694 745.427 L143.694 741.168 L151.958 739.501 L156.634 739.501 L156.634 770.126 L164.273 770.126 L164.273 774.061 L144.366 774.061 L144.366 770.126 Z" fill="#000000" fill-rule="evenodd" fill-opacity="1" /><path clip-path="url(#clip460)" d="M183.717 742.58 Q180.106 742.58 178.277 746.145 Q176.472 749.686 176.472 756.816 Q176.472 763.922 178.277 767.487 Q180.106 771.029 183.717 771.029 Q187.351 771.029 189.157 767.487 Q190.986 763.922 190.986 756.816 Q190.986 749.686 189.157 746.145 Q187.351 742.58 183.717 742.58 M183.717 738.876 Q189.527 738.876 192.583 743.483 Q195.662 748.066 195.662 756.816 Q195.662 765.543 192.583 770.149 Q189.527 774.732 183.717 774.732 Q177.907 774.732 174.828 770.149 Q171.773 765.543 171.773 756.816 Q171.773 748.066 174.828 743.483 Q177.907 738.876 183.717 738.876 Z" fill="#000000" fill-rule="evenodd" fill-opacity="1" /><path clip-path="url(#clip460)" d="M205.366 721.072 Q202.432 721.072 200.947 723.969 Q199.48 726.846 199.48 732.639 Q199.48 738.413 200.947 741.309 Q202.432 744.187 205.366 744.187 Q208.319 744.187 209.786 741.309 Q211.272 738.413 211.272 732.639 Q211.272 726.846 209.786 723.969 Q208.319 721.072 205.366 721.072 M205.366 718.063 Q210.087 718.063 212.57 721.806 Q215.071 725.53 215.071 732.639 Q215.071 739.729 212.57 743.472 Q210.087 747.196 205.366 747.196 Q200.646 747.196 198.144 743.472 Q195.662 739.729 195.662 732.639 Q195.662 725.53 198.144 721.806 Q200.646 718.063 205.366 718.063 Z" fill="#000000" fill-rule="evenodd" fill-opacity="1" /><path clip-path="url(#clip460)" d="M145.945 409.32 L153.584 409.32 L153.584 382.955 L145.274 384.621 L145.274 380.362 L153.538 378.696 L158.214 378.696 L158.214 409.32 L165.853 409.32 L165.853 413.256 L145.945 413.256 L145.945 409.32 Z" fill="#000000" fill-rule="evenodd" fill-opacity="1" /><path clip-path="url(#clip460)" d="M185.297 381.774 Q181.686 381.774 179.857 385.339 Q178.052 388.881 178.052 396.01 Q178.052 403.117 179.857 406.682 Q181.686 410.223 185.297 410.223 Q188.931 410.223 190.737 406.682 Q192.566 403.117 192.566 396.01 Q192.566 388.881 190.737 385.339 Q188.931 381.774 185.297 381.774 M185.297 378.071 Q191.107 378.071 194.163 382.677 Q197.241 387.26 197.241 396.01 Q197.241 404.737 194.163 409.344 Q191.107 413.927 185.297 413.927 Q179.487 413.927 176.408 409.344 Q173.353 404.737 173.353 396.01 Q173.353 387.26 176.408 382.677 Q179.487 378.071 185.297 378.071 Z" fill="#000000" fill-rule="evenodd" fill-opacity="1" /><path clip-path="url(#clip460)" d="M201.812 382.648 L215.071 382.648 L215.071 385.845 L197.241 385.845 L197.241 382.648 Q199.404 380.41 203.128 376.648 Q206.871 372.868 207.83 371.777 Q209.655 369.727 210.369 368.316 Q211.103 366.887 211.103 365.514 Q211.103 363.276 209.523 361.865 Q207.962 360.455 205.442 360.455 Q203.655 360.455 201.661 361.075 Q199.686 361.696 197.43 362.956 L197.43 359.119 Q199.724 358.198 201.718 357.728 Q203.711 357.257 205.366 357.257 Q209.73 357.257 212.325 359.439 Q214.921 361.621 214.921 365.269 Q214.921 367 214.263 368.561 Q213.623 370.103 211.912 372.21 Q211.441 372.755 208.921 375.369 Q206.401 377.965 201.812 382.648 Z" fill="#000000" fill-rule="evenodd" fill-opacity="1" /><path clip-path="url(#clip460)" d="M16.4842 795.767 L16.4842 789.338 L58.5933 789.338 L58.5933 766.198 L64.0042 766.198 L64.0042 795.767 L16.4842 795.767 Z" fill="#000000" fill-rule="evenodd" fill-opacity="1" /><path clip-path="url(#clip460)" d="M32.4621 747.038 Q32.4621 751.748 36.1542 754.485 Q39.8145 757.223 46.212 757.223 Q52.6095 757.223 56.3017 754.517 Q59.9619 751.78 59.9619 747.038 Q59.9619 742.359 56.2698 739.622 Q52.5777 736.884 46.212 736.884 Q39.8781 736.884 36.186 739.622 Q32.4621 742.359 32.4621 747.038 M27.4968 747.038 Q27.4968 739.399 32.4621 735.038 Q37.4273 730.678 46.212 730.678 Q54.9649 730.678 59.9619 735.038 Q64.9272 739.399 64.9272 747.038 Q64.9272 754.708 59.9619 759.069 Q54.9649 763.397 46.212 763.397 Q37.4273 763.397 32.4621 759.069 Q27.4968 754.708 27.4968 747.038 Z" fill="#000000" fill-rule="evenodd" fill-opacity="1" /><path clip-path="url(#clip460)" d="M29.4065 698.244 L34.9447 698.244 Q33.6716 700.727 33.035 703.401 Q32.3984 706.074 32.3984 708.939 Q32.3984 713.299 33.7352 715.495 Q35.072 717.66 37.7456 717.66 Q39.7826 717.66 40.9603 716.1 Q42.1061 714.541 43.1565 709.83 L43.6021 707.825 Q44.9389 701.586 47.3897 698.976 Q49.8086 696.335 54.1691 696.335 Q59.1344 696.335 62.0308 700.281 Q64.9272 704.196 64.9272 711.071 Q64.9272 713.936 64.3543 717.055 Q63.8132 720.142 62.6992 723.58 L56.6518 723.58 Q58.3387 720.333 59.198 717.182 Q60.0256 714.031 60.0256 710.944 Q60.0256 706.806 58.6251 704.578 Q57.1929 702.35 54.6147 702.35 Q52.2276 702.35 50.9545 703.974 Q49.6813 705.565 48.5037 711.008 L48.0262 713.045 Q46.8804 718.487 44.5251 720.906 Q42.138 723.325 38.0002 723.325 Q32.9713 723.325 30.2341 719.761 Q27.4968 716.196 27.4968 709.639 Q27.4968 706.393 27.9743 703.528 Q28.4517 700.663 29.4065 698.244 Z" fill="#000000" fill-rule="evenodd" fill-opacity="1" /><path clip-path="url(#clip460)" d="M29.4065 664.283 L34.9447 664.283 Q33.6716 666.766 33.035 669.44 Q32.3984 672.113 32.3984 674.978 Q32.3984 679.338 33.7352 681.534 Q35.072 683.699 37.7456 683.699 Q39.7826 683.699 40.9603 682.139 Q42.1061 680.58 43.1565 675.869 L43.6021 673.864 Q44.9389 667.625 47.3897 665.015 Q49.8086 662.374 54.1691 662.374 Q59.1344 662.374 62.0308 666.32 Q64.9272 670.235 64.9272 677.11 Q64.9272 679.975 64.3543 683.094 Q63.8132 686.181 62.6992 689.619 L56.6518 689.619 Q58.3387 686.372 59.198 683.221 Q60.0256 680.07 60.0256 676.983 Q60.0256 672.845 58.6251 670.617 Q57.1929 668.389 54.6147 668.389 Q52.2276 668.389 50.9545 670.013 Q49.6813 671.604 48.5037 677.047 L48.0262 679.084 Q46.8804 684.526 44.5251 686.945 Q42.138 689.364 38.0002 689.364 Q32.9713 689.364 30.2341 685.799 Q27.4968 682.235 27.4968 675.678 Q27.4968 672.431 27.9743 669.567 Q28.4517 666.702 29.4065 664.283 Z" fill="#000000" fill-rule="evenodd" fill-opacity="1" /><polyline clip-path="url(#clip462)" style="stroke:#0000ff; stroke-linecap:round; stroke-linejoin:round; stroke-width:4; stroke-opacity:1; fill:none" points="
  310.553,376.643 480.82,85.838 580.42,585.9 651.087,154.317 705.901,238.712 750.687,484.326 788.554,357.054 821.355,406.384 850.287,455.912 876.169,391.341 
  899.581,371.613 920.955,399.618 940.617,469.775 958.821,491.355 975.769,436.323 991.622,435.889 1006.51,502.868 1020.55,537.06 1033.84,483.429 1046.44,470.627 
  1058.42,506.644 1069.85,586.216 1080.77,623.539 1091.22,569.561 1101.25,533.964 1110.88,562.037 1120.15,613.552 1129.09,672.467 1137.71,687.23 1146.04,633.68 
  1154.09,598.502 1161.89,599.049 1169.45,630.81 1176.78,669.584 1183.9,663.271 1190.82,630.185 1197.55,612.042 1204.1,617.449 1210.48,639.653 1216.7,657.65 
  1222.77,652.519 1228.69,636.191 1234.47,629.434 1240.12,637.42 1245.64,652.484 1251.03,661.103 1256.32,658.666 1261.49,652.435 1266.55,649.678 1271.52,652.867 
  1276.38,660.627 1281.15,669.101 1285.83,673.856 1290.42,673.285 1294.93,670.333 1299.36,669.365 1303.7,672.319 1307.98,677.837 1312.17,682.774 1316.3,684.809 
  1320.36,684.163 1324.36,682.821 1328.29,682.638 1332.16,684.274 1335.97,687.112 1339.72,689.762 1343.41,691.009 1347.05,690.74 1350.63,689.986 1354.17,689.963 
  1357.65,691.108 1361.09,692.869 1364.48,694.275 1367.82,694.772 1371.12,694.616 1374.37,694.535 1377.58,695.085 1380.75,696.266 1383.88,697.6 1386.97,698.551 
  1390.02,698.982 1393.04,699.237 1396.01,699.78 1398.96,700.767 1401.86,701.944 1404.74,702.926 1407.58,703.566 1410.38,704.055 1413.16,704.698 1415.9,705.612 
  1418.62,706.635 1421.3,707.517 1423.96,708.17 1426.59,708.739 1429.18,709.428 1431.76,710.279 1434.3,711.147 1436.82,711.88 1439.32,712.482 1441.78,713.091 
  1444.23,713.811 1446.65,714.603 1449.05,715.347 1451.42,715.99 1453.77,716.602 1456.1,717.277 1458.4,718.018 1460.69,718.745 1462.95,719.404 1465.2,720.032 
  1467.42,720.7 1469.62,721.419 1471.81,722.131 1473.97,722.796 1476.12,723.44 1478.24,724.111 1480.35,724.808 1482.44,725.49 1484.51,726.135 1486.57,726.773 
  1488.61,727.433 1490.63,728.102 1492.64,728.749 1494.63,729.373 1496.6,729.999 1498.56,730.636 1500.5,731.262 1502.42,731.865 1504.34,732.461 1506.23,733.064 
  1508.11,733.665 1509.98,734.247 1511.84,734.817 1513.68,735.388 1515.5,735.955 1517.32,736.507 1519.12,737.046 1520.9,737.583 1522.68,738.117 1524.44,738.637 
  1526.18,739.145 1527.92,739.648 1529.64,740.145 1531.36,740.628 1533.06,741.101 1534.74,741.569 1536.42,742.03 1538.09,742.478 1539.74,742.917 1541.38,743.35 
  1543.02,743.774 1544.64,744.187 1546.25,744.594 1547.85,744.994 1549.44,745.385 1551.02,745.768 1552.59,746.145 1554.15,746.514 1555.7,746.875 1557.24,747.231 
  1558.77,747.581 1560.29,747.924 1561.8,748.26 1563.3,748.592 1564.8,748.918 1566.28,749.238 1567.76,749.554 1569.22,749.866 1570.68,750.172 1572.13,750.474 
  1573.57,750.773 1575,751.067 1576.43,751.358 1577.84,751.646 1579.25,751.93 1580.65,752.212 1582.04,752.49 1583.43,752.767 1584.8,753.04 1586.17,753.312 
  1587.53,753.582 1588.88,753.85 1590.23,754.116 1591.57,754.381 1592.9,754.645 1594.23,754.907 1595.54,755.168 1596.85,755.428 1598.16,755.688 1599.45,755.946 
  1600.74,756.204 1602.02,756.462 1603.3,756.719 1604.57,756.976 1605.83,757.233 1607.09,757.49 1608.34,757.746 1609.58,758.003 1610.82,758.26 1612.05,758.517 
  
  "/>
<polyline clip-path="url(#clip462)" style="stroke:#ff0000; stroke-linecap:round; stroke-linejoin:round; stroke-width:4; stroke-opacity:1; fill:none" points="
  1613.28,758.517 1614.5,758.517 1615.71,758.621 1616.92,770.704 1618.12,775.677 1619.31,790.53 1620.5,802.117 1621.69,805.627 1622.86,809.157 1624.04,813.511 
  1625.2,819.736 1626.37,829.389 1627.52,847.145 1628.67,850.88 1629.82,856.348 1630.96,857.969 1632.09,860.647 1633.22,865.364 1634.34,869.056 1635.46,877.612 
  1636.58,902.85 1637.69,928.207 1638.79,932.92 1639.89,935.926 1640.98,938.517 1642.07,940.752 1643.16,942.322 1644.24,943.89 1645.31,947.489 1646.38,953.807 
  1647.45,971.441 1648.51,975.547 1649.57,990.992 1650.62,991.595 1651.67,998.997 1652.71,1017.27 1653.75,1018.75 1654.78,1020.59 1655.81,1022.42 1656.84,1024.81 
  1657.86,1030.95 1658.88,1045.62 1659.89,1050.13 1660.9,1062.04 1661.9,1085.29 1662.9,1095.6 1663.9,1101.8 1664.89,1107.81 1665.88,1111.44 1666.87,1125.2 
  1667.85,1138.71 1668.82,1153.12 1669.8,1157.86 1670.76,1163.4 1671.73,1168 1672.69,1169.55 1673.65,1170.01 1674.6,1170.49 1675.55,1175.01 1676.5,1198.72 
  1677.44,1203.88 1678.38,1211.95 1679.32,1216.32 1680.25,1221.23 1681.18,1224.79 1682.1,1230.47 1683.03,1234.79 1683.94,1238.24 1684.86,1239.31 1685.77,1239.51 
  1686.68,1240.15 1687.58,1240.55 1688.48,1241.77 1689.38,1244.2 1690.28,1244.9 1691.17,1245.83 1692.06,1247.94 1692.94,1249.28 1693.83,1250.11 1694.7,1252.66 
  1695.58,1254.69 1696.45,1255.69 1697.32,1256.44 1698.19,1258.19 1699.05,1260.93 1699.91,1262.83 1700.77,1266.01 1701.62,1266.58 1702.48,1266.98 1703.32,1267.44 
  1704.17,1267.58 1705.01,1267.77 1705.85,1268.44 1706.69,1269.61 1707.52,1271.04 1708.35,1273.06 1709.18,1273.57 1710.01,1273.92 1710.83,1275.32 1711.65,1277.2 
  1712.47,1278.18 1713.28,1279.26 1714.1,1279.68 1714.91,1280.28 1715.71,1281.14 1716.52,1281.74 1717.32,1282.14 1718.12,1282.52 1718.91,1283.03 1719.71,1283.58 
  1720.5,1284.26 1721.29,1285.1 1722.07,1289 1722.86,1289.84 1723.64,1293 1724.42,1297.05 1725.19,1298.03 1725.96,1300.05 1726.74,1301.18 1727.51,1301.36 
  1728.27,1301.69 1729.04,1302.2 1729.8,1302.52 1730.56,1302.77 1731.31,1302.92 1732.07,1302.96 1732.82,1303.01 1733.57,1303.29 1734.32,1304.97 1735.06,1306.13 
  1735.81,1308.03 1736.55,1309.43 1737.29,1310.03 1738.02,1310.37 1738.76,1310.93 1739.49,1311.36 1740.22,1311.6 1740.95,1311.75 1741.67,1311.82 1742.4,1311.87 
  1743.12,1311.88 1743.84,1311.89 1744.56,1311.89 1745.27,1311.89 1745.98,1311.93 1746.69,1312.23 1747.4,1312.5 1748.11,1312.89 1748.81,1313.08 1749.52,1313.15 
  1750.22,1313.26 1750.92,1313.48 1751.61,1313.54 1752.31,1313.64 1753,1313.72 1753.69,1313.77 1754.38,1313.82 1755.07,1313.84 1755.75,1313.85 1756.44,1313.86 
  1757.12,1313.86 1757.8,1313.86 1758.48,1313.86 1759.15,1313.87 1759.83,1313.9 1760.5,1313.93 1761.17,1314.08 1761.84,1314.68 1762.5,1314.72 1763.17,1314.86 
  1763.83,1314.96 1764.49,1315.2 1765.15,1315.41 1765.81,1315.56 1766.47,1315.66 1767.12,1315.82 1767.77,1316.01 1768.42,1316.15 1769.07,1316.4 1769.72,1316.64 
  1770.36,1316.69 1771.01,1316.85 1771.65,1317.13 1772.29,1317.2 1772.93,1317.3 1773.57,1317.37 1774.2,1317.46 1774.84,1317.62 1775.47,1317.76 1776.1,1317.95 
  1776.73,1318.11 1777.36,1318.16 1777.98,1318.22 1778.61,1318.26 1779.23,1318.31 1779.85,1318.34 1780.47,1318.38 1781.09,1318.41 1781.7,1318.46 1782.32,1318.49 
  1782.93,1318.49 1783.54,1318.5 1784.15,1318.5 1784.76,1318.5 1785.37,1318.5 1785.98,1318.51 1786.58,1318.51 1787.18,1318.51 1787.78,1318.51 1788.38,1318.51 
  1788.98,1318.51 1789.58,1318.51 1790.18,1318.52 1790.77,1318.54 1791.36,1318.59 1791.95,1318.77 1792.54,1318.77 1793.13,1318.94 1793.72,1319.24 1794.3,1319.3 
  1794.89,1319.43 1795.47,1319.49 1796.05,1319.54 1796.63,1319.56 1797.21,1319.58 1797.79,1319.6 1798.36,1319.61 1798.94,1319.63 1799.51,1319.65 1800.08,1319.66 
  1800.65,1319.67 1801.22,1319.71 1801.79,1319.73 1802.36,1319.77 1802.92,1319.78 1803.49,1319.79 1804.05,1319.8 1804.61,1319.8 1805.17,1319.81 1805.73,1319.82 
  1806.29,1319.82 1806.85,1319.83 1807.4,1319.85 1807.95,1319.88 1808.51,1319.88 1809.06,1319.89 1809.61,1319.89 1810.16,1319.89 1810.71,1319.89 1811.25,1319.89 
  1811.8,1319.89 1812.34,1319.9 1812.88,1319.9 1813.43,1319.9 1813.97,1319.9 1814.51,1319.9 1815.04,1319.9 1815.58,1319.9 1816.12,1319.9 1816.65,1319.9 
  1817.18,1319.91 1817.72,1319.93 1818.25,1319.99 1818.78,1320.02 1819.31,1320.08 1819.83,1320.1 1820.36,1320.12 1820.89,1320.14 1821.41,1320.15 1821.93,1320.16 
  1822.46,1320.18 1822.98,1320.2 1823.5,1320.25 1824.02,1320.26 1824.53,1320.29 1825.05,1320.37 1825.56,1320.41 1826.08,1320.51 1826.59,1320.57 1827.11,1320.62 
  1827.62,1320.66 1828.13,1320.67 1828.64,1320.68 1829.14,1320.68 1829.65,1320.68 1830.16,1320.68 1830.66,1320.68 1831.17,1320.69 1831.67,1320.69 1832.17,1320.7 
  1832.67,1320.7 1833.17,1320.71 1833.67,1320.73 1834.17,1320.75 1834.66,1320.77 1835.16,1320.81 1835.65,1320.83 1836.15,1320.84 1836.64,1320.84 1837.13,1320.85 
  1837.62,1320.85 1838.11,1320.85 1838.6,1320.85 1839.09,1320.87 1839.58,1320.88 1840.06,1320.89 1840.55,1320.91 1841.03,1320.91 1841.51,1320.92 1842,1320.92 
  1842.48,1320.92 1842.96,1320.92 1843.44,1320.92 1843.92,1320.93 1844.39,1320.93 1844.87,1320.93 1845.35,1320.93 1845.82,1320.93 1846.29,1320.94 1846.77,1320.94 
  1847.24,1320.94 1847.71,1320.94 1848.18,1320.94 1848.65,1320.94 1849.12,1320.94 1849.59,1320.94 1850.05,1320.94 1850.52,1320.95 1850.98,1320.95 1851.45,1320.96 
  1851.91,1320.97 1852.37,1320.98 1852.83,1320.99 1853.29,1321.01 1853.75,1321.01 1854.21,1321.03 1854.67,1321.13 1855.13,1321.14 1855.58,1321.18 1856.04,1321.21 
  1856.49,1321.25 1856.95,1321.3 1857.4,1321.4 1857.85,1321.44 1858.3,1321.56 1858.75,1321.69 1859.2,1321.99 1859.65,1322.05 1860.1,1322.3 1860.55,1322.48 
  1860.99,1322.57 1861.44,1322.74 1861.88,1322.77 1862.33,1322.88 1862.77,1323.05 1863.21,1323.11 1863.65,1323.26 1864.09,1323.34 1864.53,1323.43 1864.97,1323.54 
  1865.41,1323.58 1865.85,1323.6 1866.28,1323.61 1866.72,1323.62 1867.15,1323.62 1867.59,1323.63 1868.02,1323.65 1868.46,1323.69 1868.89,1323.71 1869.32,1323.73 
  1869.75,1323.74 1870.18,1323.76 1870.61,1323.77 1871.04,1323.8 1871.46,1323.81 1871.89,1323.83 1872.32,1323.83 1872.74,1323.85 1873.17,1323.86 1873.59,1323.87 
  1874.01,1323.87 1874.44,1323.87 1874.86,1323.88 1875.28,1323.89 1875.7,1323.89 1876.12,1323.9 1876.54,1323.91 1876.96,1323.91 1877.37,1323.93 1877.79,1323.94 
  1878.21,1323.94 1878.62,1323.94 1879.04,1323.95 1879.45,1323.95 1879.86,1323.96 1880.28,1323.96 1880.69,1323.97 1881.1,1323.97 1881.51,1323.97 1881.92,1323.98 
  1882.33,1323.98 1882.74,1323.98 1883.14,1323.98 1883.55,1323.98 1883.96,1323.98 1884.36,1323.98 1884.77,1323.99 1885.17,1324.04 1885.58,1324.05 1885.98,1324.12 
  1886.38,1324.29 1886.78,1324.31 1887.18,1324.39 1887.58,1324.56 1887.98,1324.58 1888.38,1324.64 1888.78,1324.66 1889.18,1324.68 1889.58,1324.69 1889.97,1324.69 
  1890.37,1324.69 1890.76,1324.69 1891.16,1324.69 1891.55,1324.69 1891.95,1324.69 1892.34,1324.69 1892.73,1324.69 1893.12,1324.69 1893.51,1324.75 1893.9,1325.08 
  1894.29,1325.2 1894.68,1325.56 1895.07,1325.7 1895.46,1325.92 1895.85,1326.36 1896.23,1326.48 1896.62,1326.67 1897,1326.93 1897.39,1327.01 1897.77,1327.16 
  1898.16,1327.25 1898.54,1327.38 1898.92,1327.42 1899.3,1327.48 1899.68,1327.49 1900.06,1327.5 1900.44,1327.51 1900.82,1327.53 1901.2,1327.56 1901.58,1327.69 
  1901.96,1328.08 1902.34,1328.49 1902.71,1328.78 1903.09,1329.12 1903.46,1329.43 1903.84,1329.77 1904.21,1330.23 1904.59,1331.18 1904.96,1331.2 1905.33,1331.56 
  1905.7,1331.73 1906.07,1331.89 1906.45,1332.06 1906.82,1332.13 1907.19,1332.19 1907.55,1332.25 1907.92,1332.32 1908.29,1332.36 1908.66,1332.45 1909.03,1332.52 
  1909.39,1332.54 1909.76,1332.57 1910.12,1332.59 1910.49,1332.6 1910.85,1332.61 1911.22,1332.61 1911.58,1332.61 1911.94,1332.62 1912.3,1332.63 1912.66,1332.65 
  1913.03,1332.71 1913.39,1332.79 1913.75,1332.89 1914.11,1332.93 1914.46,1332.94 1914.82,1332.95 1915.18,1332.95 1915.54,1332.97 1915.89,1332.99 1916.25,1333 
  1916.61,1333 1916.96,1333.01 1917.32,1333.01 1917.67,1333.01 1918.02,1333.01 1918.38,1333.01 1918.73,1333.02 1919.08,1333.02 1919.43,1333.04 1919.79,1333.05 
  1920.14,1333.06 1920.49,1333.07 1920.84,1333.08 1921.18,1333.1 1921.53,1333.11 1921.88,1333.14 1922.23,1333.19 1922.58,1333.2 1922.92,1333.22 1923.27,1333.26 
  1923.62,1333.26 1923.96,1333.27 1924.31,1333.28 1924.65,1333.29 1924.99,1333.32 1925.34,1333.36 1925.68,1333.37 1926.02,1333.44 1926.36,1333.48 1926.71,1333.51 
  1927.05,1333.51 1927.39,1333.52 1927.73,1333.52 1928.07,1333.53 1928.41,1333.53 1928.74,1333.54 1929.08,1333.55 1929.42,1333.59 1929.76,1333.59 1930.09,1333.62 
  1930.43,1333.69 1930.77,1333.69 1931.1,1333.7 1931.44,1333.71 1931.77,1333.71 1932.1,1333.71 1932.44,1333.72 1932.77,1333.73 1933.1,1333.74 1933.44,1333.77 
  1933.77,1333.77 1934.1,1333.78 1934.43,1333.79 1934.76,1333.79 1935.09,1333.79 1935.42,1333.8 1935.75,1333.8 1936.08,1333.81 1936.4,1333.81 1936.73,1333.81 
  1937.06,1333.82 1937.39,1333.82 1937.71,1333.82 1938.04,1333.82 1938.36,1333.82 1938.69,1333.82 1939.01,1333.82 1939.34,1333.82 1939.66,1333.83 1939.99,1333.83 
  1940.31,1333.83 1940.63,1333.83 1940.95,1333.84 1941.28,1333.86 1941.6,1333.87 1941.92,1333.89 1942.24,1333.94 1942.56,1333.95 1942.88,1333.98 1943.2,1334.01 
  1943.52,1334.04 1943.83,1334.05 1944.15,1334.08 1944.47,1334.15 1944.79,1334.38 1945.1,1334.41 1945.42,1334.9 1945.74,1334.93 1946.05,1334.98 1946.37,1335.08 
  1946.68,1335.15 1947,1335.18 1947.31,1335.21 1947.62,1335.25 1947.94,1335.29 1948.25,1335.32 1948.56,1335.33 1948.87,1335.35 1949.19,1335.38 1949.5,1335.41 
  1949.81,1335.45 1950.12,1335.49 1950.43,1335.55 1950.74,1335.7 1951.05,1335.75 1951.35,1335.82 1951.66,1335.84 1951.97,1335.89 1952.28,1335.91 1952.59,1335.92 
  1952.89,1335.92 1953.2,1335.92 1953.51,1335.92 1953.81,1335.92 1954.12,1335.93 1954.42,1335.94 1954.73,1335.96 1955.03,1335.97 1955.33,1336 1955.64,1336.03 
  1955.94,1336.04 1956.24,1336.06 1956.55,1336.07 1956.85,1336.07 1957.15,1336.08 1957.45,1336.1 1957.75,1336.12 1958.05,1336.16 1958.35,1336.17 1958.65,1336.21 
  1958.95,1336.21 1959.25,1336.23 1959.55,1336.24 1959.85,1336.25 1960.15,1336.26 1960.44,1336.28 1960.74,1336.29 1961.04,1336.31 1961.33,1336.33 1961.63,1336.41 
  1961.93,1336.42 1962.22,1336.44 1962.52,1336.46 1962.81,1336.5 1963.1,1336.54 1963.4,1336.55 1963.69,1336.61 1963.99,1336.65 1964.28,1336.67 1964.57,1336.68 
  1964.86,1336.7 1965.16,1336.71 1965.45,1336.72 1965.74,1336.74 1966.03,1336.75 1966.32,1336.83 1966.61,1336.85 1966.9,1336.89 1967.19,1336.92 1967.48,1336.96 
  1967.77,1337 1968.06,1337.03 1968.34,1337.11 1968.63,1337.16 1968.92,1337.2 1969.21,1337.22 1969.49,1337.24 1969.78,1337.26 1970.07,1337.3 1970.35,1337.33 
  1970.64,1337.37 1970.92,1337.39 1971.21,1337.41 1971.49,1337.42 1971.78,1337.45 1972.06,1337.46 1972.34,1337.48 1972.63,1337.49 1972.91,1337.54 1973.19,1337.55 
  1973.47,1337.57 1973.76,1337.6 1974.04,1337.67 1974.32,1337.72 1974.6,1337.75 1974.88,1337.79 1975.16,1337.85 1975.44,1337.92 1975.72,1337.93 1976,1337.95 
  1976.28,1337.97 1976.56,1337.98 1976.83,1338.01 1977.11,1338.03 1977.39,1338.09 1977.67,1338.12 1977.94,1338.19 1978.22,1338.24 1978.5,1338.3 1978.77,1338.36 
  1979.05,1338.4 1979.33,1338.46 1979.6,1338.47 1979.88,1338.49 1980.15,1338.51 1980.42,1338.53 1980.7,1338.55 1980.97,1338.58 1981.25,1338.61 1981.52,1338.65 
  1981.79,1338.68 1982.06,1338.7 1982.34,1338.74 1982.61,1338.77 1982.88,1338.78 1983.15,1338.79 1983.42,1338.82 1983.69,1338.83 1983.96,1338.84 1984.23,1338.86 
  1984.5,1338.87 1984.77,1338.88 1985.04,1338.88 1985.31,1338.89 1985.58,1338.9 1985.85,1338.9 1986.12,1338.9 1986.38,1338.91 1986.65,1338.91 1986.92,1338.91 
  1987.18,1338.91 1987.45,1338.91 1987.72,1338.91 1987.98,1338.91 1988.25,1338.91 1988.51,1338.92 1988.78,1338.92 1989.04,1338.92 1989.31,1338.93 1989.57,1338.96 
  1989.84,1338.97 1990.1,1339.04 1990.36,1339.13 1990.63,1339.14 1990.89,1339.16 1991.15,1339.19 1991.42,1339.23 1991.68,1339.24 1991.94,1339.25 1992.2,1339.26 
  1992.46,1339.27 1992.72,1339.27 1992.98,1339.28 1993.24,1339.28 1993.5,1339.28 1993.76,1339.3 1994.02,1339.35 1994.28,1339.39 1994.54,1339.42 1994.8,1339.43 
  1995.06,1339.45 1995.32,1339.47 1995.57,1339.49 1995.83,1339.51 1996.09,1339.52 1996.35,1339.56 1996.6,1339.57 1996.86,1339.59 1997.12,1339.61 1997.37,1339.62 
  1997.63,1339.64 1997.88,1339.67 1998.14,1339.7 1998.39,1339.72 1998.65,1339.73 1998.9,1339.74 1999.16,1339.75 1999.41,1339.76 1999.66,1339.78 1999.92,1339.81 
  2000.17,1339.82 2000.42,1339.84 2000.68,1339.85 2000.93,1339.86 2001.18,1339.87 2001.43,1339.87 2001.68,1339.88 2001.94,1339.89 2002.19,1339.89 2002.44,1339.9 
  2002.69,1339.9 2002.94,1339.91 2003.19,1339.91 2003.44,1339.92 2003.69,1339.92 2003.94,1339.93 2004.19,1339.93 2004.43,1339.94 2004.68,1339.94 2004.93,1339.95 
  2005.18,1339.95 2005.43,1339.96 2005.67,1339.96 2005.92,1339.96 2006.17,1339.96 2006.42,1339.96 2006.66,1339.96 2006.91,1339.97 2007.15,1339.97 2007.4,1339.97 
  2007.65,1339.97 2007.89,1339.97 2008.14,1339.98 2008.38,1339.98 2008.63,1339.98 2008.87,1339.98 2009.11,1339.98 2009.36,1339.98 2009.6,1339.98 2009.84,1339.98 
  2010.09,1339.98 2010.33,1339.99 2010.57,1339.99 2010.82,1339.99 2011.06,1339.99 2011.3,1339.99 2011.54,1339.99 2011.78,1339.99 2012.02,1339.99 2012.26,1339.99 
  2012.51,1339.99 2012.75,1339.99 2012.99,1339.99 2013.23,1339.99 2013.47,1339.99 2013.71,1339.99 2013.94,1339.99 2014.18,1339.99 2014.42,1339.99 2014.66,1339.99 
  2014.9,1340 2015.14,1340 2015.38,1340 2015.61,1340 2015.85,1340.01 2016.09,1340.01 2016.32,1340.02 2016.56,1340.02 2016.8,1340.02 2017.03,1340.03 
  2017.27,1340.04 2017.51,1340.05 2017.74,1340.05 2017.98,1340.07 2018.21,1340.1 2018.45,1340.11 2018.68,1340.12 2018.92,1340.13 2019.15,1340.13 2019.39,1340.14 
  2019.62,1340.15 2019.85,1340.19 2020.09,1340.19 2020.32,1340.22 2020.55,1340.24 2020.78,1340.25 2021.02,1340.26 2021.25,1340.27 2021.48,1340.27 2021.71,1340.27 
  2021.95,1340.27 2022.18,1340.28 2022.41,1340.29 2022.64,1340.3 2022.87,1340.3 2023.1,1340.3 2023.33,1340.3 2023.56,1340.3 2023.79,1340.3 2024.02,1340.3 
  2024.25,1340.31 2024.48,1340.31 2024.71,1340.31 2024.94,1340.32 2025.17,1340.32 2025.39,1340.33 2025.62,1340.33 2025.85,1340.34 2026.08,1340.34 2026.31,1340.35 
  2026.53,1340.36 2026.76,1340.36 2026.99,1340.37 2027.21,1340.4 2027.44,1340.41 2027.67,1340.42 2027.89,1340.44 2028.12,1340.46 2028.34,1340.51 2028.57,1340.51 
  2028.79,1340.55 2029.02,1340.59 2029.24,1340.65 2029.47,1340.72 2029.69,1340.74 2029.92,1340.78 2030.14,1340.81 2030.37,1340.84 2030.59,1340.88 2030.81,1340.9 
  2031.04,1340.93 2031.26,1340.94 2031.48,1340.96 2031.7,1340.99 2031.93,1341.02 2032.15,1341.05 2032.37,1341.07 2032.59,1341.09 2032.81,1341.11 2033.04,1341.13 
  2033.26,1341.15 2033.48,1341.18 2033.7,1341.2 2033.92,1341.23 2034.14,1341.25 2034.36,1341.27 2034.58,1341.29 2034.8,1341.32 2035.02,1341.34 2035.24,1341.38 
  2035.46,1341.42 2035.68,1341.5 2035.9,1341.56 2036.11,1341.61 2036.33,1341.63 2036.55,1341.64 2036.77,1341.67 2036.99,1341.68 2037.2,1341.7 2037.42,1341.72 
  2037.64,1341.74 2037.86,1341.76 2038.07,1341.81 2038.29,1341.83 2038.51,1341.84 2038.72,1341.85 2038.94,1341.86 2039.15,1341.86 2039.37,1341.87 2039.59,1341.87 
  2039.8,1341.88 2040.02,1341.88 2040.23,1341.88 2040.45,1341.89 2040.66,1341.89 2040.88,1341.92 2041.09,1341.94 2041.3,1341.96 2041.52,1342.01 2041.73,1342.07 
  2041.95,1342.09 2042.16,1342.12 2042.37,1342.13 2042.58,1342.15 2042.8,1342.16 2043.01,1342.16 2043.22,1342.17 2043.43,1342.18 2043.65,1342.18 2043.86,1342.18 
  2044.07,1342.18 2044.28,1342.19 2044.49,1342.19 2044.7,1342.19 2044.92,1342.19 2045.13,1342.19 2045.34,1342.19 2045.55,1342.2 2045.76,1342.21 2045.97,1342.24 
  2046.18,1342.27 2046.39,1342.28 2046.6,1342.3 2046.81,1342.32 2047.01,1342.35 2047.22,1342.35 2047.43,1342.36 2047.64,1342.37 2047.85,1342.37 2048.06,1342.37 
  2048.27,1342.38 2048.47,1342.38 2048.68,1342.38 2048.89,1342.39 2049.1,1342.39 2049.3,1342.39 2049.51,1342.39 2049.72,1342.4 2049.92,1342.4 2050.13,1342.41 
  2050.34,1342.42 2050.54,1342.42 2050.75,1342.42 2050.95,1342.42 2051.16,1342.42 2051.37,1342.42 2051.57,1342.43 2051.78,1342.43 2051.98,1342.43 2052.19,1342.43 
  2052.39,1342.43 2052.6,1342.43 2052.8,1342.44 2053,1342.44 2053.21,1342.44 2053.41,1342.45 2053.61,1342.45 2053.82,1342.45 2054.02,1342.46 2054.22,1342.47 
  2054.43,1342.51 2054.63,1342.52 2054.83,1342.54 2055.04,1342.56 2055.24,1342.6 2055.44,1342.67 2055.64,1342.67 2055.84,1342.73 2056.05,1342.76 2056.25,1342.81 
  2056.45,1342.88 2056.65,1342.89 2056.85,1342.95 2057.05,1342.97 2057.25,1343 2057.45,1343.06 2057.65,1343.08 2057.85,1343.2 2058.05,1343.23 2058.25,1343.25 
  2058.45,1343.28 2058.65,1343.32 2058.85,1343.35 2059.05,1343.42 2059.25,1343.45 2059.45,1343.49 2059.65,1343.5 2059.84,1343.52 2060.04,1343.53 2060.24,1343.56 
  2060.44,1343.58 2060.64,1343.59 2060.83,1343.6 2061.03,1343.61 2061.23,1343.62 2061.43,1343.63 2061.62,1343.64 2061.82,1343.65 2062.02,1343.66 2062.21,1343.67 
  2062.41,1343.68 2062.61,1343.68 2062.8,1343.69 2063,1343.69 2063.19,1343.69 2063.39,1343.7 2063.59,1343.7 2063.78,1343.7 2063.98,1343.7 2064.17,1343.7 
  2064.37,1343.7 2064.56,1343.71 2064.76,1343.71 2064.95,1343.72 2065.14,1343.72 2065.34,1343.73 2065.53,1343.74 2065.73,1343.75 2065.92,1343.75 2066.11,1343.75 
  2066.31,1343.75 2066.5,1343.75 2066.69,1343.77 2066.89,1343.79 2067.08,1343.8 2067.27,1343.83 2067.46,1343.87 2067.66,1343.89 2067.85,1343.91 2068.04,1343.92 
  2068.23,1343.95 2068.42,1343.96 2068.61,1343.96 2068.81,1343.97 2069,1343.98 2069.19,1344 2069.38,1344 2069.57,1344.02 2069.76,1344.03 2069.95,1344.03 
  2070.14,1344.05 2070.33,1344.06 2070.52,1344.07 2070.71,1344.08 2070.9,1344.09 2071.09,1344.09 2071.28,1344.11 2071.47,1344.13 2071.66,1344.15 2071.85,1344.15 
  2072.04,1344.16 2072.23,1344.17 2072.41,1344.18 2072.6,1344.18 2072.79,1344.19 2072.98,1344.19 2073.17,1344.19 2073.36,1344.2 2073.54,1344.2 2073.73,1344.2 
  2073.92,1344.21 2074.11,1344.22 2074.29,1344.22 2074.48,1344.23 2074.67,1344.23 2074.85,1344.24 2075.04,1344.25 2075.23,1344.27 2075.41,1344.28 2075.6,1344.3 
  2075.78,1344.32 2075.97,1344.35 2076.16,1344.37 2076.34,1344.38 2076.53,1344.39 2076.71,1344.4 2076.9,1344.4 2077.08,1344.4 2077.27,1344.4 2077.45,1344.41 
  2077.64,1344.41 2077.82,1344.42 2078.01,1344.44 2078.19,1344.44 2078.37,1344.46 2078.56,1344.48 2078.74,1344.49 2078.93,1344.52 2079.11,1344.53 2079.29,1344.55 
  2079.48,1344.57 2079.66,1344.58 2079.84,1344.59 2080.02,1344.59 2080.21,1344.6 2080.39,1344.61 2080.57,1344.61 2080.75,1344.61 2080.94,1344.62 2081.12,1344.62 
  2081.3,1344.62 2081.48,1344.63 2081.66,1344.63 2081.85,1344.63 2082.03,1344.63 2082.21,1344.63 2082.39,1344.64 2082.57,1344.66 2082.75,1344.67 2082.93,1344.68 
  2083.11,1344.68 2083.29,1344.69 2083.47,1344.69 2083.65,1344.7 2083.83,1344.71 2084.01,1344.72 2084.19,1344.73 2084.37,1344.77 2084.55,1344.81 2084.73,1344.83 
  2084.91,1344.89 2085.09,1344.96 2085.27,1344.98 2085.45,1345.01 2085.63,1345.04 2085.8,1345.05 2085.98,1345.05 2086.16,1345.06 2086.34,1345.06 2086.52,1345.06 
  2086.7,1345.06 2086.87,1345.06 2087.05,1345.07 2087.23,1345.08 2087.41,1345.08 2087.58,1345.09 2087.76,1345.1 2087.94,1345.12 2088.11,1345.13 2088.29,1345.14 
  2088.47,1345.16 2088.64,1345.19 2088.82,1345.21 2089,1345.22 2089.17,1345.23 2089.35,1345.25 2089.53,1345.27 2089.7,1345.3 2089.88,1345.31 2090.05,1345.32 
  2090.23,1345.35 2090.4,1345.36 2090.58,1345.37 2090.75,1345.38 2090.93,1345.39 2091.1,1345.39 2091.28,1345.4 2091.45,1345.41 2091.63,1345.42 2091.8,1345.43 
  2091.97,1345.43 2092.15,1345.44 2092.32,1345.44 2092.5,1345.44 2092.67,1345.44 2092.84,1345.45 2093.02,1345.45 2093.19,1345.48 2093.36,1345.48 2093.54,1345.51 
  2093.71,1345.52 2093.88,1345.52 2094.06,1345.53 2094.23,1345.55 2094.4,1345.59 2094.57,1345.61 2094.74,1345.63 2094.92,1345.63 2095.09,1345.64 2095.26,1345.67 
  2095.43,1345.68 2095.6,1345.7 2095.78,1345.72 2095.95,1345.76 2096.12,1345.77 2096.29,1345.77 2096.46,1345.78 2096.63,1345.8 2096.8,1345.82 2096.97,1345.84 
  2097.14,1345.86 2097.31,1345.87 2097.48,1345.87 2097.65,1345.88 2097.82,1345.89 2097.99,1345.9 2098.16,1345.91 2098.33,1345.92 2098.5,1345.93 2098.67,1345.93 
  2098.84,1345.93 2099.01,1345.94 2099.18,1345.95 2099.35,1345.96 2099.52,1345.96 2099.69,1345.97 2099.86,1345.98 2100.02,1345.98 2100.19,1346 2100.36,1346.01 
  2100.53,1346.02 2100.7,1346.04 2100.86,1346.05 2101.03,1346.07 2101.2,1346.07 2101.37,1346.08 2101.54,1346.09 2101.7,1346.1 2101.87,1346.1 2102.04,1346.1 
  2102.2,1346.11 2102.37,1346.11 2102.54,1346.12 2102.7,1346.13 2102.87,1346.13 2103.04,1346.14 2103.2,1346.16 2103.37,1346.16 2103.54,1346.17 2103.7,1346.17 
  2103.87,1346.17 2104.03,1346.17 2104.2,1346.18 2104.37,1346.2 2104.53,1346.2 2104.7,1346.21 2104.86,1346.22 2105.03,1346.23 2105.19,1346.24 2105.36,1346.25 
  2105.52,1346.26 2105.69,1346.28 2105.85,1346.29 2106.02,1346.3 2106.18,1346.31 2106.34,1346.32 2106.51,1346.33 2106.67,1346.35 2106.84,1346.37 2107,1346.37 
  2107.16,1346.39 2107.33,1346.41 2107.49,1346.44 2107.65,1346.47 2107.82,1346.48 2107.98,1346.51 2108.14,1346.52 2108.31,1346.54 2108.47,1346.56 2108.63,1346.57 
  2108.79,1346.58 2108.96,1346.59 2109.12,1346.6 2109.28,1346.6 2109.44,1346.61 2109.61,1346.62 2109.77,1346.62 2109.93,1346.62 2110.09,1346.62 2110.25,1346.62 
  2110.42,1346.63 2110.58,1346.63 2110.74,1346.63 2110.9,1346.63 2111.06,1346.63 2111.22,1346.63 2111.38,1346.63 2111.54,1346.64 2111.7,1346.64 2111.86,1346.65 
  2112.02,1346.65 2112.19,1346.66 2112.35,1346.67 2112.51,1346.68 2112.67,1346.69 2112.83,1346.7 2112.99,1346.71 2113.15,1346.72 2113.31,1346.78 2113.46,1346.81 
  2113.62,1346.82 2113.78,1346.94 2113.94,1346.95 2114.1,1346.99 2114.26,1347.03 2114.42,1347.04 2114.58,1347.05 2114.74,1347.05 2114.9,1347.05 2115.05,1347.06 
  2115.21,1347.06 2115.37,1347.06 2115.53,1347.07 2115.69,1347.08 2115.85,1347.09 2116,1347.1 2116.16,1347.1 2116.32,1347.11 2116.48,1347.11 2116.63,1347.11 
  2116.79,1347.11 2116.95,1347.11 2117.11,1347.12 2117.26,1347.12 2117.42,1347.13 2117.58,1347.14 2117.73,1347.14 2117.89,1347.15 2118.05,1347.17 2118.2,1347.17 
  2118.36,1347.18 2118.52,1347.2 2118.67,1347.25 2118.83,1347.26 2118.99,1347.28 2119.14,1347.29 2119.3,1347.3 2119.45,1347.3 2119.61,1347.32 2119.76,1347.35 
  2119.92,1347.36 2120.07,1347.37 2120.23,1347.37 2120.38,1347.37 2120.54,1347.38 2120.69,1347.38 2120.85,1347.38 2121,1347.39 2121.16,1347.39 2121.31,1347.39 
  2121.47,1347.39 2121.62,1347.39 2121.78,1347.39 2121.93,1347.39 2122.08,1347.41 2122.24,1347.43 2122.39,1347.44 2122.55,1347.48 2122.7,1347.51 2122.85,1347.6 
  2123.01,1347.63 2123.16,1347.68 2123.31,1347.75 2123.47,1347.8 2123.62,1347.92 2123.77,1347.97 2123.93,1348.03 2124.08,1348.06 2124.23,1348.1 2124.38,1348.14 
  2124.54,1348.18 2124.69,1348.21 2124.84,1348.26 2124.99,1348.32 2125.15,1348.35 2125.3,1348.39 2125.45,1348.41 2125.6,1348.46 2125.75,1348.48 2125.91,1348.49 
  2126.06,1348.51 2126.21,1348.53 2126.36,1348.56 2126.51,1348.58 2126.66,1348.6 2126.81,1348.62 2126.96,1348.64 2127.12,1348.66 2127.27,1348.7 2127.42,1348.72 
  2127.57,1348.73 2127.72,1348.75 2127.87,1348.76 2128.02,1348.77 2128.17,1348.79 2128.32,1348.82 2128.47,1348.84 2128.62,1348.86 2128.77,1348.88 2128.92,1348.89 
  2129.07,1348.91 2129.22,1348.92 2129.37,1348.93 2129.52,1348.94 2129.67,1348.95 2129.82,1348.95 2129.97,1348.96 2130.11,1348.96 2130.26,1348.96 2130.41,1348.96 
  2130.56,1348.96 2130.71,1348.97 2130.86,1348.97 2131.01,1348.97 2131.16,1348.97 2131.3,1348.97 2131.45,1348.98 2131.6,1348.99 2131.75,1349.04 2131.9,1349.05 
  2132.04,1349.1 2132.19,1349.11 2132.34,1349.13 2132.49,1349.13 2132.64,1349.14 2132.78,1349.15 2132.93,1349.16 2133.08,1349.17 2133.22,1349.2 2133.37,1349.21 
  2133.52,1349.24 2133.67,1349.24 2133.81,1349.25 2133.96,1349.26 2134.11,1349.26 2134.25,1349.26 2134.4,1349.27 2134.55,1349.27 2134.69,1349.27 2134.84,1349.27 
  2134.98,1349.27 2135.13,1349.28 2135.28,1349.28 2135.42,1349.29 2135.57,1349.29 2135.71,1349.29 2135.86,1349.29 2136.01,1349.29 2136.15,1349.29 2136.3,1349.3 
  2136.44,1349.31 2136.59,1349.32 2136.73,1349.33 2136.88,1349.35 2137.02,1349.38 2137.17,1349.42 2137.31,1349.43 2137.46,1349.46 2137.6,1349.56 2137.75,1349.6 
  2137.89,1349.63 2138.03,1349.64 2138.18,1349.69 2138.32,1349.7 2138.47,1349.72 2138.61,1349.73 2138.75,1349.74 2138.9,1349.75 2139.04,1349.75 2139.19,1349.75 
  2139.33,1349.75 2139.47,1349.76 2139.62,1349.76 2139.76,1349.76 2139.9,1349.76 2140.05,1349.76 2140.19,1349.76 2140.33,1349.76 2140.48,1349.76 2140.62,1349.76 
  2140.76,1349.76 2140.9,1349.76 2141.05,1349.77 2141.19,1349.78 2141.33,1349.78 2141.47,1349.78 2141.62,1349.78 2141.76,1349.78 2141.9,1349.78 2142.04,1349.78 
  2142.18,1349.78 2142.33,1349.78 2142.47,1349.79 2142.61,1349.8 2142.75,1349.89 2142.89,1349.97 2143.03,1350.08 2143.18,1350.32 2143.32,1350.38 2143.46,1350.56 
  2143.6,1350.64 2143.74,1350.76 2143.88,1350.83 2144.02,1350.98 2144.16,1351 2144.3,1351.06 2144.44,1351.09 2144.59,1351.15 2144.73,1351.18 2144.87,1351.2 
  2145.01,1351.28 2145.15,1351.31 2145.29,1351.35 2145.43,1351.36 2145.57,1351.38 2145.71,1351.39 2145.85,1351.4 2145.99,1351.42 2146.13,1351.43 2146.27,1351.43 
  2146.41,1351.43 2146.54,1351.44 2146.68,1351.44 2146.82,1351.45 2146.96,1351.46 2147.1,1351.46 2147.24,1351.47 2147.38,1351.48 2147.52,1351.49 2147.66,1351.49 
  2147.8,1351.51 2147.94,1351.51 2148.07,1351.53 2148.21,1351.54 2148.35,1351.57 2148.49,1351.58 2148.63,1351.62 2148.77,1351.63 2148.9,1351.64 2149.04,1351.65 
  2149.18,1351.66 2149.32,1351.67 2149.46,1351.67 2149.59,1351.67 2149.73,1351.68 2149.87,1351.68 2150.01,1351.68 2150.14,1351.68 2150.28,1351.68 2150.42,1351.68 
  2150.55,1351.68 2150.69,1351.68 2150.83,1351.68 2150.97,1351.69 2151.1,1351.69 2151.24,1351.69 2151.38,1351.69 2151.51,1351.7 2151.65,1351.7 2151.79,1351.7 
  2151.92,1351.71 2152.06,1351.71 2152.2,1351.72 2152.33,1351.72 2152.47,1351.72 2152.6,1351.73 2152.74,1351.73 2152.88,1351.73 2153.01,1351.74 2153.15,1351.74 
  2153.28,1351.74 2153.42,1351.75 2153.55,1351.75 2153.69,1351.75 2153.82,1351.75 2153.96,1351.75 2154.1,1351.75 2154.23,1351.75 2154.37,1351.77 2154.5,1351.77 
  2154.64,1351.78 2154.77,1351.8 2154.91,1351.84 2155.04,1351.86 2155.17,1351.88 2155.31,1351.89 2155.44,1351.9 2155.58,1351.92 2155.71,1351.94 2155.85,1351.95 
  2155.98,1351.98 2156.11,1352.02 2156.25,1352.05 2156.38,1352.1 2156.52,1352.11 2156.65,1352.13 2156.78,1352.16 2156.92,1352.19 2157.05,1352.21 2157.19,1352.24 
  2157.32,1352.28 2157.45,1352.3 2157.59,1352.32 2157.72,1352.36 2157.85,1352.43 2157.98,1352.46 2158.12,1352.5 2158.25,1352.54 2158.38,1352.57 2158.52,1352.59 
  2158.65,1352.61 2158.78,1352.65 2158.91,1352.69 2159.05,1352.76 2159.18,1352.77 2159.31,1352.8 2159.44,1352.81 2159.58,1352.83 2159.71,1352.84 2159.84,1352.85 
  2159.97,1352.86 2160.1,1352.86 2160.24,1352.87 2160.37,1352.88 2160.5,1352.89 2160.63,1352.91 2160.76,1352.93 2160.9,1352.94 2161.03,1352.95 2161.16,1352.95 
  2161.29,1352.96 2161.42,1352.97 2161.55,1352.99 2161.68,1353.01 2161.81,1353.02 2161.94,1353.03 2162.08,1353.05 2162.21,1353.06 2162.34,1353.08 2162.47,1353.1 
  2162.6,1353.14 2162.73,1353.19 2162.86,1353.23 2162.99,1353.35 2163.12,1353.39 2163.25,1353.41 2163.38,1353.42 2163.51,1353.43 2163.64,1353.43 2163.77,1353.44 
  2163.9,1353.46 2164.03,1353.48 2164.16,1353.5 2164.29,1353.51 2164.42,1353.53 2164.55,1353.53 2164.68,1353.54 2164.81,1353.55 2164.94,1353.55 2165.07,1353.56 
  2165.2,1353.56 2165.33,1353.56 2165.45,1353.57 2165.58,1353.57 2165.71,1353.57 2165.84,1353.57 2165.97,1353.57 2166.1,1353.57 2166.23,1353.58 2166.36,1353.58 
  2166.49,1353.59 2166.61,1353.61 2166.74,1353.63 2166.87,1353.65 2167,1353.68 2167.13,1353.72 2167.26,1353.73 2167.38,1353.77 2167.51,1353.77 2167.64,1353.79 
  2167.77,1353.8 2167.9,1353.8 2168.02,1353.81 2168.15,1353.81 2168.28,1353.81 2168.41,1353.81 2168.53,1353.81 2168.66,1353.81 2168.79,1353.81 2168.92,1353.81 
  2169.04,1353.81 2169.17,1353.81 2169.3,1353.81 2169.42,1353.82 2169.55,1353.84 2169.68,1353.87 2169.81,1353.89 2169.93,1353.91 2170.06,1353.96 2170.19,1353.97 
  2170.31,1354.03 2170.44,1354.03 2170.56,1354.04 2170.69,1354.05 2170.82,1354.05 2170.94,1354.06 2171.07,1354.06 2171.2,1354.07 2171.32,1354.07 2171.45,1354.07 
  2171.57,1354.07 2171.7,1354.08 2171.83,1354.09 2171.95,1354.1 2172.08,1354.11 2172.2,1354.12 2172.33,1354.14 2172.45,1354.14 2172.58,1354.14 2172.7,1354.14 
  2172.83,1354.15 2172.96,1354.15 2173.08,1354.16 2173.21,1354.17 2173.33,1354.17 2173.46,1354.18 2173.58,1354.19 2173.71,1354.19 2173.83,1354.19 2173.95,1354.19 
  2174.08,1354.2 2174.2,1354.2 2174.33,1354.2 2174.45,1354.2 2174.58,1354.21 2174.7,1354.21 2174.83,1354.21 2174.95,1354.21 2175.07,1354.21 2175.2,1354.22 
  2175.32,1354.22 2175.45,1354.22 2175.57,1354.23 2175.69,1354.25 2175.82,1354.26 2175.94,1354.26 2176.07,1354.27 2176.19,1354.27 2176.31,1354.27 2176.44,1354.27 
  2176.56,1354.28 2176.68,1354.28 2176.81,1354.29 2176.93,1354.29 2177.05,1354.29 2177.18,1354.3 2177.3,1354.3 2177.42,1354.31 2177.54,1354.32 2177.67,1354.34 
  2177.79,1354.36 2177.91,1354.37 2178.04,1354.38 2178.16,1354.4 2178.28,1354.41 2178.4,1354.42 2178.53,1354.44 2178.65,1354.46 2178.77,1354.5 2178.89,1354.52 
  2179.01,1354.55 2179.14,1354.56 2179.26,1354.58 2179.38,1354.59 2179.5,1354.61 2179.62,1354.63 2179.75,1354.66 2179.87,1354.7 2179.99,1354.73 2180.11,1354.75 
  2180.23,1354.77 2180.35,1354.81 2180.48,1354.85 2180.6,1354.87 2180.72,1354.91 2180.84,1354.96 2180.96,1355 2181.08,1355.06 2181.2,1355.13 2181.32,1355.16 
  2181.45,1355.22 2181.57,1355.25 2181.69,1355.28 2181.81,1355.3 2181.93,1355.36 2182.05,1355.39 2182.17,1355.46 2182.29,1355.5 2182.41,1355.57 2182.53,1355.61 
  2182.65,1355.73 2182.77,1355.8 2182.89,1355.86 2183.01,1355.9 2183.13,1355.92 2183.25,1355.95 2183.37,1355.98 2183.49,1356.02 2183.61,1356.06 2183.73,1356.13 
  2183.85,1356.2 2183.97,1356.26 2184.09,1356.32 2184.21,1356.41 2184.33,1356.48 2184.45,1356.56 2184.57,1356.61 2184.69,1356.69 2184.81,1356.77 2184.93,1356.8 
  2185.05,1356.84 2185.17,1356.91 2185.29,1356.95 2185.4,1357 2185.52,1357.04 2185.64,1357.07 2185.76,1357.09 2185.88,1357.13 2186,1357.16 2186.12,1357.19 
  2186.24,1357.21 2186.36,1357.22 2186.47,1357.23 2186.59,1357.24 2186.71,1357.26 2186.83,1357.27 2186.95,1357.28 2187.07,1357.29 2187.18,1357.3 2187.3,1357.31 
  2187.42,1357.32 2187.54,1357.33 2187.66,1357.33 2187.77,1357.33 2187.89,1357.34 2188.01,1357.34 2188.13,1357.34 2188.24,1357.35 2188.36,1357.35 2188.48,1357.36 
  2188.6,1357.36 2188.71,1357.36 2188.83,1357.37 2188.95,1357.37 2189.07,1357.39 2189.18,1357.41 2189.3,1357.42 2189.42,1357.43 2189.54,1357.44 2189.65,1357.44 
  2189.77,1357.44 2189.89,1357.46 2190,1357.47 2190.12,1357.47 2190.24,1357.48 2190.35,1357.49 2190.47,1357.49 2190.59,1357.5 2190.7,1357.5 2190.82,1357.51 
  2190.94,1357.51 2191.05,1357.51 2191.17,1357.51 2191.28,1357.52 2191.4,1357.52 2191.52,1357.52 2191.63,1357.52 2191.75,1357.52 2191.86,1357.52 2191.98,1357.52 
  2192.1,1357.52 2192.21,1357.52 2192.33,1357.53 2192.44,1357.53 2192.56,1357.54 2192.67,1357.55 2192.79,1357.55 2192.91,1357.56 2193.02,1357.56 2193.14,1357.56 
  2193.25,1357.56 2193.37,1357.56 2193.48,1357.57 2193.6,1357.57 2193.71,1357.57 2193.83,1357.57 2193.94,1357.57 2194.06,1357.57 2194.17,1357.58 2194.29,1357.58 
  2194.4,1357.58 2194.52,1357.58 2194.63,1357.58 2194.75,1357.58 2194.86,1357.58 2194.97,1357.58 2195.09,1357.58 2195.2,1357.58 2195.32,1357.59 2195.43,1357.59 
  2195.55,1357.59 2195.66,1357.6 2195.77,1357.6 2195.89,1357.6 2196,1357.6 2196.12,1357.61 2196.23,1357.61 2196.34,1357.62 2196.46,1357.62 2196.57,1357.63 
  2196.69,1357.63 2196.8,1357.63 2196.91,1357.64 2197.03,1357.64 2197.14,1357.65 2197.25,1357.65 2197.37,1357.65 2197.48,1357.66 2197.59,1357.66 2197.71,1357.66 
  2197.82,1357.67 2197.93,1357.67 2198.05,1357.67 2198.16,1357.67 2198.27,1357.68 2198.39,1357.68 2198.5,1357.68 2198.61,1357.68 2198.72,1357.68 2198.84,1357.68 
  2198.95,1357.68 2199.06,1357.69 2199.17,1357.69 2199.29,1357.69 2199.4,1357.69 2199.51,1357.69 2199.62,1357.7 2199.74,1357.7 2199.85,1357.72 2199.96,1357.72 
  2200.07,1357.76 2200.18,1357.77 2200.3,1357.81 2200.41,1357.82 2200.52,1357.84 2200.63,1357.86 2200.74,1357.89 2200.86,1357.92 2200.97,1357.93 2201.08,1357.94 
  2201.19,1357.96 2201.3,1357.97 2201.41,1357.98 2201.53,1357.98 2201.64,1357.98 2201.75,1357.98 2201.86,1357.98 2201.97,1357.99 2202.08,1357.99 2202.19,1357.99 
  2202.3,1357.99 2202.42,1357.99 2202.53,1358 2202.64,1358 2202.75,1358 2202.86,1358 2202.97,1358.01 2203.08,1358.02 2203.19,1358.02 2203.3,1358.02 
  2203.41,1358.03 2203.52,1358.03 2203.63,1358.04 2203.74,1358.04 2203.86,1358.04 2203.97,1358.04 2204.08,1358.04 2204.19,1358.04 2204.3,1358.04 2204.41,1358.05 
  2204.52,1358.05 2204.63,1358.05 2204.74,1358.05 2204.85,1358.05 2204.96,1358.05 2205.07,1358.05 2205.18,1358.05 2205.29,1358.05 2205.4,1358.05 2205.51,1358.05 
  2205.62,1358.05 2205.73,1358.05 2205.83,1358.05 2205.94,1358.06 2206.05,1358.06 2206.16,1358.06 2206.27,1358.06 2206.38,1358.06 2206.49,1358.06 2206.6,1358.06 
  2206.71,1358.06 2206.82,1358.07 2206.93,1358.07 2207.04,1358.08 2207.15,1358.1 2207.25,1358.1 2207.36,1358.12 2207.47,1358.13 2207.58,1358.16 2207.69,1358.18 
  2207.8,1358.19 2207.91,1358.21 2208.02,1358.23 2208.12,1358.25 2208.23,1358.29 2208.34,1358.3 2208.45,1358.31 2208.56,1358.36 2208.67,1358.4 2208.77,1358.41 
  2208.88,1358.42 2208.99,1358.46 2209.1,1358.49 2209.21,1358.5 2209.31,1358.51 2209.42,1358.52 2209.53,1358.54 2209.64,1358.56 2209.75,1358.57 2209.85,1358.58 
  2209.96,1358.59 2210.07,1358.6 2210.18,1358.6 2210.28,1358.61 2210.39,1358.61 2210.5,1358.63 2210.61,1358.65 2210.71,1358.65 2210.82,1358.65 2210.93,1358.66 
  2211.04,1358.66 2211.14,1358.66 2211.25,1358.66 2211.36,1358.67 2211.46,1358.67 2211.57,1358.67 2211.68,1358.67 2211.79,1358.68 2211.89,1358.69 2212,1358.71 
  2212.11,1358.73 2212.21,1358.73 2212.32,1358.74 2212.43,1358.76 2212.53,1358.76 2212.64,1358.77 2212.75,1358.78 2212.85,1358.78 2212.96,1358.79 2213.06,1358.8 
  2213.17,1358.81 2213.28,1358.81 2213.38,1358.82 2213.49,1358.82 2213.6,1358.82 2213.7,1358.83 2213.81,1358.83 2213.91,1358.83 2214.02,1358.83 2214.13,1358.83 
  2214.23,1358.84 2214.34,1358.84 2214.44,1358.84 2214.55,1358.84 2214.65,1358.84 2214.76,1358.84 2214.87,1358.84 2214.97,1358.84 2215.08,1358.84 2215.18,1358.85 
  2215.29,1358.85 2215.39,1358.85 2215.5,1358.85 2215.6,1358.86 2215.71,1358.86 2215.81,1358.86 2215.92,1358.87 2216.02,1358.87 2216.13,1358.87 2216.23,1358.87 
  2216.34,1358.87 2216.44,1358.87 2216.55,1358.87 2216.65,1358.87 2216.76,1358.88 2216.86,1358.88 2216.97,1358.88 2217.07,1358.88 2217.18,1358.88 2217.28,1358.88 
  2217.39,1358.88 2217.49,1358.89 2217.6,1358.89 2217.7,1358.9 2217.8,1358.9 2217.91,1358.91 2218.01,1358.93 2218.12,1358.93 2218.22,1358.94 2218.32,1358.95 
  2218.43,1358.95 2218.53,1358.96 2218.64,1358.97 2218.74,1358.98 2218.84,1358.99 2218.95,1359 2219.05,1359.01 2219.16,1359.02 2219.26,1359.02 2219.36,1359.03 
  2219.47,1359.03 2219.57,1359.04 2219.67,1359.04 2219.78,1359.04 2219.88,1359.05 2219.98,1359.05 2220.09,1359.05 2220.19,1359.05 2220.29,1359.05 2220.4,1359.05 
  2220.5,1359.05 2220.6,1359.05 2220.71,1359.05 2220.81,1359.05 2220.91,1359.05 2221.02,1359.05 2221.12,1359.06 2221.22,1359.06 2221.33,1359.08 2221.43,1359.09 
  2221.53,1359.1 2221.63,1359.11 2221.74,1359.12 2221.84,1359.14 2221.94,1359.15 2222.04,1359.15 2222.15,1359.16 2222.25,1359.16 2222.35,1359.16 2222.45,1359.17 
  2222.56,1359.17 2222.66,1359.17 2222.76,1359.18 2222.86,1359.18 2222.96,1359.19 2223.07,1359.19 2223.17,1359.19 2223.27,1359.19 2223.37,1359.19 2223.47,1359.19 
  2223.58,1359.2 2223.68,1359.2 2223.78,1359.2 2223.88,1359.21 2223.98,1359.21 2224.09,1359.21 2224.19,1359.21 2224.29,1359.21 2224.39,1359.21 2224.49,1359.21 
  2224.59,1359.22 2224.69,1359.22 2224.8,1359.22 2224.9,1359.23 2225,1359.23 2225.1,1359.23 2225.2,1359.24 2225.3,1359.24 2225.4,1359.24 2225.5,1359.25 
  2225.61,1359.25 2225.71,1359.26 2225.81,1359.26 2225.91,1359.26 2226.01,1359.27 2226.11,1359.27 2226.21,1359.27 2226.31,1359.27 2226.41,1359.27 2226.51,1359.28 
  2226.61,1359.28 2226.72,1359.28 2226.82,1359.28 2226.92,1359.28 2227.02,1359.28 2227.12,1359.28 2227.22,1359.28 2227.32,1359.28 2227.42,1359.28 2227.52,1359.28 
  2227.62,1359.29 2227.72,1359.29 2227.82,1359.3 2227.92,1359.3 2228.02,1359.3 2228.12,1359.31 2228.22,1359.31 2228.32,1359.33 2228.42,1359.34 2228.52,1359.35 
  2228.62,1359.35 2228.72,1359.35 2228.82,1359.35 2228.92,1359.35 2229.02,1359.36 2229.12,1359.36 2229.22,1359.36 2229.32,1359.37 2229.42,1359.37 2229.52,1359.37 
  2229.62,1359.37 2229.71,1359.38 2229.81,1359.38 2229.91,1359.38 2230.01,1359.38 2230.11,1359.38 2230.21,1359.38 2230.31,1359.38 2230.41,1359.39 2230.51,1359.39 
  2230.61,1359.39 2230.71,1359.39 2230.81,1359.39 2230.9,1359.4 2231,1359.4 2231.1,1359.41 2231.2,1359.41 2231.3,1359.43 2231.4,1359.46 2231.5,1359.46 
  2231.6,1359.48 2231.69,1359.49 2231.79,1359.51 2231.89,1359.55 2231.99,1359.56 2232.09,1359.6 2232.19,1359.61 2232.28,1359.64 2232.38,1359.67 2232.48,1359.69 
  2232.58,1359.71 2232.68,1359.72 2232.78,1359.75 2232.87,1359.77 2232.97,1359.78 2233.07,1359.8 2233.17,1359.8 2233.27,1359.81 2233.36,1359.82 2233.46,1359.83 
  2233.56,1359.83 2233.66,1359.84 2233.76,1359.85 2233.85,1359.86 2233.95,1359.87 2234.05,1359.87 2234.15,1359.88 2234.24,1359.88 2234.34,1359.89 2234.44,1359.89 
  2234.54,1359.89 2234.63,1359.9 2234.73,1359.9 2234.83,1359.9 2234.93,1359.9 2235.02,1359.91 2235.12,1359.91 2235.22,1359.91 2235.31,1359.91 2235.41,1359.92 
  2235.51,1359.92 2235.61,1359.93 2235.7,1359.93 2235.8,1359.93 2235.9,1359.94 2235.99,1359.94 2236.09,1359.95 2236.19,1359.95 2236.28,1359.96 2236.38,1359.97 
  2236.48,1359.98 2236.57,1360 2236.67,1360.01 2236.77,1360.04 2236.86,1360.05 2236.96,1360.07 2237.06,1360.08 2237.15,1360.11 2237.25,1360.15 2237.35,1360.18 
  2237.44,1360.19 2237.54,1360.21 2237.63,1360.24 2237.73,1360.27 2237.83,1360.31 2237.92,1360.32 2238.02,1360.36 2238.11,1360.38 2238.21,1360.41 2238.31,1360.44 
  2238.4,1360.47 2238.5,1360.49 2238.59,1360.51 2238.69,1360.53 2238.79,1360.55 2238.88,1360.56 2238.98,1360.57 2239.07,1360.58 2239.17,1360.58 2239.26,1360.58 
  2239.36,1360.59 2239.46,1360.59 2239.55,1360.59 2239.65,1360.59 2239.74,1360.59 2239.84,1360.59 2239.93,1360.6 2240.03,1360.6 2240.12,1360.6 2240.22,1360.6 
  2240.31,1360.6 2240.41,1360.6 2240.5,1360.61 2240.6,1360.61 2240.69,1360.61 2240.79,1360.62 2240.88,1360.62 2240.98,1360.63 2241.07,1360.64 2241.17,1360.65 
  2241.26,1360.67 2241.36,1360.69 2241.45,1360.69 2241.55,1360.7 2241.64,1360.71 2241.74,1360.71 2241.83,1360.72 2241.93,1360.73 2242.02,1360.74 2242.12,1360.75 
  2242.21,1360.77 2242.3,1360.77 2242.4,1360.78 2242.49,1360.79 2242.59,1360.8 2242.68,1360.8 2242.78,1360.81 2242.87,1360.83 2242.96,1360.83 2243.06,1360.84 
  2243.15,1360.84 2243.25,1360.85 2243.34,1360.86 2243.43,1360.87 2243.53,1360.87 2243.62,1360.88 2243.72,1360.89 2243.81,1360.89 2243.9,1360.89 2244,1360.89 
  2244.09,1360.9 2244.19,1360.91 2244.28,1360.91 2244.37,1360.91 2244.47,1360.92 2244.56,1360.92 2244.65,1360.92 2244.75,1360.92 2244.84,1360.92 2244.93,1360.93 
  2245.03,1360.93 2245.12,1360.94 2245.21,1360.95 2245.31,1360.96 2245.4,1361 2245.49,1361.01 2245.59,1361.03 2245.68,1361.04 2245.77,1361.08 2245.87,1361.09 
  2245.96,1361.1 2246.05,1361.1 2246.14,1361.11 2246.24,1361.11 2246.33,1361.11 2246.42,1361.11 2246.52,1361.11 2246.61,1361.12 2246.7,1361.13 2246.79,1361.14 
  2246.89,1361.15 2246.98,1361.16 2247.07,1361.17 2247.17,1361.18 2247.26,1361.19 2247.35,1361.2 2247.44,1361.21 2247.53,1361.22 2247.63,1361.22 2247.72,1361.22 
  2247.81,1361.25 2247.9,1361.32 2248,1361.36 2248.09,1361.38 2248.18,1361.41 2248.27,1361.51 2248.37,1361.56 2248.46,1361.59 2248.55,1361.66 2248.64,1361.78 
  2248.73,1361.79 2248.83,1361.81 2248.92,1361.85 2249.01,1361.87 2249.1,1361.92 2249.19,1361.99 2249.28,1362.01 2249.38,1362.07 2249.47,1362.18 2249.56,1362.3 
  2249.65,1362.37 2249.74,1362.42 2249.83,1362.45 2249.93,1362.53 2250.02,1362.59 2250.11,1362.63 2250.2,1362.66 2250.29,1362.71 2250.38,1362.74 2250.47,1362.81 
  2250.57,1362.82 2250.66,1362.85 2250.75,1362.88 2250.84,1362.91 2250.93,1362.92 2251.02,1362.93 2251.11,1362.94 2251.2,1362.94 2251.3,1362.94 2251.39,1362.95 
  2251.48,1362.95 2251.57,1362.95 2251.66,1362.96 2251.75,1362.97 2251.84,1362.97 2251.93,1362.97 2252.02,1362.98 2252.11,1362.98 2252.2,1362.99 2252.29,1363 
  2252.38,1363.02 2252.48,1363.04 2252.57,1363.05 2252.66,1363.06 2252.75,1363.06 2252.84,1363.08 2252.93,1363.08 2253.02,1363.09 2253.11,1363.1 2253.2,1363.1 
  2253.29,1363.11 2253.38,1363.11 2253.47,1363.12 2253.56,1363.12 2253.65,1363.13 2253.74,1363.13 2253.83,1363.14 2253.92,1363.14 2254.01,1363.16 2254.1,1363.16 
  2254.19,1363.18 2254.28,1363.19 2254.37,1363.22 2254.46,1363.26 2254.55,1363.27 2254.64,1363.29 2254.73,1363.3 2254.82,1363.31 2254.91,1363.31 2255,1363.31 
  2255.09,1363.31 2255.18,1363.31 2255.27,1363.31 2255.36,1363.31 2255.45,1363.32 2255.54,1363.33 2255.63,1363.34 2255.71,1363.37 2255.8,1363.41 2255.89,1363.43 
  2255.98,1363.46 2256.07,1363.49 2256.16,1363.5 2256.25,1363.5 2256.34,1363.51 2256.43,1363.52 2256.52,1363.53 2256.61,1363.53 2256.7,1363.54 2256.79,1363.56 
  2256.87,1363.57 2256.96,1363.58 2257.05,1363.6 2257.14,1363.62 2257.23,1363.63 2257.32,1363.64 2257.41,1363.64 2257.5,1363.64 2257.58,1363.65 2257.67,1363.65 
  2257.76,1363.65 2257.85,1363.66 2257.94,1363.67 2258.03,1363.67 2258.12,1363.69 2258.21,1363.72 2258.29,1363.78 2258.38,1363.82 2258.47,1363.86 2258.56,1363.95 
  2258.65,1364 2258.74,1364.03 2258.82,1364.09 2258.91,1364.19 2259,1364.28 2259.09,1364.3 2259.18,1364.39 2259.26,1364.45 2259.35,1364.46 2259.44,1364.5 
  2259.53,1364.51 2259.62,1364.51 2259.7,1364.51 2259.79,1364.52 2259.88,1364.52 2259.97,1364.53 2260.06,1364.53 2260.14,1364.54 2260.23,1364.54 2260.32,1364.54 
  2260.41,1364.54 2260.5,1364.55 2260.58,1364.56 2260.67,1364.58 2260.76,1364.59 2260.85,1364.61 2260.93,1364.65 2261.02,1364.66 2261.11,1364.68 2261.2,1364.71 
  2261.28,1364.71 2261.37,1364.71 2261.46,1364.72 2261.54,1364.73 2261.63,1364.76 2261.72,1364.79 2261.81,1364.79 2261.89,1364.8 2261.98,1364.8 2262.07,1364.81 
  2262.16,1364.81 2262.24,1364.81 2262.33,1364.81 2262.42,1364.81 2262.5,1364.81 2262.59,1364.82 2262.68,1364.83 2262.76,1364.84 2262.85,1364.84 2262.94,1364.85 
  2263.02,1364.85 2263.11,1364.85 2263.2,1364.85 2263.28,1364.85 2263.37,1364.85 2263.46,1364.85 2263.54,1364.85 2263.63,1364.85 2263.72,1364.85 2263.8,1364.87 
  2263.89,1364.87 2263.98,1364.88 2264.06,1364.88 2264.15,1364.88 2264.24,1364.88 2264.32,1364.88 2264.41,1364.88 2264.49,1364.88 2264.58,1364.88 2264.67,1364.88 
  2264.75,1364.88 2264.84,1364.88 2264.93,1364.88 2265.01,1364.88 2265.1,1364.88 2265.18,1364.92 2265.27,1364.93 2265.36,1364.94 2265.44,1364.98 2265.53,1365.04 
  2265.61,1365.07 2265.7,1365.13 2265.79,1365.18 2265.87,1365.23 2265.96,1365.31 2266.04,1365.37 2266.13,1365.41 2266.21,1365.47 2266.3,1365.54 2266.39,1365.56 
  2266.47,1365.59 2266.56,1365.61 2266.64,1365.64 2266.73,1365.66 2266.81,1365.69 2266.9,1365.7 2266.98,1365.71 2267.07,1365.72 2267.15,1365.72 2267.24,1365.73 
  2267.32,1365.75 2267.41,1365.75 2267.5,1365.76 2267.58,1365.77 2267.67,1365.78 2267.75,1365.78 2267.84,1365.79 2267.92,1365.79 2268.01,1365.79 2268.09,1365.79 
  2268.18,1365.8 2268.26,1365.8 2268.35,1365.8 2268.43,1365.81 2268.52,1365.81 2268.6,1365.82 2268.69,1365.82 2268.77,1365.82 2268.85,1365.82 2268.94,1365.83 
  2269.02,1365.83 2269.11,1365.83 2269.19,1365.83 2269.28,1365.83 2269.36,1365.84 2269.45,1365.84 2269.53,1365.84 2269.62,1365.85 2269.7,1365.85 2269.79,1365.86 
  2269.87,1365.92 2269.95,1365.99 2270.04,1366.03 2270.12,1366.12 2270.21,1366.41 2270.29,1366.61 2270.38,1366.65 2270.46,1366.71 2270.54,1366.9 2270.63,1366.97 
  2270.71,1367.11 2270.8,1367.21 2270.88,1367.3 2270.96,1367.34 2271.05,1367.39 2271.13,1367.43 2271.22,1367.5 2271.3,1367.56 2271.38,1367.58 2271.47,1367.61 
  2271.55,1367.64 2271.64,1367.66 2271.72,1367.7 2271.8,1367.71 2271.89,1367.75 2271.97,1367.78 2272.05,1367.8 2272.14,1367.83 2272.22,1367.85 2272.3,1367.9 
  2272.39,1367.92 2272.47,1367.98 2272.56,1368.04 2272.64,1368.08 2272.72,1368.13 2272.81,1368.15 2272.89,1368.16 2272.97,1368.17 2273.06,1368.18 2273.14,1368.18 
  2273.22,1368.19 2273.31,1368.2 2273.39,1368.21 2273.47,1368.22 2273.55,1368.24 2273.64,1368.25 2273.72,1368.29 2273.8,1368.31 2273.89,1368.31 2273.97,1368.33 
  2274.05,1368.33 2274.14,1368.33 2274.22,1368.33 2274.3,1368.34 2274.38,1368.34 2274.47,1368.35 2274.55,1368.35 2274.63,1368.35 2274.72,1368.36 2274.8,1368.36 
  2274.88,1368.36 2274.96,1368.36 2275.05,1368.36 2275.13,1368.36 2275.21,1368.36 2275.29,1368.36 2275.38,1368.37 2275.46,1368.37 2275.54,1368.37 2275.62,1368.37 
  2275.71,1368.37 2275.79,1368.37 2275.87,1368.38 2275.95,1368.38 2276.04,1368.38 2276.12,1368.38 2276.2,1368.38 2276.28,1368.39 2276.36,1368.43 2276.45,1368.53 
  2276.53,1368.54 2276.61,1368.58 2276.69,1368.6 2276.78,1368.62 2276.86,1368.63 2276.94,1368.63 2277.02,1368.64 2277.1,1368.64 2277.19,1368.65 2277.27,1368.65 
  2277.35,1368.66 2277.43,1368.66 2277.51,1368.67 2277.59,1368.67 2277.68,1368.67 2277.76,1368.68 2277.84,1368.68 2277.92,1368.68 2278,1368.68 2278.08,1368.69 
  2278.17,1368.69 2278.25,1368.69 2278.33,1368.69 2278.41,1368.69 2278.49,1368.7 2278.57,1368.7 2278.66,1368.71 2278.74,1368.72 2278.82,1368.73 2278.9,1368.73 
  2278.98,1368.73 2279.06,1368.74 2279.14,1368.74 2279.22,1368.74 2279.31,1368.75 2279.39,1368.75 2279.47,1368.75 2279.55,1368.75 2279.63,1368.76 2279.71,1368.76 
  2279.79,1368.77 2279.87,1368.78 2279.95,1368.79 2280.04,1368.8 2280.12,1368.84 2280.2,1368.85 2280.28,1368.86 2280.36,1368.86 2280.44,1368.87 2280.52,1368.87 
  2280.6,1368.89 2280.68,1368.9 2280.76,1368.91 2280.84,1368.91 2280.92,1368.91 2281.01,1368.92 2281.09,1368.92 2281.17,1368.93 2281.25,1368.93 2281.33,1368.94 
  2281.41,1368.95 2281.49,1368.96 2281.57,1368.97 2281.65,1368.99 2281.73,1369 2281.81,1369.01 2281.89,1369.02 2281.97,1369.03 2282.05,1369.05 2282.13,1369.05 
  2282.21,1369.06 2282.29,1369.07 2282.37,1369.07 2282.45,1369.07 2282.53,1369.08 2282.61,1369.08 2282.69,1369.08 2282.77,1369.08 2282.85,1369.08 2282.93,1369.08 
  2283.01,1369.08 2283.09,1369.08 2283.17,1369.08 2283.25,1369.09 2283.33,1369.09 2283.41,1369.09 2283.49,1369.09 2283.57,1369.09 2283.65,1369.09 2283.73,1369.09 
  2283.81,1369.1 2283.89,1369.1 2283.97,1369.1 2284.05,1369.1 2284.13,1369.1 2284.21,1369.11 2284.29,1369.12 2284.37,1369.14 2284.45,1369.2 2284.53,1369.21 
  2284.61,1369.27 2284.69,1369.3 2284.77,1369.4 2284.85,1369.41 2284.93,1369.54 2285,1369.58 2285.08,1369.69 2285.16,1369.72 2285.24,1369.82 2285.32,1369.89 
  2285.4,1369.99 2285.48,1370.08 2285.56,1370.16 2285.64,1370.18 2285.72,1370.22 2285.8,1370.25 2285.88,1370.28 2285.96,1370.3 2286.03,1370.35 2286.11,1370.4 
  2286.19,1370.42 2286.27,1370.46 2286.35,1370.52 2286.43,1370.58 2286.51,1370.62 2286.59,1370.65 2286.67,1370.67 2286.74,1370.69 2286.82,1370.71 2286.9,1370.74 
  2286.98,1370.76 2287.06,1370.78 2287.14,1370.79 2287.22,1370.8 2287.29,1370.81 2287.37,1370.82 2287.45,1370.84 2287.53,1370.86 2287.61,1370.86 2287.69,1370.87 
  2287.77,1370.88 2287.84,1370.88 2287.92,1370.89 2288,1370.89 2288.08,1370.91 2288.16,1370.94 2288.24,1370.97 2288.31,1371.08 2288.39,1371.13 2288.47,1371.15 
  2288.55,1371.18 2288.63,1371.2 2288.71,1371.25 2288.78,1371.29 2288.86,1371.33 2288.94,1371.37 2289.02,1371.39 2289.1,1371.41 2289.17,1371.43 2289.25,1371.44 
  2289.33,1371.45 2289.41,1371.47 2289.49,1371.49 2289.56,1371.49 2289.64,1371.5 2289.72,1371.51 2289.8,1371.51 2289.88,1371.53 2289.95,1371.55 2290.03,1371.56 
  2290.11,1371.57 2290.19,1371.58 2290.26,1371.58 2290.34,1371.58 2290.42,1371.59 2290.5,1371.59 2290.57,1371.6 2290.65,1371.61 2290.73,1371.62 2290.81,1371.65 
  2290.88,1371.67 2290.96,1371.71 2291.04,1371.73 2291.12,1371.73 2291.19,1371.75 2291.27,1371.77 2291.35,1371.79 2291.43,1371.8 2291.5,1371.82 2291.58,1371.84 
  2291.66,1371.87 2291.74,1371.89 2291.81,1371.91 2291.89,1371.99 2291.97,1372.06 2292.04,1372.07 2292.12,1372.1 2292.2,1372.11 2292.27,1372.11 2292.35,1372.12 
  2292.43,1372.14 2292.51,1372.17 2292.58,1372.21 2292.66,1372.23 2292.74,1372.24 2292.81,1372.27 2292.89,1372.28 2292.97,1372.29 2293.04,1372.3 2293.12,1372.3 
  2293.2,1372.3 2293.27,1372.3 
  "/>
<path clip-path="url(#clip460)" d="
M1912.74 248.219 L2282.7 248.219 L2282.7 92.6992 L1912.74 92.6992  Z
  " fill="#ffffff" fill-rule="evenodd" fill-opacity="1"/>
<polyline clip-path="url(#clip460)" style="stroke:#000000; stroke-linecap:round; stroke-linejoin:round; stroke-width:4; stroke-opacity:1; fill:none" points="
  1912.74,248.219 2282.7,248.219 2282.7,92.6992 1912.74,92.6992 1912.74,248.219 
  "/>
<polyline clip-path="url(#clip460)" style="stroke:#0000ff; stroke-linecap:round; stroke-linejoin:round; stroke-width:4; stroke-opacity:1; fill:none" points="
  1936.1,144.539 2076.21,144.539 
  "/>
<path clip-path="url(#clip460)" d="M2115.39 131.866 L2109.05 149.065 L2121.76 149.065 L2115.39 131.866 M2112.76 127.259 L2118.06 127.259 L2131.23 161.819 L2126.37 161.819 L2123.22 152.953 L2107.64 152.953 L2104.49 161.819 L2099.56 161.819 L2112.76 127.259 Z" fill="#000000" fill-rule="evenodd" fill-opacity="1" /><path clip-path="url(#clip460)" d="M2140.95 131.102 L2140.95 157.977 L2146.6 157.977 Q2153.75 157.977 2157.06 154.736 Q2160.39 151.495 2160.39 144.504 Q2160.39 137.56 2157.06 134.342 Q2153.75 131.102 2146.6 131.102 L2140.95 131.102 M2136.27 127.259 L2145.88 127.259 Q2155.93 127.259 2160.63 131.449 Q2165.32 135.616 2165.32 144.504 Q2165.32 153.44 2160.6 157.629 Q2155.88 161.819 2145.88 161.819 L2136.27 161.819 L2136.27 127.259 Z" fill="#000000" fill-rule="evenodd" fill-opacity="1" /><path clip-path="url(#clip460)" d="M2183.5 131.866 L2177.15 149.065 L2189.86 149.065 L2183.5 131.866 M2180.86 127.259 L2186.16 127.259 L2199.33 161.819 L2194.47 161.819 L2191.32 152.953 L2175.74 152.953 L2172.59 161.819 L2167.66 161.819 L2180.86 127.259 Z" fill="#000000" fill-rule="evenodd" fill-opacity="1" /><path clip-path="url(#clip460)" d="M2204.38 127.259 L2211.34 127.259 L2220.16 150.778 L2229.03 127.259 L2236 127.259 L2236 161.819 L2231.44 161.819 L2231.44 131.472 L2222.52 155.176 L2217.82 155.176 L2208.91 131.472 L2208.91 161.819 L2204.38 161.819 L2204.38 127.259 Z" fill="#000000" fill-rule="evenodd" fill-opacity="1" /><polyline clip-path="url(#clip460)" style="stroke:#ff0000; stroke-linecap:round; stroke-linejoin:round; stroke-width:4; stroke-opacity:1; fill:none" points="
  1936.1,196.379 2076.21,196.379 
  "/>
<path clip-path="url(#clip460)" d="M2104.24 197.155 L2104.24 209.817 L2111.74 209.817 Q2115.51 209.817 2117.32 208.266 Q2119.14 206.692 2119.14 203.474 Q2119.14 200.233 2117.32 198.706 Q2115.51 197.155 2111.74 197.155 L2104.24 197.155 M2104.24 182.942 L2104.24 193.358 L2111.16 193.358 Q2114.58 193.358 2116.25 192.085 Q2117.94 190.789 2117.94 188.15 Q2117.94 185.534 2116.25 184.238 Q2114.58 182.942 2111.16 182.942 L2104.24 182.942 M2099.56 179.099 L2111.51 179.099 Q2116.85 179.099 2119.75 181.321 Q2122.64 183.544 2122.64 187.641 Q2122.64 190.812 2121.16 192.687 Q2119.68 194.562 2116.81 195.025 Q2120.26 195.766 2122.15 198.127 Q2124.07 200.465 2124.07 203.983 Q2124.07 208.613 2120.93 211.136 Q2117.78 213.659 2111.97 213.659 L2099.56 213.659 L2099.56 179.099 Z" fill="#000000" fill-rule="evenodd" fill-opacity="1" /><path clip-path="url(#clip460)" d="M2132.08 179.099 L2151.95 179.099 L2151.95 183.034 L2136.76 183.034 L2136.76 193.219 L2150.46 193.219 L2150.46 197.155 L2136.76 197.155 L2136.76 213.659 L2132.08 213.659 L2132.08 179.099 Z" fill="#000000" fill-rule="evenodd" fill-opacity="1" /><path clip-path="url(#clip460)" d="M2182.92 208.729 L2182.92 199.446 L2175.28 199.446 L2175.28 195.604 L2187.55 195.604 L2187.55 210.442 Q2184.84 212.363 2181.57 213.358 Q2178.31 214.33 2174.61 214.33 Q2166.51 214.33 2161.92 209.608 Q2157.36 204.863 2157.36 196.414 Q2157.36 187.942 2161.92 183.22 Q2166.51 178.474 2174.61 178.474 Q2177.99 178.474 2181.02 179.308 Q2184.07 180.141 2186.64 181.761 L2186.64 186.738 Q2184.05 184.539 2181.13 183.428 Q2178.22 182.317 2175 182.317 Q2168.66 182.317 2165.46 185.858 Q2162.29 189.4 2162.29 196.414 Q2162.29 203.405 2165.46 206.946 Q2168.66 210.488 2175 210.488 Q2177.48 210.488 2179.42 210.071 Q2181.37 209.631 2182.92 208.729 Z" fill="#000000" fill-rule="evenodd" fill-opacity="1" /><path clip-path="url(#clip460)" d="M2216.81 180.233 L2216.81 184.794 Q2214.14 183.52 2211.78 182.895 Q2209.42 182.27 2207.22 182.27 Q2203.4 182.27 2201.32 183.752 Q2199.26 185.233 2199.26 187.965 Q2199.26 190.257 2200.63 191.437 Q2202.01 192.594 2205.86 193.312 L2208.68 193.891 Q2213.91 194.886 2216.39 197.409 Q2218.89 199.909 2218.89 204.122 Q2218.89 209.145 2215.51 211.738 Q2212.15 214.33 2205.65 214.33 Q2203.19 214.33 2200.42 213.775 Q2197.66 213.219 2194.7 212.131 L2194.7 207.317 Q2197.55 208.914 2200.28 209.724 Q2203.01 210.534 2205.65 210.534 Q2209.65 210.534 2211.83 208.96 Q2214.01 207.386 2214.01 204.469 Q2214.01 201.923 2212.43 200.488 Q2210.88 199.053 2207.32 198.335 L2204.47 197.78 Q2199.24 196.738 2196.9 194.516 Q2194.56 192.294 2194.56 188.335 Q2194.56 183.752 2197.78 181.113 Q2201.02 178.474 2206.69 178.474 Q2209.12 178.474 2211.64 178.914 Q2214.17 179.354 2216.81 180.233 Z" fill="#000000" fill-rule="evenodd" fill-opacity="1" /></svg>
