<?xml version="1.0" encoding="utf-8"?>
<svg xmlns="http://www.w3.org/2000/svg" xmlns:xlink="http://www.w3.org/1999/xlink" width="600" height="400" viewBox="0 0 2400 1600">
<defs>
  <clipPath id="clip480">
    <rect x="0" y="0" width="2400" height="1600"/>
  </clipPath>
</defs>
<path clip-path="url(#clip480)" d="
M0 1600 L2400 1600 L2400 0 L0 0  Z
  " fill="#ffffff" fill-rule="evenodd" fill-opacity="1"/>
<defs>
  <clipPath id="clip481">
    <rect x="480" y="0" width="1681" height="1600"/>
  </clipPath>
</defs>
<path clip-path="url(#clip480)" d="
M249.542 1423.18 L2352.76 1423.18 L2352.76 47.2441 L249.542 47.2441  Z
  " fill="#ffffff" fill-rule="evenodd" fill-opacity="1"/>
<defs>
  <clipPath id="clip482">
    <rect x="249" y="47" width="2104" height="1377"/>
  </clipPath>
</defs>
<polyline clip-path="url(#clip482)" style="stroke:#000000; stroke-linecap:round; stroke-linejoin:round; stroke-width:2; stroke-opacity:0.1; fill:none" points="
  309.067,1423.18 309.067,47.2441 
  "/>
<polyline clip-path="url(#clip482)" style="stroke:#000000; stroke-linecap:round; stroke-linejoin:round; stroke-width:2; stroke-opacity:0.1; fill:none" points="
  705.9,1423.18 705.9,47.2441 
  "/>
<polyline clip-path="url(#clip482)" style="stroke:#000000; stroke-linecap:round; stroke-linejoin:round; stroke-width:2; stroke-opacity:0.1; fill:none" points="
  1102.73,1423.18 1102.73,47.2441 
  "/>
<polyline clip-path="url(#clip482)" style="stroke:#000000; stroke-linecap:round; stroke-linejoin:round; stroke-width:2; stroke-opacity:0.1; fill:none" points="
  1499.57,1423.18 1499.57,47.2441 
  "/>
<polyline clip-path="url(#clip482)" style="stroke:#000000; stroke-linecap:round; stroke-linejoin:round; stroke-width:2; stroke-opacity:0.1; fill:none" points="
  1896.4,1423.18 1896.4,47.2441 
  "/>
<polyline clip-path="url(#clip482)" style="stroke:#000000; stroke-linecap:round; stroke-linejoin:round; stroke-width:2; stroke-opacity:0.1; fill:none" points="
  2293.23,1423.18 2293.23,47.2441 
  "/>
<polyline clip-path="url(#clip480)" style="stroke:#000000; stroke-linecap:round; stroke-linejoin:round; stroke-width:4; stroke-opacity:1; fill:none" points="
  249.542,1423.18 2352.76,1423.18 
  "/>
<polyline clip-path="url(#clip480)" style="stroke:#000000; stroke-linecap:round; stroke-linejoin:round; stroke-width:4; stroke-opacity:1; fill:none" points="
  309.067,1423.18 309.067,1404.28 
  "/>
<polyline clip-path="url(#clip480)" style="stroke:#000000; stroke-linecap:round; stroke-linejoin:round; stroke-width:4; stroke-opacity:1; fill:none" points="
  705.9,1423.18 705.9,1404.28 
  "/>
<polyline clip-path="url(#clip480)" style="stroke:#000000; stroke-linecap:round; stroke-linejoin:round; stroke-width:4; stroke-opacity:1; fill:none" points="
  1102.73,1423.18 1102.73,1404.28 
  "/>
<polyline clip-path="url(#clip480)" style="stroke:#000000; stroke-linecap:round; stroke-linejoin:round; stroke-width:4; stroke-opacity:1; fill:none" points="
  1499.57,1423.18 1499.57,1404.28 
  "/>
<polyline clip-path="url(#clip480)" style="stroke:#000000; stroke-linecap:round; stroke-linejoin:round; stroke-width:4; stroke-opacity:1; fill:none" points="
  1896.4,1423.18 1896.4,1404.28 
  "/>
<polyline clip-path="url(#clip480)" style="stroke:#000000; stroke-linecap:round; stroke-linejoin:round; stroke-width:4; stroke-opacity:1; fill:none" points="
  2293.23,1423.18 2293.23,1404.28 
  "/>
<path clip-path="url(#clip480)" d="M286.451 1454.1 Q282.84 1454.1 281.012 1457.66 Q279.206 1461.2 279.206 1468.33 Q279.206 1475.44 281.012 1479.01 Q282.84 1482.55 286.451 1482.55 Q290.086 1482.55 291.891 1479.01 Q293.72 1475.44 293.72 1468.33 Q293.72 1461.2 291.891 1457.66 Q290.086 1454.1 286.451 1454.1 M286.451 1450.39 Q292.261 1450.39 295.317 1455 Q298.396 1459.58 298.396 1468.33 Q298.396 1477.06 295.317 1481.67 Q292.261 1486.25 286.451 1486.25 Q280.641 1486.25 277.562 1481.67 Q274.507 1477.06 274.507 1468.33 Q274.507 1459.58 277.562 1455 Q280.641 1450.39 286.451 1450.39 Z" fill="#000000" fill-rule="evenodd" fill-opacity="1" /><path clip-path="url(#clip480)" d="M306.613 1479.7 L311.497 1479.7 L311.497 1485.58 L306.613 1485.58 L306.613 1479.7 Z" fill="#000000" fill-rule="evenodd" fill-opacity="1" /><path clip-path="url(#clip480)" d="M331.683 1454.1 Q328.071 1454.1 326.243 1457.66 Q324.437 1461.2 324.437 1468.33 Q324.437 1475.44 326.243 1479.01 Q328.071 1482.55 331.683 1482.55 Q335.317 1482.55 337.122 1479.01 Q338.951 1475.44 338.951 1468.33 Q338.951 1461.2 337.122 1457.66 Q335.317 1454.1 331.683 1454.1 M331.683 1450.39 Q337.493 1450.39 340.548 1455 Q343.627 1459.58 343.627 1468.33 Q343.627 1477.06 340.548 1481.67 Q337.493 1486.25 331.683 1486.25 Q325.872 1486.25 322.794 1481.67 Q319.738 1477.06 319.738 1468.33 Q319.738 1459.58 322.794 1455 Q325.872 1450.39 331.683 1450.39 Z" fill="#000000" fill-rule="evenodd" fill-opacity="1" /><path clip-path="url(#clip480)" d="M683.898 1454.1 Q680.286 1454.1 678.458 1457.66 Q676.652 1461.2 676.652 1468.33 Q676.652 1475.44 678.458 1479.01 Q680.286 1482.55 683.898 1482.55 Q687.532 1482.55 689.337 1479.01 Q691.166 1475.44 691.166 1468.33 Q691.166 1461.2 689.337 1457.66 Q687.532 1454.1 683.898 1454.1 M683.898 1450.39 Q689.708 1450.39 692.763 1455 Q695.842 1459.58 695.842 1468.33 Q695.842 1477.06 692.763 1481.67 Q689.708 1486.25 683.898 1486.25 Q678.087 1486.25 675.009 1481.67 Q671.953 1477.06 671.953 1468.33 Q671.953 1459.58 675.009 1455 Q678.087 1450.39 683.898 1450.39 Z" fill="#000000" fill-rule="evenodd" fill-opacity="1" /><path clip-path="url(#clip480)" d="M704.059 1479.7 L708.944 1479.7 L708.944 1485.58 L704.059 1485.58 L704.059 1479.7 Z" fill="#000000" fill-rule="evenodd" fill-opacity="1" /><path clip-path="url(#clip480)" d="M719.939 1481.64 L727.578 1481.64 L727.578 1455.28 L719.268 1456.95 L719.268 1452.69 L727.532 1451.02 L732.207 1451.02 L732.207 1481.64 L739.846 1481.64 L739.846 1485.58 L719.939 1485.58 L719.939 1481.64 Z" fill="#000000" fill-rule="evenodd" fill-opacity="1" /><path clip-path="url(#clip480)" d="M1080.92 1454.1 Q1077.3 1454.1 1075.48 1457.66 Q1073.67 1461.2 1073.67 1468.33 Q1073.67 1475.44 1075.48 1479.01 Q1077.3 1482.55 1080.92 1482.55 Q1084.55 1482.55 1086.36 1479.01 Q1088.18 1475.44 1088.18 1468.33 Q1088.18 1461.2 1086.36 1457.66 Q1084.55 1454.1 1080.92 1454.1 M1080.92 1450.39 Q1086.73 1450.39 1089.78 1455 Q1092.86 1459.58 1092.86 1468.33 Q1092.86 1477.06 1089.78 1481.67 Q1086.73 1486.25 1080.92 1486.25 Q1075.11 1486.25 1072.03 1481.67 Q1068.97 1477.06 1068.97 1468.33 Q1068.97 1459.58 1072.03 1455 Q1075.11 1450.39 1080.92 1450.39 Z" fill="#000000" fill-rule="evenodd" fill-opacity="1" /><path clip-path="url(#clip480)" d="M1101.08 1479.7 L1105.96 1479.7 L1105.96 1485.58 L1101.08 1485.58 L1101.08 1479.7 Z" fill="#000000" fill-rule="evenodd" fill-opacity="1" /><path clip-path="url(#clip480)" d="M1120.17 1481.64 L1136.49 1481.64 L1136.49 1485.58 L1114.55 1485.58 L1114.55 1481.64 Q1117.21 1478.89 1121.79 1474.26 Q1126.4 1469.61 1127.58 1468.27 Q1129.83 1465.74 1130.71 1464.01 Q1131.61 1462.25 1131.61 1460.56 Q1131.61 1457.8 1129.67 1456.07 Q1127.74 1454.33 1124.64 1454.33 Q1122.44 1454.33 1119.99 1455.09 Q1117.56 1455.86 1114.78 1457.41 L1114.78 1452.69 Q1117.61 1451.55 1120.06 1450.97 Q1122.51 1450.39 1124.55 1450.39 Q1129.92 1450.39 1133.11 1453.08 Q1136.31 1455.77 1136.31 1460.26 Q1136.31 1462.39 1135.5 1464.31 Q1134.71 1466.2 1132.61 1468.8 Q1132.03 1469.47 1128.92 1472.69 Q1125.82 1475.88 1120.17 1481.64 Z" fill="#000000" fill-rule="evenodd" fill-opacity="1" /><path clip-path="url(#clip480)" d="M1477.27 1454.1 Q1473.66 1454.1 1471.83 1457.66 Q1470.03 1461.2 1470.03 1468.33 Q1470.03 1475.44 1471.83 1479.01 Q1473.66 1482.55 1477.27 1482.55 Q1480.91 1482.55 1482.71 1479.01 Q1484.54 1475.44 1484.54 1468.33 Q1484.54 1461.2 1482.71 1457.66 Q1480.91 1454.1 1477.27 1454.1 M1477.27 1450.39 Q1483.08 1450.39 1486.14 1455 Q1489.22 1459.58 1489.22 1468.33 Q1489.22 1477.06 1486.14 1481.67 Q1483.08 1486.25 1477.27 1486.25 Q1471.46 1486.25 1468.38 1481.67 Q1465.33 1477.06 1465.33 1468.33 Q1465.33 1459.58 1468.38 1455 Q1471.46 1450.39 1477.27 1450.39 Z" fill="#000000" fill-rule="evenodd" fill-opacity="1" /><path clip-path="url(#clip480)" d="M1497.44 1479.7 L1502.32 1479.7 L1502.32 1485.58 L1497.44 1485.58 L1497.44 1479.7 Z" fill="#000000" fill-rule="evenodd" fill-opacity="1" /><path clip-path="url(#clip480)" d="M1526.67 1466.95 Q1530.03 1467.66 1531.9 1469.93 Q1533.8 1472.2 1533.8 1475.53 Q1533.8 1480.65 1530.28 1483.45 Q1526.76 1486.25 1520.28 1486.25 Q1518.11 1486.25 1515.79 1485.81 Q1513.5 1485.39 1511.05 1484.54 L1511.05 1480.02 Q1512.99 1481.16 1515.31 1481.74 Q1517.62 1482.32 1520.14 1482.32 Q1524.54 1482.32 1526.83 1480.58 Q1529.15 1478.84 1529.15 1475.53 Q1529.15 1472.48 1527 1470.77 Q1524.87 1469.03 1521.05 1469.03 L1517.02 1469.03 L1517.02 1465.19 L1521.23 1465.19 Q1524.68 1465.19 1526.51 1463.82 Q1528.34 1462.43 1528.34 1459.84 Q1528.34 1457.18 1526.44 1455.77 Q1524.57 1454.33 1521.05 1454.33 Q1519.13 1454.33 1516.93 1454.75 Q1514.73 1455.16 1512.09 1456.04 L1512.09 1451.88 Q1514.75 1451.14 1517.07 1450.77 Q1519.4 1450.39 1521.46 1450.39 Q1526.79 1450.39 1529.89 1452.83 Q1532.99 1455.23 1532.99 1459.35 Q1532.99 1462.22 1531.35 1464.21 Q1529.7 1466.18 1526.67 1466.95 Z" fill="#000000" fill-rule="evenodd" fill-opacity="1" /><path clip-path="url(#clip480)" d="M1873.54 1454.1 Q1869.93 1454.1 1868.1 1457.66 Q1866.29 1461.2 1866.29 1468.33 Q1866.29 1475.44 1868.1 1479.01 Q1869.93 1482.55 1873.54 1482.55 Q1877.17 1482.55 1878.98 1479.01 Q1880.81 1475.44 1880.81 1468.33 Q1880.81 1461.2 1878.98 1457.66 Q1877.17 1454.1 1873.54 1454.1 M1873.54 1450.39 Q1879.35 1450.39 1882.41 1455 Q1885.48 1459.58 1885.48 1468.33 Q1885.48 1477.06 1882.41 1481.67 Q1879.35 1486.25 1873.54 1486.25 Q1867.73 1486.25 1864.65 1481.67 Q1861.6 1477.06 1861.6 1468.33 Q1861.6 1459.58 1864.65 1455 Q1867.73 1450.39 1873.54 1450.39 Z" fill="#000000" fill-rule="evenodd" fill-opacity="1" /><path clip-path="url(#clip480)" d="M1893.7 1479.7 L1898.59 1479.7 L1898.59 1485.58 L1893.7 1485.58 L1893.7 1479.7 Z" fill="#000000" fill-rule="evenodd" fill-opacity="1" /><path clip-path="url(#clip480)" d="M1921.62 1455.09 L1909.81 1473.54 L1921.62 1473.54 L1921.62 1455.09 M1920.39 1451.02 L1926.27 1451.02 L1926.27 1473.54 L1931.2 1473.54 L1931.2 1477.43 L1926.27 1477.43 L1926.27 1485.58 L1921.62 1485.58 L1921.62 1477.43 L1906.02 1477.43 L1906.02 1472.92 L1920.39 1451.02 Z" fill="#000000" fill-rule="evenodd" fill-opacity="1" /><path clip-path="url(#clip480)" d="M2271.11 1454.1 Q2267.5 1454.1 2265.67 1457.66 Q2263.87 1461.2 2263.87 1468.33 Q2263.87 1475.44 2265.67 1479.01 Q2267.5 1482.55 2271.11 1482.55 Q2274.75 1482.55 2276.55 1479.01 Q2278.38 1475.44 2278.38 1468.33 Q2278.38 1461.2 2276.55 1457.66 Q2274.75 1454.1 2271.11 1454.1 M2271.11 1450.39 Q2276.92 1450.39 2279.98 1455 Q2283.06 1459.58 2283.06 1468.33 Q2283.06 1477.06 2279.98 1481.67 Q2276.92 1486.25 2271.11 1486.25 Q2265.3 1486.25 2262.22 1481.67 Q2259.17 1477.06 2259.17 1468.33 Q2259.17 1459.58 2262.22 1455 Q2265.3 1450.39 2271.11 1450.39 Z" fill="#000000" fill-rule="evenodd" fill-opacity="1" /><path clip-path="url(#clip480)" d="M2291.27 1479.7 L2296.16 1479.7 L2296.16 1485.58 L2291.27 1485.58 L2291.27 1479.7 Z" fill="#000000" fill-rule="evenodd" fill-opacity="1" /><path clip-path="url(#clip480)" d="M2306.39 1451.02 L2324.75 1451.02 L2324.75 1454.96 L2310.67 1454.96 L2310.67 1463.43 Q2311.69 1463.08 2312.71 1462.92 Q2313.73 1462.73 2314.75 1462.73 Q2320.53 1462.73 2323.91 1465.9 Q2327.29 1469.08 2327.29 1474.49 Q2327.29 1480.07 2323.82 1483.17 Q2320.35 1486.25 2314.03 1486.25 Q2311.85 1486.25 2309.59 1485.88 Q2307.34 1485.51 2304.93 1484.77 L2304.93 1480.07 Q2307.02 1481.2 2309.24 1481.76 Q2311.46 1482.32 2313.94 1482.32 Q2317.94 1482.32 2320.28 1480.21 Q2322.62 1478.1 2322.62 1474.49 Q2322.62 1470.88 2320.28 1468.77 Q2317.94 1466.67 2313.94 1466.67 Q2312.06 1466.67 2310.19 1467.08 Q2308.34 1467.5 2306.39 1468.38 L2306.39 1451.02 Z" fill="#000000" fill-rule="evenodd" fill-opacity="1" /><path clip-path="url(#clip480)" d="M747.285 1525.81 L747.285 1543.66 L755.369 1543.66 Q759.857 1543.66 762.308 1541.34 Q764.759 1539.02 764.759 1534.72 Q764.759 1530.45 762.308 1528.13 Q759.857 1525.81 755.369 1525.81 L747.285 1525.81 M740.855 1520.52 L755.369 1520.52 Q763.358 1520.52 767.432 1524.15 Q771.538 1527.75 771.538 1534.72 Q771.538 1541.75 767.432 1545.35 Q763.358 1548.95 755.369 1548.95 L747.285 1548.95 L747.285 1568.04 L740.855 1568.04 L740.855 1520.52 Z" fill="#000000" fill-rule="evenodd" fill-opacity="1" /><path clip-path="url(#clip480)" d="M799.42 1537.87 Q798.433 1537.3 797.256 1537.04 Q796.11 1536.76 794.709 1536.76 Q789.744 1536.76 787.07 1540 Q784.429 1543.22 784.429 1549.27 L784.429 1568.04 L778.54 1568.04 L778.54 1532.4 L784.429 1532.4 L784.429 1537.93 Q786.275 1534.69 789.235 1533.13 Q792.195 1531.54 796.428 1531.54 Q797.033 1531.54 797.765 1531.63 Q798.497 1531.7 799.388 1531.85 L799.42 1537.87 Z" fill="#000000" fill-rule="evenodd" fill-opacity="1" /><path clip-path="url(#clip480)" d="M817.944 1536.5 Q813.233 1536.5 810.496 1540.19 Q807.759 1543.85 807.759 1550.25 Q807.759 1556.65 810.464 1560.34 Q813.202 1564 817.944 1564 Q822.623 1564 825.36 1560.31 Q828.097 1556.62 828.097 1550.25 Q828.097 1543.92 825.36 1540.23 Q822.623 1536.5 817.944 1536.5 M817.944 1531.54 Q825.583 1531.54 829.943 1536.5 Q834.304 1541.47 834.304 1550.25 Q834.304 1559 829.943 1564 Q825.583 1568.97 817.944 1568.97 Q810.273 1568.97 805.913 1564 Q801.584 1559 801.584 1550.25 Q801.584 1541.47 805.913 1536.5 Q810.273 1531.54 817.944 1531.54 Z" fill="#000000" fill-rule="evenodd" fill-opacity="1" /><path clip-path="url(#clip480)" d="M849.677 1562.7 L849.677 1581.6 L843.789 1581.6 L843.789 1532.4 L849.677 1532.4 L849.677 1537.81 Q851.523 1534.62 854.324 1533.1 Q857.157 1531.54 861.072 1531.54 Q867.565 1531.54 871.607 1536.69 Q875.681 1541.85 875.681 1550.25 Q875.681 1558.65 871.607 1563.81 Q867.565 1568.97 861.072 1568.97 Q857.157 1568.97 854.324 1567.44 Q851.523 1565.88 849.677 1562.7 M869.602 1550.25 Q869.602 1543.79 866.928 1540.13 Q864.286 1536.44 859.639 1536.44 Q854.993 1536.44 852.319 1540.13 Q849.677 1543.79 849.677 1550.25 Q849.677 1556.71 852.319 1560.4 Q854.993 1564.07 859.639 1564.07 Q864.286 1564.07 866.928 1560.4 Q869.602 1556.71 869.602 1550.25 Z" fill="#000000" fill-rule="evenodd" fill-opacity="1" /><path clip-path="url(#clip480)" d="M899.202 1536.5 Q894.492 1536.5 891.754 1540.19 Q889.017 1543.85 889.017 1550.25 Q889.017 1556.65 891.723 1560.34 Q894.46 1564 899.202 1564 Q903.881 1564 906.618 1560.31 Q909.356 1556.62 909.356 1550.25 Q909.356 1543.92 906.618 1540.23 Q903.881 1536.5 899.202 1536.5 M899.202 1531.54 Q906.841 1531.54 911.202 1536.5 Q915.562 1541.47 915.562 1550.25 Q915.562 1559 911.202 1564 Q906.841 1568.97 899.202 1568.97 Q891.532 1568.97 887.171 1564 Q882.842 1559 882.842 1550.25 Q882.842 1541.47 887.171 1536.5 Q891.532 1531.54 899.202 1531.54 Z" fill="#000000" fill-rule="evenodd" fill-opacity="1" /><path clip-path="url(#clip480)" d="M945.927 1537.87 Q944.94 1537.3 943.762 1537.04 Q942.616 1536.76 941.216 1536.76 Q936.251 1536.76 933.577 1540 Q930.935 1543.22 930.935 1549.27 L930.935 1568.04 L925.047 1568.04 L925.047 1532.4 L930.935 1532.4 L930.935 1537.93 Q932.781 1534.69 935.741 1533.13 Q938.702 1531.54 942.935 1531.54 Q943.539 1531.54 944.272 1531.63 Q945.004 1531.7 945.895 1531.85 L945.927 1537.87 Z" fill="#000000" fill-rule="evenodd" fill-opacity="1" /><path clip-path="url(#clip480)" d="M957.862 1522.27 L957.862 1532.4 L969.925 1532.4 L969.925 1536.95 L957.862 1536.95 L957.862 1556.3 Q957.862 1560.66 959.04 1561.9 Q960.249 1563.14 963.91 1563.14 L969.925 1563.14 L969.925 1568.04 L963.91 1568.04 Q957.13 1568.04 954.552 1565.53 Q951.974 1562.98 951.974 1556.3 L951.974 1536.95 L947.677 1536.95 L947.677 1532.4 L951.974 1532.4 L951.974 1522.27 L957.862 1522.27 Z" fill="#000000" fill-rule="evenodd" fill-opacity="1" /><path clip-path="url(#clip480)" d="M977.628 1532.4 L983.484 1532.4 L983.484 1568.04 L977.628 1568.04 L977.628 1532.4 M977.628 1518.52 L983.484 1518.52 L983.484 1525.93 L977.628 1525.93 L977.628 1518.52 Z" fill="#000000" fill-rule="evenodd" fill-opacity="1" /><path clip-path="url(#clip480)" d="M1009.55 1536.5 Q1004.84 1536.5 1002.1 1540.19 Q999.367 1543.85 999.367 1550.25 Q999.367 1556.65 1002.07 1560.34 Q1004.81 1564 1009.55 1564 Q1014.23 1564 1016.97 1560.31 Q1019.71 1556.62 1019.71 1550.25 Q1019.71 1543.92 1016.97 1540.23 Q1014.23 1536.5 1009.55 1536.5 M1009.55 1531.54 Q1017.19 1531.54 1021.55 1536.5 Q1025.91 1541.47 1025.91 1550.25 Q1025.91 1559 1021.55 1564 Q1017.19 1568.97 1009.55 1568.97 Q1001.88 1568.97 997.521 1564 Q993.192 1559 993.192 1550.25 Q993.192 1541.47 997.521 1536.5 Q1001.88 1531.54 1009.55 1531.54 Z" fill="#000000" fill-rule="evenodd" fill-opacity="1" /><path clip-path="url(#clip480)" d="M1065.25 1546.53 L1065.25 1568.04 L1059.4 1568.04 L1059.4 1546.72 Q1059.4 1541.66 1057.42 1539.14 Q1055.45 1536.63 1051.5 1536.63 Q1046.76 1536.63 1044.02 1539.65 Q1041.28 1542.68 1041.28 1547.9 L1041.28 1568.04 L1035.4 1568.04 L1035.4 1532.4 L1041.28 1532.4 L1041.28 1537.93 Q1043.39 1534.72 1046.22 1533.13 Q1049.08 1531.54 1052.81 1531.54 Q1058.95 1531.54 1062.1 1535.36 Q1065.25 1539.14 1065.25 1546.53 Z" fill="#000000" fill-rule="evenodd" fill-opacity="1" /><path clip-path="url(#clip480)" d="M1111.47 1536.5 Q1106.76 1536.5 1104.02 1540.19 Q1101.28 1543.85 1101.28 1550.25 Q1101.28 1556.65 1103.99 1560.34 Q1106.72 1564 1111.47 1564 Q1116.15 1564 1118.88 1560.31 Q1121.62 1556.62 1121.62 1550.25 Q1121.62 1543.92 1118.88 1540.23 Q1116.15 1536.5 1111.47 1536.5 M1111.47 1531.54 Q1119.11 1531.54 1123.47 1536.5 Q1127.83 1541.47 1127.83 1550.25 Q1127.83 1559 1123.47 1564 Q1119.11 1568.97 1111.47 1568.97 Q1103.8 1568.97 1099.44 1564 Q1095.11 1559 1095.11 1550.25 Q1095.11 1541.47 1099.44 1536.5 Q1103.8 1531.54 1111.47 1531.54 Z" fill="#000000" fill-rule="evenodd" fill-opacity="1" /><path clip-path="url(#clip480)" d="M1155.58 1518.52 L1155.58 1523.39 L1149.98 1523.39 Q1146.83 1523.39 1145.59 1524.66 Q1144.38 1525.93 1144.38 1529.24 L1144.38 1532.4 L1154.02 1532.4 L1154.02 1536.95 L1144.38 1536.95 L1144.38 1568.04 L1138.49 1568.04 L1138.49 1536.95 L1132.89 1536.95 L1132.89 1532.4 L1138.49 1532.4 L1138.49 1529.91 Q1138.49 1523.96 1141.26 1521.26 Q1144.03 1518.52 1150.04 1518.52 L1155.58 1518.52 Z" fill="#000000" fill-rule="evenodd" fill-opacity="1" /><path clip-path="url(#clip480)" d="M1186.87 1562.7 L1186.87 1581.6 L1180.98 1581.6 L1180.98 1532.4 L1186.87 1532.4 L1186.87 1537.81 Q1188.71 1534.62 1191.52 1533.1 Q1194.35 1531.54 1198.26 1531.54 Q1204.76 1531.54 1208.8 1536.69 Q1212.87 1541.85 1212.87 1550.25 Q1212.87 1558.65 1208.8 1563.81 Q1204.76 1568.97 1198.26 1568.97 Q1194.35 1568.97 1191.52 1567.44 Q1188.71 1565.88 1186.87 1562.7 M1206.79 1550.25 Q1206.79 1543.79 1204.12 1540.13 Q1201.48 1536.44 1196.83 1536.44 Q1192.18 1536.44 1189.51 1540.13 Q1186.87 1543.79 1186.87 1550.25 Q1186.87 1556.71 1189.51 1560.4 Q1192.18 1564.07 1196.83 1564.07 Q1201.48 1564.07 1204.12 1560.4 Q1206.79 1556.71 1206.79 1550.25 Z" fill="#000000" fill-rule="evenodd" fill-opacity="1" /><path clip-path="url(#clip480)" d="M1236.39 1536.5 Q1231.68 1536.5 1228.95 1540.19 Q1226.21 1543.85 1226.21 1550.25 Q1226.21 1556.65 1228.91 1560.34 Q1231.65 1564 1236.39 1564 Q1241.07 1564 1243.81 1560.31 Q1246.55 1556.62 1246.55 1550.25 Q1246.55 1543.92 1243.81 1540.23 Q1241.07 1536.5 1236.39 1536.5 M1236.39 1531.54 Q1244.03 1531.54 1248.39 1536.5 Q1252.75 1541.47 1252.75 1550.25 Q1252.75 1559 1248.39 1564 Q1244.03 1568.97 1236.39 1568.97 Q1228.72 1568.97 1224.36 1564 Q1220.03 1559 1220.03 1550.25 Q1220.03 1541.47 1224.36 1536.5 Q1228.72 1531.54 1236.39 1531.54 Z" fill="#000000" fill-rule="evenodd" fill-opacity="1" /><path clip-path="url(#clip480)" d="M1268.13 1562.7 L1268.13 1581.6 L1262.24 1581.6 L1262.24 1532.4 L1268.13 1532.4 L1268.13 1537.81 Q1269.97 1534.62 1272.77 1533.1 Q1275.61 1531.54 1279.52 1531.54 Q1286.01 1531.54 1290.06 1536.69 Q1294.13 1541.85 1294.13 1550.25 Q1294.13 1558.65 1290.06 1563.81 Q1286.01 1568.97 1279.52 1568.97 Q1275.61 1568.97 1272.77 1567.44 Q1269.97 1565.88 1268.13 1562.7 M1288.05 1550.25 Q1288.05 1543.79 1285.38 1540.13 Q1282.74 1536.44 1278.09 1536.44 Q1273.44 1536.44 1270.77 1540.13 Q1268.13 1543.79 1268.13 1550.25 Q1268.13 1556.71 1270.77 1560.4 Q1273.44 1564.07 1278.09 1564.07 Q1282.74 1564.07 1285.38 1560.4 Q1288.05 1556.71 1288.05 1550.25 Z" fill="#000000" fill-rule="evenodd" fill-opacity="1" /><path clip-path="url(#clip480)" d="M1303.23 1553.98 L1303.23 1532.4 L1309.09 1532.4 L1309.09 1553.75 Q1309.09 1558.81 1311.06 1561.36 Q1313.04 1563.87 1316.98 1563.87 Q1321.73 1563.87 1324.46 1560.85 Q1327.23 1557.83 1327.23 1552.61 L1327.23 1532.4 L1333.09 1532.4 L1333.09 1568.04 L1327.23 1568.04 L1327.23 1562.57 Q1325.1 1565.82 1322.27 1567.41 Q1319.47 1568.97 1315.74 1568.97 Q1309.6 1568.97 1306.42 1565.15 Q1303.23 1561.33 1303.23 1553.98 M1317.97 1531.54 L1317.97 1531.54 Z" fill="#000000" fill-rule="evenodd" fill-opacity="1" /><path clip-path="url(#clip480)" d="M1345.15 1518.52 L1351.01 1518.52 L1351.01 1568.04 L1345.15 1568.04 L1345.15 1518.52 Z" fill="#000000" fill-rule="evenodd" fill-opacity="1" /><path clip-path="url(#clip480)" d="M1379.46 1550.12 Q1372.37 1550.12 1369.63 1551.75 Q1366.89 1553.37 1366.89 1557.29 Q1366.89 1560.4 1368.93 1562.25 Q1371 1564.07 1374.53 1564.07 Q1379.4 1564.07 1382.33 1560.63 Q1385.29 1557.16 1385.29 1551.43 L1385.29 1550.12 L1379.46 1550.12 M1391.14 1547.71 L1391.14 1568.04 L1385.29 1568.04 L1385.29 1562.63 Q1383.28 1565.88 1380.29 1567.44 Q1377.3 1568.97 1372.97 1568.97 Q1367.5 1568.97 1364.25 1565.91 Q1361.03 1562.82 1361.03 1557.67 Q1361.03 1551.65 1365.04 1548.6 Q1369.09 1545.54 1377.08 1545.54 L1385.29 1545.54 L1385.29 1544.97 Q1385.29 1540.93 1382.61 1538.73 Q1379.97 1536.5 1375.17 1536.5 Q1372.11 1536.5 1369.21 1537.23 Q1366.32 1537.97 1363.64 1539.43 L1363.64 1534.02 Q1366.86 1532.78 1369.88 1532.17 Q1372.91 1531.54 1375.77 1531.54 Q1383.51 1531.54 1387.32 1535.55 Q1391.14 1539.56 1391.14 1547.71 Z" fill="#000000" fill-rule="evenodd" fill-opacity="1" /><path clip-path="url(#clip480)" d="M1409 1522.27 L1409 1532.4 L1421.06 1532.4 L1421.06 1536.95 L1409 1536.95 L1409 1556.3 Q1409 1560.66 1410.18 1561.9 Q1411.39 1563.14 1415.05 1563.14 L1421.06 1563.14 L1421.06 1568.04 L1415.05 1568.04 Q1408.27 1568.04 1405.69 1565.53 Q1403.11 1562.98 1403.11 1556.3 L1403.11 1536.95 L1398.81 1536.95 L1398.81 1532.4 L1403.11 1532.4 L1403.11 1522.27 L1409 1522.27 Z" fill="#000000" fill-rule="evenodd" fill-opacity="1" /><path clip-path="url(#clip480)" d="M1428.77 1532.4 L1434.62 1532.4 L1434.62 1568.04 L1428.77 1568.04 L1428.77 1532.4 M1428.77 1518.52 L1434.62 1518.52 L1434.62 1525.93 L1428.77 1525.93 L1428.77 1518.52 Z" fill="#000000" fill-rule="evenodd" fill-opacity="1" /><path clip-path="url(#clip480)" d="M1460.69 1536.5 Q1455.98 1536.5 1453.24 1540.19 Q1450.5 1543.85 1450.5 1550.25 Q1450.5 1556.65 1453.21 1560.34 Q1455.95 1564 1460.69 1564 Q1465.37 1564 1468.11 1560.31 Q1470.84 1556.62 1470.84 1550.25 Q1470.84 1543.92 1468.11 1540.23 Q1465.37 1536.5 1460.69 1536.5 M1460.69 1531.54 Q1468.33 1531.54 1472.69 1536.5 Q1477.05 1541.47 1477.05 1550.25 Q1477.05 1559 1472.69 1564 Q1468.33 1568.97 1460.69 1568.97 Q1453.02 1568.97 1448.66 1564 Q1444.33 1559 1444.33 1550.25 Q1444.33 1541.47 1448.66 1536.5 Q1453.02 1531.54 1460.69 1531.54 Z" fill="#000000" fill-rule="evenodd" fill-opacity="1" /><path clip-path="url(#clip480)" d="M1516.39 1546.53 L1516.39 1568.04 L1510.53 1568.04 L1510.53 1546.72 Q1510.53 1541.66 1508.56 1539.14 Q1506.59 1536.63 1502.64 1536.63 Q1497.9 1536.63 1495.16 1539.65 Q1492.42 1542.68 1492.42 1547.9 L1492.42 1568.04 L1486.53 1568.04 L1486.53 1532.4 L1492.42 1532.4 L1492.42 1537.93 Q1494.52 1534.72 1497.36 1533.13 Q1500.22 1531.54 1503.94 1531.54 Q1510.09 1531.54 1513.24 1535.36 Q1516.39 1539.14 1516.39 1546.53 Z" fill="#000000" fill-rule="evenodd" fill-opacity="1" /><path clip-path="url(#clip480)" d="M1548.79 1532.4 L1554.65 1532.4 L1554.65 1568.04 L1548.79 1568.04 L1548.79 1532.4 M1548.79 1518.52 L1554.65 1518.52 L1554.65 1525.93 L1548.79 1525.93 L1548.79 1518.52 Z" fill="#000000" fill-rule="evenodd" fill-opacity="1" /><path clip-path="url(#clip480)" d="M1596.53 1546.53 L1596.53 1568.04 L1590.68 1568.04 L1590.68 1546.72 Q1590.68 1541.66 1588.7 1539.14 Q1586.73 1536.63 1582.78 1536.63 Q1578.04 1536.63 1575.3 1539.65 Q1572.57 1542.68 1572.57 1547.9 L1572.57 1568.04 L1566.68 1568.04 L1566.68 1532.4 L1572.57 1532.4 L1572.57 1537.93 Q1574.67 1534.72 1577.5 1533.13 Q1580.36 1531.54 1584.09 1531.54 Q1590.23 1531.54 1593.38 1535.36 Q1596.53 1539.14 1596.53 1546.53 Z" fill="#000000" fill-rule="evenodd" fill-opacity="1" /><path clip-path="url(#clip480)" d="M1626.26 1518.52 L1626.26 1523.39 L1620.66 1523.39 Q1617.51 1523.39 1616.27 1524.66 Q1615.06 1525.93 1615.06 1529.24 L1615.06 1532.4 L1624.7 1532.4 L1624.7 1536.95 L1615.06 1536.95 L1615.06 1568.04 L1609.17 1568.04 L1609.17 1536.95 L1603.57 1536.95 L1603.57 1532.4 L1609.17 1532.4 L1609.17 1529.91 Q1609.17 1523.96 1611.94 1521.26 Q1614.71 1518.52 1620.72 1518.52 L1626.26 1518.52 Z" fill="#000000" fill-rule="evenodd" fill-opacity="1" /><path clip-path="url(#clip480)" d="M1661.65 1548.76 L1661.65 1551.62 L1634.73 1551.62 Q1635.11 1557.67 1638.36 1560.85 Q1641.63 1564 1647.46 1564 Q1650.83 1564 1653.98 1563.17 Q1657.17 1562.35 1660.29 1560.69 L1660.29 1566.23 Q1657.14 1567.57 1653.83 1568.27 Q1650.51 1568.97 1647.11 1568.97 Q1638.58 1568.97 1633.58 1564 Q1628.62 1559.04 1628.62 1550.57 Q1628.62 1541.82 1633.33 1536.69 Q1638.07 1531.54 1646.09 1531.54 Q1653.28 1531.54 1657.45 1536.18 Q1661.65 1540.8 1661.65 1548.76 M1655.8 1547.04 Q1655.73 1542.23 1653.09 1539.37 Q1650.48 1536.5 1646.15 1536.5 Q1641.25 1536.5 1638.29 1539.27 Q1635.36 1542.04 1634.92 1547.07 L1655.8 1547.04 Z" fill="#000000" fill-rule="evenodd" fill-opacity="1" /><path clip-path="url(#clip480)" d="M1696.92 1533.76 L1696.92 1539.24 Q1694.44 1537.87 1691.92 1537.2 Q1689.44 1536.5 1686.89 1536.5 Q1681.2 1536.5 1678.05 1540.13 Q1674.9 1543.73 1674.9 1550.25 Q1674.9 1556.78 1678.05 1560.4 Q1681.2 1564 1686.89 1564 Q1689.44 1564 1691.92 1563.33 Q1694.44 1562.63 1696.92 1561.26 L1696.92 1566.68 Q1694.47 1567.82 1691.83 1568.39 Q1689.22 1568.97 1686.26 1568.97 Q1678.21 1568.97 1673.46 1563.91 Q1668.72 1558.85 1668.72 1550.25 Q1668.72 1541.53 1673.5 1536.53 Q1678.3 1531.54 1686.64 1531.54 Q1689.35 1531.54 1691.92 1532.11 Q1694.5 1532.65 1696.92 1533.76 Z" fill="#000000" fill-rule="evenodd" fill-opacity="1" /><path clip-path="url(#clip480)" d="M1712.9 1522.27 L1712.9 1532.4 L1724.96 1532.4 L1724.96 1536.95 L1712.9 1536.95 L1712.9 1556.3 Q1712.9 1560.66 1714.08 1561.9 Q1715.29 1563.14 1718.95 1563.14 L1724.96 1563.14 L1724.96 1568.04 L1718.95 1568.04 Q1712.17 1568.04 1709.59 1565.53 Q1707.01 1562.98 1707.01 1556.3 L1707.01 1536.95 L1702.71 1536.95 L1702.71 1532.4 L1707.01 1532.4 L1707.01 1522.27 L1712.9 1522.27 Z" fill="#000000" fill-rule="evenodd" fill-opacity="1" /><path clip-path="url(#clip480)" d="M1763.16 1548.76 L1763.16 1551.62 L1736.23 1551.62 Q1736.61 1557.67 1739.86 1560.85 Q1743.14 1564 1748.96 1564 Q1752.33 1564 1755.49 1563.17 Q1758.67 1562.35 1761.79 1560.69 L1761.79 1566.23 Q1758.64 1567.57 1755.33 1568.27 Q1752.02 1568.97 1748.61 1568.97 Q1740.08 1568.97 1735.08 1564 Q1730.12 1559.04 1730.12 1550.57 Q1730.12 1541.82 1734.83 1536.69 Q1739.57 1531.54 1747.59 1531.54 Q1754.79 1531.54 1758.95 1536.18 Q1763.16 1540.8 1763.16 1548.76 M1757.3 1547.04 Q1757.24 1542.23 1754.59 1539.37 Q1751.98 1536.5 1747.66 1536.5 Q1742.75 1536.5 1739.79 1539.27 Q1736.87 1542.04 1736.42 1547.07 L1757.3 1547.04 Z" fill="#000000" fill-rule="evenodd" fill-opacity="1" /><path clip-path="url(#clip480)" d="M1796.23 1537.81 L1796.23 1518.52 L1802.08 1518.52 L1802.08 1568.04 L1796.23 1568.04 L1796.23 1562.7 Q1794.38 1565.88 1791.55 1567.44 Q1788.75 1568.97 1784.8 1568.97 Q1778.34 1568.97 1774.26 1563.81 Q1770.22 1558.65 1770.22 1550.25 Q1770.22 1541.85 1774.26 1536.69 Q1778.34 1531.54 1784.8 1531.54 Q1788.75 1531.54 1791.55 1533.1 Q1794.38 1534.62 1796.23 1537.81 M1776.27 1550.25 Q1776.27 1556.71 1778.91 1560.4 Q1781.58 1564.07 1786.23 1564.07 Q1790.88 1564.07 1793.55 1560.4 Q1796.23 1556.71 1796.23 1550.25 Q1796.23 1543.79 1793.55 1540.13 Q1790.88 1536.44 1786.23 1536.44 Q1781.58 1536.44 1778.91 1540.13 Q1776.27 1543.79 1776.27 1550.25 Z" fill="#000000" fill-rule="evenodd" fill-opacity="1" /><path clip-path="url(#clip480)" d="M1815.64 1559.96 L1822.36 1559.96 L1822.36 1565.43 L1817.14 1575.62 L1813.03 1575.62 L1815.64 1565.43 L1815.64 1559.96 Z" fill="#000000" fill-rule="evenodd" fill-opacity="1" /><path clip-path="url(#clip480)" d="M1855.59 1532.4 L1861.44 1532.4 L1861.44 1568.04 L1855.59 1568.04 L1855.59 1532.4 M1855.59 1518.52 L1861.44 1518.52 L1861.44 1525.93 L1855.59 1525.93 L1855.59 1518.52 Z" fill="#000000" fill-rule="evenodd" fill-opacity="1" /><polyline clip-path="url(#clip482)" style="stroke:#000000; stroke-linecap:round; stroke-linejoin:round; stroke-width:2; stroke-opacity:0.1; fill:none" points="
  249.542,1384.24 2352.76,1384.24 
  "/>
<polyline clip-path="url(#clip482)" style="stroke:#000000; stroke-linecap:round; stroke-linejoin:round; stroke-width:2; stroke-opacity:0.1; fill:none" points="
  249.542,983.714 2352.76,983.714 
  "/>
<polyline clip-path="url(#clip482)" style="stroke:#000000; stroke-linecap:round; stroke-linejoin:round; stroke-width:2; stroke-opacity:0.1; fill:none" points="
  249.542,583.19 2352.76,583.19 
  "/>
<polyline clip-path="url(#clip482)" style="stroke:#000000; stroke-linecap:round; stroke-linejoin:round; stroke-width:2; stroke-opacity:0.1; fill:none" points="
  249.542,182.666 2352.76,182.666 
  "/>
<polyline clip-path="url(#clip480)" style="stroke:#000000; stroke-linecap:round; stroke-linejoin:round; stroke-width:4; stroke-opacity:1; fill:none" points="
  249.542,1423.18 249.542,47.2441 
  "/>
<polyline clip-path="url(#clip480)" style="stroke:#000000; stroke-linecap:round; stroke-linejoin:round; stroke-width:4; stroke-opacity:1; fill:none" points="
  249.542,1384.24 268.44,1384.24 
  "/>
<polyline clip-path="url(#clip480)" style="stroke:#000000; stroke-linecap:round; stroke-linejoin:round; stroke-width:4; stroke-opacity:1; fill:none" points="
  249.542,983.714 268.44,983.714 
  "/>
<polyline clip-path="url(#clip480)" style="stroke:#000000; stroke-linecap:round; stroke-linejoin:round; stroke-width:4; stroke-opacity:1; fill:none" points="
  249.542,583.19 268.44,583.19 
  "/>
<polyline clip-path="url(#clip480)" style="stroke:#000000; stroke-linecap:round; stroke-linejoin:round; stroke-width:4; stroke-opacity:1; fill:none" points="
  249.542,182.666 268.44,182.666 
  "/>
<path clip-path="url(#clip480)" d="M126.205 1370.04 Q122.593 1370.04 120.765 1373.6 Q118.959 1377.14 118.959 1384.27 Q118.959 1391.38 120.765 1394.94 Q122.593 1398.49 126.205 1398.49 Q129.839 1398.49 131.644 1394.94 Q133.473 1391.38 133.473 1384.27 Q133.473 1377.14 131.644 1373.6 Q129.839 1370.04 126.205 1370.04 M126.205 1366.33 Q132.015 1366.33 135.07 1370.94 Q138.149 1375.52 138.149 1384.27 Q138.149 1393 135.07 1397.61 Q132.015 1402.19 126.205 1402.19 Q120.394 1402.19 117.316 1397.61 Q114.26 1393 114.26 1384.27 Q114.26 1375.52 117.316 1370.94 Q120.394 1366.33 126.205 1366.33 Z" fill="#000000" fill-rule="evenodd" fill-opacity="1" /><path clip-path="url(#clip480)" d="M146.366 1395.64 L151.251 1395.64 L151.251 1401.52 L146.366 1401.52 L146.366 1395.64 Z" fill="#000000" fill-rule="evenodd" fill-opacity="1" /><path clip-path="url(#clip480)" d="M171.436 1370.04 Q167.825 1370.04 165.996 1373.6 Q164.19 1377.14 164.19 1384.27 Q164.19 1391.38 165.996 1394.94 Q167.825 1398.49 171.436 1398.49 Q175.07 1398.49 176.876 1394.94 Q178.704 1391.38 178.704 1384.27 Q178.704 1377.14 176.876 1373.6 Q175.07 1370.04 171.436 1370.04 M171.436 1366.33 Q177.246 1366.33 180.301 1370.94 Q183.38 1375.52 183.38 1384.27 Q183.38 1393 180.301 1397.61 Q177.246 1402.19 171.436 1402.19 Q165.626 1402.19 162.547 1397.61 Q159.491 1393 159.491 1384.27 Q159.491 1375.52 162.547 1370.94 Q165.626 1366.33 171.436 1366.33 Z" fill="#000000" fill-rule="evenodd" fill-opacity="1" /><path clip-path="url(#clip480)" d="M201.598 1370.04 Q197.987 1370.04 196.158 1373.6 Q194.352 1377.14 194.352 1384.27 Q194.352 1391.38 196.158 1394.94 Q197.987 1398.49 201.598 1398.49 Q205.232 1398.49 207.037 1394.94 Q208.866 1391.38 208.866 1384.27 Q208.866 1377.14 207.037 1373.6 Q205.232 1370.04 201.598 1370.04 M201.598 1366.33 Q207.408 1366.33 210.463 1370.94 Q213.542 1375.52 213.542 1384.27 Q213.542 1393 210.463 1397.61 Q207.408 1402.19 201.598 1402.19 Q195.787 1402.19 192.709 1397.61 Q189.653 1393 189.653 1384.27 Q189.653 1375.52 192.709 1370.94 Q195.787 1366.33 201.598 1366.33 Z" fill="#000000" fill-rule="evenodd" fill-opacity="1" /><path clip-path="url(#clip480)" d="M127.2 969.513 Q123.589 969.513 121.76 973.078 Q119.955 976.619 119.955 983.749 Q119.955 990.855 121.76 994.42 Q123.589 997.962 127.2 997.962 Q130.834 997.962 132.64 994.42 Q134.468 990.855 134.468 983.749 Q134.468 976.619 132.64 973.078 Q130.834 969.513 127.2 969.513 M127.2 965.809 Q133.01 965.809 136.066 970.416 Q139.144 974.999 139.144 983.749 Q139.144 992.476 136.066 997.082 Q133.01 1001.67 127.2 1001.67 Q121.39 1001.67 118.311 997.082 Q115.256 992.476 115.256 983.749 Q115.256 974.999 118.311 970.416 Q121.39 965.809 127.2 965.809 Z" fill="#000000" fill-rule="evenodd" fill-opacity="1" /><path clip-path="url(#clip480)" d="M147.362 995.115 L152.246 995.115 L152.246 1000.99 L147.362 1000.99 L147.362 995.115 Z" fill="#000000" fill-rule="evenodd" fill-opacity="1" /><path clip-path="url(#clip480)" d="M172.431 969.513 Q168.82 969.513 166.991 973.078 Q165.186 976.619 165.186 983.749 Q165.186 990.855 166.991 994.42 Q168.82 997.962 172.431 997.962 Q176.065 997.962 177.871 994.42 Q179.7 990.855 179.7 983.749 Q179.7 976.619 177.871 973.078 Q176.065 969.513 172.431 969.513 M172.431 965.809 Q178.241 965.809 181.297 970.416 Q184.376 974.999 184.376 983.749 Q184.376 992.476 181.297 997.082 Q178.241 1001.67 172.431 1001.67 Q166.621 1001.67 163.542 997.082 Q160.487 992.476 160.487 983.749 Q160.487 974.999 163.542 970.416 Q166.621 965.809 172.431 965.809 Z" fill="#000000" fill-rule="evenodd" fill-opacity="1" /><path clip-path="url(#clip480)" d="M192.639 966.434 L210.996 966.434 L210.996 970.369 L196.922 970.369 L196.922 978.841 Q197.94 978.494 198.959 978.332 Q199.977 978.147 200.996 978.147 Q206.783 978.147 210.162 981.318 Q213.542 984.49 213.542 989.906 Q213.542 995.485 210.07 998.587 Q206.598 1001.67 200.278 1001.67 Q198.102 1001.67 195.834 1001.3 Q193.588 1000.92 191.181 1000.18 L191.181 995.485 Q193.264 996.619 195.487 997.175 Q197.709 997.73 200.186 997.73 Q204.19 997.73 206.528 995.624 Q208.866 993.517 208.866 989.906 Q208.866 986.295 206.528 984.189 Q204.19 982.082 200.186 982.082 Q198.311 982.082 196.436 982.499 Q194.584 982.916 192.639 983.795 L192.639 966.434 Z" fill="#000000" fill-rule="evenodd" fill-opacity="1" /><path clip-path="url(#clip480)" d="M126.205 568.989 Q122.593 568.989 120.765 572.554 Q118.959 576.095 118.959 583.225 Q118.959 590.331 120.765 593.896 Q122.593 597.438 126.205 597.438 Q129.839 597.438 131.644 593.896 Q133.473 590.331 133.473 583.225 Q133.473 576.095 131.644 572.554 Q129.839 568.989 126.205 568.989 M126.205 565.285 Q132.015 565.285 135.07 569.891 Q138.149 574.475 138.149 583.225 Q138.149 591.952 135.07 596.558 Q132.015 601.141 126.205 601.141 Q120.394 601.141 117.316 596.558 Q114.26 591.952 114.26 583.225 Q114.26 574.475 117.316 569.891 Q120.394 565.285 126.205 565.285 Z" fill="#000000" fill-rule="evenodd" fill-opacity="1" /><path clip-path="url(#clip480)" d="M146.366 594.59 L151.251 594.59 L151.251 600.47 L146.366 600.47 L146.366 594.59 Z" fill="#000000" fill-rule="evenodd" fill-opacity="1" /><path clip-path="url(#clip480)" d="M162.246 596.535 L169.885 596.535 L169.885 570.169 L161.575 571.836 L161.575 567.577 L169.839 565.91 L174.514 565.91 L174.514 596.535 L182.153 596.535 L182.153 600.47 L162.246 600.47 L162.246 596.535 Z" fill="#000000" fill-rule="evenodd" fill-opacity="1" /><path clip-path="url(#clip480)" d="M201.598 568.989 Q197.987 568.989 196.158 572.554 Q194.352 576.095 194.352 583.225 Q194.352 590.331 196.158 593.896 Q197.987 597.438 201.598 597.438 Q205.232 597.438 207.037 593.896 Q208.866 590.331 208.866 583.225 Q208.866 576.095 207.037 572.554 Q205.232 568.989 201.598 568.989 M201.598 565.285 Q207.408 565.285 210.463 569.891 Q213.542 574.475 213.542 583.225 Q213.542 591.952 210.463 596.558 Q207.408 601.141 201.598 601.141 Q195.787 601.141 192.709 596.558 Q189.653 591.952 189.653 583.225 Q189.653 574.475 192.709 569.891 Q195.787 565.285 201.598 565.285 Z" fill="#000000" fill-rule="evenodd" fill-opacity="1" /><path clip-path="url(#clip480)" d="M127.2 168.465 Q123.589 168.465 121.76 172.029 Q119.955 175.571 119.955 182.701 Q119.955 189.807 121.76 193.372 Q123.589 196.914 127.2 196.914 Q130.834 196.914 132.64 193.372 Q134.468 189.807 134.468 182.701 Q134.468 175.571 132.64 172.029 Q130.834 168.465 127.2 168.465 M127.2 164.761 Q133.01 164.761 136.066 169.367 Q139.144 173.951 139.144 182.701 Q139.144 191.427 136.066 196.034 Q133.01 200.617 127.2 200.617 Q121.39 200.617 118.311 196.034 Q115.256 191.427 115.256 182.701 Q115.256 173.951 118.311 169.367 Q121.39 164.761 127.2 164.761 Z" fill="#000000" fill-rule="evenodd" fill-opacity="1" /><path clip-path="url(#clip480)" d="M147.362 194.066 L152.246 194.066 L152.246 199.946 L147.362 199.946 L147.362 194.066 Z" fill="#000000" fill-rule="evenodd" fill-opacity="1" /><path clip-path="url(#clip480)" d="M163.241 196.011 L170.88 196.011 L170.88 169.645 L162.57 171.312 L162.57 167.053 L170.834 165.386 L175.51 165.386 L175.51 196.011 L183.149 196.011 L183.149 199.946 L163.241 199.946 L163.241 196.011 Z" fill="#000000" fill-rule="evenodd" fill-opacity="1" /><path clip-path="url(#clip480)" d="M192.639 165.386 L210.996 165.386 L210.996 169.321 L196.922 169.321 L196.922 177.793 Q197.94 177.446 198.959 177.284 Q199.977 177.099 200.996 177.099 Q206.783 177.099 210.162 180.27 Q213.542 183.441 213.542 188.858 Q213.542 194.437 210.07 197.539 Q206.598 200.617 200.278 200.617 Q198.102 200.617 195.834 200.247 Q193.588 199.876 191.181 199.136 L191.181 194.437 Q193.264 195.571 195.487 196.126 Q197.709 196.682 200.186 196.682 Q204.19 196.682 206.528 194.576 Q208.866 192.469 208.866 188.858 Q208.866 185.247 206.528 183.14 Q204.19 181.034 200.186 181.034 Q198.311 181.034 196.436 181.451 Q194.584 181.867 192.639 182.747 L192.639 165.386 Z" fill="#000000" fill-rule="evenodd" fill-opacity="1" /><path clip-path="url(#clip480)" d="M16.4842 1052.96 L16.4842 1025.65 L21.895 1025.65 L21.895 1046.53 L35.8996 1046.53 L35.8996 1027.68 L41.3104 1027.68 L41.3104 1046.53 L64.0042 1046.53 L64.0042 1052.96 L16.4842 1052.96 Z" fill="#000000" fill-rule="evenodd" fill-opacity="1" /><path clip-path="url(#clip480)" d="M32.4621 1004.23 Q32.4621 1008.94 36.1542 1011.67 Q39.8145 1014.41 46.212 1014.41 Q52.6095 1014.41 56.3017 1011.71 Q59.9619 1008.97 59.9619 1004.23 Q59.9619 999.548 56.2698 996.811 Q52.5777 994.073 46.212 994.073 Q39.8781 994.073 36.186 996.811 Q32.4621 999.548 32.4621 1004.23 M27.4968 1004.23 Q27.4968 996.588 32.4621 992.227 Q37.4273 987.867 46.212 987.867 Q54.9649 987.867 59.9619 992.227 Q64.9272 996.588 64.9272 1004.23 Q64.9272 1011.9 59.9619 1016.26 Q54.9649 1020.59 46.212 1020.59 Q37.4273 1020.59 32.4621 1016.26 Q27.4968 1011.9 27.4968 1004.23 Z" fill="#000000" fill-rule="evenodd" fill-opacity="1" /><path clip-path="url(#clip480)" d="M33.8307 957.502 Q33.2578 958.489 33.0032 959.667 Q32.7167 960.813 32.7167 962.213 Q32.7167 967.178 35.9632 969.852 Q39.1779 972.494 45.2253 972.494 L64.0042 972.494 L64.0042 978.382 L28.3562 978.382 L28.3562 972.494 L33.8944 972.494 Q30.6479 970.648 29.0883 967.688 Q27.4968 964.728 27.4968 960.494 Q27.4968 959.89 27.5923 959.158 Q27.656 958.425 27.8151 957.534 L33.8307 957.502 Z" fill="#000000" fill-rule="evenodd" fill-opacity="1" /><path clip-path="url(#clip480)" d="M29.7248 927.138 L35.1993 927.138 Q33.8307 929.621 33.1623 932.135 Q32.4621 934.618 32.4621 937.164 Q32.4621 942.861 36.0905 946.012 Q39.6872 949.163 46.212 949.163 Q52.7369 949.163 56.3653 946.012 Q59.9619 942.861 59.9619 937.164 Q59.9619 934.618 59.2935 932.135 Q58.5933 929.621 57.2247 927.138 L62.6355 927.138 Q63.7814 929.589 64.3543 932.231 Q64.9272 934.841 64.9272 937.801 Q64.9272 945.853 59.8664 950.596 Q54.8057 955.338 46.212 955.338 Q37.491 955.338 32.4939 950.564 Q27.4968 945.758 27.4968 937.419 Q27.4968 934.713 28.0697 932.135 Q28.6108 929.557 29.7248 927.138 Z" fill="#000000" fill-rule="evenodd" fill-opacity="1" /><path clip-path="url(#clip480)" d="M44.7161 886.461 L47.5806 886.461 L47.5806 913.388 Q53.6281 913.006 56.8109 909.76 Q59.9619 906.481 59.9619 900.657 Q59.9619 897.283 59.1344 894.132 Q58.3069 890.949 56.6518 887.83 L62.1899 887.83 Q63.5267 890.981 64.227 894.291 Q64.9272 897.601 64.9272 901.007 Q64.9272 909.537 59.9619 914.534 Q54.9967 919.499 46.5303 919.499 Q37.7774 919.499 32.6531 914.789 Q27.4968 910.046 27.4968 902.025 Q27.4968 894.832 32.1438 890.663 Q36.7589 886.461 44.7161 886.461 M42.9973 892.318 Q38.1912 892.381 35.3266 895.023 Q32.4621 897.633 32.4621 901.962 Q32.4621 906.863 35.2312 909.823 Q38.0002 912.752 43.0292 913.197 L42.9973 892.318 Z" fill="#000000" fill-rule="evenodd" fill-opacity="1" /><path clip-path="url(#clip480)" d="M32.4621 842.315 Q32.4621 847.026 36.1542 849.763 Q39.8145 852.5 46.212 852.5 Q52.6095 852.5 56.3017 849.795 Q59.9619 847.057 59.9619 842.315 Q59.9619 837.636 56.2698 834.899 Q52.5777 832.162 46.212 832.162 Q39.8781 832.162 36.186 834.899 Q32.4621 837.636 32.4621 842.315 M27.4968 842.315 Q27.4968 834.676 32.4621 830.316 Q37.4273 825.955 46.212 825.955 Q54.9649 825.955 59.9619 830.316 Q64.9272 834.676 64.9272 842.315 Q64.9272 849.986 59.9619 854.346 Q54.9649 858.675 46.212 858.675 Q37.4273 858.675 32.4621 854.346 Q27.4968 849.986 27.4968 842.315 Z" fill="#000000" fill-rule="evenodd" fill-opacity="1" /><path clip-path="url(#clip480)" d="M14.479 798.201 L19.3487 798.201 L19.3487 803.802 Q19.3487 806.953 20.6219 808.195 Q21.895 809.404 25.2052 809.404 L28.3562 809.404 L28.3562 799.76 L32.9077 799.76 L32.9077 809.404 L64.0042 809.404 L64.0042 815.293 L32.9077 815.293 L32.9077 820.894 L28.3562 820.894 L28.3562 815.293 L25.8736 815.293 Q19.9216 815.293 17.2162 812.523 Q14.479 809.754 14.479 803.739 L14.479 798.201 Z" fill="#000000" fill-rule="evenodd" fill-opacity="1" /><path clip-path="url(#clip480)" d="M28.3562 772.579 L28.3562 766.722 L64.0042 766.722 L64.0042 772.579 L28.3562 772.579 M14.479 772.579 L14.479 766.722 L21.895 766.722 L21.895 772.579 L14.479 772.579 Z" fill="#000000" fill-rule="evenodd" fill-opacity="1" /><path clip-path="url(#clip480)" d="M42.4881 724.836 L64.0042 724.836 L64.0042 730.692 L42.679 730.692 Q37.6183 730.692 35.1038 732.666 Q32.5894 734.639 32.5894 738.586 Q32.5894 743.328 35.6131 746.065 Q38.6368 748.803 43.8567 748.803 L64.0042 748.803 L64.0042 754.691 L28.3562 754.691 L28.3562 748.803 L33.8944 748.803 Q30.6797 746.702 29.0883 743.869 Q27.4968 741.005 27.4968 737.281 Q27.4968 731.138 31.3163 727.987 Q35.1038 724.836 42.4881 724.836 Z" fill="#000000" fill-rule="evenodd" fill-opacity="1" /><path clip-path="url(#clip480)" d="M14.479 695.108 L19.3487 695.108 L19.3487 700.71 Q19.3487 703.861 20.6219 705.102 Q21.895 706.312 25.2052 706.312 L28.3562 706.312 L28.3562 696.668 L32.9077 696.668 L32.9077 706.312 L64.0042 706.312 L64.0042 712.2 L32.9077 712.2 L32.9077 717.802 L28.3562 717.802 L28.3562 712.2 L25.8736 712.2 Q19.9216 712.2 17.2162 709.431 Q14.479 706.662 14.479 700.646 L14.479 695.108 Z" fill="#000000" fill-rule="evenodd" fill-opacity="1" /><path clip-path="url(#clip480)" d="M44.7161 659.715 L47.5806 659.715 L47.5806 686.642 Q53.6281 686.26 56.8109 683.013 Q59.9619 679.735 59.9619 673.91 Q59.9619 670.536 59.1344 667.385 Q58.3069 664.203 56.6518 661.083 L62.1899 661.083 Q63.5267 664.234 64.227 667.545 Q64.9272 670.855 64.9272 674.26 Q64.9272 682.79 59.9619 687.787 Q54.9967 692.753 46.5303 692.753 Q37.7774 692.753 32.6531 688.042 Q27.4968 683.3 27.4968 675.279 Q27.4968 668.086 32.1438 663.916 Q36.7589 659.715 44.7161 659.715 M42.9973 665.571 Q38.1912 665.635 35.3266 668.277 Q32.4621 670.887 32.4621 675.215 Q32.4621 680.117 35.2312 683.077 Q38.0002 686.005 43.0292 686.451 L42.9973 665.571 Z" fill="#000000" fill-rule="evenodd" fill-opacity="1" /><path clip-path="url(#clip480)" d="M29.7248 624.449 L35.1993 624.449 Q33.8307 626.931 33.1623 629.446 Q32.4621 631.928 32.4621 634.475 Q32.4621 640.172 36.0905 643.323 Q39.6872 646.474 46.212 646.474 Q52.7369 646.474 56.3653 643.323 Q59.9619 640.172 59.9619 634.475 Q59.9619 631.928 59.2935 629.446 Q58.5933 626.931 57.2247 624.449 L62.6355 624.449 Q63.7814 626.899 64.3543 629.541 Q64.9272 632.151 64.9272 635.111 Q64.9272 643.164 59.8664 647.906 Q54.8057 652.649 46.212 652.649 Q37.491 652.649 32.4939 647.874 Q27.4968 643.068 27.4968 634.729 Q27.4968 632.024 28.0697 629.446 Q28.6108 626.868 29.7248 624.449 Z" fill="#000000" fill-rule="evenodd" fill-opacity="1" /><path clip-path="url(#clip480)" d="M18.2347 608.471 L28.3562 608.471 L28.3562 596.408 L32.9077 596.408 L32.9077 608.471 L52.2594 608.471 Q56.6199 608.471 57.8613 607.293 Q59.1026 606.084 59.1026 602.423 L59.1026 596.408 L64.0042 596.408 L64.0042 602.423 Q64.0042 609.203 61.4897 611.781 Q58.9434 614.359 52.2594 614.359 L32.9077 614.359 L32.9077 618.656 L28.3562 618.656 L28.3562 614.359 L18.2347 614.359 L18.2347 608.471 Z" fill="#000000" fill-rule="evenodd" fill-opacity="1" /><path clip-path="url(#clip480)" d="M28.3562 588.705 L28.3562 582.849 L64.0042 582.849 L64.0042 588.705 L28.3562 588.705 M14.479 588.705 L14.479 582.849 L21.895 582.849 L21.895 588.705 L14.479 588.705 Z" fill="#000000" fill-rule="evenodd" fill-opacity="1" /><path clip-path="url(#clip480)" d="M32.4621 556.781 Q32.4621 561.492 36.1542 564.229 Q39.8145 566.966 46.212 566.966 Q52.6095 566.966 56.3017 564.261 Q59.9619 561.524 59.9619 556.781 Q59.9619 552.102 56.2698 549.365 Q52.5777 546.628 46.212 546.628 Q39.8781 546.628 36.186 549.365 Q32.4621 552.102 32.4621 556.781 M27.4968 556.781 Q27.4968 549.142 32.4621 544.782 Q37.4273 540.421 46.212 540.421 Q54.9649 540.421 59.9619 544.782 Q64.9272 549.142 64.9272 556.781 Q64.9272 564.452 59.9619 568.812 Q54.9649 573.141 46.212 573.141 Q37.4273 573.141 32.4621 568.812 Q27.4968 564.452 27.4968 556.781 Z" fill="#000000" fill-rule="evenodd" fill-opacity="1" /><path clip-path="url(#clip480)" d="M42.4881 501.081 L64.0042 501.081 L64.0042 506.938 L42.679 506.938 Q37.6183 506.938 35.1038 508.911 Q32.5894 510.884 32.5894 514.831 Q32.5894 519.574 35.6131 522.311 Q38.6368 525.048 43.8567 525.048 L64.0042 525.048 L64.0042 530.936 L28.3562 530.936 L28.3562 525.048 L33.8944 525.048 Q30.6797 522.947 29.0883 520.115 Q27.4968 517.25 27.4968 513.526 Q27.4968 507.383 31.3163 504.232 Q35.1038 501.081 42.4881 501.081 Z" fill="#000000" fill-rule="evenodd" fill-opacity="1" /><path clip-path="url(#clip480)" d="M55.9197 487.904 L55.9197 481.188 L61.3942 481.188 L71.5793 486.408 L71.5793 490.514 L61.3942 487.904 L55.9197 487.904 Z" fill="#000000" fill-rule="evenodd" fill-opacity="1" /><path clip-path="url(#clip480)" d="M20.049 433.923 L64.0042 417.468 L64.0042 423.674 L37.6501 433.668 L64.0042 445.954 L64.0042 452.161 L29.8203 436.533 L23.5183 438.888 Q19.5079 440.384 19.5079 443.79 L19.5079 446.845 L14.479 446.845 L14.5426 443.122 Q14.6381 435.928 20.049 433.923 Z" fill="#000000" fill-rule="evenodd" fill-opacity="1" /><circle clip-path="url(#clip482)" cx="309.067" cy="1384.24" r="14.4" fill="#009af9" fill-rule="evenodd" fill-opacity="1" stroke="#000000" stroke-opacity="1" stroke-width="3.2"/>
<circle clip-path="url(#clip482)" cx="348.75" cy="1346.32" r="14.4" fill="#009af9" fill-rule="evenodd" fill-opacity="1" stroke="#000000" stroke-opacity="1" stroke-width="3.2"/>
<circle clip-path="url(#clip482)" cx="388.434" cy="1306.01" r="14.4" fill="#009af9" fill-rule="evenodd" fill-opacity="1" stroke="#000000" stroke-opacity="1" stroke-width="3.2"/>
<circle clip-path="url(#clip482)" cx="428.117" cy="1265.7" r="14.4" fill="#009af9" fill-rule="evenodd" fill-opacity="1" stroke="#000000" stroke-opacity="1" stroke-width="3.2"/>
<circle clip-path="url(#clip482)" cx="467.8" cy="1225.39" r="14.4" fill="#009af9" fill-rule="evenodd" fill-opacity="1" stroke="#000000" stroke-opacity="1" stroke-width="3.2"/>
<circle clip-path="url(#clip482)" cx="507.483" cy="1185.08" r="14.4" fill="#009af9" fill-rule="evenodd" fill-opacity="1" stroke="#000000" stroke-opacity="1" stroke-width="3.2"/>
<circle clip-path="url(#clip482)" cx="547.167" cy="1144.77" r="14.4" fill="#009af9" fill-rule="evenodd" fill-opacity="1" stroke="#000000" stroke-opacity="1" stroke-width="3.2"/>
<circle clip-path="url(#clip482)" cx="586.85" cy="1104.46" r="14.4" fill="#009af9" fill-rule="evenodd" fill-opacity="1" stroke="#000000" stroke-opacity="1" stroke-width="3.2"/>
<circle clip-path="url(#clip482)" cx="626.533" cy="1064.15" r="14.4" fill="#009af9" fill-rule="evenodd" fill-opacity="1" stroke="#000000" stroke-opacity="1" stroke-width="3.2"/>
<circle clip-path="url(#clip482)" cx="666.216" cy="1023.84" r="14.4" fill="#009af9" fill-rule="evenodd" fill-opacity="1" stroke="#000000" stroke-opacity="1" stroke-width="3.2"/>
<circle clip-path="url(#clip482)" cx="705.9" cy="983.527" r="14.4" fill="#009af9" fill-rule="evenodd" fill-opacity="1" stroke="#000000" stroke-opacity="1" stroke-width="3.2"/>
<circle clip-path="url(#clip482)" cx="745.583" cy="943.217" r="14.4" fill="#009af9" fill-rule="evenodd" fill-opacity="1" stroke="#000000" stroke-opacity="1" stroke-width="3.2"/>
<circle clip-path="url(#clip482)" cx="785.266" cy="902.907" r="14.4" fill="#009af9" fill-rule="evenodd" fill-opacity="1" stroke="#000000" stroke-opacity="1" stroke-width="3.2"/>
<circle clip-path="url(#clip482)" cx="824.95" cy="862.597" r="14.4" fill="#009af9" fill-rule="evenodd" fill-opacity="1" stroke="#000000" stroke-opacity="1" stroke-width="3.2"/>
<circle clip-path="url(#clip482)" cx="864.633" cy="822.287" r="14.4" fill="#009af9" fill-rule="evenodd" fill-opacity="1" stroke="#000000" stroke-opacity="1" stroke-width="3.2"/>
<circle clip-path="url(#clip482)" cx="904.316" cy="781.977" r="14.4" fill="#009af9" fill-rule="evenodd" fill-opacity="1" stroke="#000000" stroke-opacity="1" stroke-width="3.2"/>
<circle clip-path="url(#clip482)" cx="943.999" cy="741.666" r="14.4" fill="#009af9" fill-rule="evenodd" fill-opacity="1" stroke="#000000" stroke-opacity="1" stroke-width="3.2"/>
<circle clip-path="url(#clip482)" cx="983.683" cy="701.356" r="14.4" fill="#009af9" fill-rule="evenodd" fill-opacity="1" stroke="#000000" stroke-opacity="1" stroke-width="3.2"/>
<circle clip-path="url(#clip482)" cx="1023.37" cy="661.046" r="14.4" fill="#009af9" fill-rule="evenodd" fill-opacity="1" stroke="#000000" stroke-opacity="1" stroke-width="3.2"/>
<circle clip-path="url(#clip482)" cx="1063.05" cy="620.736" r="14.4" fill="#009af9" fill-rule="evenodd" fill-opacity="1" stroke="#000000" stroke-opacity="1" stroke-width="3.2"/>
<circle clip-path="url(#clip482)" cx="1102.73" cy="580.426" r="14.4" fill="#009af9" fill-rule="evenodd" fill-opacity="1" stroke="#000000" stroke-opacity="1" stroke-width="3.2"/>
<circle clip-path="url(#clip482)" cx="1142.42" cy="540.116" r="14.4" fill="#009af9" fill-rule="evenodd" fill-opacity="1" stroke="#000000" stroke-opacity="1" stroke-width="3.2"/>
<circle clip-path="url(#clip482)" cx="1182.1" cy="499.806" r="14.4" fill="#009af9" fill-rule="evenodd" fill-opacity="1" stroke="#000000" stroke-opacity="1" stroke-width="3.2"/>
<circle clip-path="url(#clip482)" cx="1221.78" cy="459.496" r="14.4" fill="#009af9" fill-rule="evenodd" fill-opacity="1" stroke="#000000" stroke-opacity="1" stroke-width="3.2"/>
<circle clip-path="url(#clip482)" cx="1261.47" cy="419.186" r="14.4" fill="#009af9" fill-rule="evenodd" fill-opacity="1" stroke="#000000" stroke-opacity="1" stroke-width="3.2"/>
<circle clip-path="url(#clip482)" cx="1301.15" cy="380.881" r="14.4" fill="#009af9" fill-rule="evenodd" fill-opacity="1" stroke="#000000" stroke-opacity="1" stroke-width="3.2"/>
<circle clip-path="url(#clip482)" cx="1340.83" cy="369.094" r="14.4" fill="#009af9" fill-rule="evenodd" fill-opacity="1" stroke="#000000" stroke-opacity="1" stroke-width="3.2"/>
<circle clip-path="url(#clip482)" cx="1380.52" cy="357.306" r="14.4" fill="#009af9" fill-rule="evenodd" fill-opacity="1" stroke="#000000" stroke-opacity="1" stroke-width="3.2"/>
<circle clip-path="url(#clip482)" cx="1420.2" cy="345.518" r="14.4" fill="#009af9" fill-rule="evenodd" fill-opacity="1" stroke="#000000" stroke-opacity="1" stroke-width="3.2"/>
<circle clip-path="url(#clip482)" cx="1459.88" cy="333.73" r="14.4" fill="#009af9" fill-rule="evenodd" fill-opacity="1" stroke="#000000" stroke-opacity="1" stroke-width="3.2"/>
<circle clip-path="url(#clip482)" cx="1499.57" cy="321.942" r="14.4" fill="#009af9" fill-rule="evenodd" fill-opacity="1" stroke="#000000" stroke-opacity="1" stroke-width="3.2"/>
<circle clip-path="url(#clip482)" cx="1539.25" cy="310.154" r="14.4" fill="#009af9" fill-rule="evenodd" fill-opacity="1" stroke="#000000" stroke-opacity="1" stroke-width="3.2"/>
<circle clip-path="url(#clip482)" cx="1578.93" cy="298.367" r="14.4" fill="#009af9" fill-rule="evenodd" fill-opacity="1" stroke="#000000" stroke-opacity="1" stroke-width="3.2"/>
<circle clip-path="url(#clip482)" cx="1618.62" cy="286.579" r="14.4" fill="#009af9" fill-rule="evenodd" fill-opacity="1" stroke="#000000" stroke-opacity="1" stroke-width="3.2"/>
<circle clip-path="url(#clip482)" cx="1658.3" cy="274.791" r="14.4" fill="#009af9" fill-rule="evenodd" fill-opacity="1" stroke="#000000" stroke-opacity="1" stroke-width="3.2"/>
<circle clip-path="url(#clip482)" cx="1697.98" cy="263.003" r="14.4" fill="#009af9" fill-rule="evenodd" fill-opacity="1" stroke="#000000" stroke-opacity="1" stroke-width="3.2"/>
<circle clip-path="url(#clip482)" cx="1737.67" cy="251.215" r="14.4" fill="#009af9" fill-rule="evenodd" fill-opacity="1" stroke="#000000" stroke-opacity="1" stroke-width="3.2"/>
<circle clip-path="url(#clip482)" cx="1777.35" cy="239.427" r="14.4" fill="#009af9" fill-rule="evenodd" fill-opacity="1" stroke="#000000" stroke-opacity="1" stroke-width="3.2"/>
<circle clip-path="url(#clip482)" cx="1817.03" cy="227.64" r="14.4" fill="#009af9" fill-rule="evenodd" fill-opacity="1" stroke="#000000" stroke-opacity="1" stroke-width="3.2"/>
<circle clip-path="url(#clip482)" cx="1856.71" cy="215.852" r="14.4" fill="#009af9" fill-rule="evenodd" fill-opacity="1" stroke="#000000" stroke-opacity="1" stroke-width="3.2"/>
<circle clip-path="url(#clip482)" cx="1896.4" cy="204.064" r="14.4" fill="#009af9" fill-rule="evenodd" fill-opacity="1" stroke="#000000" stroke-opacity="1" stroke-width="3.2"/>
<circle clip-path="url(#clip482)" cx="1936.08" cy="192.276" r="14.4" fill="#009af9" fill-rule="evenodd" fill-opacity="1" stroke="#000000" stroke-opacity="1" stroke-width="3.2"/>
<circle clip-path="url(#clip482)" cx="1975.76" cy="180.488" r="14.4" fill="#009af9" fill-rule="evenodd" fill-opacity="1" stroke="#000000" stroke-opacity="1" stroke-width="3.2"/>
<circle clip-path="url(#clip482)" cx="2015.45" cy="168.7" r="14.4" fill="#009af9" fill-rule="evenodd" fill-opacity="1" stroke="#000000" stroke-opacity="1" stroke-width="3.2"/>
<circle clip-path="url(#clip482)" cx="2055.13" cy="156.913" r="14.4" fill="#009af9" fill-rule="evenodd" fill-opacity="1" stroke="#000000" stroke-opacity="1" stroke-width="3.2"/>
<circle clip-path="url(#clip482)" cx="2094.81" cy="145.125" r="14.4" fill="#009af9" fill-rule="evenodd" fill-opacity="1" stroke="#000000" stroke-opacity="1" stroke-width="3.2"/>
<circle clip-path="url(#clip482)" cx="2134.5" cy="133.337" r="14.4" fill="#009af9" fill-rule="evenodd" fill-opacity="1" stroke="#000000" stroke-opacity="1" stroke-width="3.2"/>
<circle clip-path="url(#clip482)" cx="2174.18" cy="121.549" r="14.4" fill="#009af9" fill-rule="evenodd" fill-opacity="1" stroke="#000000" stroke-opacity="1" stroke-width="3.2"/>
<circle clip-path="url(#clip482)" cx="2213.86" cy="109.761" r="14.4" fill="#009af9" fill-rule="evenodd" fill-opacity="1" stroke="#000000" stroke-opacity="1" stroke-width="3.2"/>
<circle clip-path="url(#clip482)" cx="2253.55" cy="97.9735" r="14.4" fill="#009af9" fill-rule="evenodd" fill-opacity="1" stroke="#000000" stroke-opacity="1" stroke-width="3.2"/>
<circle clip-path="url(#clip482)" cx="2293.23" cy="86.1857" r="14.4" fill="#009af9" fill-rule="evenodd" fill-opacity="1" stroke="#000000" stroke-opacity="1" stroke-width="3.2"/>
<polyline clip-path="url(#clip482)" style="stroke:#e26f46; stroke-linecap:round; stroke-linejoin:round; stroke-width:4; stroke-opacity:1; fill:none" points="
  -1092.77,2799.12 2996.99,-1328.69 
  "/>
<polyline clip-path="url(#clip482)" style="stroke:#3da44d; stroke-linecap:round; stroke-linejoin:round; stroke-width:4; stroke-opacity:1; fill:none" points="
  936.405,2799.12 936.405,-1328.69 
  "/>
<path clip-path="url(#clip480)" d="
M1368.15 300.469 L2282.65 300.469 L2282.65 93.1086 L1368.15 93.1086  Z
  " fill="#ffffff" fill-rule="evenodd" fill-opacity="1"/>
<polyline clip-path="url(#clip480)" style="stroke:#000000; stroke-linecap:round; stroke-linejoin:round; stroke-width:4; stroke-opacity:1; fill:none" points="
  1368.15,300.469 2282.65,300.469 2282.65,93.1086 1368.15,93.1086 1368.15,300.469 
  "/>
<circle clip-path="url(#clip480)" cx="1461.63" cy="144.949" r="23.04" fill="#009af9" fill-rule="evenodd" fill-opacity="1" stroke="#000000" stroke-opacity="1" stroke-width="5.12"/>
<path clip-path="url(#clip480)" d="M1555.1 127.669 L1561.4 127.669 L1576.72 156.581 L1576.72 127.669 L1581.26 127.669 L1581.26 162.229 L1574.97 162.229 L1559.64 133.317 L1559.64 162.229 L1555.1 162.229 L1555.1 127.669 Z" fill="#000000" fill-rule="evenodd" fill-opacity="1" /><path clip-path="url(#clip480)" d="M1612.56 148.201 L1612.56 150.284 L1592.97 150.284 Q1593.25 154.682 1595.61 156.997 Q1598 159.289 1602.23 159.289 Q1604.69 159.289 1606.98 158.687 Q1609.29 158.085 1611.56 156.881 L1611.56 160.909 Q1609.27 161.881 1606.86 162.391 Q1604.46 162.9 1601.98 162.9 Q1595.78 162.9 1592.14 159.289 Q1588.53 155.678 1588.53 149.52 Q1588.53 143.155 1591.96 139.428 Q1595.4 135.678 1601.24 135.678 Q1606.47 135.678 1609.5 139.057 Q1612.56 142.414 1612.56 148.201 M1608.3 146.951 Q1608.25 143.456 1606.33 141.372 Q1604.43 139.289 1601.28 139.289 Q1597.72 139.289 1595.57 141.303 Q1593.44 143.317 1593.11 146.974 L1608.3 146.951 Z" fill="#000000" fill-rule="evenodd" fill-opacity="1" /><path clip-path="url(#clip480)" d="M1619.11 151.997 L1619.11 136.303 L1623.37 136.303 L1623.37 151.835 Q1623.37 155.516 1624.8 157.368 Q1626.24 159.196 1629.11 159.196 Q1632.56 159.196 1634.55 156.997 Q1636.56 154.798 1636.56 151.002 L1636.56 136.303 L1640.82 136.303 L1640.82 162.229 L1636.56 162.229 L1636.56 158.247 Q1635.01 160.608 1632.95 161.766 Q1630.91 162.9 1628.21 162.9 Q1623.74 162.9 1621.42 160.122 Q1619.11 157.344 1619.11 151.997 M1629.83 135.678 L1629.83 135.678 Z" fill="#000000" fill-rule="evenodd" fill-opacity="1" /><path clip-path="url(#clip480)" d="M1664.62 140.284 Q1663.9 139.868 1663.04 139.682 Q1662.21 139.474 1661.19 139.474 Q1657.58 139.474 1655.64 141.835 Q1653.71 144.173 1653.71 148.571 L1653.71 162.229 L1649.43 162.229 L1649.43 136.303 L1653.71 136.303 L1653.71 140.331 Q1655.06 137.969 1657.21 136.835 Q1659.36 135.678 1662.44 135.678 Q1662.88 135.678 1663.41 135.747 Q1663.95 135.794 1664.59 135.909 L1664.62 140.284 Z" fill="#000000" fill-rule="evenodd" fill-opacity="1" /><path clip-path="url(#clip480)" d="M1680.87 149.196 Q1675.71 149.196 1673.71 150.377 Q1671.72 151.557 1671.72 154.405 Q1671.72 156.673 1673.21 158.016 Q1674.71 159.335 1677.28 159.335 Q1680.82 159.335 1682.95 156.835 Q1685.1 154.312 1685.1 150.145 L1685.1 149.196 L1680.87 149.196 M1689.36 147.437 L1689.36 162.229 L1685.1 162.229 L1685.1 158.293 Q1683.65 160.655 1681.47 161.789 Q1679.29 162.9 1676.15 162.9 Q1672.16 162.9 1669.8 160.678 Q1667.46 158.432 1667.46 154.682 Q1667.46 150.307 1670.38 148.085 Q1673.32 145.863 1679.13 145.863 L1685.1 145.863 L1685.1 145.446 Q1685.1 142.507 1683.16 140.909 Q1681.24 139.289 1677.74 139.289 Q1675.52 139.289 1673.41 139.821 Q1671.31 140.354 1669.36 141.419 L1669.36 137.483 Q1671.7 136.581 1673.9 136.141 Q1676.1 135.678 1678.18 135.678 Q1683.81 135.678 1686.58 138.594 Q1689.36 141.511 1689.36 147.437 Z" fill="#000000" fill-rule="evenodd" fill-opacity="1" /><path clip-path="url(#clip480)" d="M1698.14 126.21 L1702.4 126.21 L1702.4 162.229 L1698.14 162.229 L1698.14 126.21 Z" fill="#000000" fill-rule="evenodd" fill-opacity="1" /><path clip-path="url(#clip480)" d="M1747.93 146.581 L1747.93 162.229 L1743.67 162.229 L1743.67 146.719 Q1743.67 143.039 1742.23 141.21 Q1740.8 139.382 1737.93 139.382 Q1734.48 139.382 1732.49 141.581 Q1730.5 143.78 1730.5 147.576 L1730.5 162.229 L1726.21 162.229 L1726.21 136.303 L1730.5 136.303 L1730.5 140.331 Q1732.02 137.993 1734.08 136.835 Q1736.17 135.678 1738.88 135.678 Q1743.34 135.678 1745.64 138.456 Q1747.93 141.21 1747.93 146.581 Z" fill="#000000" fill-rule="evenodd" fill-opacity="1" /><path clip-path="url(#clip480)" d="M1778.6 148.201 L1778.6 150.284 L1759.02 150.284 Q1759.29 154.682 1761.65 156.997 Q1764.04 159.289 1768.27 159.289 Q1770.73 159.289 1773.02 158.687 Q1775.33 158.085 1777.6 156.881 L1777.6 160.909 Q1775.31 161.881 1772.9 162.391 Q1770.5 162.9 1768.02 162.9 Q1761.82 162.9 1758.18 159.289 Q1754.57 155.678 1754.57 149.52 Q1754.57 143.155 1758 139.428 Q1761.45 135.678 1767.28 135.678 Q1772.51 135.678 1775.54 139.057 Q1778.6 142.414 1778.6 148.201 M1774.34 146.951 Q1774.29 143.456 1772.37 141.372 Q1770.47 139.289 1767.33 139.289 Q1763.76 139.289 1761.61 141.303 Q1759.48 143.317 1759.15 146.974 L1774.34 146.951 Z" fill="#000000" fill-rule="evenodd" fill-opacity="1" /><path clip-path="url(#clip480)" d="M1789.8 128.942 L1789.8 136.303 L1798.58 136.303 L1798.58 139.613 L1789.8 139.613 L1789.8 153.687 Q1789.8 156.858 1790.66 157.761 Q1791.54 158.664 1794.2 158.664 L1798.58 158.664 L1798.58 162.229 L1794.2 162.229 Q1789.27 162.229 1787.39 160.4 Q1785.52 158.548 1785.52 153.687 L1785.52 139.613 L1782.39 139.613 L1782.39 136.303 L1785.52 136.303 L1785.52 128.942 L1789.8 128.942 Z" fill="#000000" fill-rule="evenodd" fill-opacity="1" /><path clip-path="url(#clip480)" d="M1801.7 136.303 L1805.96 136.303 L1811.28 156.534 L1816.58 136.303 L1821.61 136.303 L1826.93 156.534 L1832.23 136.303 L1836.49 136.303 L1829.71 162.229 L1824.69 162.229 L1819.11 140.979 L1813.51 162.229 L1808.48 162.229 L1801.7 136.303 Z" fill="#000000" fill-rule="evenodd" fill-opacity="1" /><path clip-path="url(#clip480)" d="M1853 139.289 Q1849.57 139.289 1847.58 141.974 Q1845.59 144.636 1845.59 149.289 Q1845.59 153.942 1847.56 156.627 Q1849.55 159.289 1853 159.289 Q1856.4 159.289 1858.39 156.604 Q1860.38 153.918 1860.38 149.289 Q1860.38 144.682 1858.39 141.997 Q1856.4 139.289 1853 139.289 M1853 135.678 Q1858.55 135.678 1861.72 139.289 Q1864.89 142.9 1864.89 149.289 Q1864.89 155.655 1861.72 159.289 Q1858.55 162.9 1853 162.9 Q1847.42 162.9 1844.25 159.289 Q1841.1 155.655 1841.1 149.289 Q1841.1 142.9 1844.25 139.289 Q1847.42 135.678 1853 135.678 Z" fill="#000000" fill-rule="evenodd" fill-opacity="1" /><path clip-path="url(#clip480)" d="M1886.98 140.284 Q1886.26 139.868 1885.4 139.682 Q1884.57 139.474 1883.55 139.474 Q1879.94 139.474 1878 141.835 Q1876.07 144.173 1876.07 148.571 L1876.07 162.229 L1871.79 162.229 L1871.79 136.303 L1876.07 136.303 L1876.07 140.331 Q1877.42 137.969 1879.57 136.835 Q1881.72 135.678 1884.8 135.678 Q1885.24 135.678 1885.77 135.747 Q1886.31 135.794 1886.95 135.909 L1886.98 140.284 Z" fill="#000000" fill-rule="evenodd" fill-opacity="1" /><path clip-path="url(#clip480)" d="M1891.28 126.21 L1895.57 126.21 L1895.57 147.483 L1908.27 136.303 L1913.71 136.303 L1899.96 148.432 L1914.29 162.229 L1908.74 162.229 L1895.57 149.567 L1895.57 162.229 L1891.28 162.229 L1891.28 126.21 Z" fill="#000000" fill-rule="evenodd" fill-opacity="1" /><path clip-path="url(#clip480)" d="M1938.09 158.34 L1938.09 172.09 L1933.81 172.09 L1933.81 136.303 L1938.09 136.303 L1938.09 140.238 Q1939.43 137.923 1941.47 136.812 Q1943.53 135.678 1946.38 135.678 Q1951.1 135.678 1954.04 139.428 Q1957 143.178 1957 149.289 Q1957 155.4 1954.04 159.15 Q1951.1 162.9 1946.38 162.9 Q1943.53 162.9 1941.47 161.789 Q1939.43 160.655 1938.09 158.34 M1952.58 149.289 Q1952.58 144.59 1950.63 141.928 Q1948.71 139.243 1945.33 139.243 Q1941.95 139.243 1940.01 141.928 Q1938.09 144.59 1938.09 149.289 Q1938.09 153.988 1940.01 156.673 Q1941.95 159.335 1945.33 159.335 Q1948.71 159.335 1950.63 156.673 Q1952.58 153.988 1952.58 149.289 Z" fill="#000000" fill-rule="evenodd" fill-opacity="1" /><path clip-path="url(#clip480)" d="M1979.08 140.284 Q1978.37 139.868 1977.51 139.682 Q1976.68 139.474 1975.66 139.474 Q1972.05 139.474 1970.1 141.835 Q1968.18 144.173 1968.18 148.571 L1968.18 162.229 L1963.9 162.229 L1963.9 136.303 L1968.18 136.303 L1968.18 140.331 Q1969.52 137.969 1971.68 136.835 Q1973.83 135.678 1976.91 135.678 Q1977.35 135.678 1977.88 135.747 Q1978.41 135.794 1979.06 135.909 L1979.08 140.284 Z" fill="#000000" fill-rule="evenodd" fill-opacity="1" /><path clip-path="url(#clip480)" d="M2004.69 148.201 L2004.69 150.284 L1985.1 150.284 Q1985.38 154.682 1987.74 156.997 Q1990.12 159.289 1994.36 159.289 Q1996.81 159.289 1999.11 158.687 Q2001.42 158.085 2003.69 156.881 L2003.69 160.909 Q2001.4 161.881 1998.99 162.391 Q1996.58 162.9 1994.11 162.9 Q1987.9 162.9 1984.27 159.289 Q1980.66 155.678 1980.66 149.52 Q1980.66 143.155 1984.08 139.428 Q1987.53 135.678 1993.37 135.678 Q1998.6 135.678 2001.63 139.057 Q2004.69 142.414 2004.69 148.201 M2000.43 146.951 Q2000.38 143.456 1998.46 141.372 Q1996.56 139.289 1993.41 139.289 Q1989.85 139.289 1987.69 141.303 Q1985.56 143.317 1985.24 146.974 L2000.43 146.951 Z" fill="#000000" fill-rule="evenodd" fill-opacity="1" /><path clip-path="url(#clip480)" d="M2028.74 140.238 L2028.74 126.21 L2033 126.21 L2033 162.229 L2028.74 162.229 L2028.74 158.34 Q2027.39 160.655 2025.33 161.789 Q2023.3 162.9 2020.43 162.9 Q2015.73 162.9 2012.76 159.15 Q2009.82 155.4 2009.82 149.289 Q2009.82 143.178 2012.76 139.428 Q2015.73 135.678 2020.43 135.678 Q2023.3 135.678 2025.33 136.812 Q2027.39 137.923 2028.74 140.238 M2014.22 149.289 Q2014.22 153.988 2016.14 156.673 Q2018.09 159.335 2021.47 159.335 Q2024.85 159.335 2026.79 156.673 Q2028.74 153.988 2028.74 149.289 Q2028.74 144.59 2026.79 141.928 Q2024.85 139.243 2021.47 139.243 Q2018.09 139.243 2016.14 141.928 Q2014.22 144.59 2014.22 149.289 Z" fill="#000000" fill-rule="evenodd" fill-opacity="1" /><path clip-path="url(#clip480)" d="M2041.77 136.303 L2046.03 136.303 L2046.03 162.229 L2041.77 162.229 L2041.77 136.303 M2041.77 126.21 L2046.03 126.21 L2046.03 131.604 L2041.77 131.604 L2041.77 126.21 Z" fill="#000000" fill-rule="evenodd" fill-opacity="1" /><path clip-path="url(#clip480)" d="M2073.6 137.298 L2073.6 141.28 Q2071.79 140.284 2069.96 139.798 Q2068.16 139.289 2066.31 139.289 Q2062.16 139.289 2059.87 141.928 Q2057.58 144.544 2057.58 149.289 Q2057.58 154.034 2059.87 156.673 Q2062.16 159.289 2066.31 159.289 Q2068.16 159.289 2069.96 158.803 Q2071.79 158.293 2073.6 157.298 L2073.6 161.233 Q2071.81 162.067 2069.89 162.483 Q2067.99 162.9 2065.84 162.9 Q2059.99 162.9 2056.54 159.219 Q2053.09 155.539 2053.09 149.289 Q2053.09 142.946 2056.56 139.312 Q2060.06 135.678 2066.12 135.678 Q2068.09 135.678 2069.96 136.095 Q2071.84 136.488 2073.6 137.298 Z" fill="#000000" fill-rule="evenodd" fill-opacity="1" /><path clip-path="url(#clip480)" d="M2085.22 128.942 L2085.22 136.303 L2093.99 136.303 L2093.99 139.613 L2085.22 139.613 L2085.22 153.687 Q2085.22 156.858 2086.07 157.761 Q2086.95 158.664 2089.62 158.664 L2093.99 158.664 L2093.99 162.229 L2089.62 162.229 Q2084.68 162.229 2082.81 160.4 Q2080.93 158.548 2080.93 153.687 L2080.93 139.613 L2077.81 139.613 L2077.81 136.303 L2080.93 136.303 L2080.93 128.942 L2085.22 128.942 Z" fill="#000000" fill-rule="evenodd" fill-opacity="1" /><path clip-path="url(#clip480)" d="M2099.59 136.303 L2103.85 136.303 L2103.85 162.229 L2099.59 162.229 L2099.59 136.303 M2099.59 126.21 L2103.85 126.21 L2103.85 131.604 L2099.59 131.604 L2099.59 126.21 Z" fill="#000000" fill-rule="evenodd" fill-opacity="1" /><path clip-path="url(#clip480)" d="M2122.81 139.289 Q2119.38 139.289 2117.39 141.974 Q2115.4 144.636 2115.4 149.289 Q2115.4 153.942 2117.37 156.627 Q2119.36 159.289 2122.81 159.289 Q2126.21 159.289 2128.2 156.604 Q2130.19 153.918 2130.19 149.289 Q2130.19 144.682 2128.2 141.997 Q2126.21 139.289 2122.81 139.289 M2122.81 135.678 Q2128.36 135.678 2131.54 139.289 Q2134.71 142.9 2134.71 149.289 Q2134.71 155.655 2131.54 159.289 Q2128.36 162.9 2122.81 162.9 Q2117.23 162.9 2114.06 159.289 Q2110.91 155.655 2110.91 149.289 Q2110.91 142.9 2114.06 139.289 Q2117.23 135.678 2122.81 135.678 Z" fill="#000000" fill-rule="evenodd" fill-opacity="1" /><path clip-path="url(#clip480)" d="M2163.32 146.581 L2163.32 162.229 L2159.06 162.229 L2159.06 146.719 Q2159.06 143.039 2157.62 141.21 Q2156.19 139.382 2153.32 139.382 Q2149.87 139.382 2147.88 141.581 Q2145.89 143.78 2145.89 147.576 L2145.89 162.229 L2141.61 162.229 L2141.61 136.303 L2145.89 136.303 L2145.89 140.331 Q2147.42 137.993 2149.48 136.835 Q2151.56 135.678 2154.27 135.678 Q2158.74 135.678 2161.03 138.456 Q2163.32 141.21 2163.32 146.581 Z" fill="#000000" fill-rule="evenodd" fill-opacity="1" /><polyline clip-path="url(#clip480)" style="stroke:#e26f46; stroke-linecap:round; stroke-linejoin:round; stroke-width:4; stroke-opacity:1; fill:none" points="
  1391.52,196.789 1531.74,196.789 
  "/>
<path clip-path="url(#clip480)" d="M1555.1 179.509 L1584.34 179.509 L1584.34 183.444 L1572.07 183.444 L1572.07 214.069 L1567.37 214.069 L1567.37 183.444 L1555.1 183.444 L1555.1 179.509 Z" fill="#000000" fill-rule="evenodd" fill-opacity="1" /><path clip-path="url(#clip480)" d="M1596.72 192.124 Q1596.01 191.708 1595.15 191.522 Q1594.32 191.314 1593.3 191.314 Q1589.69 191.314 1587.74 193.675 Q1585.82 196.013 1585.82 200.411 L1585.82 214.069 L1581.54 214.069 L1581.54 188.143 L1585.82 188.143 L1585.82 192.171 Q1587.16 189.809 1589.32 188.675 Q1591.47 187.518 1594.55 187.518 Q1594.99 187.518 1595.52 187.587 Q1596.05 187.634 1596.7 187.749 L1596.72 192.124 Z" fill="#000000" fill-rule="evenodd" fill-opacity="1" /><path clip-path="url(#clip480)" d="M1600.75 203.837 L1600.75 188.143 L1605.01 188.143 L1605.01 203.675 Q1605.01 207.356 1606.45 209.208 Q1607.88 211.036 1610.75 211.036 Q1614.2 211.036 1616.19 208.837 Q1618.21 206.638 1618.21 202.842 L1618.21 188.143 L1622.46 188.143 L1622.46 214.069 L1618.21 214.069 L1618.21 210.087 Q1616.65 212.448 1614.59 213.606 Q1612.56 214.74 1609.85 214.74 Q1605.38 214.74 1603.07 211.962 Q1600.75 209.184 1600.75 203.837 M1611.47 187.518 L1611.47 187.518 Z" fill="#000000" fill-rule="evenodd" fill-opacity="1" /><path clip-path="url(#clip480)" d="M1653.41 200.041 L1653.41 202.124 L1633.83 202.124 Q1634.11 206.522 1636.47 208.837 Q1638.85 211.129 1643.09 211.129 Q1645.54 211.129 1647.84 210.527 Q1650.15 209.925 1652.42 208.721 L1652.42 212.749 Q1650.13 213.721 1647.72 214.231 Q1645.31 214.74 1642.84 214.74 Q1636.63 214.74 1633 211.129 Q1629.39 207.518 1629.39 201.36 Q1629.39 194.995 1632.81 191.268 Q1636.26 187.518 1642.09 187.518 Q1647.33 187.518 1650.36 190.897 Q1653.41 194.254 1653.41 200.041 M1649.15 198.791 Q1649.11 195.296 1647.19 193.212 Q1645.29 191.129 1642.14 191.129 Q1638.58 191.129 1636.42 193.143 Q1634.29 195.157 1633.97 198.814 L1649.15 198.791 Z" fill="#000000" fill-rule="evenodd" fill-opacity="1" /><path clip-path="url(#clip480)" d="M1672.42 188.143 L1676.93 188.143 L1685.03 209.902 L1693.14 188.143 L1697.65 188.143 L1687.93 214.069 L1682.14 214.069 L1672.42 188.143 Z" fill="#000000" fill-rule="evenodd" fill-opacity="1" /><path clip-path="url(#clip480)" d="M1715.31 201.036 Q1710.15 201.036 1708.16 202.217 Q1706.17 203.397 1706.17 206.245 Q1706.17 208.513 1707.65 209.856 Q1709.15 211.175 1711.72 211.175 Q1715.27 211.175 1717.39 208.675 Q1719.55 206.152 1719.55 201.985 L1719.55 201.036 L1715.31 201.036 M1723.81 199.277 L1723.81 214.069 L1719.55 214.069 L1719.55 210.133 Q1718.09 212.495 1715.91 213.629 Q1713.74 214.74 1710.59 214.74 Q1706.61 214.74 1704.25 212.518 Q1701.91 210.272 1701.91 206.522 Q1701.91 202.147 1704.83 199.925 Q1707.77 197.703 1713.58 197.703 L1719.55 197.703 L1719.55 197.286 Q1719.55 194.347 1717.6 192.749 Q1715.68 191.129 1712.19 191.129 Q1709.96 191.129 1707.86 191.661 Q1705.75 192.194 1703.81 193.259 L1703.81 189.323 Q1706.15 188.421 1708.34 187.981 Q1710.54 187.518 1712.63 187.518 Q1718.25 187.518 1721.03 190.434 Q1723.81 193.351 1723.81 199.277 Z" fill="#000000" fill-rule="evenodd" fill-opacity="1" /><path clip-path="url(#clip480)" d="M1732.58 178.05 L1736.84 178.05 L1736.84 214.069 L1732.58 214.069 L1732.58 178.05 Z" fill="#000000" fill-rule="evenodd" fill-opacity="1" /><path clip-path="url(#clip480)" d="M1745.31 203.837 L1745.31 188.143 L1749.57 188.143 L1749.57 203.675 Q1749.57 207.356 1751.01 209.208 Q1752.44 211.036 1755.31 211.036 Q1758.76 211.036 1760.75 208.837 Q1762.77 206.638 1762.77 202.842 L1762.77 188.143 L1767.02 188.143 L1767.02 214.069 L1762.77 214.069 L1762.77 210.087 Q1761.21 212.448 1759.15 213.606 Q1757.12 214.74 1754.41 214.74 Q1749.94 214.74 1747.63 211.962 Q1745.31 209.184 1745.31 203.837 M1756.03 187.518 L1756.03 187.518 Z" fill="#000000" fill-rule="evenodd" fill-opacity="1" /><path clip-path="url(#clip480)" d="M1797.97 200.041 L1797.97 202.124 L1778.39 202.124 Q1778.67 206.522 1781.03 208.837 Q1783.41 211.129 1787.65 211.129 Q1790.1 211.129 1792.39 210.527 Q1794.71 209.925 1796.98 208.721 L1796.98 212.749 Q1794.69 213.721 1792.28 214.231 Q1789.87 214.74 1787.39 214.74 Q1781.19 214.74 1777.56 211.129 Q1773.95 207.518 1773.95 201.36 Q1773.95 194.995 1777.37 191.268 Q1780.82 187.518 1786.65 187.518 Q1791.89 187.518 1794.92 190.897 Q1797.97 194.254 1797.97 200.041 M1793.71 198.791 Q1793.67 195.296 1791.75 193.212 Q1789.85 191.129 1786.7 191.129 Q1783.14 191.129 1780.98 193.143 Q1778.85 195.157 1778.53 198.814 L1793.71 198.791 Z" fill="#000000" fill-rule="evenodd" fill-opacity="1" /><polyline clip-path="url(#clip480)" style="stroke:#3da44d; stroke-linecap:round; stroke-linejoin:round; stroke-width:4; stroke-opacity:1; fill:none" points="
  1391.52,248.629 1531.74,248.629 
  "/>
<path clip-path="url(#clip480)" d="M1555.1 231.349 L1559.8 231.349 L1559.8 252.344 Q1559.8 257.899 1561.82 260.353 Q1563.83 262.784 1568.34 262.784 Q1572.84 262.784 1574.85 260.353 Q1576.86 257.899 1576.86 252.344 L1576.86 231.349 L1581.56 231.349 L1581.56 252.923 Q1581.56 259.682 1578.21 263.131 Q1574.87 266.58 1568.34 266.58 Q1561.79 266.58 1558.44 263.131 Q1555.1 259.682 1555.1 252.923 L1555.1 231.349 Z" fill="#000000" fill-rule="evenodd" fill-opacity="1" /><path clip-path="url(#clip480)" d="M1594.27 262.02 L1594.27 275.77 L1589.99 275.77 L1589.99 239.983 L1594.27 239.983 L1594.27 243.918 Q1595.61 241.603 1597.65 240.492 Q1599.71 239.358 1602.56 239.358 Q1607.28 239.358 1610.22 243.108 Q1613.18 246.858 1613.18 252.969 Q1613.18 259.08 1610.22 262.83 Q1607.28 266.58 1602.56 266.58 Q1599.71 266.58 1597.65 265.469 Q1595.61 264.335 1594.27 262.02 M1608.76 252.969 Q1608.76 248.27 1606.82 245.608 Q1604.9 242.923 1601.52 242.923 Q1598.14 242.923 1596.19 245.608 Q1594.27 248.27 1594.27 252.969 Q1594.27 257.668 1596.19 260.353 Q1598.14 263.015 1601.52 263.015 Q1604.9 263.015 1606.82 260.353 Q1608.76 257.668 1608.76 252.969 Z" fill="#000000" fill-rule="evenodd" fill-opacity="1" /><path clip-path="url(#clip480)" d="M1624.36 262.02 L1624.36 275.77 L1620.08 275.77 L1620.08 239.983 L1624.36 239.983 L1624.36 243.918 Q1625.71 241.603 1627.74 240.492 Q1629.8 239.358 1632.65 239.358 Q1637.37 239.358 1640.31 243.108 Q1643.27 246.858 1643.27 252.969 Q1643.27 259.08 1640.31 262.83 Q1637.37 266.58 1632.65 266.58 Q1629.8 266.58 1627.74 265.469 Q1625.71 264.335 1624.36 262.02 M1638.85 252.969 Q1638.85 248.27 1636.91 245.608 Q1634.99 242.923 1631.61 242.923 Q1628.23 242.923 1626.28 245.608 Q1624.36 248.27 1624.36 252.969 Q1624.36 257.668 1626.28 260.353 Q1628.23 263.015 1631.61 263.015 Q1634.99 263.015 1636.91 260.353 Q1638.85 257.668 1638.85 252.969 Z" fill="#000000" fill-rule="evenodd" fill-opacity="1" /><path clip-path="url(#clip480)" d="M1672.51 251.881 L1672.51 253.964 L1652.93 253.964 Q1653.21 258.362 1655.57 260.677 Q1657.95 262.969 1662.19 262.969 Q1664.64 262.969 1666.93 262.367 Q1669.25 261.765 1671.52 260.561 L1671.52 264.589 Q1669.22 265.561 1666.82 266.071 Q1664.41 266.58 1661.93 266.58 Q1655.73 266.58 1652.09 262.969 Q1648.48 259.358 1648.48 253.2 Q1648.48 246.835 1651.91 243.108 Q1655.36 239.358 1661.19 239.358 Q1666.42 239.358 1669.46 242.737 Q1672.51 246.094 1672.51 251.881 M1668.25 250.631 Q1668.21 247.136 1666.28 245.052 Q1664.39 242.969 1661.24 242.969 Q1657.67 242.969 1655.52 244.983 Q1653.39 246.997 1653.07 250.654 L1668.25 250.631 Z" fill="#000000" fill-rule="evenodd" fill-opacity="1" /><path clip-path="url(#clip480)" d="M1694.52 243.964 Q1693.81 243.548 1692.95 243.362 Q1692.12 243.154 1691.1 243.154 Q1687.49 243.154 1685.54 245.515 Q1683.62 247.853 1683.62 252.251 L1683.62 265.909 L1679.34 265.909 L1679.34 239.983 L1683.62 239.983 L1683.62 244.011 Q1684.96 241.649 1687.12 240.515 Q1689.27 239.358 1692.35 239.358 Q1692.79 239.358 1693.32 239.427 Q1693.85 239.474 1694.5 239.589 L1694.52 243.964 Z" fill="#000000" fill-rule="evenodd" fill-opacity="1" /><path clip-path="url(#clip480)" d="M1732.67 252.969 Q1732.67 248.27 1730.73 245.608 Q1728.81 242.923 1725.43 242.923 Q1722.05 242.923 1720.1 245.608 Q1718.18 248.27 1718.18 252.969 Q1718.18 257.668 1720.1 260.353 Q1722.05 263.015 1725.43 263.015 Q1728.81 263.015 1730.73 260.353 Q1732.67 257.668 1732.67 252.969 M1718.18 243.918 Q1719.52 241.603 1721.56 240.492 Q1723.62 239.358 1726.47 239.358 Q1731.19 239.358 1734.13 243.108 Q1737.09 246.858 1737.09 252.969 Q1737.09 259.08 1734.13 262.83 Q1731.19 266.58 1726.47 266.58 Q1723.62 266.58 1721.56 265.469 Q1719.52 264.335 1718.18 262.02 L1718.18 265.909 L1713.9 265.909 L1713.9 229.89 L1718.18 229.89 L1718.18 243.918 Z" fill="#000000" fill-rule="evenodd" fill-opacity="1" /><path clip-path="url(#clip480)" d="M1754.2 242.969 Q1750.77 242.969 1748.78 245.654 Q1746.79 248.316 1746.79 252.969 Q1746.79 257.622 1748.76 260.307 Q1750.75 262.969 1754.2 262.969 Q1757.6 262.969 1759.59 260.284 Q1761.58 257.598 1761.58 252.969 Q1761.58 248.362 1759.59 245.677 Q1757.6 242.969 1754.2 242.969 M1754.2 239.358 Q1759.76 239.358 1762.93 242.969 Q1766.1 246.58 1766.1 252.969 Q1766.1 259.335 1762.93 262.969 Q1759.76 266.58 1754.2 266.58 Q1748.62 266.58 1745.45 262.969 Q1742.3 259.335 1742.3 252.969 Q1742.3 246.58 1745.45 242.969 Q1748.62 239.358 1754.2 239.358 Z" fill="#000000" fill-rule="evenodd" fill-opacity="1" /><path clip-path="url(#clip480)" d="M1772.72 255.677 L1772.72 239.983 L1776.98 239.983 L1776.98 255.515 Q1776.98 259.196 1778.41 261.048 Q1779.85 262.876 1782.72 262.876 Q1786.17 262.876 1788.16 260.677 Q1790.17 258.478 1790.17 254.682 L1790.17 239.983 L1794.43 239.983 L1794.43 265.909 L1790.17 265.909 L1790.17 261.927 Q1788.62 264.288 1786.56 265.446 Q1784.52 266.58 1781.82 266.58 Q1777.35 266.58 1775.03 263.802 Q1772.72 261.024 1772.72 255.677 M1783.44 239.358 L1783.44 239.358 Z" fill="#000000" fill-rule="evenodd" fill-opacity="1" /><path clip-path="url(#clip480)" d="M1824.76 250.261 L1824.76 265.909 L1820.5 265.909 L1820.5 250.399 Q1820.5 246.719 1819.06 244.89 Q1817.63 243.062 1814.76 243.062 Q1811.31 243.062 1809.32 245.261 Q1807.33 247.46 1807.33 251.256 L1807.33 265.909 L1803.04 265.909 L1803.04 239.983 L1807.33 239.983 L1807.33 244.011 Q1808.85 241.673 1810.91 240.515 Q1813 239.358 1815.7 239.358 Q1820.17 239.358 1822.46 242.136 Q1824.76 244.89 1824.76 250.261 Z" fill="#000000" fill-rule="evenodd" fill-opacity="1" /><path clip-path="url(#clip480)" d="M1850.31 243.918 L1850.31 229.89 L1854.57 229.89 L1854.57 265.909 L1850.31 265.909 L1850.31 262.02 Q1848.97 264.335 1846.91 265.469 Q1844.87 266.58 1842 266.58 Q1837.3 266.58 1834.34 262.83 Q1831.4 259.08 1831.4 252.969 Q1831.4 246.858 1834.34 243.108 Q1837.3 239.358 1842 239.358 Q1844.87 239.358 1846.91 240.492 Q1848.97 241.603 1850.31 243.918 M1835.8 252.969 Q1835.8 257.668 1837.72 260.353 Q1839.66 263.015 1843.04 263.015 Q1846.42 263.015 1848.37 260.353 Q1850.31 257.668 1850.31 252.969 Q1850.31 248.27 1848.37 245.608 Q1846.42 242.923 1843.04 242.923 Q1839.66 242.923 1837.72 245.608 Q1835.8 248.27 1835.8 252.969 Z" fill="#000000" fill-rule="evenodd" fill-opacity="1" /><path clip-path="url(#clip480)" d="M1888.46 242.969 Q1885.03 242.969 1883.04 245.654 Q1881.05 248.316 1881.05 252.969 Q1881.05 257.622 1883.02 260.307 Q1885.01 262.969 1888.46 262.969 Q1891.86 262.969 1893.85 260.284 Q1895.84 257.598 1895.84 252.969 Q1895.84 248.362 1893.85 245.677 Q1891.86 242.969 1888.46 242.969 M1888.46 239.358 Q1894.01 239.358 1897.19 242.969 Q1900.36 246.58 1900.36 252.969 Q1900.36 259.335 1897.19 262.969 Q1894.01 266.58 1888.46 266.58 Q1882.88 266.58 1879.71 262.969 Q1876.56 259.335 1876.56 252.969 Q1876.56 246.58 1879.71 242.969 Q1882.88 239.358 1888.46 239.358 Z" fill="#000000" fill-rule="evenodd" fill-opacity="1" /><path clip-path="url(#clip480)" d="M1920.54 229.89 L1920.54 233.432 L1916.47 233.432 Q1914.18 233.432 1913.27 234.358 Q1912.39 235.284 1912.39 237.691 L1912.39 239.983 L1919.41 239.983 L1919.41 243.293 L1912.39 243.293 L1912.39 265.909 L1908.11 265.909 L1908.11 243.293 L1904.04 243.293 L1904.04 239.983 L1908.11 239.983 L1908.11 238.177 Q1908.11 233.849 1910.13 231.881 Q1912.14 229.89 1916.51 229.89 L1920.54 229.89 Z" fill="#000000" fill-rule="evenodd" fill-opacity="1" /><path clip-path="url(#clip480)" d="M1943.39 232.622 L1943.39 239.983 L1952.16 239.983 L1952.16 243.293 L1943.39 243.293 L1943.39 257.367 Q1943.39 260.538 1944.25 261.441 Q1945.13 262.344 1947.79 262.344 L1952.16 262.344 L1952.16 265.909 L1947.79 265.909 Q1942.86 265.909 1940.98 264.08 Q1939.11 262.228 1939.11 257.367 L1939.11 243.293 L1935.98 243.293 L1935.98 239.983 L1939.11 239.983 L1939.11 232.622 L1943.39 232.622 Z" fill="#000000" fill-rule="evenodd" fill-opacity="1" /><path clip-path="url(#clip480)" d="M1972.79 243.964 Q1972.07 243.548 1971.21 243.362 Q1970.38 243.154 1969.36 243.154 Q1965.75 243.154 1963.81 245.515 Q1961.88 247.853 1961.88 252.251 L1961.88 265.909 L1957.6 265.909 L1957.6 239.983 L1961.88 239.983 L1961.88 244.011 Q1963.23 241.649 1965.38 240.515 Q1967.53 239.358 1970.61 239.358 Q1971.05 239.358 1971.58 239.427 Q1972.12 239.474 1972.76 239.589 L1972.79 243.964 Z" fill="#000000" fill-rule="evenodd" fill-opacity="1" /><path clip-path="url(#clip480)" d="M1989.04 252.876 Q1983.88 252.876 1981.88 254.057 Q1979.89 255.237 1979.89 258.085 Q1979.89 260.353 1981.38 261.696 Q1982.88 263.015 1985.45 263.015 Q1988.99 263.015 1991.12 260.515 Q1993.27 257.992 1993.27 253.825 L1993.27 252.876 L1989.04 252.876 M1997.53 251.117 L1997.53 265.909 L1993.27 265.909 L1993.27 261.973 Q1991.81 264.335 1989.64 265.469 Q1987.46 266.58 1984.31 266.58 Q1980.33 266.58 1977.97 264.358 Q1975.63 262.112 1975.63 258.362 Q1975.63 253.987 1978.55 251.765 Q1981.49 249.543 1987.3 249.543 L1993.27 249.543 L1993.27 249.126 Q1993.27 246.187 1991.33 244.589 Q1989.41 242.969 1985.91 242.969 Q1983.69 242.969 1981.58 243.501 Q1979.48 244.034 1977.53 245.099 L1977.53 241.163 Q1979.87 240.261 1982.07 239.821 Q1984.27 239.358 1986.35 239.358 Q1991.98 239.358 1994.75 242.274 Q1997.53 245.191 1997.53 251.117 Z" fill="#000000" fill-rule="evenodd" fill-opacity="1" /><path clip-path="url(#clip480)" d="M2006.31 239.983 L2010.56 239.983 L2010.56 265.909 L2006.31 265.909 L2006.31 239.983 M2006.31 229.89 L2010.56 229.89 L2010.56 235.284 L2006.31 235.284 L2006.31 229.89 Z" fill="#000000" fill-rule="evenodd" fill-opacity="1" /><path clip-path="url(#clip480)" d="M2041.03 250.261 L2041.03 265.909 L2036.77 265.909 L2036.77 250.399 Q2036.77 246.719 2035.33 244.89 Q2033.9 243.062 2031.03 243.062 Q2027.58 243.062 2025.59 245.261 Q2023.6 247.46 2023.6 251.256 L2023.6 265.909 L2019.31 265.909 L2019.31 239.983 L2023.6 239.983 L2023.6 244.011 Q2025.12 241.673 2027.18 240.515 Q2029.27 239.358 2031.98 239.358 Q2036.44 239.358 2038.74 242.136 Q2041.03 244.89 2041.03 250.261 Z" fill="#000000" fill-rule="evenodd" fill-opacity="1" /><path clip-path="url(#clip480)" d="M2049.52 239.983 L2053.78 239.983 L2053.78 265.909 L2049.52 265.909 L2049.52 239.983 M2049.52 229.89 L2053.78 229.89 L2053.78 235.284 L2049.52 235.284 L2049.52 229.89 Z" fill="#000000" fill-rule="evenodd" fill-opacity="1" /><path clip-path="url(#clip480)" d="M2084.24 250.261 L2084.24 265.909 L2079.99 265.909 L2079.99 250.399 Q2079.99 246.719 2078.55 244.89 Q2077.12 243.062 2074.24 243.062 Q2070.8 243.062 2068.81 245.261 Q2066.81 247.46 2066.81 251.256 L2066.81 265.909 L2062.53 265.909 L2062.53 239.983 L2066.81 239.983 L2066.81 244.011 Q2068.34 241.673 2070.4 240.515 Q2072.49 239.358 2075.19 239.358 Q2079.66 239.358 2081.95 242.136 Q2084.24 244.89 2084.24 250.261 Z" fill="#000000" fill-rule="evenodd" fill-opacity="1" /><path clip-path="url(#clip480)" d="M2109.8 252.645 Q2109.8 248.015 2107.88 245.469 Q2105.98 242.923 2102.53 242.923 Q2099.11 242.923 2097.18 245.469 Q2095.29 248.015 2095.29 252.645 Q2095.29 257.251 2097.18 259.798 Q2099.11 262.344 2102.53 262.344 Q2105.98 262.344 2107.88 259.798 Q2109.8 257.251 2109.8 252.645 M2114.06 262.691 Q2114.06 269.311 2111.12 272.529 Q2108.18 275.77 2102.12 275.77 Q2099.87 275.77 2097.88 275.422 Q2095.89 275.098 2094.01 274.404 L2094.01 270.26 Q2095.89 271.279 2097.72 271.765 Q2099.55 272.251 2101.44 272.251 Q2105.63 272.251 2107.72 270.052 Q2109.8 267.876 2109.8 263.455 L2109.8 261.348 Q2108.48 263.64 2106.42 264.774 Q2104.36 265.909 2101.49 265.909 Q2096.72 265.909 2093.8 262.274 Q2090.89 258.64 2090.89 252.645 Q2090.89 246.626 2093.8 242.992 Q2096.72 239.358 2101.49 239.358 Q2104.36 239.358 2106.42 240.492 Q2108.48 241.626 2109.8 243.918 L2109.8 239.983 L2114.06 239.983 L2114.06 262.691 Z" fill="#000000" fill-rule="evenodd" fill-opacity="1" /><path clip-path="url(#clip480)" d="M2154.96 243.918 L2154.96 229.89 L2159.22 229.89 L2159.22 265.909 L2154.96 265.909 L2154.96 262.02 Q2153.62 264.335 2151.56 265.469 Q2149.52 266.58 2146.65 266.58 Q2141.95 266.58 2138.99 262.83 Q2136.05 259.08 2136.05 252.969 Q2136.05 246.858 2138.99 243.108 Q2141.95 239.358 2146.65 239.358 Q2149.52 239.358 2151.56 240.492 Q2153.62 241.603 2154.96 243.918 M2140.45 252.969 Q2140.45 257.668 2142.37 260.353 Q2144.31 263.015 2147.69 263.015 Q2151.07 263.015 2153.02 260.353 Q2154.96 257.668 2154.96 252.969 Q2154.96 248.27 2153.02 245.608 Q2151.07 242.923 2147.69 242.923 Q2144.31 242.923 2142.37 245.608 Q2140.45 248.27 2140.45 252.969 Z" fill="#000000" fill-rule="evenodd" fill-opacity="1" /><path clip-path="url(#clip480)" d="M2179.78 252.876 Q2174.61 252.876 2172.62 254.057 Q2170.63 255.237 2170.63 258.085 Q2170.63 260.353 2172.11 261.696 Q2173.62 263.015 2176.19 263.015 Q2179.73 263.015 2181.86 260.515 Q2184.01 257.992 2184.01 253.825 L2184.01 252.876 L2179.78 252.876 M2188.27 251.117 L2188.27 265.909 L2184.01 265.909 L2184.01 261.973 Q2182.55 264.335 2180.38 265.469 Q2178.2 266.58 2175.05 266.58 Q2171.07 266.58 2168.71 264.358 Q2166.37 262.112 2166.37 258.362 Q2166.37 253.987 2169.29 251.765 Q2172.23 249.543 2178.04 249.543 L2184.01 249.543 L2184.01 249.126 Q2184.01 246.187 2182.07 244.589 Q2180.15 242.969 2176.65 242.969 Q2174.43 242.969 2172.32 243.501 Q2170.22 244.034 2168.27 245.099 L2168.27 241.163 Q2170.61 240.261 2172.81 239.821 Q2175.01 239.358 2177.09 239.358 Q2182.72 239.358 2185.49 242.274 Q2188.27 245.191 2188.27 251.117 Z" fill="#000000" fill-rule="evenodd" fill-opacity="1" /><path clip-path="url(#clip480)" d="M2201.26 232.622 L2201.26 239.983 L2210.03 239.983 L2210.03 243.293 L2201.26 243.293 L2201.26 257.367 Q2201.26 260.538 2202.11 261.441 Q2202.99 262.344 2205.66 262.344 L2210.03 262.344 L2210.03 265.909 L2205.66 265.909 Q2200.73 265.909 2198.85 264.08 Q2196.98 262.228 2196.98 257.367 L2196.98 243.293 L2193.85 243.293 L2193.85 239.983 L2196.98 239.983 L2196.98 232.622 L2201.26 232.622 Z" fill="#000000" fill-rule="evenodd" fill-opacity="1" /><path clip-path="url(#clip480)" d="M2227.42 252.876 Q2222.25 252.876 2220.26 254.057 Q2218.27 255.237 2218.27 258.085 Q2218.27 260.353 2219.75 261.696 Q2221.26 263.015 2223.83 263.015 Q2227.37 263.015 2229.5 260.515 Q2231.65 257.992 2231.65 253.825 L2231.65 252.876 L2227.42 252.876 M2235.91 251.117 L2235.91 265.909 L2231.65 265.909 L2231.65 261.973 Q2230.19 264.335 2228.02 265.469 Q2225.84 266.58 2222.69 266.58 Q2218.71 266.58 2216.35 264.358 Q2214.01 262.112 2214.01 258.362 Q2214.01 253.987 2216.93 251.765 Q2219.87 249.543 2225.68 249.543 L2231.65 249.543 L2231.65 249.126 Q2231.65 246.187 2229.71 244.589 Q2227.79 242.969 2224.29 242.969 Q2222.07 242.969 2219.96 243.501 Q2217.86 244.034 2215.91 245.099 L2215.91 241.163 Q2218.25 240.261 2220.45 239.821 Q2222.65 239.358 2224.73 239.358 Q2230.36 239.358 2233.13 242.274 Q2235.91 245.191 2235.91 251.117 Z" fill="#000000" fill-rule="evenodd" fill-opacity="1" /></svg>
