<?xml version="1.0" encoding="utf-8"?>
<svg xmlns="http://www.w3.org/2000/svg" xmlns:xlink="http://www.w3.org/1999/xlink" width="600" height="400" viewBox="0 0 2400 1600">
<defs>
  <clipPath id="clip200">
    <rect x="0" y="0" width="2400" height="1600"/>
  </clipPath>
</defs>
<path clip-path="url(#clip200)" d="
M0 1600 L2400 1600 L2400 0 L0 0  Z
  " fill="#ffffff" fill-rule="evenodd" fill-opacity="1"/>
<defs>
  <clipPath id="clip201">
    <rect x="480" y="0" width="1681" height="1600"/>
  </clipPath>
</defs>
<path clip-path="url(#clip200)" d="
M205.121 1423.18 L2352.76 1423.18 L2352.76 47.2441 L205.121 47.2441  Z
  " fill="#ffffff" fill-rule="evenodd" fill-opacity="1"/>
<defs>
  <clipPath id="clip202">
    <rect x="205" y="47" width="2149" height="1377"/>
  </clipPath>
</defs>
<polyline clip-path="url(#clip202)" style="stroke:#000000; stroke-linecap:round; stroke-linejoin:round; stroke-width:2; stroke-opacity:0.1; fill:none" points="
  545.361,1423.18 545.361,47.2441 
  "/>
<polyline clip-path="url(#clip202)" style="stroke:#000000; stroke-linecap:round; stroke-linejoin:round; stroke-width:2; stroke-opacity:0.1; fill:none" points="
  894.684,1423.18 894.684,47.2441 
  "/>
<polyline clip-path="url(#clip202)" style="stroke:#000000; stroke-linecap:round; stroke-linejoin:round; stroke-width:2; stroke-opacity:0.1; fill:none" points="
  1244.01,1423.18 1244.01,47.2441 
  "/>
<polyline clip-path="url(#clip202)" style="stroke:#000000; stroke-linecap:round; stroke-linejoin:round; stroke-width:2; stroke-opacity:0.1; fill:none" points="
  1593.33,1423.18 1593.33,47.2441 
  "/>
<polyline clip-path="url(#clip202)" style="stroke:#000000; stroke-linecap:round; stroke-linejoin:round; stroke-width:2; stroke-opacity:0.1; fill:none" points="
  1942.65,1423.18 1942.65,47.2441 
  "/>
<polyline clip-path="url(#clip202)" style="stroke:#000000; stroke-linecap:round; stroke-linejoin:round; stroke-width:2; stroke-opacity:0.1; fill:none" points="
  2291.97,1423.18 2291.97,47.2441 
  "/>
<polyline clip-path="url(#clip200)" style="stroke:#000000; stroke-linecap:round; stroke-linejoin:round; stroke-width:4; stroke-opacity:1; fill:none" points="
  205.121,1423.18 2352.76,1423.18 
  "/>
<polyline clip-path="url(#clip200)" style="stroke:#000000; stroke-linecap:round; stroke-linejoin:round; stroke-width:4; stroke-opacity:1; fill:none" points="
  545.361,1423.18 545.361,1404.28 
  "/>
<polyline clip-path="url(#clip200)" style="stroke:#000000; stroke-linecap:round; stroke-linejoin:round; stroke-width:4; stroke-opacity:1; fill:none" points="
  894.684,1423.18 894.684,1404.28 
  "/>
<polyline clip-path="url(#clip200)" style="stroke:#000000; stroke-linecap:round; stroke-linejoin:round; stroke-width:4; stroke-opacity:1; fill:none" points="
  1244.01,1423.18 1244.01,1404.28 
  "/>
<polyline clip-path="url(#clip200)" style="stroke:#000000; stroke-linecap:round; stroke-linejoin:round; stroke-width:4; stroke-opacity:1; fill:none" points="
  1593.33,1423.18 1593.33,1404.28 
  "/>
<polyline clip-path="url(#clip200)" style="stroke:#000000; stroke-linecap:round; stroke-linejoin:round; stroke-width:4; stroke-opacity:1; fill:none" points="
  1942.65,1423.18 1942.65,1404.28 
  "/>
<polyline clip-path="url(#clip200)" style="stroke:#000000; stroke-linecap:round; stroke-linejoin:round; stroke-width:4; stroke-opacity:1; fill:none" points="
  2291.97,1423.18 2291.97,1404.28 
  "/>
<path clip-path="url(#clip200)" d="M535.639 1451.02 L553.995 1451.02 L553.995 1454.96 L539.921 1454.96 L539.921 1463.43 Q540.94 1463.08 541.958 1462.92 Q542.977 1462.73 543.995 1462.73 Q549.782 1462.73 553.162 1465.9 Q556.542 1469.08 556.542 1474.49 Q556.542 1480.07 553.069 1483.17 Q549.597 1486.25 543.278 1486.25 Q541.102 1486.25 538.833 1485.88 Q536.588 1485.51 534.181 1484.77 L534.181 1480.07 Q536.264 1481.2 538.486 1481.76 Q540.708 1482.32 543.185 1482.32 Q547.19 1482.32 549.528 1480.21 Q551.866 1478.1 551.866 1474.49 Q551.866 1470.88 549.528 1468.77 Q547.19 1466.67 543.185 1466.67 Q541.31 1466.67 539.435 1467.08 Q537.583 1467.5 535.639 1468.38 L535.639 1451.02 Z" fill="#000000" fill-rule="evenodd" fill-opacity="1" /><path clip-path="url(#clip200)" d="M869.371 1481.64 L877.01 1481.64 L877.01 1455.28 L868.7 1456.95 L868.7 1452.69 L876.964 1451.02 L881.64 1451.02 L881.64 1481.64 L889.279 1481.64 L889.279 1485.58 L869.371 1485.58 L869.371 1481.64 Z" fill="#000000" fill-rule="evenodd" fill-opacity="1" /><path clip-path="url(#clip200)" d="M908.723 1454.1 Q905.112 1454.1 903.283 1457.66 Q901.478 1461.2 901.478 1468.33 Q901.478 1475.44 903.283 1479.01 Q905.112 1482.55 908.723 1482.55 Q912.357 1482.55 914.163 1479.01 Q915.991 1475.44 915.991 1468.33 Q915.991 1461.2 914.163 1457.66 Q912.357 1454.1 908.723 1454.1 M908.723 1450.39 Q914.533 1450.39 917.589 1455 Q920.667 1459.58 920.667 1468.33 Q920.667 1477.06 917.589 1481.67 Q914.533 1486.25 908.723 1486.25 Q902.913 1486.25 899.834 1481.67 Q896.779 1477.06 896.779 1468.33 Q896.779 1459.58 899.834 1455 Q902.913 1450.39 908.723 1450.39 Z" fill="#000000" fill-rule="evenodd" fill-opacity="1" /><path clip-path="url(#clip200)" d="M1219.19 1481.64 L1226.83 1481.64 L1226.83 1455.28 L1218.52 1456.95 L1218.52 1452.69 L1226.78 1451.02 L1231.46 1451.02 L1231.46 1481.64 L1239.1 1481.64 L1239.1 1485.58 L1219.19 1485.58 L1219.19 1481.64 Z" fill="#000000" fill-rule="evenodd" fill-opacity="1" /><path clip-path="url(#clip200)" d="M1248.59 1451.02 L1266.95 1451.02 L1266.95 1454.96 L1252.87 1454.96 L1252.87 1463.43 Q1253.89 1463.08 1254.91 1462.92 Q1255.93 1462.73 1256.95 1462.73 Q1262.73 1462.73 1266.11 1465.9 Q1269.49 1469.08 1269.49 1474.49 Q1269.49 1480.07 1266.02 1483.17 Q1262.55 1486.25 1256.23 1486.25 Q1254.05 1486.25 1251.78 1485.88 Q1249.54 1485.51 1247.13 1484.77 L1247.13 1480.07 Q1249.21 1481.2 1251.44 1481.76 Q1253.66 1482.32 1256.14 1482.32 Q1260.14 1482.32 1262.48 1480.21 Q1264.82 1478.1 1264.82 1474.49 Q1264.82 1470.88 1262.48 1468.77 Q1260.14 1466.67 1256.14 1466.67 Q1254.26 1466.67 1252.39 1467.08 Q1250.53 1467.5 1248.59 1468.38 L1248.59 1451.02 Z" fill="#000000" fill-rule="evenodd" fill-opacity="1" /><path clip-path="url(#clip200)" d="M1572.1 1481.64 L1588.42 1481.64 L1588.42 1485.58 L1566.48 1485.58 L1566.48 1481.64 Q1569.14 1478.89 1573.72 1474.26 Q1578.33 1469.61 1579.51 1468.27 Q1581.75 1465.74 1582.63 1464.01 Q1583.54 1462.25 1583.54 1460.56 Q1583.54 1457.8 1581.59 1456.07 Q1579.67 1454.33 1576.57 1454.33 Q1574.37 1454.33 1571.92 1455.09 Q1569.49 1455.86 1566.71 1457.41 L1566.71 1452.69 Q1569.53 1451.55 1571.99 1450.97 Q1574.44 1450.39 1576.48 1450.39 Q1581.85 1450.39 1585.04 1453.08 Q1588.24 1455.77 1588.24 1460.26 Q1588.24 1462.39 1587.43 1464.31 Q1586.64 1466.2 1584.53 1468.8 Q1583.95 1469.47 1580.85 1472.69 Q1577.75 1475.88 1572.1 1481.64 Z" fill="#000000" fill-rule="evenodd" fill-opacity="1" /><path clip-path="url(#clip200)" d="M1608.24 1454.1 Q1604.62 1454.1 1602.8 1457.66 Q1600.99 1461.2 1600.99 1468.33 Q1600.99 1475.44 1602.8 1479.01 Q1604.62 1482.55 1608.24 1482.55 Q1611.87 1482.55 1613.68 1479.01 Q1615.5 1475.44 1615.5 1468.33 Q1615.5 1461.2 1613.68 1457.66 Q1611.87 1454.1 1608.24 1454.1 M1608.24 1450.39 Q1614.05 1450.39 1617.1 1455 Q1620.18 1459.58 1620.18 1468.33 Q1620.18 1477.06 1617.1 1481.67 Q1614.05 1486.25 1608.24 1486.25 Q1602.43 1486.25 1599.35 1481.67 Q1596.29 1477.06 1596.29 1468.33 Q1596.29 1459.58 1599.35 1455 Q1602.43 1450.39 1608.24 1450.39 Z" fill="#000000" fill-rule="evenodd" fill-opacity="1" /><path clip-path="url(#clip200)" d="M1921.92 1481.64 L1938.24 1481.64 L1938.24 1485.58 L1916.3 1485.58 L1916.3 1481.64 Q1918.96 1478.89 1923.54 1474.26 Q1928.15 1469.61 1929.33 1468.27 Q1931.57 1465.74 1932.45 1464.01 Q1933.36 1462.25 1933.36 1460.56 Q1933.36 1457.8 1931.41 1456.07 Q1929.49 1454.33 1926.39 1454.33 Q1924.19 1454.33 1921.74 1455.09 Q1919.31 1455.86 1916.53 1457.41 L1916.53 1452.69 Q1919.35 1451.55 1921.81 1450.97 Q1924.26 1450.39 1926.3 1450.39 Q1931.67 1450.39 1934.86 1453.08 Q1938.06 1455.77 1938.06 1460.26 Q1938.06 1462.39 1937.25 1464.31 Q1936.46 1466.2 1934.35 1468.8 Q1933.77 1469.47 1930.67 1472.69 Q1927.57 1475.88 1921.92 1481.64 Z" fill="#000000" fill-rule="evenodd" fill-opacity="1" /><path clip-path="url(#clip200)" d="M1948.1 1451.02 L1966.46 1451.02 L1966.46 1454.96 L1952.38 1454.96 L1952.38 1463.43 Q1953.4 1463.08 1954.42 1462.92 Q1955.44 1462.73 1956.46 1462.73 Q1962.25 1462.73 1965.63 1465.9 Q1969.01 1469.08 1969.01 1474.49 Q1969.01 1480.07 1965.53 1483.17 Q1962.06 1486.25 1955.74 1486.25 Q1953.57 1486.25 1951.3 1485.88 Q1949.05 1485.51 1946.64 1484.77 L1946.64 1480.07 Q1948.73 1481.2 1950.95 1481.76 Q1953.17 1482.32 1955.65 1482.32 Q1959.65 1482.32 1961.99 1480.21 Q1964.33 1478.1 1964.33 1474.49 Q1964.33 1470.88 1961.99 1468.77 Q1959.65 1466.67 1955.65 1466.67 Q1953.77 1466.67 1951.9 1467.08 Q1950.05 1467.5 1948.1 1468.38 L1948.1 1451.02 Z" fill="#000000" fill-rule="evenodd" fill-opacity="1" /><path clip-path="url(#clip200)" d="M2280.82 1466.95 Q2284.17 1467.66 2286.05 1469.93 Q2287.95 1472.2 2287.95 1475.53 Q2287.95 1480.65 2284.43 1483.45 Q2280.91 1486.25 2274.43 1486.25 Q2272.25 1486.25 2269.94 1485.81 Q2267.65 1485.39 2265.19 1484.54 L2265.19 1480.02 Q2267.14 1481.16 2269.45 1481.74 Q2271.77 1482.32 2274.29 1482.32 Q2278.69 1482.32 2280.98 1480.58 Q2283.29 1478.84 2283.29 1475.53 Q2283.29 1472.48 2281.14 1470.77 Q2279.01 1469.03 2275.19 1469.03 L2271.16 1469.03 L2271.16 1465.19 L2275.38 1465.19 Q2278.83 1465.19 2280.65 1463.82 Q2282.48 1462.43 2282.48 1459.84 Q2282.48 1457.18 2280.58 1455.77 Q2278.71 1454.33 2275.19 1454.33 Q2273.27 1454.33 2271.07 1454.75 Q2268.87 1455.16 2266.23 1456.04 L2266.23 1451.88 Q2268.9 1451.14 2271.21 1450.77 Q2273.55 1450.39 2275.61 1450.39 Q2280.93 1450.39 2284.03 1452.83 Q2287.14 1455.23 2287.14 1459.35 Q2287.14 1462.22 2285.49 1464.21 Q2283.85 1466.18 2280.82 1466.95 Z" fill="#000000" fill-rule="evenodd" fill-opacity="1" /><path clip-path="url(#clip200)" d="M2306.81 1454.1 Q2303.2 1454.1 2301.37 1457.66 Q2299.57 1461.2 2299.57 1468.33 Q2299.57 1475.44 2301.37 1479.01 Q2303.2 1482.55 2306.81 1482.55 Q2310.45 1482.55 2312.25 1479.01 Q2314.08 1475.44 2314.08 1468.33 Q2314.08 1461.2 2312.25 1457.66 Q2310.45 1454.1 2306.81 1454.1 M2306.81 1450.39 Q2312.62 1450.39 2315.68 1455 Q2318.76 1459.58 2318.76 1468.33 Q2318.76 1477.06 2315.68 1481.67 Q2312.62 1486.25 2306.81 1486.25 Q2301 1486.25 2297.92 1481.67 Q2294.87 1477.06 2294.87 1468.33 Q2294.87 1459.58 2297.92 1455 Q2301 1450.39 2306.81 1450.39 Z" fill="#000000" fill-rule="evenodd" fill-opacity="1" /><path clip-path="url(#clip200)" d="M1200.82 1520.52 L1241.01 1520.52 L1241.01 1525.93 L1224.15 1525.93 L1224.15 1568.04 L1217.68 1568.04 L1217.68 1525.93 L1200.82 1525.93 L1200.82 1520.52 Z" fill="#000000" fill-rule="evenodd" fill-opacity="1" /><path clip-path="url(#clip200)" d="M1244.96 1532.4 L1250.82 1532.4 L1250.82 1568.04 L1244.96 1568.04 L1244.96 1532.4 M1244.96 1518.52 L1250.82 1518.52 L1250.82 1525.93 L1244.96 1525.93 L1244.96 1518.52 Z" fill="#000000" fill-rule="evenodd" fill-opacity="1" /><path clip-path="url(#clip200)" d="M1290.83 1539.24 Q1293.02 1535.29 1296.08 1533.41 Q1299.13 1531.54 1303.27 1531.54 Q1308.84 1531.54 1311.87 1535.45 Q1314.89 1539.33 1314.89 1546.53 L1314.89 1568.04 L1309 1568.04 L1309 1546.72 Q1309 1541.59 1307.19 1539.11 Q1305.37 1536.63 1301.65 1536.63 Q1297.1 1536.63 1294.45 1539.65 Q1291.81 1542.68 1291.81 1547.9 L1291.81 1568.04 L1285.92 1568.04 L1285.92 1546.72 Q1285.92 1541.56 1284.11 1539.11 Q1282.3 1536.63 1278.51 1536.63 Q1274.02 1536.63 1271.38 1539.68 Q1268.74 1542.71 1268.74 1547.9 L1268.74 1568.04 L1262.85 1568.04 L1262.85 1532.4 L1268.74 1532.4 L1268.74 1537.93 Q1270.74 1534.66 1273.54 1533.1 Q1276.34 1531.54 1280.2 1531.54 Q1284.08 1531.54 1286.78 1533.51 Q1289.52 1535.48 1290.83 1539.24 Z" fill="#000000" fill-rule="evenodd" fill-opacity="1" /><path clip-path="url(#clip200)" d="M1357.06 1548.76 L1357.06 1551.62 L1330.13 1551.62 Q1330.52 1557.67 1333.76 1560.85 Q1337.04 1564 1342.87 1564 Q1346.24 1564 1349.39 1563.17 Q1352.57 1562.35 1355.69 1560.69 L1355.69 1566.23 Q1352.54 1567.57 1349.23 1568.27 Q1345.92 1568.97 1342.52 1568.97 Q1333.99 1568.97 1328.99 1564 Q1324.02 1559.04 1324.02 1550.57 Q1324.02 1541.82 1328.73 1536.69 Q1333.48 1531.54 1341.5 1531.54 Q1348.69 1531.54 1352.86 1536.18 Q1357.06 1540.8 1357.06 1548.76 M1351.21 1547.04 Q1351.14 1542.23 1348.5 1539.37 Q1345.89 1536.5 1341.56 1536.5 Q1336.66 1536.5 1333.7 1539.27 Q1330.77 1542.04 1330.33 1547.07 L1351.21 1547.04 Z" fill="#000000" fill-rule="evenodd" fill-opacity="1" /><polyline clip-path="url(#clip202)" style="stroke:#000000; stroke-linecap:round; stroke-linejoin:round; stroke-width:2; stroke-opacity:0.1; fill:none" points="
  205.121,1203.11 2352.76,1203.11 
  "/>
<polyline clip-path="url(#clip202)" style="stroke:#000000; stroke-linecap:round; stroke-linejoin:round; stroke-width:2; stroke-opacity:0.1; fill:none" points="
  205.121,901.242 2352.76,901.242 
  "/>
<polyline clip-path="url(#clip202)" style="stroke:#000000; stroke-linecap:round; stroke-linejoin:round; stroke-width:2; stroke-opacity:0.1; fill:none" points="
  205.121,599.369 2352.76,599.369 
  "/>
<polyline clip-path="url(#clip202)" style="stroke:#000000; stroke-linecap:round; stroke-linejoin:round; stroke-width:2; stroke-opacity:0.1; fill:none" points="
  205.121,297.497 2352.76,297.497 
  "/>
<polyline clip-path="url(#clip200)" style="stroke:#000000; stroke-linecap:round; stroke-linejoin:round; stroke-width:4; stroke-opacity:1; fill:none" points="
  205.121,1423.18 205.121,47.2441 
  "/>
<polyline clip-path="url(#clip200)" style="stroke:#000000; stroke-linecap:round; stroke-linejoin:round; stroke-width:4; stroke-opacity:1; fill:none" points="
  205.121,1203.11 224.019,1203.11 
  "/>
<polyline clip-path="url(#clip200)" style="stroke:#000000; stroke-linecap:round; stroke-linejoin:round; stroke-width:4; stroke-opacity:1; fill:none" points="
  205.121,901.242 224.019,901.242 
  "/>
<polyline clip-path="url(#clip200)" style="stroke:#000000; stroke-linecap:round; stroke-linejoin:round; stroke-width:4; stroke-opacity:1; fill:none" points="
  205.121,599.369 224.019,599.369 
  "/>
<polyline clip-path="url(#clip200)" style="stroke:#000000; stroke-linecap:round; stroke-linejoin:round; stroke-width:4; stroke-opacity:1; fill:none" points="
  205.121,297.497 224.019,297.497 
  "/>
<path clip-path="url(#clip200)" d="M117.825 1216.46 L125.464 1216.46 L125.464 1190.09 L117.154 1191.76 L117.154 1187.5 L125.418 1185.83 L130.093 1185.83 L130.093 1216.46 L137.732 1216.46 L137.732 1220.39 L117.825 1220.39 L117.825 1216.46 Z" fill="#000000" fill-rule="evenodd" fill-opacity="1" /><path clip-path="url(#clip200)" d="M157.177 1188.91 Q153.566 1188.91 151.737 1192.48 Q149.931 1196.02 149.931 1203.15 Q149.931 1210.26 151.737 1213.82 Q153.566 1217.36 157.177 1217.36 Q160.811 1217.36 162.616 1213.82 Q164.445 1210.26 164.445 1203.15 Q164.445 1196.02 162.616 1192.48 Q160.811 1188.91 157.177 1188.91 M157.177 1185.21 Q162.987 1185.21 166.042 1189.82 Q169.121 1194.4 169.121 1203.15 Q169.121 1211.88 166.042 1216.48 Q162.987 1221.07 157.177 1221.07 Q151.366 1221.07 148.288 1216.48 Q145.232 1211.88 145.232 1203.15 Q145.232 1194.4 148.288 1189.82 Q151.366 1185.21 157.177 1185.21 Z" fill="#000000" fill-rule="evenodd" fill-opacity="1" /><path clip-path="url(#clip200)" d="M121.043 914.587 L137.362 914.587 L137.362 918.522 L115.418 918.522 L115.418 914.587 Q118.08 911.832 122.663 907.203 Q127.269 902.55 128.45 901.207 Q130.695 898.684 131.575 896.948 Q132.478 895.189 132.478 893.499 Q132.478 890.744 130.533 889.008 Q128.612 887.272 125.51 887.272 Q123.311 887.272 120.857 888.036 Q118.427 888.8 115.649 890.351 L115.649 885.629 Q118.473 884.494 120.927 883.916 Q123.38 883.337 125.418 883.337 Q130.788 883.337 133.982 886.022 Q137.177 888.707 137.177 893.198 Q137.177 895.328 136.367 897.249 Q135.579 899.147 133.473 901.74 Q132.894 902.411 129.792 905.629 Q126.691 908.823 121.043 914.587 Z" fill="#000000" fill-rule="evenodd" fill-opacity="1" /><path clip-path="url(#clip200)" d="M157.177 887.041 Q153.566 887.041 151.737 890.605 Q149.931 894.147 149.931 901.277 Q149.931 908.383 151.737 911.948 Q153.566 915.49 157.177 915.49 Q160.811 915.49 162.616 911.948 Q164.445 908.383 164.445 901.277 Q164.445 894.147 162.616 890.605 Q160.811 887.041 157.177 887.041 M157.177 883.337 Q162.987 883.337 166.042 887.943 Q169.121 892.527 169.121 901.277 Q169.121 910.003 166.042 914.61 Q162.987 919.193 157.177 919.193 Q151.366 919.193 148.288 914.61 Q145.232 910.003 145.232 901.277 Q145.232 892.527 148.288 887.943 Q151.366 883.337 157.177 883.337 Z" fill="#000000" fill-rule="evenodd" fill-opacity="1" /><path clip-path="url(#clip200)" d="M131.181 598.015 Q134.538 598.733 136.413 601.001 Q138.311 603.27 138.311 606.603 Q138.311 611.719 134.792 614.52 Q131.274 617.321 124.793 617.321 Q122.617 617.321 120.302 616.881 Q118.01 616.464 115.556 615.608 L115.556 611.094 Q117.501 612.228 119.816 612.807 Q122.13 613.385 124.654 613.385 Q129.052 613.385 131.343 611.649 Q133.658 609.913 133.658 606.603 Q133.658 603.547 131.505 601.835 Q129.376 600.098 125.556 600.098 L121.529 600.098 L121.529 596.256 L125.742 596.256 Q129.191 596.256 131.019 594.89 Q132.848 593.501 132.848 590.909 Q132.848 588.247 130.95 586.835 Q129.075 585.399 125.556 585.399 Q123.635 585.399 121.436 585.816 Q119.237 586.233 116.598 587.112 L116.598 582.946 Q119.26 582.205 121.575 581.835 Q123.913 581.464 125.973 581.464 Q131.297 581.464 134.399 583.895 Q137.501 586.302 137.501 590.423 Q137.501 593.293 135.857 595.284 Q134.214 597.251 131.181 598.015 Z" fill="#000000" fill-rule="evenodd" fill-opacity="1" /><path clip-path="url(#clip200)" d="M157.177 585.168 Q153.566 585.168 151.737 588.733 Q149.931 592.274 149.931 599.404 Q149.931 606.51 151.737 610.075 Q153.566 613.617 157.177 613.617 Q160.811 613.617 162.616 610.075 Q164.445 606.51 164.445 599.404 Q164.445 592.274 162.616 588.733 Q160.811 585.168 157.177 585.168 M157.177 581.464 Q162.987 581.464 166.042 586.071 Q169.121 590.654 169.121 599.404 Q169.121 608.131 166.042 612.737 Q162.987 617.321 157.177 617.321 Q151.366 617.321 148.288 612.737 Q145.232 608.131 145.232 599.404 Q145.232 590.654 148.288 586.071 Q151.366 581.464 157.177 581.464 Z" fill="#000000" fill-rule="evenodd" fill-opacity="1" /><path clip-path="url(#clip200)" d="M129.862 284.291 L118.056 302.74 L129.862 302.74 L129.862 284.291 M128.635 280.217 L134.515 280.217 L134.515 302.74 L139.445 302.74 L139.445 306.628 L134.515 306.628 L134.515 314.777 L129.862 314.777 L129.862 306.628 L114.26 306.628 L114.26 302.115 L128.635 280.217 Z" fill="#000000" fill-rule="evenodd" fill-opacity="1" /><path clip-path="url(#clip200)" d="M157.177 283.295 Q153.566 283.295 151.737 286.86 Q149.931 290.402 149.931 297.531 Q149.931 304.638 151.737 308.203 Q153.566 311.744 157.177 311.744 Q160.811 311.744 162.616 308.203 Q164.445 304.638 164.445 297.531 Q164.445 290.402 162.616 286.86 Q160.811 283.295 157.177 283.295 M157.177 279.592 Q162.987 279.592 166.042 284.198 Q169.121 288.781 169.121 297.531 Q169.121 306.258 166.042 310.865 Q162.987 315.448 157.177 315.448 Q151.366 315.448 148.288 310.865 Q145.232 306.258 145.232 297.531 Q145.232 288.781 148.288 284.198 Q151.366 279.592 157.177 279.592 Z" fill="#000000" fill-rule="evenodd" fill-opacity="1" /><path clip-path="url(#clip200)" d="M16.4842 1039.21 L16.4842 1030.55 L56.238 1009.48 L16.4842 1009.48 L16.4842 1003.24 L64.0042 1003.24 L64.0042 1011.9 L24.2503 1032.97 L64.0042 1032.97 L64.0042 1039.21 L16.4842 1039.21 Z" fill="#000000" fill-rule="evenodd" fill-opacity="1" /><path clip-path="url(#clip200)" d="M44.7161 960.208 L47.5806 960.208 L47.5806 987.135 Q53.6281 986.753 56.8109 983.506 Q59.9619 980.228 59.9619 974.403 Q59.9619 971.03 59.1344 967.879 Q58.3069 964.696 56.6518 961.576 L62.1899 961.576 Q63.5267 964.728 64.227 968.038 Q64.9272 971.348 64.9272 974.754 Q64.9272 983.284 59.9619 988.281 Q54.9967 993.246 46.5303 993.246 Q37.7774 993.246 32.6531 988.535 Q27.4968 983.793 27.4968 975.772 Q27.4968 968.579 32.1438 964.409 Q36.7589 960.208 44.7161 960.208 M42.9973 966.064 Q38.1912 966.128 35.3266 968.77 Q32.4621 971.38 32.4621 975.708 Q32.4621 980.61 35.2312 983.57 Q38.0002 986.498 43.0292 986.944 L42.9973 966.064 Z" fill="#000000" fill-rule="evenodd" fill-opacity="1" /><path clip-path="url(#clip200)" d="M28.3562 954.001 L28.3562 948.145 L56.1743 940.824 L28.3562 933.536 L28.3562 926.629 L56.1743 919.308 L28.3562 912.019 L28.3562 906.163 L64.0042 915.489 L64.0042 922.396 L34.7856 930.066 L64.0042 937.769 L64.0042 944.676 L28.3562 954.001 Z" fill="#000000" fill-rule="evenodd" fill-opacity="1" /><path clip-path="url(#clip200)" d="M29.7248 850.909 L35.1993 850.909 Q33.8307 853.391 33.1623 855.906 Q32.4621 858.388 32.4621 860.935 Q32.4621 866.632 36.0905 869.783 Q39.6872 872.934 46.212 872.934 Q52.7369 872.934 56.3653 869.783 Q59.9619 866.632 59.9619 860.935 Q59.9619 858.388 59.2935 855.906 Q58.5933 853.391 57.2247 850.909 L62.6355 850.909 Q63.7814 853.359 64.3543 856.001 Q64.9272 858.611 64.9272 861.571 Q64.9272 869.624 59.8664 874.366 Q54.8057 879.109 46.212 879.109 Q37.491 879.109 32.4939 874.334 Q27.4968 869.528 27.4968 861.189 Q27.4968 858.484 28.0697 855.906 Q28.6108 853.328 29.7248 850.909 Z" fill="#000000" fill-rule="evenodd" fill-opacity="1" /><path clip-path="url(#clip200)" d="M46.0847 824.523 Q46.0847 831.621 47.7079 834.358 Q49.3312 837.095 53.2461 837.095 Q56.3653 837.095 58.2114 835.058 Q60.0256 832.989 60.0256 829.456 Q60.0256 824.586 56.5881 821.658 Q53.1188 818.698 47.3897 818.698 L46.0847 818.698 L46.0847 824.523 M43.6657 812.842 L64.0042 812.842 L64.0042 818.698 L58.5933 818.698 Q61.8398 820.703 63.3994 823.695 Q64.9272 826.687 64.9272 831.016 Q64.9272 836.49 61.8716 839.737 Q58.7843 842.952 53.6281 842.952 Q47.6125 842.952 44.5569 838.941 Q41.5014 834.899 41.5014 826.91 L41.5014 818.698 L40.9285 818.698 Q36.8862 818.698 34.6901 821.372 Q32.4621 824.014 32.4621 828.82 Q32.4621 831.875 33.1941 834.772 Q33.9262 837.668 35.3903 840.342 L29.9795 840.342 Q28.7381 837.127 28.1334 834.103 Q27.4968 831.08 27.4968 828.215 Q27.4968 820.481 31.5072 816.661 Q35.5176 812.842 43.6657 812.842 Z" fill="#000000" fill-rule="evenodd" fill-opacity="1" /><path clip-path="url(#clip200)" d="M29.4065 778.053 L34.9447 778.053 Q33.6716 780.536 33.035 783.209 Q32.3984 785.883 32.3984 788.748 Q32.3984 793.108 33.7352 795.304 Q35.072 797.469 37.7456 797.469 Q39.7826 797.469 40.9603 795.909 Q42.1061 794.349 43.1565 789.639 L43.6021 787.634 Q44.9389 781.395 47.3897 778.785 Q49.8086 776.143 54.1691 776.143 Q59.1344 776.143 62.0308 780.09 Q64.9272 784.005 64.9272 790.88 Q64.9272 793.745 64.3543 796.864 Q63.8132 799.951 62.6992 803.389 L56.6518 803.389 Q58.3387 800.142 59.198 796.991 Q60.0256 793.84 60.0256 790.753 Q60.0256 786.615 58.6251 784.387 Q57.1929 782.159 54.6147 782.159 Q52.2276 782.159 50.9545 783.782 Q49.6813 785.374 48.5037 790.816 L48.0262 792.853 Q46.8804 798.296 44.5251 800.715 Q42.138 803.134 38.0002 803.134 Q32.9713 803.134 30.2341 799.569 Q27.4968 796.004 27.4968 789.448 Q27.4968 786.201 27.9743 783.337 Q28.4517 780.472 29.4065 778.053 Z" fill="#000000" fill-rule="evenodd" fill-opacity="1" /><path clip-path="url(#clip200)" d="M44.7161 736.326 L47.5806 736.326 L47.5806 763.253 Q53.6281 762.871 56.8109 759.624 Q59.9619 756.346 59.9619 750.521 Q59.9619 747.148 59.1344 743.997 Q58.3069 740.814 56.6518 737.695 L62.1899 737.695 Q63.5267 740.846 64.227 744.156 Q64.9272 747.466 64.9272 750.872 Q64.9272 759.402 59.9619 764.399 Q54.9967 769.364 46.5303 769.364 Q37.7774 769.364 32.6531 764.653 Q27.4968 759.911 27.4968 751.89 Q27.4968 744.697 32.1438 740.527 Q36.7589 736.326 44.7161 736.326 M42.9973 742.182 Q38.1912 742.246 35.3266 744.888 Q32.4621 747.498 32.4621 751.826 Q32.4621 756.728 35.2312 759.688 Q38.0002 762.616 43.0292 763.062 L42.9973 742.182 Z" fill="#000000" fill-rule="evenodd" fill-opacity="1" /><path clip-path="url(#clip200)" d="M29.4065 703.988 L34.9447 703.988 Q33.6716 706.471 33.035 709.144 Q32.3984 711.818 32.3984 714.683 Q32.3984 719.043 33.7352 721.239 Q35.072 723.404 37.7456 723.404 Q39.7826 723.404 40.9603 721.844 Q42.1061 720.284 43.1565 715.574 L43.6021 713.569 Q44.9389 707.33 47.3897 704.72 Q49.8086 702.078 54.1691 702.078 Q59.1344 702.078 62.0308 706.025 Q64.9272 709.94 64.9272 716.815 Q64.9272 719.68 64.3543 722.799 Q63.8132 725.886 62.6992 729.324 L56.6518 729.324 Q58.3387 726.077 59.198 722.926 Q60.0256 719.775 60.0256 716.688 Q60.0256 712.55 58.6251 710.322 Q57.1929 708.094 54.6147 708.094 Q52.2276 708.094 50.9545 709.717 Q49.6813 711.309 48.5037 716.751 L48.0262 718.788 Q46.8804 724.231 44.5251 726.65 Q42.138 729.069 38.0002 729.069 Q32.9713 729.069 30.2341 725.504 Q27.4968 721.939 27.4968 715.383 Q27.4968 712.136 27.9743 709.272 Q28.4517 706.407 29.4065 703.988 Z" fill="#000000" fill-rule="evenodd" fill-opacity="1" /><path clip-path="url(#clip200)" d="M58.657 666.367 L77.5631 666.367 L77.5631 672.255 L28.3562 672.255 L28.3562 666.367 L33.7671 666.367 Q30.5842 664.521 29.0564 661.72 Q27.4968 658.887 27.4968 654.972 Q27.4968 648.479 32.6531 644.437 Q37.8093 640.363 46.212 640.363 Q54.6147 640.363 59.771 644.437 Q64.9272 648.479 64.9272 654.972 Q64.9272 658.887 63.3994 661.72 Q61.8398 664.521 58.657 666.367 M46.212 646.442 Q39.7508 646.442 36.0905 649.116 Q32.3984 651.758 32.3984 656.405 Q32.3984 661.051 36.0905 663.725 Q39.7508 666.367 46.212 666.367 Q52.6732 666.367 56.3653 663.725 Q60.0256 661.051 60.0256 656.405 Q60.0256 651.758 56.3653 649.116 Q52.6732 646.442 46.212 646.442 Z" fill="#000000" fill-rule="evenodd" fill-opacity="1" /><path clip-path="url(#clip200)" d="M44.7161 600.164 L47.5806 600.164 L47.5806 627.09 Q53.6281 626.708 56.8109 623.462 Q59.9619 620.184 59.9619 614.359 Q59.9619 610.985 59.1344 607.834 Q58.3069 604.651 56.6518 601.532 L62.1899 601.532 Q63.5267 604.683 64.227 607.993 Q64.9272 611.303 64.9272 614.709 Q64.9272 623.239 59.9619 628.236 Q54.9967 633.202 46.5303 633.202 Q37.7774 633.202 32.6531 628.491 Q27.4968 623.748 27.4968 615.728 Q27.4968 608.534 32.1438 604.365 Q36.7589 600.164 44.7161 600.164 M42.9973 606.02 Q38.1912 606.084 35.3266 608.725 Q32.4621 611.335 32.4621 615.664 Q32.4621 620.566 35.2312 623.526 Q38.0002 626.454 43.0292 626.899 L42.9973 606.02 Z" fill="#000000" fill-rule="evenodd" fill-opacity="1" /><path clip-path="url(#clip200)" d="M33.8307 569.895 Q33.2578 570.881 33.0032 572.059 Q32.7167 573.205 32.7167 574.605 Q32.7167 579.57 35.9632 582.244 Q39.1779 584.886 45.2253 584.886 L64.0042 584.886 L64.0042 590.774 L28.3562 590.774 L28.3562 584.886 L33.8944 584.886 Q30.6479 583.04 29.0883 580.08 Q27.4968 577.12 27.4968 572.886 Q27.4968 572.282 27.5923 571.55 Q27.656 570.818 27.8151 569.926 L33.8307 569.895 Z" fill="#000000" fill-rule="evenodd" fill-opacity="1" /><path clip-path="url(#clip200)" d="M33.7671 519.574 L14.479 519.574 L14.479 513.717 L64.0042 513.717 L64.0042 519.574 L58.657 519.574 Q61.8398 521.42 63.3994 524.252 Q64.9272 527.053 64.9272 531 Q64.9272 537.461 59.771 541.535 Q54.6147 545.578 46.212 545.578 Q37.8093 545.578 32.6531 541.535 Q27.4968 537.461 27.4968 531 Q27.4968 527.053 29.0564 524.252 Q30.5842 521.42 33.7671 519.574 M46.212 539.53 Q52.6732 539.53 56.3653 536.888 Q60.0256 534.215 60.0256 529.568 Q60.0256 524.921 56.3653 522.247 Q52.6732 519.574 46.212 519.574 Q39.7508 519.574 36.0905 522.247 Q32.3984 524.921 32.3984 529.568 Q32.3984 534.215 36.0905 536.888 Q39.7508 539.53 46.212 539.53 Z" fill="#000000" fill-rule="evenodd" fill-opacity="1" /><path clip-path="url(#clip200)" d="M46.0847 485.453 Q46.0847 492.551 47.7079 495.288 Q49.3312 498.026 53.2461 498.026 Q56.3653 498.026 58.2114 495.989 Q60.0256 493.92 60.0256 490.387 Q60.0256 485.517 56.5881 482.589 Q53.1188 479.629 47.3897 479.629 L46.0847 479.629 L46.0847 485.453 M43.6657 473.772 L64.0042 473.772 L64.0042 479.629 L58.5933 479.629 Q61.8398 481.634 63.3994 484.626 Q64.9272 487.618 64.9272 491.946 Q64.9272 497.421 61.8716 500.668 Q58.7843 503.882 53.6281 503.882 Q47.6125 503.882 44.5569 499.872 Q41.5014 495.83 41.5014 487.841 L41.5014 479.629 L40.9285 479.629 Q36.8862 479.629 34.6901 482.302 Q32.4621 484.944 32.4621 489.75 Q32.4621 492.806 33.1941 495.702 Q33.9262 498.599 35.3903 501.272 L29.9795 501.272 Q28.7381 498.058 28.1334 495.034 Q27.4968 492.01 27.4968 489.146 Q27.4968 481.411 31.5072 477.592 Q35.5176 473.772 43.6657 473.772 Z" fill="#000000" fill-rule="evenodd" fill-opacity="1" /><path clip-path="url(#clip200)" d="M67.3143 446.877 Q73.68 449.36 75.6216 451.715 Q77.5631 454.071 77.5631 458.017 L77.5631 462.696 L72.6615 462.696 L72.6615 459.259 Q72.6615 456.84 71.5157 455.503 Q70.3699 454.166 66.1048 452.543 L63.4312 451.492 L28.3562 465.911 L28.3562 459.704 L56.238 448.564 L28.3562 437.424 L28.3562 431.218 L67.3143 446.877 Z" fill="#000000" fill-rule="evenodd" fill-opacity="1" /><polyline clip-path="url(#clip202)" style="stroke:#009af9; stroke-linecap:round; stroke-linejoin:round; stroke-width:4; stroke-opacity:1; fill:none" points="
  265.903,1336.22 335.768,1291.38 405.632,1236.05 475.497,1168.64 545.361,1087.82 615.226,992.84 685.09,884.035 754.955,763.321 824.819,634.695 894.684,504.488 
  964.548,381.158 1034.41,274.418 1104.28,193.795 1174.14,146.749 1244.01,137.12 1313.87,164.374 1383.74,223.952 1453.6,308.455 1523.46,409.322 1593.33,518.293 
  1663.19,628.468 1733.06,734.717 1802.92,833.713 1872.79,923.622 1942.65,1003.76 2012.52,1074.21 2082.38,1135.53 2152.24,1188.54 2222.11,1234.14 2291.97,1273.23 
  
  "/>
<circle clip-path="url(#clip202)" cx="265.903" cy="1354.05" r="14.4" fill="#e26f46" fill-rule="evenodd" fill-opacity="1" stroke="#000000" stroke-opacity="1" stroke-width="3.2"/>
<circle clip-path="url(#clip202)" cx="335.768" cy="1293.68" r="14.4" fill="#e26f46" fill-rule="evenodd" fill-opacity="1" stroke="#000000" stroke-opacity="1" stroke-width="3.2"/>
<circle clip-path="url(#clip202)" cx="405.632" cy="1112.55" r="14.4" fill="#e26f46" fill-rule="evenodd" fill-opacity="1" stroke="#000000" stroke-opacity="1" stroke-width="3.2"/>
<circle clip-path="url(#clip202)" cx="475.497" cy="1323.86" r="14.4" fill="#e26f46" fill-rule="evenodd" fill-opacity="1" stroke="#000000" stroke-opacity="1" stroke-width="3.2"/>
<circle clip-path="url(#clip202)" cx="545.361" cy="1021.99" r="14.4" fill="#e26f46" fill-rule="evenodd" fill-opacity="1" stroke="#000000" stroke-opacity="1" stroke-width="3.2"/>
<circle clip-path="url(#clip202)" cx="615.226" cy="1112.55" r="14.4" fill="#e26f46" fill-rule="evenodd" fill-opacity="1" stroke="#000000" stroke-opacity="1" stroke-width="3.2"/>
<circle clip-path="url(#clip202)" cx="685.09" cy="991.804" r="14.4" fill="#e26f46" fill-rule="evenodd" fill-opacity="1" stroke="#000000" stroke-opacity="1" stroke-width="3.2"/>
<circle clip-path="url(#clip202)" cx="754.955" cy="810.68" r="14.4" fill="#e26f46" fill-rule="evenodd" fill-opacity="1" stroke="#000000" stroke-opacity="1" stroke-width="3.2"/>
<circle clip-path="url(#clip202)" cx="824.819" cy="629.557" r="14.4" fill="#e26f46" fill-rule="evenodd" fill-opacity="1" stroke="#000000" stroke-opacity="1" stroke-width="3.2"/>
<circle clip-path="url(#clip202)" cx="894.684" cy="689.931" r="14.4" fill="#e26f46" fill-rule="evenodd" fill-opacity="1" stroke="#000000" stroke-opacity="1" stroke-width="3.2"/>
<circle clip-path="url(#clip202)" cx="964.548" cy="508.807" r="14.4" fill="#e26f46" fill-rule="evenodd" fill-opacity="1" stroke="#000000" stroke-opacity="1" stroke-width="3.2"/>
<circle clip-path="url(#clip202)" cx="1034.41" cy="538.995" r="14.4" fill="#e26f46" fill-rule="evenodd" fill-opacity="1" stroke="#000000" stroke-opacity="1" stroke-width="3.2"/>
<circle clip-path="url(#clip202)" cx="1104.28" cy="146.56" r="14.4" fill="#e26f46" fill-rule="evenodd" fill-opacity="1" stroke="#000000" stroke-opacity="1" stroke-width="3.2"/>
<circle clip-path="url(#clip202)" cx="1174.14" cy="146.56" r="14.4" fill="#e26f46" fill-rule="evenodd" fill-opacity="1" stroke="#000000" stroke-opacity="1" stroke-width="3.2"/>
<circle clip-path="url(#clip202)" cx="1244.01" cy="86.1857" r="14.4" fill="#e26f46" fill-rule="evenodd" fill-opacity="1" stroke="#000000" stroke-opacity="1" stroke-width="3.2"/>
<circle clip-path="url(#clip202)" cx="1313.87" cy="176.747" r="14.4" fill="#e26f46" fill-rule="evenodd" fill-opacity="1" stroke="#000000" stroke-opacity="1" stroke-width="3.2"/>
<circle clip-path="url(#clip202)" cx="1383.74" cy="146.56" r="14.4" fill="#e26f46" fill-rule="evenodd" fill-opacity="1" stroke="#000000" stroke-opacity="1" stroke-width="3.2"/>
<circle clip-path="url(#clip202)" cx="1453.6" cy="357.871" r="14.4" fill="#e26f46" fill-rule="evenodd" fill-opacity="1" stroke="#000000" stroke-opacity="1" stroke-width="3.2"/>
<circle clip-path="url(#clip202)" cx="1523.46" cy="86.1857" r="14.4" fill="#e26f46" fill-rule="evenodd" fill-opacity="1" stroke="#000000" stroke-opacity="1" stroke-width="3.2"/>
<circle clip-path="url(#clip202)" cx="1593.33" cy="448.433" r="14.4" fill="#e26f46" fill-rule="evenodd" fill-opacity="1" stroke="#000000" stroke-opacity="1" stroke-width="3.2"/>
<circle clip-path="url(#clip202)" cx="1663.19" cy="689.931" r="14.4" fill="#e26f46" fill-rule="evenodd" fill-opacity="1" stroke="#000000" stroke-opacity="1" stroke-width="3.2"/>
<circle clip-path="url(#clip202)" cx="1733.06" cy="901.242" r="14.4" fill="#e26f46" fill-rule="evenodd" fill-opacity="1" stroke="#000000" stroke-opacity="1" stroke-width="3.2"/>
<circle clip-path="url(#clip202)" cx="1802.92" cy="840.867" r="14.4" fill="#e26f46" fill-rule="evenodd" fill-opacity="1" stroke="#000000" stroke-opacity="1" stroke-width="3.2"/>
<circle clip-path="url(#clip202)" cx="1872.79" cy="931.429" r="14.4" fill="#e26f46" fill-rule="evenodd" fill-opacity="1" stroke="#000000" stroke-opacity="1" stroke-width="3.2"/>
<circle clip-path="url(#clip202)" cx="1942.65" cy="901.242" r="14.4" fill="#e26f46" fill-rule="evenodd" fill-opacity="1" stroke="#000000" stroke-opacity="1" stroke-width="3.2"/>
<circle clip-path="url(#clip202)" cx="2012.52" cy="1082.37" r="14.4" fill="#e26f46" fill-rule="evenodd" fill-opacity="1" stroke="#000000" stroke-opacity="1" stroke-width="3.2"/>
<circle clip-path="url(#clip202)" cx="2082.38" cy="1142.74" r="14.4" fill="#e26f46" fill-rule="evenodd" fill-opacity="1" stroke="#000000" stroke-opacity="1" stroke-width="3.2"/>
<circle clip-path="url(#clip202)" cx="2152.24" cy="1384.24" r="14.4" fill="#e26f46" fill-rule="evenodd" fill-opacity="1" stroke="#000000" stroke-opacity="1" stroke-width="3.2"/>
<circle clip-path="url(#clip202)" cx="2222.11" cy="1142.74" r="14.4" fill="#e26f46" fill-rule="evenodd" fill-opacity="1" stroke="#000000" stroke-opacity="1" stroke-width="3.2"/>
<circle clip-path="url(#clip202)" cx="2291.97" cy="1233.3" r="14.4" fill="#e26f46" fill-rule="evenodd" fill-opacity="1" stroke="#000000" stroke-opacity="1" stroke-width="3.2"/>
<path clip-path="url(#clip200)" d="
M1799.67 248.629 L2281.17 248.629 L2281.17 93.1086 L1799.67 93.1086  Z
  " fill="#ffffff" fill-rule="evenodd" fill-opacity="1"/>
<polyline clip-path="url(#clip200)" style="stroke:#000000; stroke-linecap:round; stroke-linejoin:round; stroke-width:4; stroke-opacity:1; fill:none" points="
  1799.67,248.629 2281.17,248.629 2281.17,93.1086 1799.67,93.1086 1799.67,248.629 
  "/>
<polyline clip-path="url(#clip200)" style="stroke:#009af9; stroke-linecap:round; stroke-linejoin:round; stroke-width:4; stroke-opacity:1; fill:none" points="
  1823.54,144.949 1966.71,144.949 
  "/>
<path clip-path="url(#clip200)" d="M1990.57 127.669 L2019.81 127.669 L2019.81 131.604 L2007.54 131.604 L2007.54 162.229 L2002.84 162.229 L2002.84 131.604 L1990.57 131.604 L1990.57 127.669 Z" fill="#000000" fill-rule="evenodd" fill-opacity="1" /><path clip-path="url(#clip200)" d="M2032.19 140.284 Q2031.48 139.868 2030.62 139.682 Q2029.79 139.474 2028.77 139.474 Q2025.16 139.474 2023.21 141.835 Q2021.29 144.173 2021.29 148.571 L2021.29 162.229 L2017.01 162.229 L2017.01 136.303 L2021.29 136.303 L2021.29 140.331 Q2022.63 137.969 2024.79 136.835 Q2026.94 135.678 2030.02 135.678 Q2030.46 135.678 2030.99 135.747 Q2031.52 135.794 2032.17 135.909 L2032.19 140.284 Z" fill="#000000" fill-rule="evenodd" fill-opacity="1" /><path clip-path="url(#clip200)" d="M2036.22 151.997 L2036.22 136.303 L2040.48 136.303 L2040.48 151.835 Q2040.48 155.516 2041.92 157.368 Q2043.35 159.196 2046.22 159.196 Q2049.67 159.196 2051.66 156.997 Q2053.68 154.798 2053.68 151.002 L2053.68 136.303 L2057.93 136.303 L2057.93 162.229 L2053.68 162.229 L2053.68 158.247 Q2052.12 160.608 2050.06 161.766 Q2048.03 162.9 2045.32 162.9 Q2040.85 162.9 2038.54 160.122 Q2036.22 157.344 2036.22 151.997 M2046.94 135.678 L2046.94 135.678 Z" fill="#000000" fill-rule="evenodd" fill-opacity="1" /><path clip-path="url(#clip200)" d="M2088.88 148.201 L2088.88 150.284 L2069.3 150.284 Q2069.58 154.682 2071.94 156.997 Q2074.32 159.289 2078.56 159.289 Q2081.01 159.289 2083.3 158.687 Q2085.62 158.085 2087.89 156.881 L2087.89 160.909 Q2085.6 161.881 2083.19 162.391 Q2080.78 162.9 2078.3 162.9 Q2072.1 162.9 2068.47 159.289 Q2064.86 155.678 2064.86 149.52 Q2064.86 143.155 2068.28 139.428 Q2071.73 135.678 2077.56 135.678 Q2082.8 135.678 2085.83 139.057 Q2088.88 142.414 2088.88 148.201 M2084.62 146.951 Q2084.58 143.456 2082.66 141.372 Q2080.76 139.289 2077.61 139.289 Q2074.05 139.289 2071.89 141.303 Q2069.76 143.317 2069.44 146.974 L2084.62 146.951 Z" fill="#000000" fill-rule="evenodd" fill-opacity="1" /><path clip-path="url(#clip200)" d="M2107.89 136.303 L2112.4 136.303 L2120.5 158.062 L2128.61 136.303 L2133.12 136.303 L2123.4 162.229 L2117.61 162.229 L2107.89 136.303 Z" fill="#000000" fill-rule="evenodd" fill-opacity="1" /><path clip-path="url(#clip200)" d="M2150.78 149.196 Q2145.62 149.196 2143.63 150.377 Q2141.64 151.557 2141.64 154.405 Q2141.64 156.673 2143.12 158.016 Q2144.62 159.335 2147.19 159.335 Q2150.73 159.335 2152.86 156.835 Q2155.02 154.312 2155.02 150.145 L2155.02 149.196 L2150.78 149.196 M2159.28 147.437 L2159.28 162.229 L2155.02 162.229 L2155.02 158.293 Q2153.56 160.655 2151.38 161.789 Q2149.21 162.9 2146.06 162.9 Q2142.08 162.9 2139.72 160.678 Q2137.38 158.432 2137.38 154.682 Q2137.38 150.307 2140.3 148.085 Q2143.24 145.863 2149.05 145.863 L2155.02 145.863 L2155.02 145.446 Q2155.02 142.507 2153.07 140.909 Q2151.15 139.289 2147.66 139.289 Q2145.43 139.289 2143.33 139.821 Q2141.22 140.354 2139.28 141.419 L2139.28 137.483 Q2141.61 136.581 2143.81 136.141 Q2146.01 135.678 2148.1 135.678 Q2153.72 135.678 2156.5 138.594 Q2159.28 141.511 2159.28 147.437 Z" fill="#000000" fill-rule="evenodd" fill-opacity="1" /><path clip-path="url(#clip200)" d="M2168.05 126.21 L2172.31 126.21 L2172.31 162.229 L2168.05 162.229 L2168.05 126.21 Z" fill="#000000" fill-rule="evenodd" fill-opacity="1" /><path clip-path="url(#clip200)" d="M2180.78 151.997 L2180.78 136.303 L2185.04 136.303 L2185.04 151.835 Q2185.04 155.516 2186.48 157.368 Q2187.91 159.196 2190.78 159.196 Q2194.23 159.196 2196.22 156.997 Q2198.23 154.798 2198.23 151.002 L2198.23 136.303 L2202.49 136.303 L2202.49 162.229 L2198.23 162.229 L2198.23 158.247 Q2196.68 160.608 2194.62 161.766 Q2192.59 162.9 2189.88 162.9 Q2185.41 162.9 2183.1 160.122 Q2180.78 157.344 2180.78 151.997 M2191.5 135.678 L2191.5 135.678 Z" fill="#000000" fill-rule="evenodd" fill-opacity="1" /><path clip-path="url(#clip200)" d="M2233.44 148.201 L2233.44 150.284 L2213.86 150.284 Q2214.14 154.682 2216.5 156.997 Q2218.88 159.289 2223.12 159.289 Q2225.57 159.289 2227.86 158.687 Q2230.18 158.085 2232.45 156.881 L2232.45 160.909 Q2230.16 161.881 2227.75 162.391 Q2225.34 162.9 2222.86 162.9 Q2216.66 162.9 2213.03 159.289 Q2209.42 155.678 2209.42 149.52 Q2209.42 143.155 2212.84 139.428 Q2216.29 135.678 2222.12 135.678 Q2227.35 135.678 2230.39 139.057 Q2233.44 142.414 2233.44 148.201 M2229.18 146.951 Q2229.14 143.456 2227.22 141.372 Q2225.32 139.289 2222.17 139.289 Q2218.6 139.289 2216.45 141.303 Q2214.32 143.317 2214 146.974 L2229.18 146.951 Z" fill="#000000" fill-rule="evenodd" fill-opacity="1" /><circle clip-path="url(#clip200)" cx="1895.12" cy="196.789" r="23.04" fill="#e26f46" fill-rule="evenodd" fill-opacity="1" stroke="#000000" stroke-opacity="1" stroke-width="5.12"/>
<path clip-path="url(#clip200)" d="M1995.25 183.351 L1995.25 210.226 L2000.9 210.226 Q2008.05 210.226 2011.36 206.985 Q2014.69 203.745 2014.69 196.754 Q2014.69 189.809 2011.36 186.592 Q2008.05 183.351 2000.9 183.351 L1995.25 183.351 M1990.57 179.509 L2000.18 179.509 Q2010.23 179.509 2014.93 183.698 Q2019.62 187.865 2019.62 196.754 Q2019.62 205.689 2014.9 209.879 Q2010.18 214.069 2000.18 214.069 L1990.57 214.069 L1990.57 179.509 Z" fill="#000000" fill-rule="evenodd" fill-opacity="1" /><path clip-path="url(#clip200)" d="M2038.68 201.036 Q2033.51 201.036 2031.52 202.217 Q2029.53 203.397 2029.53 206.245 Q2029.53 208.513 2031.01 209.856 Q2032.52 211.175 2035.09 211.175 Q2038.63 211.175 2040.76 208.675 Q2042.91 206.152 2042.91 201.985 L2042.91 201.036 L2038.68 201.036 M2047.17 199.277 L2047.17 214.069 L2042.91 214.069 L2042.91 210.133 Q2041.45 212.495 2039.28 213.629 Q2037.1 214.74 2033.95 214.74 Q2029.97 214.74 2027.61 212.518 Q2025.27 210.272 2025.27 206.522 Q2025.27 202.147 2028.19 199.925 Q2031.13 197.703 2036.94 197.703 L2042.91 197.703 L2042.91 197.286 Q2042.91 194.347 2040.97 192.749 Q2039.05 191.129 2035.55 191.129 Q2033.33 191.129 2031.22 191.661 Q2029.12 192.194 2027.17 193.259 L2027.17 189.323 Q2029.51 188.421 2031.71 187.981 Q2033.91 187.518 2035.99 187.518 Q2041.62 187.518 2044.39 190.434 Q2047.17 193.351 2047.17 199.277 Z" fill="#000000" fill-rule="evenodd" fill-opacity="1" /><path clip-path="url(#clip200)" d="M2060.16 180.782 L2060.16 188.143 L2068.93 188.143 L2068.93 191.453 L2060.16 191.453 L2060.16 205.527 Q2060.16 208.698 2061.01 209.601 Q2061.89 210.504 2064.55 210.504 L2068.93 210.504 L2068.93 214.069 L2064.55 214.069 Q2059.62 214.069 2057.75 212.24 Q2055.87 210.388 2055.87 205.527 L2055.87 191.453 L2052.75 191.453 L2052.75 188.143 L2055.87 188.143 L2055.87 180.782 L2060.16 180.782 Z" fill="#000000" fill-rule="evenodd" fill-opacity="1" /><path clip-path="url(#clip200)" d="M2086.31 201.036 Q2081.15 201.036 2079.16 202.217 Q2077.17 203.397 2077.17 206.245 Q2077.17 208.513 2078.65 209.856 Q2080.16 211.175 2082.73 211.175 Q2086.27 211.175 2088.4 208.675 Q2090.55 206.152 2090.55 201.985 L2090.55 201.036 L2086.31 201.036 M2094.81 199.277 L2094.81 214.069 L2090.55 214.069 L2090.55 210.133 Q2089.09 212.495 2086.92 213.629 Q2084.74 214.74 2081.59 214.74 Q2077.61 214.74 2075.25 212.518 Q2072.91 210.272 2072.91 206.522 Q2072.91 202.147 2075.83 199.925 Q2078.77 197.703 2084.58 197.703 L2090.55 197.703 L2090.55 197.286 Q2090.55 194.347 2088.61 192.749 Q2086.68 191.129 2083.19 191.129 Q2080.97 191.129 2078.86 191.661 Q2076.75 192.194 2074.81 193.259 L2074.81 189.323 Q2077.15 188.421 2079.35 187.981 Q2081.55 187.518 2083.63 187.518 Q2089.25 187.518 2092.03 190.434 Q2094.81 193.351 2094.81 199.277 Z" fill="#000000" fill-rule="evenodd" fill-opacity="1" /></svg>
