<?xml version="1.0" encoding="utf-8"?>
<svg xmlns="http://www.w3.org/2000/svg" xmlns:xlink="http://www.w3.org/1999/xlink" width="600" height="400" viewBox="0 0 2400 1600">
<defs>
  <clipPath id="clip250">
    <rect x="0" y="0" width="2400" height="1600"/>
  </clipPath>
</defs>
<path clip-path="url(#clip250)" d="
M0 1600 L2400 1600 L2400 0 L0 0  Z
  " fill="#ffffff" fill-rule="evenodd" fill-opacity="1"/>
<defs>
  <clipPath id="clip251">
    <rect x="480" y="0" width="1681" height="1600"/>
  </clipPath>
</defs>
<path clip-path="url(#clip250)" d="
M249.542 1423.18 L2352.76 1423.18 L2352.76 47.2441 L249.542 47.2441  Z
  " fill="#ffffff" fill-rule="evenodd" fill-opacity="1"/>
<defs>
  <clipPath id="clip252">
    <rect x="249" y="47" width="2104" height="1377"/>
  </clipPath>
</defs>
<polyline clip-path="url(#clip252)" style="stroke:#000000; stroke-linecap:round; stroke-linejoin:round; stroke-width:2; stroke-opacity:0.1; fill:none" points="
  249.542,1423.18 249.542,47.2441 
  "/>
<polyline clip-path="url(#clip252)" style="stroke:#000000; stroke-linecap:round; stroke-linejoin:round; stroke-width:2; stroke-opacity:0.1; fill:none" points="
  775.346,1423.18 775.346,47.2441 
  "/>
<polyline clip-path="url(#clip252)" style="stroke:#000000; stroke-linecap:round; stroke-linejoin:round; stroke-width:2; stroke-opacity:0.1; fill:none" points="
  1301.15,1423.18 1301.15,47.2441 
  "/>
<polyline clip-path="url(#clip252)" style="stroke:#000000; stroke-linecap:round; stroke-linejoin:round; stroke-width:2; stroke-opacity:0.1; fill:none" points="
  1826.95,1423.18 1826.95,47.2441 
  "/>
<polyline clip-path="url(#clip252)" style="stroke:#000000; stroke-linecap:round; stroke-linejoin:round; stroke-width:2; stroke-opacity:0.1; fill:none" points="
  2352.76,1423.18 2352.76,47.2441 
  "/>
<polyline clip-path="url(#clip250)" style="stroke:#000000; stroke-linecap:round; stroke-linejoin:round; stroke-width:4; stroke-opacity:1; fill:none" points="
  249.542,1423.18 2352.76,1423.18 
  "/>
<polyline clip-path="url(#clip250)" style="stroke:#000000; stroke-linecap:round; stroke-linejoin:round; stroke-width:4; stroke-opacity:1; fill:none" points="
  249.542,1423.18 249.542,1404.28 
  "/>
<polyline clip-path="url(#clip250)" style="stroke:#000000; stroke-linecap:round; stroke-linejoin:round; stroke-width:4; stroke-opacity:1; fill:none" points="
  775.346,1423.18 775.346,1404.28 
  "/>
<polyline clip-path="url(#clip250)" style="stroke:#000000; stroke-linecap:round; stroke-linejoin:round; stroke-width:4; stroke-opacity:1; fill:none" points="
  1301.15,1423.18 1301.15,1404.28 
  "/>
<polyline clip-path="url(#clip250)" style="stroke:#000000; stroke-linecap:round; stroke-linejoin:round; stroke-width:4; stroke-opacity:1; fill:none" points="
  1826.95,1423.18 1826.95,1404.28 
  "/>
<polyline clip-path="url(#clip250)" style="stroke:#000000; stroke-linecap:round; stroke-linejoin:round; stroke-width:4; stroke-opacity:1; fill:none" points="
  2352.76,1423.18 2352.76,1404.28 
  "/>
<path clip-path="url(#clip250)" d="M249.542 1454.1 Q245.931 1454.1 244.102 1457.66 Q242.297 1461.2 242.297 1468.33 Q242.297 1475.44 244.102 1479.01 Q245.931 1482.55 249.542 1482.55 Q253.176 1482.55 254.982 1479.01 Q256.811 1475.44 256.811 1468.33 Q256.811 1461.2 254.982 1457.66 Q253.176 1454.1 249.542 1454.1 M249.542 1450.39 Q255.352 1450.39 258.408 1455 Q261.486 1459.58 261.486 1468.33 Q261.486 1477.06 258.408 1481.67 Q255.352 1486.25 249.542 1486.25 Q243.732 1486.25 240.653 1481.67 Q237.598 1477.06 237.598 1468.33 Q237.598 1459.58 240.653 1455 Q243.732 1450.39 249.542 1450.39 Z" fill="#000000" fill-rule="evenodd" fill-opacity="1" /><path clip-path="url(#clip250)" d="M750.033 1481.64 L757.672 1481.64 L757.672 1455.28 L749.362 1456.95 L749.362 1452.69 L757.626 1451.02 L762.302 1451.02 L762.302 1481.64 L769.94 1481.64 L769.94 1485.58 L750.033 1485.58 L750.033 1481.64 Z" fill="#000000" fill-rule="evenodd" fill-opacity="1" /><path clip-path="url(#clip250)" d="M789.385 1454.1 Q785.774 1454.1 783.945 1457.66 Q782.139 1461.2 782.139 1468.33 Q782.139 1475.44 783.945 1479.01 Q785.774 1482.55 789.385 1482.55 Q793.019 1482.55 794.825 1479.01 Q796.653 1475.44 796.653 1468.33 Q796.653 1461.2 794.825 1457.66 Q793.019 1454.1 789.385 1454.1 M789.385 1450.39 Q795.195 1450.39 798.25 1455 Q801.329 1459.58 801.329 1468.33 Q801.329 1477.06 798.25 1481.67 Q795.195 1486.25 789.385 1486.25 Q783.575 1486.25 780.496 1481.67 Q777.44 1477.06 777.44 1468.33 Q777.44 1459.58 780.496 1455 Q783.575 1450.39 789.385 1450.39 Z" fill="#000000" fill-rule="evenodd" fill-opacity="1" /><path clip-path="url(#clip250)" d="M1279.92 1481.64 L1296.24 1481.64 L1296.24 1485.58 L1274.3 1485.58 L1274.3 1481.64 Q1276.96 1478.89 1281.54 1474.26 Q1286.15 1469.61 1287.33 1468.27 Q1289.57 1465.74 1290.45 1464.01 Q1291.36 1462.25 1291.36 1460.56 Q1291.36 1457.8 1289.41 1456.07 Q1287.49 1454.33 1284.39 1454.33 Q1282.19 1454.33 1279.74 1455.09 Q1277.31 1455.86 1274.53 1457.41 L1274.53 1452.69 Q1277.35 1451.55 1279.81 1450.97 Q1282.26 1450.39 1284.3 1450.39 Q1289.67 1450.39 1292.86 1453.08 Q1296.06 1455.77 1296.06 1460.26 Q1296.06 1462.39 1295.25 1464.31 Q1294.46 1466.2 1292.35 1468.8 Q1291.77 1469.47 1288.67 1472.69 Q1285.57 1475.88 1279.92 1481.64 Z" fill="#000000" fill-rule="evenodd" fill-opacity="1" /><path clip-path="url(#clip250)" d="M1316.06 1454.1 Q1312.45 1454.1 1310.62 1457.66 Q1308.81 1461.2 1308.81 1468.33 Q1308.81 1475.44 1310.62 1479.01 Q1312.45 1482.55 1316.06 1482.55 Q1319.69 1482.55 1321.5 1479.01 Q1323.32 1475.44 1323.32 1468.33 Q1323.32 1461.2 1321.5 1457.66 Q1319.69 1454.1 1316.06 1454.1 M1316.06 1450.39 Q1321.87 1450.39 1324.92 1455 Q1328 1459.58 1328 1468.33 Q1328 1477.06 1324.92 1481.67 Q1321.87 1486.25 1316.06 1486.25 Q1310.25 1486.25 1307.17 1481.67 Q1304.11 1477.06 1304.11 1468.33 Q1304.11 1459.58 1307.17 1455 Q1310.25 1450.39 1316.06 1450.39 Z" fill="#000000" fill-rule="evenodd" fill-opacity="1" /><path clip-path="url(#clip250)" d="M1815.8 1466.95 Q1819.15 1467.66 1821.03 1469.93 Q1822.92 1472.2 1822.92 1475.53 Q1822.92 1480.65 1819.41 1483.45 Q1815.89 1486.25 1809.41 1486.25 Q1807.23 1486.25 1804.92 1485.81 Q1802.62 1485.39 1800.17 1484.54 L1800.17 1480.02 Q1802.11 1481.16 1804.43 1481.74 Q1806.74 1482.32 1809.27 1482.32 Q1813.67 1482.32 1815.96 1480.58 Q1818.27 1478.84 1818.27 1475.53 Q1818.27 1472.48 1816.12 1470.77 Q1813.99 1469.03 1810.17 1469.03 L1806.14 1469.03 L1806.14 1465.19 L1810.36 1465.19 Q1813.8 1465.19 1815.63 1463.82 Q1817.46 1462.43 1817.46 1459.84 Q1817.46 1457.18 1815.56 1455.77 Q1813.69 1454.33 1810.17 1454.33 Q1808.25 1454.33 1806.05 1454.75 Q1803.85 1455.16 1801.21 1456.04 L1801.21 1451.88 Q1803.87 1451.14 1806.19 1450.77 Q1808.53 1450.39 1810.59 1450.39 Q1815.91 1450.39 1819.01 1452.83 Q1822.11 1455.23 1822.11 1459.35 Q1822.11 1462.22 1820.47 1464.21 Q1818.83 1466.18 1815.8 1466.95 Z" fill="#000000" fill-rule="evenodd" fill-opacity="1" /><path clip-path="url(#clip250)" d="M1841.79 1454.1 Q1838.18 1454.1 1836.35 1457.66 Q1834.54 1461.2 1834.54 1468.33 Q1834.54 1475.44 1836.35 1479.01 Q1838.18 1482.55 1841.79 1482.55 Q1845.42 1482.55 1847.23 1479.01 Q1849.06 1475.44 1849.06 1468.33 Q1849.06 1461.2 1847.23 1457.66 Q1845.42 1454.1 1841.79 1454.1 M1841.79 1450.39 Q1847.6 1450.39 1850.66 1455 Q1853.73 1459.58 1853.73 1468.33 Q1853.73 1477.06 1850.66 1481.67 Q1847.6 1486.25 1841.79 1486.25 Q1835.98 1486.25 1832.9 1481.67 Q1829.85 1477.06 1829.85 1468.33 Q1829.85 1459.58 1832.9 1455 Q1835.98 1450.39 1841.79 1450.39 Z" fill="#000000" fill-rule="evenodd" fill-opacity="1" /><path clip-path="url(#clip250)" d="M2340.93 1455.09 L2329.12 1473.54 L2340.93 1473.54 L2340.93 1455.09 M2339.7 1451.02 L2345.58 1451.02 L2345.58 1473.54 L2350.51 1473.54 L2350.51 1477.43 L2345.58 1477.43 L2345.58 1485.58 L2340.93 1485.58 L2340.93 1477.43 L2325.33 1477.43 L2325.33 1472.92 L2339.7 1451.02 Z" fill="#000000" fill-rule="evenodd" fill-opacity="1" /><path clip-path="url(#clip250)" d="M2368.24 1454.1 Q2364.63 1454.1 2362.8 1457.66 Q2361 1461.2 2361 1468.33 Q2361 1475.44 2362.8 1479.01 Q2364.63 1482.55 2368.24 1482.55 Q2371.88 1482.55 2373.68 1479.01 Q2375.51 1475.44 2375.51 1468.33 Q2375.51 1461.2 2373.68 1457.66 Q2371.88 1454.1 2368.24 1454.1 M2368.24 1450.39 Q2374.05 1450.39 2377.11 1455 Q2380.19 1459.58 2380.19 1468.33 Q2380.19 1477.06 2377.11 1481.67 Q2374.05 1486.25 2368.24 1486.25 Q2362.43 1486.25 2359.35 1481.67 Q2356.3 1477.06 2356.3 1468.33 Q2356.3 1459.58 2359.35 1455 Q2362.43 1450.39 2368.24 1450.39 Z" fill="#000000" fill-rule="evenodd" fill-opacity="1" /><path clip-path="url(#clip250)" d="M1223.03 1520.52 L1263.23 1520.52 L1263.23 1525.93 L1246.36 1525.93 L1246.36 1568.04 L1239.89 1568.04 L1239.89 1525.93 L1223.03 1525.93 L1223.03 1520.52 Z" fill="#000000" fill-rule="evenodd" fill-opacity="1" /><path clip-path="url(#clip250)" d="M1267.17 1532.4 L1273.03 1532.4 L1273.03 1568.04 L1267.17 1568.04 L1267.17 1532.4 M1267.17 1518.52 L1273.03 1518.52 L1273.03 1525.93 L1267.17 1525.93 L1267.17 1518.52 Z" fill="#000000" fill-rule="evenodd" fill-opacity="1" /><path clip-path="url(#clip250)" d="M1313.04 1539.24 Q1315.23 1535.29 1318.29 1533.41 Q1321.34 1531.54 1325.48 1531.54 Q1331.05 1531.54 1334.08 1535.45 Q1337.1 1539.33 1337.1 1546.53 L1337.1 1568.04 L1331.21 1568.04 L1331.21 1546.72 Q1331.21 1541.59 1329.4 1539.11 Q1327.58 1536.63 1323.86 1536.63 Q1319.31 1536.63 1316.67 1539.65 Q1314.02 1542.68 1314.02 1547.9 L1314.02 1568.04 L1308.14 1568.04 L1308.14 1546.72 Q1308.14 1541.56 1306.32 1539.11 Q1304.51 1536.63 1300.72 1536.63 Q1296.23 1536.63 1293.59 1539.68 Q1290.95 1542.71 1290.95 1547.9 L1290.95 1568.04 L1285.06 1568.04 L1285.06 1532.4 L1290.95 1532.4 L1290.95 1537.93 Q1292.95 1534.66 1295.75 1533.1 Q1298.55 1531.54 1302.41 1531.54 Q1306.29 1531.54 1308.99 1533.51 Q1311.73 1535.48 1313.04 1539.24 Z" fill="#000000" fill-rule="evenodd" fill-opacity="1" /><path clip-path="url(#clip250)" d="M1379.27 1548.76 L1379.27 1551.62 L1352.35 1551.62 Q1352.73 1557.67 1355.97 1560.85 Q1359.25 1564 1365.08 1564 Q1368.45 1564 1371.6 1563.17 Q1374.78 1562.35 1377.9 1560.69 L1377.9 1566.23 Q1374.75 1567.57 1371.44 1568.27 Q1368.13 1568.97 1364.73 1568.97 Q1356.2 1568.97 1351.2 1564 Q1346.23 1559.04 1346.23 1550.57 Q1346.23 1541.82 1350.94 1536.69 Q1355.69 1531.54 1363.71 1531.54 Q1370.9 1531.54 1375.07 1536.18 Q1379.27 1540.8 1379.27 1548.76 M1373.42 1547.04 Q1373.35 1542.23 1370.71 1539.37 Q1368.1 1536.5 1363.77 1536.5 Q1358.87 1536.5 1355.91 1539.27 Q1352.98 1542.04 1352.54 1547.07 L1373.42 1547.04 Z" fill="#000000" fill-rule="evenodd" fill-opacity="1" /><polyline clip-path="url(#clip252)" style="stroke:#000000; stroke-linecap:round; stroke-linejoin:round; stroke-width:2; stroke-opacity:0.1; fill:none" points="
  249.542,1384.24 2352.76,1384.24 
  "/>
<polyline clip-path="url(#clip252)" style="stroke:#000000; stroke-linecap:round; stroke-linejoin:round; stroke-width:2; stroke-opacity:0.1; fill:none" points="
  249.542,1056.45 2352.76,1056.45 
  "/>
<polyline clip-path="url(#clip252)" style="stroke:#000000; stroke-linecap:round; stroke-linejoin:round; stroke-width:2; stroke-opacity:0.1; fill:none" points="
  249.542,728.656 2352.76,728.656 
  "/>
<polyline clip-path="url(#clip252)" style="stroke:#000000; stroke-linecap:round; stroke-linejoin:round; stroke-width:2; stroke-opacity:0.1; fill:none" points="
  249.542,400.865 2352.76,400.865 
  "/>
<polyline clip-path="url(#clip252)" style="stroke:#000000; stroke-linecap:round; stroke-linejoin:round; stroke-width:2; stroke-opacity:0.1; fill:none" points="
  249.542,73.074 2352.76,73.074 
  "/>
<polyline clip-path="url(#clip250)" style="stroke:#000000; stroke-linecap:round; stroke-linejoin:round; stroke-width:4; stroke-opacity:1; fill:none" points="
  249.542,1423.18 249.542,47.2441 
  "/>
<polyline clip-path="url(#clip250)" style="stroke:#000000; stroke-linecap:round; stroke-linejoin:round; stroke-width:4; stroke-opacity:1; fill:none" points="
  249.542,1384.24 268.44,1384.24 
  "/>
<polyline clip-path="url(#clip250)" style="stroke:#000000; stroke-linecap:round; stroke-linejoin:round; stroke-width:4; stroke-opacity:1; fill:none" points="
  249.542,1056.45 268.44,1056.45 
  "/>
<polyline clip-path="url(#clip250)" style="stroke:#000000; stroke-linecap:round; stroke-linejoin:round; stroke-width:4; stroke-opacity:1; fill:none" points="
  249.542,728.656 268.44,728.656 
  "/>
<polyline clip-path="url(#clip250)" style="stroke:#000000; stroke-linecap:round; stroke-linejoin:round; stroke-width:4; stroke-opacity:1; fill:none" points="
  249.542,400.865 268.44,400.865 
  "/>
<polyline clip-path="url(#clip250)" style="stroke:#000000; stroke-linecap:round; stroke-linejoin:round; stroke-width:4; stroke-opacity:1; fill:none" points="
  249.542,73.074 268.44,73.074 
  "/>
<path clip-path="url(#clip250)" d="M126.205 1370.04 Q122.593 1370.04 120.765 1373.6 Q118.959 1377.14 118.959 1384.27 Q118.959 1391.38 120.765 1394.94 Q122.593 1398.49 126.205 1398.49 Q129.839 1398.49 131.644 1394.94 Q133.473 1391.38 133.473 1384.27 Q133.473 1377.14 131.644 1373.6 Q129.839 1370.04 126.205 1370.04 M126.205 1366.33 Q132.015 1366.33 135.07 1370.94 Q138.149 1375.52 138.149 1384.27 Q138.149 1393 135.07 1397.61 Q132.015 1402.19 126.205 1402.19 Q120.394 1402.19 117.316 1397.61 Q114.26 1393 114.26 1384.27 Q114.26 1375.52 117.316 1370.94 Q120.394 1366.33 126.205 1366.33 Z" fill="#000000" fill-rule="evenodd" fill-opacity="1" /><path clip-path="url(#clip250)" d="M146.366 1395.64 L151.251 1395.64 L151.251 1401.52 L146.366 1401.52 L146.366 1395.64 Z" fill="#000000" fill-rule="evenodd" fill-opacity="1" /><path clip-path="url(#clip250)" d="M171.436 1370.04 Q167.825 1370.04 165.996 1373.6 Q164.19 1377.14 164.19 1384.27 Q164.19 1391.38 165.996 1394.94 Q167.825 1398.49 171.436 1398.49 Q175.07 1398.49 176.876 1394.94 Q178.704 1391.38 178.704 1384.27 Q178.704 1377.14 176.876 1373.6 Q175.07 1370.04 171.436 1370.04 M171.436 1366.33 Q177.246 1366.33 180.301 1370.94 Q183.38 1375.52 183.38 1384.27 Q183.38 1393 180.301 1397.61 Q177.246 1402.19 171.436 1402.19 Q165.626 1402.19 162.547 1397.61 Q159.491 1393 159.491 1384.27 Q159.491 1375.52 162.547 1370.94 Q165.626 1366.33 171.436 1366.33 Z" fill="#000000" fill-rule="evenodd" fill-opacity="1" /><path clip-path="url(#clip250)" d="M201.598 1370.04 Q197.987 1370.04 196.158 1373.6 Q194.352 1377.14 194.352 1384.27 Q194.352 1391.38 196.158 1394.94 Q197.987 1398.49 201.598 1398.49 Q205.232 1398.49 207.037 1394.94 Q208.866 1391.38 208.866 1384.27 Q208.866 1377.14 207.037 1373.6 Q205.232 1370.04 201.598 1370.04 M201.598 1366.33 Q207.408 1366.33 210.463 1370.94 Q213.542 1375.52 213.542 1384.27 Q213.542 1393 210.463 1397.61 Q207.408 1402.19 201.598 1402.19 Q195.787 1402.19 192.709 1397.61 Q189.653 1393 189.653 1384.27 Q189.653 1375.52 192.709 1370.94 Q195.787 1366.33 201.598 1366.33 Z" fill="#000000" fill-rule="evenodd" fill-opacity="1" /><path clip-path="url(#clip250)" d="M127.2 1042.25 Q123.589 1042.25 121.76 1045.81 Q119.955 1049.35 119.955 1056.48 Q119.955 1063.59 121.76 1067.15 Q123.589 1070.69 127.2 1070.69 Q130.834 1070.69 132.64 1067.15 Q134.468 1063.59 134.468 1056.48 Q134.468 1049.35 132.64 1045.81 Q130.834 1042.25 127.2 1042.25 M127.2 1038.54 Q133.01 1038.54 136.066 1043.15 Q139.144 1047.73 139.144 1056.48 Q139.144 1065.21 136.066 1069.82 Q133.01 1074.4 127.2 1074.4 Q121.39 1074.4 118.311 1069.82 Q115.256 1065.21 115.256 1056.48 Q115.256 1047.73 118.311 1043.15 Q121.39 1038.54 127.2 1038.54 Z" fill="#000000" fill-rule="evenodd" fill-opacity="1" /><path clip-path="url(#clip250)" d="M147.362 1067.85 L152.246 1067.85 L152.246 1073.73 L147.362 1073.73 L147.362 1067.85 Z" fill="#000000" fill-rule="evenodd" fill-opacity="1" /><path clip-path="url(#clip250)" d="M166.459 1069.79 L182.778 1069.79 L182.778 1073.73 L160.834 1073.73 L160.834 1069.79 Q163.496 1067.04 168.079 1062.41 Q172.686 1057.76 173.866 1056.41 Q176.112 1053.89 176.991 1052.15 Q177.894 1050.39 177.894 1048.7 Q177.894 1045.95 175.95 1044.21 Q174.028 1042.48 170.927 1042.48 Q168.727 1042.48 166.274 1043.24 Q163.843 1044.01 161.065 1045.56 L161.065 1040.83 Q163.89 1039.7 166.343 1039.12 Q168.797 1038.54 170.834 1038.54 Q176.204 1038.54 179.399 1041.23 Q182.593 1043.91 182.593 1048.4 Q182.593 1050.53 181.783 1052.45 Q180.996 1054.35 178.889 1056.94 Q178.311 1057.62 175.209 1060.83 Q172.107 1064.03 166.459 1069.79 Z" fill="#000000" fill-rule="evenodd" fill-opacity="1" /><path clip-path="url(#clip250)" d="M192.639 1039.17 L210.996 1039.17 L210.996 1043.1 L196.922 1043.1 L196.922 1051.57 Q197.94 1051.23 198.959 1051.07 Q199.977 1050.88 200.996 1050.88 Q206.783 1050.88 210.162 1054.05 Q213.542 1057.22 213.542 1062.64 Q213.542 1068.22 210.07 1071.32 Q206.598 1074.4 200.278 1074.4 Q198.102 1074.4 195.834 1074.03 Q193.588 1073.66 191.181 1072.92 L191.181 1068.22 Q193.264 1069.35 195.487 1069.91 Q197.709 1070.46 200.186 1070.46 Q204.19 1070.46 206.528 1068.36 Q208.866 1066.25 208.866 1062.64 Q208.866 1059.03 206.528 1056.92 Q204.19 1054.82 200.186 1054.82 Q198.311 1054.82 196.436 1055.23 Q194.584 1055.65 192.639 1056.53 L192.639 1039.17 Z" fill="#000000" fill-rule="evenodd" fill-opacity="1" /><path clip-path="url(#clip250)" d="M126.205 714.455 Q122.593 714.455 120.765 718.02 Q118.959 721.561 118.959 728.691 Q118.959 735.797 120.765 739.362 Q122.593 742.904 126.205 742.904 Q129.839 742.904 131.644 739.362 Q133.473 735.797 133.473 728.691 Q133.473 721.561 131.644 718.02 Q129.839 714.455 126.205 714.455 M126.205 710.751 Q132.015 710.751 135.07 715.358 Q138.149 719.941 138.149 728.691 Q138.149 737.418 135.07 742.024 Q132.015 746.607 126.205 746.607 Q120.394 746.607 117.316 742.024 Q114.26 737.418 114.26 728.691 Q114.26 719.941 117.316 715.358 Q120.394 710.751 126.205 710.751 Z" fill="#000000" fill-rule="evenodd" fill-opacity="1" /><path clip-path="url(#clip250)" d="M146.366 740.057 L151.251 740.057 L151.251 745.936 L146.366 745.936 L146.366 740.057 Z" fill="#000000" fill-rule="evenodd" fill-opacity="1" /><path clip-path="url(#clip250)" d="M161.482 711.376 L179.839 711.376 L179.839 715.311 L165.765 715.311 L165.765 723.783 Q166.783 723.436 167.802 723.274 Q168.82 723.089 169.839 723.089 Q175.626 723.089 179.005 726.26 Q182.385 729.432 182.385 734.848 Q182.385 740.427 178.913 743.529 Q175.44 746.607 169.121 746.607 Q166.945 746.607 164.677 746.237 Q162.431 745.867 160.024 745.126 L160.024 740.427 Q162.107 741.561 164.329 742.117 Q166.552 742.672 169.028 742.672 Q173.033 742.672 175.371 740.566 Q177.709 738.459 177.709 734.848 Q177.709 731.237 175.371 729.131 Q173.033 727.024 169.028 727.024 Q167.153 727.024 165.278 727.441 Q163.427 727.858 161.482 728.737 L161.482 711.376 Z" fill="#000000" fill-rule="evenodd" fill-opacity="1" /><path clip-path="url(#clip250)" d="M201.598 714.455 Q197.987 714.455 196.158 718.02 Q194.352 721.561 194.352 728.691 Q194.352 735.797 196.158 739.362 Q197.987 742.904 201.598 742.904 Q205.232 742.904 207.037 739.362 Q208.866 735.797 208.866 728.691 Q208.866 721.561 207.037 718.02 Q205.232 714.455 201.598 714.455 M201.598 710.751 Q207.408 710.751 210.463 715.358 Q213.542 719.941 213.542 728.691 Q213.542 737.418 210.463 742.024 Q207.408 746.607 201.598 746.607 Q195.787 746.607 192.709 742.024 Q189.653 737.418 189.653 728.691 Q189.653 719.941 192.709 715.358 Q195.787 710.751 201.598 710.751 Z" fill="#000000" fill-rule="evenodd" fill-opacity="1" /><path clip-path="url(#clip250)" d="M127.2 386.664 Q123.589 386.664 121.76 390.229 Q119.955 393.77 119.955 400.9 Q119.955 408.006 121.76 411.571 Q123.589 415.113 127.2 415.113 Q130.834 415.113 132.64 411.571 Q134.468 408.006 134.468 400.9 Q134.468 393.77 132.64 390.229 Q130.834 386.664 127.2 386.664 M127.2 382.96 Q133.01 382.96 136.066 387.567 Q139.144 392.15 139.144 400.9 Q139.144 409.627 136.066 414.233 Q133.01 418.816 127.2 418.816 Q121.39 418.816 118.311 414.233 Q115.256 409.627 115.256 400.9 Q115.256 392.15 118.311 387.567 Q121.39 382.96 127.2 382.96 Z" fill="#000000" fill-rule="evenodd" fill-opacity="1" /><path clip-path="url(#clip250)" d="M147.362 412.265 L152.246 412.265 L152.246 418.145 L147.362 418.145 L147.362 412.265 Z" fill="#000000" fill-rule="evenodd" fill-opacity="1" /><path clip-path="url(#clip250)" d="M161.251 383.585 L183.473 383.585 L183.473 385.576 L170.927 418.145 L166.042 418.145 L177.848 387.52 L161.251 387.52 L161.251 383.585 Z" fill="#000000" fill-rule="evenodd" fill-opacity="1" /><path clip-path="url(#clip250)" d="M192.639 383.585 L210.996 383.585 L210.996 387.52 L196.922 387.52 L196.922 395.992 Q197.94 395.645 198.959 395.483 Q199.977 395.298 200.996 395.298 Q206.783 395.298 210.162 398.469 Q213.542 401.641 213.542 407.057 Q213.542 412.636 210.07 415.738 Q206.598 418.816 200.278 418.816 Q198.102 418.816 195.834 418.446 Q193.588 418.076 191.181 417.335 L191.181 412.636 Q193.264 413.77 195.487 414.326 Q197.709 414.881 200.186 414.881 Q204.19 414.881 206.528 412.775 Q208.866 410.668 208.866 407.057 Q208.866 403.446 206.528 401.34 Q204.19 399.233 200.186 399.233 Q198.311 399.233 196.436 399.65 Q194.584 400.066 192.639 400.946 L192.639 383.585 Z" fill="#000000" fill-rule="evenodd" fill-opacity="1" /><path clip-path="url(#clip250)" d="M117.015 86.4189 L124.654 86.4189 L124.654 60.0533 L116.343 61.7199 L116.343 57.4607 L124.607 55.794 L129.283 55.794 L129.283 86.4189 L136.922 86.4189 L136.922 90.354 L117.015 90.354 L117.015 86.4189 Z" fill="#000000" fill-rule="evenodd" fill-opacity="1" /><path clip-path="url(#clip250)" d="M146.366 84.4744 L151.251 84.4744 L151.251 90.354 L146.366 90.354 L146.366 84.4744 Z" fill="#000000" fill-rule="evenodd" fill-opacity="1" /><path clip-path="url(#clip250)" d="M171.436 58.8727 Q167.825 58.8727 165.996 62.4375 Q164.19 65.9792 164.19 73.1088 Q164.19 80.2152 165.996 83.78 Q167.825 87.3216 171.436 87.3216 Q175.07 87.3216 176.876 83.78 Q178.704 80.2152 178.704 73.1088 Q178.704 65.9792 176.876 62.4375 Q175.07 58.8727 171.436 58.8727 M171.436 55.169 Q177.246 55.169 180.301 59.7755 Q183.38 64.3588 183.38 73.1088 Q183.38 81.8356 180.301 86.442 Q177.246 91.0253 171.436 91.0253 Q165.626 91.0253 162.547 86.442 Q159.491 81.8356 159.491 73.1088 Q159.491 64.3588 162.547 59.7755 Q165.626 55.169 171.436 55.169 Z" fill="#000000" fill-rule="evenodd" fill-opacity="1" /><path clip-path="url(#clip250)" d="M201.598 58.8727 Q197.987 58.8727 196.158 62.4375 Q194.352 65.9792 194.352 73.1088 Q194.352 80.2152 196.158 83.78 Q197.987 87.3216 201.598 87.3216 Q205.232 87.3216 207.037 83.78 Q208.866 80.2152 208.866 73.1088 Q208.866 65.9792 207.037 62.4375 Q205.232 58.8727 201.598 58.8727 M201.598 55.169 Q207.408 55.169 210.463 59.7755 Q213.542 64.3588 213.542 73.1088 Q213.542 81.8356 210.463 86.442 Q207.408 91.0253 201.598 91.0253 Q195.787 91.0253 192.709 86.442 Q189.653 81.8356 189.653 73.1088 Q189.653 64.3588 192.709 59.7755 Q195.787 55.169 201.598 55.169 Z" fill="#000000" fill-rule="evenodd" fill-opacity="1" /><path clip-path="url(#clip250)" d="M21.7677 890.981 L39.6235 890.981 L39.6235 882.896 Q39.6235 878.409 37.3 875.958 Q34.9765 873.507 30.6797 873.507 Q26.4147 873.507 24.0912 875.958 Q21.7677 878.409 21.7677 882.896 L21.7677 890.981 M16.4842 897.41 L16.4842 882.896 Q16.4842 874.907 20.1126 870.833 Q23.7092 866.727 30.6797 866.727 Q37.7138 866.727 41.3104 870.833 Q44.907 874.907 44.907 882.896 L44.907 890.981 L64.0042 890.981 L64.0042 897.41 L16.4842 897.41 Z" fill="#000000" fill-rule="evenodd" fill-opacity="1" /><path clip-path="url(#clip250)" d="M33.8307 838.846 Q33.2578 839.832 33.0032 841.01 Q32.7167 842.156 32.7167 843.556 Q32.7167 848.522 35.9632 851.195 Q39.1779 853.837 45.2253 853.837 L64.0042 853.837 L64.0042 859.725 L28.3562 859.725 L28.3562 853.837 L33.8944 853.837 Q30.6479 851.991 29.0883 849.031 Q27.4968 846.071 27.4968 841.838 Q27.4968 841.233 27.5923 840.501 Q27.656 839.769 27.8151 838.878 L33.8307 838.846 Z" fill="#000000" fill-rule="evenodd" fill-opacity="1" /><path clip-path="url(#clip250)" d="M32.4621 820.321 Q32.4621 825.032 36.1542 827.769 Q39.8145 830.507 46.212 830.507 Q52.6095 830.507 56.3017 827.801 Q59.9619 825.064 59.9619 820.321 Q59.9619 815.643 56.2698 812.905 Q52.5777 810.168 46.212 810.168 Q39.8781 810.168 36.186 812.905 Q32.4621 815.643 32.4621 820.321 M27.4968 820.321 Q27.4968 812.683 32.4621 808.322 Q37.4273 803.962 46.212 803.962 Q54.9649 803.962 59.9619 808.322 Q64.9272 812.683 64.9272 820.321 Q64.9272 827.992 59.9619 832.353 Q54.9649 836.681 46.212 836.681 Q37.4273 836.681 32.4621 832.353 Q27.4968 827.992 27.4968 820.321 Z" fill="#000000" fill-rule="evenodd" fill-opacity="1" /><path clip-path="url(#clip250)" d="M58.657 788.588 L77.5631 788.588 L77.5631 794.477 L28.3562 794.477 L28.3562 788.588 L33.7671 788.588 Q30.5842 786.742 29.0564 783.941 Q27.4968 781.109 27.4968 777.194 Q27.4968 770.701 32.6531 766.659 Q37.8093 762.585 46.212 762.585 Q54.6147 762.585 59.771 766.659 Q64.9272 770.701 64.9272 777.194 Q64.9272 781.109 63.3994 783.941 Q61.8398 786.742 58.657 788.588 M46.212 768.664 Q39.7508 768.664 36.0905 771.337 Q32.3984 773.979 32.3984 778.626 Q32.3984 783.273 36.0905 785.947 Q39.7508 788.588 46.212 788.588 Q52.6732 788.588 56.3653 785.947 Q60.0256 783.273 60.0256 778.626 Q60.0256 773.979 56.3653 771.337 Q52.6732 768.664 46.212 768.664 Z" fill="#000000" fill-rule="evenodd" fill-opacity="1" /><path clip-path="url(#clip250)" d="M32.4621 739.063 Q32.4621 743.774 36.1542 746.511 Q39.8145 749.248 46.212 749.248 Q52.6095 749.248 56.3017 746.543 Q59.9619 743.806 59.9619 739.063 Q59.9619 734.384 56.2698 731.647 Q52.5777 728.91 46.212 728.91 Q39.8781 728.91 36.186 731.647 Q32.4621 734.384 32.4621 739.063 M27.4968 739.063 Q27.4968 731.424 32.4621 727.064 Q37.4273 722.703 46.212 722.703 Q54.9649 722.703 59.9619 727.064 Q64.9272 731.424 64.9272 739.063 Q64.9272 746.734 59.9619 751.094 Q54.9649 755.423 46.212 755.423 Q37.4273 755.423 32.4621 751.094 Q27.4968 746.734 27.4968 739.063 Z" fill="#000000" fill-rule="evenodd" fill-opacity="1" /><path clip-path="url(#clip250)" d="M33.8307 692.339 Q33.2578 693.326 33.0032 694.503 Q32.7167 695.649 32.7167 697.05 Q32.7167 702.015 35.9632 704.688 Q39.1779 707.33 45.2253 707.33 L64.0042 707.33 L64.0042 713.218 L28.3562 713.218 L28.3562 707.33 L33.8944 707.33 Q30.6479 705.484 29.0883 702.524 Q27.4968 699.564 27.4968 695.331 Q27.4968 694.726 27.5923 693.994 Q27.656 693.262 27.8151 692.371 L33.8307 692.339 Z" fill="#000000" fill-rule="evenodd" fill-opacity="1" /><path clip-path="url(#clip250)" d="M18.2347 680.403 L28.3562 680.403 L28.3562 668.34 L32.9077 668.34 L32.9077 680.403 L52.2594 680.403 Q56.6199 680.403 57.8613 679.226 Q59.1026 678.016 59.1026 674.356 L59.1026 668.34 L64.0042 668.34 L64.0042 674.356 Q64.0042 681.135 61.4897 683.713 Q58.9434 686.292 52.2594 686.292 L32.9077 686.292 L32.9077 690.588 L28.3562 690.588 L28.3562 686.292 L18.2347 686.292 L18.2347 680.403 Z" fill="#000000" fill-rule="evenodd" fill-opacity="1" /><path clip-path="url(#clip250)" d="M28.3562 660.638 L28.3562 654.781 L64.0042 654.781 L64.0042 660.638 L28.3562 660.638 M14.479 660.638 L14.479 654.781 L21.895 654.781 L21.895 660.638 L14.479 660.638 Z" fill="#000000" fill-rule="evenodd" fill-opacity="1" /><path clip-path="url(#clip250)" d="M32.4621 628.714 Q32.4621 633.424 36.1542 636.162 Q39.8145 638.899 46.212 638.899 Q52.6095 638.899 56.3017 636.193 Q59.9619 633.456 59.9619 628.714 Q59.9619 624.035 56.2698 621.298 Q52.5777 618.56 46.212 618.56 Q39.8781 618.56 36.186 621.298 Q32.4621 624.035 32.4621 628.714 M27.4968 628.714 Q27.4968 621.075 32.4621 616.714 Q37.4273 612.354 46.212 612.354 Q54.9649 612.354 59.9619 616.714 Q64.9272 621.075 64.9272 628.714 Q64.9272 636.384 59.9619 640.745 Q54.9649 645.074 46.212 645.074 Q37.4273 645.074 32.4621 640.745 Q27.4968 636.384 27.4968 628.714 Z" fill="#000000" fill-rule="evenodd" fill-opacity="1" /><path clip-path="url(#clip250)" d="M42.4881 573.014 L64.0042 573.014 L64.0042 578.87 L42.679 578.87 Q37.6183 578.87 35.1038 580.844 Q32.5894 582.817 32.5894 586.764 Q32.5894 591.506 35.6131 594.243 Q38.6368 596.981 43.8567 596.981 L64.0042 596.981 L64.0042 602.869 L28.3562 602.869 L28.3562 596.981 L33.8944 596.981 Q30.6797 594.88 29.0883 592.047 Q27.4968 589.183 27.4968 585.459 Q27.4968 579.316 31.3163 576.165 Q35.1038 573.014 42.4881 573.014 Z" fill="#000000" fill-rule="evenodd" fill-opacity="1" /><polyline clip-path="url(#clip252)" style="stroke:#009af9; stroke-linecap:round; stroke-linejoin:round; stroke-width:4; stroke-opacity:1; fill:none" points="
  249.542,86.1857 302.122,93.5159 354.703,102.794 407.283,114.475 459.863,129.084 512.444,147.203 565.024,169.448 617.604,196.419 670.185,228.633 722.765,266.433 
  775.346,309.889 827.926,358.702 880.506,412.151 933.087,469.102 985.667,528.096 1038.25,587.508 1090.83,645.737 1143.41,701.378 1195.99,753.349 1248.57,800.938 
  1301.15,843.795 1353.73,881.866 1406.31,915.322 1458.89,944.478 1511.47,969.729 1564.05,991.5 1616.63,1010.21 1669.21,1026.26 1721.79,1040 1774.37,1051.77 
  1826.95,1061.83 1879.53,1070.45 1932.11,1077.82 1984.69,1084.13 2037.27,1089.53 2089.85,1094.16 2142.43,1098.13 2195.01,1101.53 2247.6,1104.45 2300.18,1106.96 
  2352.76,1109.11 
  "/>
<polyline clip-path="url(#clip252)" style="stroke:#e26f46; stroke-linecap:round; stroke-linejoin:round; stroke-width:4; stroke-opacity:1; fill:none" points="
  249.542,1371.13 302.122,1367.51 354.703,1362.96 407.283,1357.28 459.863,1350.26 512.444,1341.67 565.024,1331.33 617.604,1319.07 670.185,1304.88 722.765,1288.89 
  775.346,1271.43 827.926,1253.1 880.506,1234.74 933.087,1217.37 985.667,1202.06 1038.25,1189.8 1090.83,1181.32 1143.41,1177.04 1195.99,1176.96 1248.57,1180.79 
  1301.15,1187.96 1353.73,1197.78 1406.31,1209.5 1458.89,1222.43 1511.47,1235.95 1564.05,1249.55 1616.63,1262.84 1669.21,1275.54 1721.79,1287.46 1774.37,1298.49 
  1826.95,1308.58 1879.53,1317.72 1932.11,1325.93 1984.69,1333.26 2037.27,1339.77 2089.85,1345.53 2142.43,1350.59 2195.01,1355.03 2247.6,1358.92 2300.18,1362.31 
  2352.76,1365.26 
  "/>
<polyline clip-path="url(#clip252)" style="stroke:#3da44d; stroke-linecap:round; stroke-linejoin:round; stroke-width:4; stroke-opacity:1; fill:none" points="
  249.542,1384.24 302.122,1376.91 354.703,1367.63 407.283,1355.95 459.863,1341.34 512.444,1323.22 565.024,1300.98 617.604,1274.01 670.185,1241.79 722.765,1203.99 
  775.346,1160.53 827.926,1111.72 880.506,1058.27 933.087,1001.32 985.667,942.328 1038.25,882.916 1090.83,824.687 1143.41,769.046 1195.99,717.075 1248.57,669.486 
  1301.15,626.629 1353.73,588.558 1406.31,555.102 1458.89,525.946 1511.47,500.695 1564.05,478.924 1616.63,460.214 1669.21,444.167 1721.79,430.422 1774.37,418.658 
  1826.95,408.592 1879.53,399.978 1932.11,392.607 1984.69,386.297 2037.27,380.892 2089.85,376.262 2142.43,372.293 2195.01,368.89 2247.6,365.97 2300.18,363.465 
  2352.76,361.314 
  "/>
<path clip-path="url(#clip250)" d="
M2022.04 300.469 L2282.65 300.469 L2282.65 93.1086 L2022.04 93.1086  Z
  " fill="#ffffff" fill-rule="evenodd" fill-opacity="1"/>
<polyline clip-path="url(#clip250)" style="stroke:#000000; stroke-linecap:round; stroke-linejoin:round; stroke-width:4; stroke-opacity:1; fill:none" points="
  2022.04,300.469 2282.65,300.469 2282.65,93.1086 2022.04,93.1086 2022.04,300.469 
  "/>
<polyline clip-path="url(#clip250)" style="stroke:#009af9; stroke-linecap:round; stroke-linejoin:round; stroke-width:4; stroke-opacity:1; fill:none" points="
  2045.41,144.949 2185.62,144.949 
  "/>
<path clip-path="url(#clip250)" d="M2231.23 128.803 L2231.23 133.363 Q2228.57 132.09 2226.21 131.465 Q2223.85 130.84 2221.65 130.84 Q2217.83 130.84 2215.75 132.321 Q2213.69 133.803 2213.69 136.534 Q2213.69 138.826 2215.05 140.007 Q2216.44 141.164 2220.29 141.882 L2223.11 142.46 Q2228.34 143.456 2230.82 145.979 Q2233.32 148.479 2233.32 152.692 Q2233.32 157.715 2229.94 160.307 Q2226.58 162.9 2220.08 162.9 Q2217.62 162.9 2214.85 162.344 Q2212.09 161.789 2209.13 160.701 L2209.13 155.886 Q2211.98 157.483 2214.71 158.293 Q2217.44 159.104 2220.08 159.104 Q2224.08 159.104 2226.26 157.53 Q2228.43 155.956 2228.43 153.039 Q2228.43 150.493 2226.86 149.057 Q2225.31 147.622 2221.74 146.905 L2218.9 146.349 Q2213.67 145.307 2211.33 143.085 Q2208.99 140.863 2208.99 136.905 Q2208.99 132.321 2212.21 129.682 Q2215.45 127.044 2221.12 127.044 Q2223.55 127.044 2226.07 127.483 Q2228.6 127.923 2231.23 128.803 Z" fill="#000000" fill-rule="evenodd" fill-opacity="1" /><polyline clip-path="url(#clip250)" style="stroke:#e26f46; stroke-linecap:round; stroke-linejoin:round; stroke-width:4; stroke-opacity:1; fill:none" points="
  2045.41,196.789 2185.62,196.789 
  "/>
<path clip-path="url(#clip250)" d="M2208.99 179.509 L2213.67 179.509 L2213.67 214.069 L2208.99 214.069 L2208.99 179.509 Z" fill="#000000" fill-rule="evenodd" fill-opacity="1" /><polyline clip-path="url(#clip250)" style="stroke:#3da44d; stroke-linecap:round; stroke-linejoin:round; stroke-width:4; stroke-opacity:1; fill:none" points="
  2045.41,248.629 2185.62,248.629 
  "/>
<path clip-path="url(#clip250)" d="M2225.38 249.705 Q2226.88 250.214 2228.29 251.881 Q2229.73 253.548 2231.17 256.464 L2235.91 265.909 L2230.89 265.909 L2226.47 257.043 Q2224.75 253.571 2223.13 252.436 Q2221.54 251.302 2218.76 251.302 L2213.67 251.302 L2213.67 265.909 L2208.99 265.909 L2208.99 231.349 L2219.55 231.349 Q2225.47 231.349 2228.39 233.825 Q2231.3 236.302 2231.3 241.302 Q2231.3 244.566 2229.78 246.719 Q2228.27 248.872 2225.38 249.705 M2213.67 235.191 L2213.67 247.46 L2219.55 247.46 Q2222.92 247.46 2224.64 245.909 Q2226.37 244.335 2226.37 241.302 Q2226.37 238.27 2224.64 236.742 Q2222.92 235.191 2219.55 235.191 L2213.67 235.191 Z" fill="#000000" fill-rule="evenodd" fill-opacity="1" /></svg>
