<?xml version="1.0" encoding="utf-8"?>
<svg xmlns="http://www.w3.org/2000/svg" xmlns:xlink="http://www.w3.org/1999/xlink" width="600" height="400" viewBox="0 0 2400 1600">
<defs>
  <clipPath id="clip160">
    <rect x="0" y="0" width="2400" height="1600"/>
  </clipPath>
</defs>
<path clip-path="url(#clip160)" d="
M0 1600 L2400 1600 L2400 0 L0 0  Z
  " fill="#ffffff" fill-rule="evenodd" fill-opacity="1"/>
<defs>
  <clipPath id="clip161">
    <rect x="480" y="0" width="1681" height="1600"/>
  </clipPath>
</defs>
<path clip-path="url(#clip160)" d="
M249.542 1423.18 L2352.76 1423.18 L2352.76 47.2441 L249.542 47.2441  Z
  " fill="#ffffff" fill-rule="evenodd" fill-opacity="1"/>
<defs>
  <clipPath id="clip162">
    <rect x="249" y="47" width="2104" height="1377"/>
  </clipPath>
</defs>
<polyline clip-path="url(#clip162)" style="stroke:#000000; stroke-linecap:round; stroke-linejoin:round; stroke-width:2; stroke-opacity:0.1; fill:none" points="
  309.067,1423.18 309.067,47.2441 
  "/>
<polyline clip-path="url(#clip162)" style="stroke:#000000; stroke-linecap:round; stroke-linejoin:round; stroke-width:2; stroke-opacity:0.1; fill:none" points="
  705.9,1423.18 705.9,47.2441 
  "/>
<polyline clip-path="url(#clip162)" style="stroke:#000000; stroke-linecap:round; stroke-linejoin:round; stroke-width:2; stroke-opacity:0.1; fill:none" points="
  1102.73,1423.18 1102.73,47.2441 
  "/>
<polyline clip-path="url(#clip162)" style="stroke:#000000; stroke-linecap:round; stroke-linejoin:round; stroke-width:2; stroke-opacity:0.1; fill:none" points="
  1499.57,1423.18 1499.57,47.2441 
  "/>
<polyline clip-path="url(#clip162)" style="stroke:#000000; stroke-linecap:round; stroke-linejoin:round; stroke-width:2; stroke-opacity:0.1; fill:none" points="
  1896.4,1423.18 1896.4,47.2441 
  "/>
<polyline clip-path="url(#clip162)" style="stroke:#000000; stroke-linecap:round; stroke-linejoin:round; stroke-width:2; stroke-opacity:0.1; fill:none" points="
  2293.23,1423.18 2293.23,47.2441 
  "/>
<polyline clip-path="url(#clip160)" style="stroke:#000000; stroke-linecap:round; stroke-linejoin:round; stroke-width:4; stroke-opacity:1; fill:none" points="
  249.542,1423.18 2352.76,1423.18 
  "/>
<polyline clip-path="url(#clip160)" style="stroke:#000000; stroke-linecap:round; stroke-linejoin:round; stroke-width:4; stroke-opacity:1; fill:none" points="
  309.067,1423.18 309.067,1404.28 
  "/>
<polyline clip-path="url(#clip160)" style="stroke:#000000; stroke-linecap:round; stroke-linejoin:round; stroke-width:4; stroke-opacity:1; fill:none" points="
  705.9,1423.18 705.9,1404.28 
  "/>
<polyline clip-path="url(#clip160)" style="stroke:#000000; stroke-linecap:round; stroke-linejoin:round; stroke-width:4; stroke-opacity:1; fill:none" points="
  1102.73,1423.18 1102.73,1404.28 
  "/>
<polyline clip-path="url(#clip160)" style="stroke:#000000; stroke-linecap:round; stroke-linejoin:round; stroke-width:4; stroke-opacity:1; fill:none" points="
  1499.57,1423.18 1499.57,1404.28 
  "/>
<polyline clip-path="url(#clip160)" style="stroke:#000000; stroke-linecap:round; stroke-linejoin:round; stroke-width:4; stroke-opacity:1; fill:none" points="
  1896.4,1423.18 1896.4,1404.28 
  "/>
<polyline clip-path="url(#clip160)" style="stroke:#000000; stroke-linecap:round; stroke-linejoin:round; stroke-width:4; stroke-opacity:1; fill:none" points="
  2293.23,1423.18 2293.23,1404.28 
  "/>
<path clip-path="url(#clip160)" d="M286.451 1454.1 Q282.84 1454.1 281.012 1457.66 Q279.206 1461.2 279.206 1468.33 Q279.206 1475.44 281.012 1479.01 Q282.84 1482.55 286.451 1482.55 Q290.086 1482.55 291.891 1479.01 Q293.72 1475.44 293.72 1468.33 Q293.72 1461.2 291.891 1457.66 Q290.086 1454.1 286.451 1454.1 M286.451 1450.39 Q292.261 1450.39 295.317 1455 Q298.396 1459.58 298.396 1468.33 Q298.396 1477.06 295.317 1481.67 Q292.261 1486.25 286.451 1486.25 Q280.641 1486.25 277.562 1481.67 Q274.507 1477.06 274.507 1468.33 Q274.507 1459.58 277.562 1455 Q280.641 1450.39 286.451 1450.39 Z" fill="#000000" fill-rule="evenodd" fill-opacity="1" /><path clip-path="url(#clip160)" d="M306.613 1479.7 L311.497 1479.7 L311.497 1485.58 L306.613 1485.58 L306.613 1479.7 Z" fill="#000000" fill-rule="evenodd" fill-opacity="1" /><path clip-path="url(#clip160)" d="M331.683 1454.1 Q328.071 1454.1 326.243 1457.66 Q324.437 1461.2 324.437 1468.33 Q324.437 1475.44 326.243 1479.01 Q328.071 1482.55 331.683 1482.55 Q335.317 1482.55 337.122 1479.01 Q338.951 1475.44 338.951 1468.33 Q338.951 1461.2 337.122 1457.66 Q335.317 1454.1 331.683 1454.1 M331.683 1450.39 Q337.493 1450.39 340.548 1455 Q343.627 1459.58 343.627 1468.33 Q343.627 1477.06 340.548 1481.67 Q337.493 1486.25 331.683 1486.25 Q325.872 1486.25 322.794 1481.67 Q319.738 1477.06 319.738 1468.33 Q319.738 1459.58 322.794 1455 Q325.872 1450.39 331.683 1450.39 Z" fill="#000000" fill-rule="evenodd" fill-opacity="1" /><path clip-path="url(#clip160)" d="M683.898 1454.1 Q680.286 1454.1 678.458 1457.66 Q676.652 1461.2 676.652 1468.33 Q676.652 1475.44 678.458 1479.01 Q680.286 1482.55 683.898 1482.55 Q687.532 1482.55 689.337 1479.01 Q691.166 1475.44 691.166 1468.33 Q691.166 1461.2 689.337 1457.66 Q687.532 1454.1 683.898 1454.1 M683.898 1450.39 Q689.708 1450.39 692.763 1455 Q695.842 1459.58 695.842 1468.33 Q695.842 1477.06 692.763 1481.67 Q689.708 1486.25 683.898 1486.25 Q678.087 1486.25 675.009 1481.67 Q671.953 1477.06 671.953 1468.33 Q671.953 1459.58 675.009 1455 Q678.087 1450.39 683.898 1450.39 Z" fill="#000000" fill-rule="evenodd" fill-opacity="1" /><path clip-path="url(#clip160)" d="M704.059 1479.7 L708.944 1479.7 L708.944 1485.58 L704.059 1485.58 L704.059 1479.7 Z" fill="#000000" fill-rule="evenodd" fill-opacity="1" /><path clip-path="url(#clip160)" d="M719.939 1481.64 L727.578 1481.64 L727.578 1455.28 L719.268 1456.95 L719.268 1452.69 L727.532 1451.02 L732.207 1451.02 L732.207 1481.64 L739.846 1481.64 L739.846 1485.58 L719.939 1485.58 L719.939 1481.64 Z" fill="#000000" fill-rule="evenodd" fill-opacity="1" /><path clip-path="url(#clip160)" d="M1080.92 1454.1 Q1077.3 1454.1 1075.48 1457.66 Q1073.67 1461.2 1073.67 1468.33 Q1073.67 1475.44 1075.48 1479.01 Q1077.3 1482.55 1080.92 1482.55 Q1084.55 1482.55 1086.36 1479.01 Q1088.18 1475.44 1088.18 1468.33 Q1088.18 1461.2 1086.36 1457.66 Q1084.55 1454.1 1080.92 1454.1 M1080.92 1450.39 Q1086.73 1450.39 1089.78 1455 Q1092.86 1459.58 1092.86 1468.33 Q1092.86 1477.06 1089.78 1481.67 Q1086.73 1486.25 1080.92 1486.25 Q1075.11 1486.25 1072.03 1481.67 Q1068.97 1477.06 1068.97 1468.33 Q1068.97 1459.58 1072.03 1455 Q1075.11 1450.39 1080.92 1450.39 Z" fill="#000000" fill-rule="evenodd" fill-opacity="1" /><path clip-path="url(#clip160)" d="M1101.08 1479.7 L1105.96 1479.7 L1105.96 1485.58 L1101.08 1485.58 L1101.08 1479.7 Z" fill="#000000" fill-rule="evenodd" fill-opacity="1" /><path clip-path="url(#clip160)" d="M1120.17 1481.64 L1136.49 1481.64 L1136.49 1485.58 L1114.55 1485.58 L1114.55 1481.64 Q1117.21 1478.89 1121.79 1474.26 Q1126.4 1469.61 1127.58 1468.27 Q1129.83 1465.74 1130.71 1464.01 Q1131.61 1462.25 1131.61 1460.56 Q1131.61 1457.8 1129.67 1456.07 Q1127.74 1454.33 1124.64 1454.33 Q1122.44 1454.33 1119.99 1455.09 Q1117.56 1455.86 1114.78 1457.41 L1114.78 1452.69 Q1117.61 1451.55 1120.06 1450.97 Q1122.51 1450.39 1124.55 1450.39 Q1129.92 1450.39 1133.11 1453.08 Q1136.31 1455.77 1136.31 1460.26 Q1136.31 1462.39 1135.5 1464.31 Q1134.71 1466.2 1132.61 1468.8 Q1132.03 1469.47 1128.92 1472.69 Q1125.82 1475.88 1120.17 1481.64 Z" fill="#000000" fill-rule="evenodd" fill-opacity="1" /><path clip-path="url(#clip160)" d="M1477.27 1454.1 Q1473.66 1454.1 1471.83 1457.66 Q1470.03 1461.2 1470.03 1468.33 Q1470.03 1475.44 1471.83 1479.01 Q1473.66 1482.55 1477.27 1482.55 Q1480.91 1482.55 1482.71 1479.01 Q1484.54 1475.44 1484.54 1468.33 Q1484.54 1461.2 1482.71 1457.66 Q1480.91 1454.1 1477.27 1454.1 M1477.27 1450.39 Q1483.08 1450.39 1486.14 1455 Q1489.22 1459.58 1489.22 1468.33 Q1489.22 1477.06 1486.14 1481.67 Q1483.08 1486.25 1477.27 1486.25 Q1471.46 1486.25 1468.38 1481.67 Q1465.33 1477.06 1465.33 1468.33 Q1465.33 1459.58 1468.38 1455 Q1471.46 1450.39 1477.27 1450.39 Z" fill="#000000" fill-rule="evenodd" fill-opacity="1" /><path clip-path="url(#clip160)" d="M1497.44 1479.7 L1502.32 1479.7 L1502.32 1485.58 L1497.44 1485.58 L1497.44 1479.7 Z" fill="#000000" fill-rule="evenodd" fill-opacity="1" /><path clip-path="url(#clip160)" d="M1526.67 1466.95 Q1530.03 1467.66 1531.9 1469.93 Q1533.8 1472.2 1533.8 1475.53 Q1533.8 1480.65 1530.28 1483.45 Q1526.76 1486.25 1520.28 1486.25 Q1518.11 1486.25 1515.79 1485.81 Q1513.5 1485.39 1511.05 1484.54 L1511.05 1480.02 Q1512.99 1481.16 1515.31 1481.74 Q1517.62 1482.32 1520.14 1482.32 Q1524.54 1482.32 1526.83 1480.58 Q1529.15 1478.84 1529.15 1475.53 Q1529.15 1472.48 1527 1470.77 Q1524.87 1469.03 1521.05 1469.03 L1517.02 1469.03 L1517.02 1465.19 L1521.23 1465.19 Q1524.68 1465.19 1526.51 1463.82 Q1528.34 1462.43 1528.34 1459.84 Q1528.34 1457.18 1526.44 1455.77 Q1524.57 1454.33 1521.05 1454.33 Q1519.13 1454.33 1516.93 1454.75 Q1514.73 1455.16 1512.09 1456.04 L1512.09 1451.88 Q1514.75 1451.14 1517.07 1450.77 Q1519.4 1450.39 1521.46 1450.39 Q1526.79 1450.39 1529.89 1452.83 Q1532.99 1455.23 1532.99 1459.35 Q1532.99 1462.22 1531.35 1464.21 Q1529.7 1466.18 1526.67 1466.95 Z" fill="#000000" fill-rule="evenodd" fill-opacity="1" /><path clip-path="url(#clip160)" d="M1873.54 1454.1 Q1869.93 1454.1 1868.1 1457.66 Q1866.29 1461.2 1866.29 1468.33 Q1866.29 1475.44 1868.1 1479.01 Q1869.93 1482.55 1873.54 1482.55 Q1877.17 1482.55 1878.98 1479.01 Q1880.81 1475.44 1880.81 1468.33 Q1880.81 1461.2 1878.98 1457.66 Q1877.17 1454.1 1873.54 1454.1 M1873.54 1450.39 Q1879.35 1450.39 1882.41 1455 Q1885.48 1459.58 1885.48 1468.33 Q1885.48 1477.06 1882.41 1481.67 Q1879.35 1486.25 1873.54 1486.25 Q1867.73 1486.25 1864.65 1481.67 Q1861.6 1477.06 1861.6 1468.33 Q1861.6 1459.58 1864.65 1455 Q1867.73 1450.39 1873.54 1450.39 Z" fill="#000000" fill-rule="evenodd" fill-opacity="1" /><path clip-path="url(#clip160)" d="M1893.7 1479.7 L1898.59 1479.7 L1898.59 1485.58 L1893.7 1485.58 L1893.7 1479.7 Z" fill="#000000" fill-rule="evenodd" fill-opacity="1" /><path clip-path="url(#clip160)" d="M1921.62 1455.09 L1909.81 1473.54 L1921.62 1473.54 L1921.62 1455.09 M1920.39 1451.02 L1926.27 1451.02 L1926.27 1473.54 L1931.2 1473.54 L1931.2 1477.43 L1926.27 1477.43 L1926.27 1485.58 L1921.62 1485.58 L1921.62 1477.43 L1906.02 1477.43 L1906.02 1472.92 L1920.39 1451.02 Z" fill="#000000" fill-rule="evenodd" fill-opacity="1" /><path clip-path="url(#clip160)" d="M2271.11 1454.1 Q2267.5 1454.1 2265.67 1457.66 Q2263.87 1461.2 2263.87 1468.33 Q2263.87 1475.44 2265.67 1479.01 Q2267.5 1482.55 2271.11 1482.55 Q2274.75 1482.55 2276.55 1479.01 Q2278.38 1475.44 2278.38 1468.33 Q2278.38 1461.2 2276.55 1457.66 Q2274.75 1454.1 2271.11 1454.1 M2271.11 1450.39 Q2276.92 1450.39 2279.98 1455 Q2283.06 1459.58 2283.06 1468.33 Q2283.06 1477.06 2279.98 1481.67 Q2276.92 1486.25 2271.11 1486.25 Q2265.3 1486.25 2262.22 1481.67 Q2259.17 1477.06 2259.17 1468.33 Q2259.17 1459.58 2262.22 1455 Q2265.3 1450.39 2271.11 1450.39 Z" fill="#000000" fill-rule="evenodd" fill-opacity="1" /><path clip-path="url(#clip160)" d="M2291.27 1479.7 L2296.16 1479.7 L2296.16 1485.58 L2291.27 1485.58 L2291.27 1479.7 Z" fill="#000000" fill-rule="evenodd" fill-opacity="1" /><path clip-path="url(#clip160)" d="M2306.39 1451.02 L2324.75 1451.02 L2324.75 1454.96 L2310.67 1454.96 L2310.67 1463.43 Q2311.69 1463.08 2312.71 1462.92 Q2313.73 1462.73 2314.75 1462.73 Q2320.53 1462.73 2323.91 1465.9 Q2327.29 1469.08 2327.29 1474.49 Q2327.29 1480.07 2323.82 1483.17 Q2320.35 1486.25 2314.03 1486.25 Q2311.85 1486.25 2309.59 1485.88 Q2307.34 1485.51 2304.93 1484.77 L2304.93 1480.07 Q2307.02 1481.2 2309.24 1481.76 Q2311.46 1482.32 2313.94 1482.32 Q2317.94 1482.32 2320.28 1480.21 Q2322.62 1478.1 2322.62 1474.49 Q2322.62 1470.88 2320.28 1468.77 Q2317.94 1466.67 2313.94 1466.67 Q2312.06 1466.67 2310.19 1467.08 Q2308.34 1467.5 2306.39 1468.38 L2306.39 1451.02 Z" fill="#000000" fill-rule="evenodd" fill-opacity="1" /><path clip-path="url(#clip160)" d="M747.285 1525.81 L747.285 1543.66 L755.369 1543.66 Q759.857 1543.66 762.308 1541.34 Q764.759 1539.02 764.759 1534.72 Q764.759 1530.45 762.308 1528.13 Q759.857 1525.81 755.369 1525.81 L747.285 1525.81 M740.855 1520.52 L755.369 1520.52 Q763.358 1520.52 767.432 1524.15 Q771.538 1527.75 771.538 1534.72 Q771.538 1541.75 767.432 1545.35 Q763.358 1548.95 755.369 1548.95 L747.285 1548.95 L747.285 1568.04 L740.855 1568.04 L740.855 1520.52 Z" fill="#000000" fill-rule="evenodd" fill-opacity="1" /><path clip-path="url(#clip160)" d="M799.42 1537.87 Q798.433 1537.3 797.256 1537.04 Q796.11 1536.76 794.709 1536.76 Q789.744 1536.76 787.07 1540 Q784.429 1543.22 784.429 1549.27 L784.429 1568.04 L778.54 1568.04 L778.54 1532.4 L784.429 1532.4 L784.429 1537.93 Q786.275 1534.69 789.235 1533.13 Q792.195 1531.54 796.428 1531.54 Q797.033 1531.54 797.765 1531.63 Q798.497 1531.7 799.388 1531.85 L799.42 1537.87 Z" fill="#000000" fill-rule="evenodd" fill-opacity="1" /><path clip-path="url(#clip160)" d="M817.944 1536.5 Q813.233 1536.5 810.496 1540.19 Q807.759 1543.85 807.759 1550.25 Q807.759 1556.65 810.464 1560.34 Q813.202 1564 817.944 1564 Q822.623 1564 825.36 1560.31 Q828.097 1556.62 828.097 1550.25 Q828.097 1543.92 825.36 1540.23 Q822.623 1536.5 817.944 1536.5 M817.944 1531.54 Q825.583 1531.54 829.943 1536.5 Q834.304 1541.47 834.304 1550.25 Q834.304 1559 829.943 1564 Q825.583 1568.97 817.944 1568.97 Q810.273 1568.97 805.913 1564 Q801.584 1559 801.584 1550.25 Q801.584 1541.47 805.913 1536.5 Q810.273 1531.54 817.944 1531.54 Z" fill="#000000" fill-rule="evenodd" fill-opacity="1" /><path clip-path="url(#clip160)" d="M849.677 1562.7 L849.677 1581.6 L843.789 1581.6 L843.789 1532.4 L849.677 1532.4 L849.677 1537.81 Q851.523 1534.62 854.324 1533.1 Q857.157 1531.54 861.072 1531.54 Q867.565 1531.54 871.607 1536.69 Q875.681 1541.85 875.681 1550.25 Q875.681 1558.65 871.607 1563.81 Q867.565 1568.97 861.072 1568.97 Q857.157 1568.97 854.324 1567.44 Q851.523 1565.88 849.677 1562.7 M869.602 1550.25 Q869.602 1543.79 866.928 1540.13 Q864.286 1536.44 859.639 1536.44 Q854.993 1536.44 852.319 1540.13 Q849.677 1543.79 849.677 1550.25 Q849.677 1556.71 852.319 1560.4 Q854.993 1564.07 859.639 1564.07 Q864.286 1564.07 866.928 1560.4 Q869.602 1556.71 869.602 1550.25 Z" fill="#000000" fill-rule="evenodd" fill-opacity="1" /><path clip-path="url(#clip160)" d="M899.202 1536.5 Q894.492 1536.5 891.754 1540.19 Q889.017 1543.85 889.017 1550.25 Q889.017 1556.65 891.723 1560.34 Q894.46 1564 899.202 1564 Q903.881 1564 906.618 1560.31 Q909.356 1556.62 909.356 1550.25 Q909.356 1543.92 906.618 1540.23 Q903.881 1536.5 899.202 1536.5 M899.202 1531.54 Q906.841 1531.54 911.202 1536.5 Q915.562 1541.47 915.562 1550.25 Q915.562 1559 911.202 1564 Q906.841 1568.97 899.202 1568.97 Q891.532 1568.97 887.171 1564 Q882.842 1559 882.842 1550.25 Q882.842 1541.47 887.171 1536.5 Q891.532 1531.54 899.202 1531.54 Z" fill="#000000" fill-rule="evenodd" fill-opacity="1" /><path clip-path="url(#clip160)" d="M945.927 1537.87 Q944.94 1537.3 943.762 1537.04 Q942.616 1536.76 941.216 1536.76 Q936.251 1536.76 933.577 1540 Q930.935 1543.22 930.935 1549.27 L930.935 1568.04 L925.047 1568.04 L925.047 1532.4 L930.935 1532.4 L930.935 1537.93 Q932.781 1534.69 935.741 1533.13 Q938.702 1531.54 942.935 1531.54 Q943.539 1531.54 944.272 1531.63 Q945.004 1531.7 945.895 1531.85 L945.927 1537.87 Z" fill="#000000" fill-rule="evenodd" fill-opacity="1" /><path clip-path="url(#clip160)" d="M957.862 1522.27 L957.862 1532.4 L969.925 1532.4 L969.925 1536.95 L957.862 1536.95 L957.862 1556.3 Q957.862 1560.66 959.04 1561.9 Q960.249 1563.14 963.91 1563.14 L969.925 1563.14 L969.925 1568.04 L963.91 1568.04 Q957.13 1568.04 954.552 1565.53 Q951.974 1562.98 951.974 1556.3 L951.974 1536.95 L947.677 1536.95 L947.677 1532.4 L951.974 1532.4 L951.974 1522.27 L957.862 1522.27 Z" fill="#000000" fill-rule="evenodd" fill-opacity="1" /><path clip-path="url(#clip160)" d="M977.628 1532.4 L983.484 1532.4 L983.484 1568.04 L977.628 1568.04 L977.628 1532.4 M977.628 1518.52 L983.484 1518.52 L983.484 1525.93 L977.628 1525.93 L977.628 1518.52 Z" fill="#000000" fill-rule="evenodd" fill-opacity="1" /><path clip-path="url(#clip160)" d="M1009.55 1536.5 Q1004.84 1536.5 1002.1 1540.19 Q999.367 1543.85 999.367 1550.25 Q999.367 1556.65 1002.07 1560.34 Q1004.81 1564 1009.55 1564 Q1014.23 1564 1016.97 1560.31 Q1019.71 1556.62 1019.71 1550.25 Q1019.71 1543.92 1016.97 1540.23 Q1014.23 1536.5 1009.55 1536.5 M1009.55 1531.54 Q1017.19 1531.54 1021.55 1536.5 Q1025.91 1541.47 1025.91 1550.25 Q1025.91 1559 1021.55 1564 Q1017.19 1568.97 1009.55 1568.97 Q1001.88 1568.97 997.521 1564 Q993.192 1559 993.192 1550.25 Q993.192 1541.47 997.521 1536.5 Q1001.88 1531.54 1009.55 1531.54 Z" fill="#000000" fill-rule="evenodd" fill-opacity="1" /><path clip-path="url(#clip160)" d="M1065.25 1546.53 L1065.25 1568.04 L1059.4 1568.04 L1059.4 1546.72 Q1059.4 1541.66 1057.42 1539.14 Q1055.45 1536.63 1051.5 1536.63 Q1046.76 1536.63 1044.02 1539.65 Q1041.28 1542.68 1041.28 1547.9 L1041.28 1568.04 L1035.4 1568.04 L1035.4 1532.4 L1041.28 1532.4 L1041.28 1537.93 Q1043.39 1534.72 1046.22 1533.13 Q1049.08 1531.54 1052.81 1531.54 Q1058.95 1531.54 1062.1 1535.36 Q1065.25 1539.14 1065.25 1546.53 Z" fill="#000000" fill-rule="evenodd" fill-opacity="1" /><path clip-path="url(#clip160)" d="M1111.47 1536.5 Q1106.76 1536.5 1104.02 1540.19 Q1101.28 1543.85 1101.28 1550.25 Q1101.28 1556.65 1103.99 1560.34 Q1106.72 1564 1111.47 1564 Q1116.15 1564 1118.88 1560.31 Q1121.62 1556.62 1121.62 1550.25 Q1121.62 1543.92 1118.88 1540.23 Q1116.15 1536.5 1111.47 1536.5 M1111.47 1531.54 Q1119.11 1531.54 1123.47 1536.5 Q1127.83 1541.47 1127.83 1550.25 Q1127.83 1559 1123.47 1564 Q1119.11 1568.97 1111.47 1568.97 Q1103.8 1568.97 1099.44 1564 Q1095.11 1559 1095.11 1550.25 Q1095.11 1541.47 1099.44 1536.5 Q1103.8 1531.54 1111.47 1531.54 Z" fill="#000000" fill-rule="evenodd" fill-opacity="1" /><path clip-path="url(#clip160)" d="M1155.58 1518.52 L1155.58 1523.39 L1149.98 1523.39 Q1146.83 1523.39 1145.59 1524.66 Q1144.38 1525.93 1144.38 1529.24 L1144.38 1532.4 L1154.02 1532.4 L1154.02 1536.95 L1144.38 1536.95 L1144.38 1568.04 L1138.49 1568.04 L1138.49 1536.95 L1132.89 1536.95 L1132.89 1532.4 L1138.49 1532.4 L1138.49 1529.91 Q1138.49 1523.96 1141.26 1521.26 Q1144.03 1518.52 1150.04 1518.52 L1155.58 1518.52 Z" fill="#000000" fill-rule="evenodd" fill-opacity="1" /><path clip-path="url(#clip160)" d="M1186.87 1562.7 L1186.87 1581.6 L1180.98 1581.6 L1180.98 1532.4 L1186.87 1532.4 L1186.87 1537.81 Q1188.71 1534.62 1191.52 1533.1 Q1194.35 1531.54 1198.26 1531.54 Q1204.76 1531.54 1208.8 1536.69 Q1212.87 1541.85 1212.87 1550.25 Q1212.87 1558.65 1208.8 1563.81 Q1204.76 1568.97 1198.26 1568.97 Q1194.35 1568.97 1191.52 1567.44 Q1188.71 1565.88 1186.87 1562.7 M1206.79 1550.25 Q1206.79 1543.79 1204.12 1540.13 Q1201.48 1536.44 1196.83 1536.44 Q1192.18 1536.44 1189.51 1540.13 Q1186.87 1543.79 1186.87 1550.25 Q1186.87 1556.71 1189.51 1560.4 Q1192.18 1564.07 1196.83 1564.07 Q1201.48 1564.07 1204.12 1560.4 Q1206.79 1556.71 1206.79 1550.25 Z" fill="#000000" fill-rule="evenodd" fill-opacity="1" /><path clip-path="url(#clip160)" d="M1236.39 1536.5 Q1231.68 1536.5 1228.95 1540.19 Q1226.21 1543.85 1226.21 1550.25 Q1226.21 1556.65 1228.91 1560.34 Q1231.65 1564 1236.39 1564 Q1241.07 1564 1243.81 1560.31 Q1246.55 1556.62 1246.55 1550.25 Q1246.55 1543.92 1243.81 1540.23 Q1241.07 1536.5 1236.39 1536.5 M1236.39 1531.54 Q1244.03 1531.54 1248.39 1536.5 Q1252.75 1541.47 1252.75 1550.25 Q1252.75 1559 1248.39 1564 Q1244.03 1568.97 1236.39 1568.97 Q1228.72 1568.97 1224.36 1564 Q1220.03 1559 1220.03 1550.25 Q1220.03 1541.47 1224.36 1536.5 Q1228.72 1531.54 1236.39 1531.54 Z" fill="#000000" fill-rule="evenodd" fill-opacity="1" /><path clip-path="url(#clip160)" d="M1268.13 1562.7 L1268.13 1581.6 L1262.24 1581.6 L1262.24 1532.4 L1268.13 1532.4 L1268.13 1537.81 Q1269.97 1534.62 1272.77 1533.1 Q1275.61 1531.54 1279.52 1531.54 Q1286.01 1531.54 1290.06 1536.69 Q1294.13 1541.85 1294.13 1550.25 Q1294.13 1558.65 1290.06 1563.81 Q1286.01 1568.97 1279.52 1568.97 Q1275.61 1568.97 1272.77 1567.44 Q1269.97 1565.88 1268.13 1562.7 M1288.05 1550.25 Q1288.05 1543.79 1285.38 1540.13 Q1282.74 1536.44 1278.09 1536.44 Q1273.44 1536.44 1270.77 1540.13 Q1268.13 1543.79 1268.13 1550.25 Q1268.13 1556.71 1270.77 1560.4 Q1273.44 1564.07 1278.09 1564.07 Q1282.74 1564.07 1285.38 1560.4 Q1288.05 1556.71 1288.05 1550.25 Z" fill="#000000" fill-rule="evenodd" fill-opacity="1" /><path clip-path="url(#clip160)" d="M1303.23 1553.98 L1303.23 1532.4 L1309.09 1532.4 L1309.09 1553.75 Q1309.09 1558.81 1311.06 1561.36 Q1313.04 1563.87 1316.98 1563.87 Q1321.73 1563.87 1324.46 1560.85 Q1327.23 1557.83 1327.23 1552.61 L1327.23 1532.4 L1333.09 1532.4 L1333.09 1568.04 L1327.23 1568.04 L1327.23 1562.57 Q1325.1 1565.82 1322.27 1567.41 Q1319.47 1568.97 1315.74 1568.97 Q1309.6 1568.97 1306.42 1565.15 Q1303.23 1561.33 1303.23 1553.98 M1317.97 1531.54 L1317.97 1531.54 Z" fill="#000000" fill-rule="evenodd" fill-opacity="1" /><path clip-path="url(#clip160)" d="M1345.15 1518.52 L1351.01 1518.52 L1351.01 1568.04 L1345.15 1568.04 L1345.15 1518.52 Z" fill="#000000" fill-rule="evenodd" fill-opacity="1" /><path clip-path="url(#clip160)" d="M1379.46 1550.12 Q1372.37 1550.12 1369.63 1551.75 Q1366.89 1553.37 1366.89 1557.29 Q1366.89 1560.4 1368.93 1562.25 Q1371 1564.07 1374.53 1564.07 Q1379.4 1564.07 1382.33 1560.63 Q1385.29 1557.16 1385.29 1551.43 L1385.29 1550.12 L1379.46 1550.12 M1391.14 1547.71 L1391.14 1568.04 L1385.29 1568.04 L1385.29 1562.63 Q1383.28 1565.88 1380.29 1567.44 Q1377.3 1568.97 1372.97 1568.97 Q1367.5 1568.97 1364.25 1565.91 Q1361.03 1562.82 1361.03 1557.67 Q1361.03 1551.65 1365.04 1548.6 Q1369.09 1545.54 1377.08 1545.54 L1385.29 1545.54 L1385.29 1544.97 Q1385.29 1540.93 1382.61 1538.73 Q1379.97 1536.5 1375.17 1536.5 Q1372.11 1536.5 1369.21 1537.23 Q1366.32 1537.97 1363.64 1539.43 L1363.64 1534.02 Q1366.86 1532.78 1369.88 1532.17 Q1372.91 1531.54 1375.77 1531.54 Q1383.51 1531.54 1387.32 1535.55 Q1391.14 1539.56 1391.14 1547.71 Z" fill="#000000" fill-rule="evenodd" fill-opacity="1" /><path clip-path="url(#clip160)" d="M1409 1522.27 L1409 1532.4 L1421.06 1532.4 L1421.06 1536.95 L1409 1536.95 L1409 1556.3 Q1409 1560.66 1410.18 1561.9 Q1411.39 1563.14 1415.05 1563.14 L1421.06 1563.14 L1421.06 1568.04 L1415.05 1568.04 Q1408.27 1568.04 1405.69 1565.53 Q1403.11 1562.98 1403.11 1556.3 L1403.11 1536.95 L1398.81 1536.95 L1398.81 1532.4 L1403.11 1532.4 L1403.11 1522.27 L1409 1522.27 Z" fill="#000000" fill-rule="evenodd" fill-opacity="1" /><path clip-path="url(#clip160)" d="M1428.77 1532.4 L1434.62 1532.4 L1434.62 1568.04 L1428.77 1568.04 L1428.77 1532.4 M1428.77 1518.52 L1434.62 1518.52 L1434.62 1525.93 L1428.77 1525.93 L1428.77 1518.52 Z" fill="#000000" fill-rule="evenodd" fill-opacity="1" /><path clip-path="url(#clip160)" d="M1460.69 1536.5 Q1455.98 1536.5 1453.24 1540.19 Q1450.5 1543.85 1450.5 1550.25 Q1450.5 1556.65 1453.21 1560.34 Q1455.95 1564 1460.69 1564 Q1465.37 1564 1468.11 1560.31 Q1470.84 1556.62 1470.84 1550.25 Q1470.84 1543.92 1468.11 1540.23 Q1465.37 1536.5 1460.69 1536.5 M1460.69 1531.54 Q1468.33 1531.54 1472.69 1536.5 Q1477.05 1541.47 1477.05 1550.25 Q1477.05 1559 1472.69 1564 Q1468.33 1568.97 1460.69 1568.97 Q1453.02 1568.97 1448.66 1564 Q1444.33 1559 1444.33 1550.25 Q1444.33 1541.47 1448.66 1536.5 Q1453.02 1531.54 1460.69 1531.54 Z" fill="#000000" fill-rule="evenodd" fill-opacity="1" /><path clip-path="url(#clip160)" d="M1516.39 1546.53 L1516.39 1568.04 L1510.53 1568.04 L1510.53 1546.72 Q1510.53 1541.66 1508.56 1539.14 Q1506.59 1536.63 1502.64 1536.63 Q1497.9 1536.63 1495.16 1539.65 Q1492.42 1542.68 1492.42 1547.9 L1492.42 1568.04 L1486.53 1568.04 L1486.53 1532.4 L1492.42 1532.4 L1492.42 1537.93 Q1494.52 1534.72 1497.36 1533.13 Q1500.22 1531.54 1503.94 1531.54 Q1510.09 1531.54 1513.24 1535.36 Q1516.39 1539.14 1516.39 1546.53 Z" fill="#000000" fill-rule="evenodd" fill-opacity="1" /><path clip-path="url(#clip160)" d="M1548.79 1532.4 L1554.65 1532.4 L1554.65 1568.04 L1548.79 1568.04 L1548.79 1532.4 M1548.79 1518.52 L1554.65 1518.52 L1554.65 1525.93 L1548.79 1525.93 L1548.79 1518.52 Z" fill="#000000" fill-rule="evenodd" fill-opacity="1" /><path clip-path="url(#clip160)" d="M1596.53 1546.53 L1596.53 1568.04 L1590.68 1568.04 L1590.68 1546.72 Q1590.68 1541.66 1588.7 1539.14 Q1586.73 1536.63 1582.78 1536.63 Q1578.04 1536.63 1575.3 1539.65 Q1572.57 1542.68 1572.57 1547.9 L1572.57 1568.04 L1566.68 1568.04 L1566.68 1532.4 L1572.57 1532.4 L1572.57 1537.93 Q1574.67 1534.72 1577.5 1533.13 Q1580.36 1531.54 1584.09 1531.54 Q1590.23 1531.54 1593.38 1535.36 Q1596.53 1539.14 1596.53 1546.53 Z" fill="#000000" fill-rule="evenodd" fill-opacity="1" /><path clip-path="url(#clip160)" d="M1626.26 1518.52 L1626.26 1523.39 L1620.66 1523.39 Q1617.51 1523.39 1616.27 1524.66 Q1615.06 1525.93 1615.06 1529.24 L1615.06 1532.4 L1624.7 1532.4 L1624.7 1536.95 L1615.06 1536.95 L1615.06 1568.04 L1609.17 1568.04 L1609.17 1536.95 L1603.57 1536.95 L1603.57 1532.4 L1609.17 1532.4 L1609.17 1529.91 Q1609.17 1523.96 1611.94 1521.26 Q1614.71 1518.52 1620.72 1518.52 L1626.26 1518.52 Z" fill="#000000" fill-rule="evenodd" fill-opacity="1" /><path clip-path="url(#clip160)" d="M1661.65 1548.76 L1661.65 1551.62 L1634.73 1551.62 Q1635.11 1557.67 1638.36 1560.85 Q1641.63 1564 1647.46 1564 Q1650.83 1564 1653.98 1563.17 Q1657.17 1562.35 1660.29 1560.69 L1660.29 1566.23 Q1657.14 1567.57 1653.83 1568.27 Q1650.51 1568.97 1647.11 1568.97 Q1638.58 1568.97 1633.58 1564 Q1628.62 1559.04 1628.62 1550.57 Q1628.62 1541.82 1633.33 1536.69 Q1638.07 1531.54 1646.09 1531.54 Q1653.28 1531.54 1657.45 1536.18 Q1661.65 1540.8 1661.65 1548.76 M1655.8 1547.04 Q1655.73 1542.23 1653.09 1539.37 Q1650.48 1536.5 1646.15 1536.5 Q1641.25 1536.5 1638.29 1539.27 Q1635.36 1542.04 1634.92 1547.07 L1655.8 1547.04 Z" fill="#000000" fill-rule="evenodd" fill-opacity="1" /><path clip-path="url(#clip160)" d="M1696.92 1533.76 L1696.92 1539.24 Q1694.44 1537.87 1691.92 1537.2 Q1689.44 1536.5 1686.89 1536.5 Q1681.2 1536.5 1678.05 1540.13 Q1674.9 1543.73 1674.9 1550.25 Q1674.9 1556.78 1678.05 1560.4 Q1681.2 1564 1686.89 1564 Q1689.44 1564 1691.92 1563.33 Q1694.44 1562.63 1696.92 1561.26 L1696.92 1566.68 Q1694.47 1567.82 1691.83 1568.39 Q1689.22 1568.97 1686.26 1568.97 Q1678.21 1568.97 1673.46 1563.91 Q1668.72 1558.85 1668.72 1550.25 Q1668.72 1541.53 1673.5 1536.53 Q1678.3 1531.54 1686.64 1531.54 Q1689.35 1531.54 1691.92 1532.11 Q1694.5 1532.65 1696.92 1533.76 Z" fill="#000000" fill-rule="evenodd" fill-opacity="1" /><path clip-path="url(#clip160)" d="M1712.9 1522.27 L1712.9 1532.4 L1724.96 1532.4 L1724.96 1536.95 L1712.9 1536.95 L1712.9 1556.3 Q1712.9 1560.66 1714.08 1561.9 Q1715.29 1563.14 1718.95 1563.14 L1724.96 1563.14 L1724.96 1568.04 L1718.95 1568.04 Q1712.17 1568.04 1709.59 1565.53 Q1707.01 1562.98 1707.01 1556.3 L1707.01 1536.95 L1702.71 1536.95 L1702.71 1532.4 L1707.01 1532.4 L1707.01 1522.27 L1712.9 1522.27 Z" fill="#000000" fill-rule="evenodd" fill-opacity="1" /><path clip-path="url(#clip160)" d="M1763.16 1548.76 L1763.16 1551.62 L1736.23 1551.62 Q1736.61 1557.67 1739.86 1560.85 Q1743.14 1564 1748.96 1564 Q1752.33 1564 1755.49 1563.17 Q1758.67 1562.35 1761.79 1560.69 L1761.79 1566.23 Q1758.64 1567.57 1755.33 1568.27 Q1752.02 1568.97 1748.61 1568.97 Q1740.08 1568.97 1735.08 1564 Q1730.12 1559.04 1730.12 1550.57 Q1730.12 1541.82 1734.83 1536.69 Q1739.57 1531.54 1747.59 1531.54 Q1754.79 1531.54 1758.95 1536.18 Q1763.16 1540.8 1763.16 1548.76 M1757.3 1547.04 Q1757.24 1542.23 1754.59 1539.37 Q1751.98 1536.5 1747.66 1536.5 Q1742.75 1536.5 1739.79 1539.27 Q1736.87 1542.04 1736.42 1547.07 L1757.3 1547.04 Z" fill="#000000" fill-rule="evenodd" fill-opacity="1" /><path clip-path="url(#clip160)" d="M1796.23 1537.81 L1796.23 1518.52 L1802.08 1518.52 L1802.08 1568.04 L1796.23 1568.04 L1796.23 1562.7 Q1794.38 1565.88 1791.55 1567.44 Q1788.75 1568.97 1784.8 1568.97 Q1778.34 1568.97 1774.26 1563.81 Q1770.22 1558.65 1770.22 1550.25 Q1770.22 1541.85 1774.26 1536.69 Q1778.34 1531.54 1784.8 1531.54 Q1788.75 1531.54 1791.55 1533.1 Q1794.38 1534.62 1796.23 1537.81 M1776.27 1550.25 Q1776.27 1556.71 1778.91 1560.4 Q1781.58 1564.07 1786.23 1564.07 Q1790.88 1564.07 1793.55 1560.4 Q1796.23 1556.71 1796.23 1550.25 Q1796.23 1543.79 1793.55 1540.13 Q1790.88 1536.44 1786.23 1536.44 Q1781.58 1536.44 1778.91 1540.13 Q1776.27 1543.79 1776.27 1550.25 Z" fill="#000000" fill-rule="evenodd" fill-opacity="1" /><path clip-path="url(#clip160)" d="M1815.64 1559.96 L1822.36 1559.96 L1822.36 1565.43 L1817.14 1575.62 L1813.03 1575.62 L1815.64 1565.43 L1815.64 1559.96 Z" fill="#000000" fill-rule="evenodd" fill-opacity="1" /><path clip-path="url(#clip160)" d="M1855.59 1532.4 L1861.44 1532.4 L1861.44 1568.04 L1855.59 1568.04 L1855.59 1532.4 M1855.59 1518.52 L1861.44 1518.52 L1861.44 1525.93 L1855.59 1525.93 L1855.59 1518.52 Z" fill="#000000" fill-rule="evenodd" fill-opacity="1" /><polyline clip-path="url(#clip162)" style="stroke:#000000; stroke-linecap:round; stroke-linejoin:round; stroke-width:2; stroke-opacity:0.1; fill:none" points="
  249.542,1384.24 2352.76,1384.24 
  "/>
<polyline clip-path="url(#clip162)" style="stroke:#000000; stroke-linecap:round; stroke-linejoin:round; stroke-width:2; stroke-opacity:0.1; fill:none" points="
  249.542,1124.63 2352.76,1124.63 
  "/>
<polyline clip-path="url(#clip162)" style="stroke:#000000; stroke-linecap:round; stroke-linejoin:round; stroke-width:2; stroke-opacity:0.1; fill:none" points="
  249.542,865.017 2352.76,865.017 
  "/>
<polyline clip-path="url(#clip162)" style="stroke:#000000; stroke-linecap:round; stroke-linejoin:round; stroke-width:2; stroke-opacity:0.1; fill:none" points="
  249.542,605.407 2352.76,605.407 
  "/>
<polyline clip-path="url(#clip162)" style="stroke:#000000; stroke-linecap:round; stroke-linejoin:round; stroke-width:2; stroke-opacity:0.1; fill:none" points="
  249.542,345.796 2352.76,345.796 
  "/>
<polyline clip-path="url(#clip162)" style="stroke:#000000; stroke-linecap:round; stroke-linejoin:round; stroke-width:2; stroke-opacity:0.1; fill:none" points="
  249.542,86.1857 2352.76,86.1857 
  "/>
<polyline clip-path="url(#clip160)" style="stroke:#000000; stroke-linecap:round; stroke-linejoin:round; stroke-width:4; stroke-opacity:1; fill:none" points="
  249.542,1423.18 249.542,47.2441 
  "/>
<polyline clip-path="url(#clip160)" style="stroke:#000000; stroke-linecap:round; stroke-linejoin:round; stroke-width:4; stroke-opacity:1; fill:none" points="
  249.542,1384.24 268.44,1384.24 
  "/>
<polyline clip-path="url(#clip160)" style="stroke:#000000; stroke-linecap:round; stroke-linejoin:round; stroke-width:4; stroke-opacity:1; fill:none" points="
  249.542,1124.63 268.44,1124.63 
  "/>
<polyline clip-path="url(#clip160)" style="stroke:#000000; stroke-linecap:round; stroke-linejoin:round; stroke-width:4; stroke-opacity:1; fill:none" points="
  249.542,865.017 268.44,865.017 
  "/>
<polyline clip-path="url(#clip160)" style="stroke:#000000; stroke-linecap:round; stroke-linejoin:round; stroke-width:4; stroke-opacity:1; fill:none" points="
  249.542,605.407 268.44,605.407 
  "/>
<polyline clip-path="url(#clip160)" style="stroke:#000000; stroke-linecap:round; stroke-linejoin:round; stroke-width:4; stroke-opacity:1; fill:none" points="
  249.542,345.796 268.44,345.796 
  "/>
<polyline clip-path="url(#clip160)" style="stroke:#000000; stroke-linecap:round; stroke-linejoin:round; stroke-width:4; stroke-opacity:1; fill:none" points="
  249.542,86.1857 268.44,86.1857 
  "/>
<path clip-path="url(#clip160)" d="M126.205 1370.04 Q122.593 1370.04 120.765 1373.6 Q118.959 1377.14 118.959 1384.27 Q118.959 1391.38 120.765 1394.94 Q122.593 1398.49 126.205 1398.49 Q129.839 1398.49 131.644 1394.94 Q133.473 1391.38 133.473 1384.27 Q133.473 1377.14 131.644 1373.6 Q129.839 1370.04 126.205 1370.04 M126.205 1366.33 Q132.015 1366.33 135.07 1370.94 Q138.149 1375.52 138.149 1384.27 Q138.149 1393 135.07 1397.61 Q132.015 1402.19 126.205 1402.19 Q120.394 1402.19 117.316 1397.61 Q114.26 1393 114.26 1384.27 Q114.26 1375.52 117.316 1370.94 Q120.394 1366.33 126.205 1366.33 Z" fill="#000000" fill-rule="evenodd" fill-opacity="1" /><path clip-path="url(#clip160)" d="M146.366 1395.64 L151.251 1395.64 L151.251 1401.52 L146.366 1401.52 L146.366 1395.64 Z" fill="#000000" fill-rule="evenodd" fill-opacity="1" /><path clip-path="url(#clip160)" d="M171.436 1370.04 Q167.825 1370.04 165.996 1373.6 Q164.19 1377.14 164.19 1384.27 Q164.19 1391.38 165.996 1394.94 Q167.825 1398.49 171.436 1398.49 Q175.07 1398.49 176.876 1394.94 Q178.704 1391.38 178.704 1384.27 Q178.704 1377.14 176.876 1373.6 Q175.07 1370.04 171.436 1370.04 M171.436 1366.33 Q177.246 1366.33 180.301 1370.94 Q183.38 1375.52 183.38 1384.27 Q183.38 1393 180.301 1397.61 Q177.246 1402.19 171.436 1402.19 Q165.626 1402.19 162.547 1397.61 Q159.491 1393 159.491 1384.27 Q159.491 1375.52 162.547 1370.94 Q165.626 1366.33 171.436 1366.33 Z" fill="#000000" fill-rule="evenodd" fill-opacity="1" /><path clip-path="url(#clip160)" d="M201.598 1370.04 Q197.987 1370.04 196.158 1373.6 Q194.352 1377.14 194.352 1384.27 Q194.352 1391.38 196.158 1394.94 Q197.987 1398.49 201.598 1398.49 Q205.232 1398.49 207.037 1394.94 Q208.866 1391.38 208.866 1384.27 Q208.866 1377.14 207.037 1373.6 Q205.232 1370.04 201.598 1370.04 M201.598 1366.33 Q207.408 1366.33 210.463 1370.94 Q213.542 1375.52 213.542 1384.27 Q213.542 1393 210.463 1397.61 Q207.408 1402.19 201.598 1402.19 Q195.787 1402.19 192.709 1397.61 Q189.653 1393 189.653 1384.27 Q189.653 1375.52 192.709 1370.94 Q195.787 1366.33 201.598 1366.33 Z" fill="#000000" fill-rule="evenodd" fill-opacity="1" /><path clip-path="url(#clip160)" d="M127.2 1110.43 Q123.589 1110.43 121.76 1113.99 Q119.955 1117.53 119.955 1124.66 Q119.955 1131.77 121.76 1135.33 Q123.589 1138.88 127.2 1138.88 Q130.834 1138.88 132.64 1135.33 Q134.468 1131.77 134.468 1124.66 Q134.468 1117.53 132.64 1113.99 Q130.834 1110.43 127.2 1110.43 M127.2 1106.72 Q133.01 1106.72 136.066 1111.33 Q139.144 1115.91 139.144 1124.66 Q139.144 1133.39 136.066 1138 Q133.01 1142.58 127.2 1142.58 Q121.39 1142.58 118.311 1138 Q115.256 1133.39 115.256 1124.66 Q115.256 1115.91 118.311 1111.33 Q121.39 1106.72 127.2 1106.72 Z" fill="#000000" fill-rule="evenodd" fill-opacity="1" /><path clip-path="url(#clip160)" d="M147.362 1136.03 L152.246 1136.03 L152.246 1141.91 L147.362 1141.91 L147.362 1136.03 Z" fill="#000000" fill-rule="evenodd" fill-opacity="1" /><path clip-path="url(#clip160)" d="M172.431 1110.43 Q168.82 1110.43 166.991 1113.99 Q165.186 1117.53 165.186 1124.66 Q165.186 1131.77 166.991 1135.33 Q168.82 1138.88 172.431 1138.88 Q176.065 1138.88 177.871 1135.33 Q179.7 1131.77 179.7 1124.66 Q179.7 1117.53 177.871 1113.99 Q176.065 1110.43 172.431 1110.43 M172.431 1106.72 Q178.241 1106.72 181.297 1111.33 Q184.376 1115.91 184.376 1124.66 Q184.376 1133.39 181.297 1138 Q178.241 1142.58 172.431 1142.58 Q166.621 1142.58 163.542 1138 Q160.487 1133.39 160.487 1124.66 Q160.487 1115.91 163.542 1111.33 Q166.621 1106.72 172.431 1106.72 Z" fill="#000000" fill-rule="evenodd" fill-opacity="1" /><path clip-path="url(#clip160)" d="M192.639 1107.35 L210.996 1107.35 L210.996 1111.28 L196.922 1111.28 L196.922 1119.76 Q197.94 1119.41 198.959 1119.25 Q199.977 1119.06 200.996 1119.06 Q206.783 1119.06 210.162 1122.23 Q213.542 1125.4 213.542 1130.82 Q213.542 1136.4 210.07 1139.5 Q206.598 1142.58 200.278 1142.58 Q198.102 1142.58 195.834 1142.21 Q193.588 1141.84 191.181 1141.1 L191.181 1136.4 Q193.264 1137.53 195.487 1138.09 Q197.709 1138.64 200.186 1138.64 Q204.19 1138.64 206.528 1136.54 Q208.866 1134.43 208.866 1130.82 Q208.866 1127.21 206.528 1125.1 Q204.19 1123 200.186 1123 Q198.311 1123 196.436 1123.41 Q194.584 1123.83 192.639 1124.71 L192.639 1107.35 Z" fill="#000000" fill-rule="evenodd" fill-opacity="1" /><path clip-path="url(#clip160)" d="M126.205 850.816 Q122.593 850.816 120.765 854.381 Q118.959 857.922 118.959 865.052 Q118.959 872.158 120.765 875.723 Q122.593 879.265 126.205 879.265 Q129.839 879.265 131.644 875.723 Q133.473 872.158 133.473 865.052 Q133.473 857.922 131.644 854.381 Q129.839 850.816 126.205 850.816 M126.205 847.112 Q132.015 847.112 135.07 851.719 Q138.149 856.302 138.149 865.052 Q138.149 873.779 135.07 878.385 Q132.015 882.969 126.205 882.969 Q120.394 882.969 117.316 878.385 Q114.26 873.779 114.26 865.052 Q114.26 856.302 117.316 851.719 Q120.394 847.112 126.205 847.112 Z" fill="#000000" fill-rule="evenodd" fill-opacity="1" /><path clip-path="url(#clip160)" d="M146.366 876.418 L151.251 876.418 L151.251 882.297 L146.366 882.297 L146.366 876.418 Z" fill="#000000" fill-rule="evenodd" fill-opacity="1" /><path clip-path="url(#clip160)" d="M162.246 878.362 L169.885 878.362 L169.885 851.996 L161.575 853.663 L161.575 849.404 L169.839 847.737 L174.514 847.737 L174.514 878.362 L182.153 878.362 L182.153 882.297 L162.246 882.297 L162.246 878.362 Z" fill="#000000" fill-rule="evenodd" fill-opacity="1" /><path clip-path="url(#clip160)" d="M201.598 850.816 Q197.987 850.816 196.158 854.381 Q194.352 857.922 194.352 865.052 Q194.352 872.158 196.158 875.723 Q197.987 879.265 201.598 879.265 Q205.232 879.265 207.037 875.723 Q208.866 872.158 208.866 865.052 Q208.866 857.922 207.037 854.381 Q205.232 850.816 201.598 850.816 M201.598 847.112 Q207.408 847.112 210.463 851.719 Q213.542 856.302 213.542 865.052 Q213.542 873.779 210.463 878.385 Q207.408 882.969 201.598 882.969 Q195.787 882.969 192.709 878.385 Q189.653 873.779 189.653 865.052 Q189.653 856.302 192.709 851.719 Q195.787 847.112 201.598 847.112 Z" fill="#000000" fill-rule="evenodd" fill-opacity="1" /><path clip-path="url(#clip160)" d="M127.2 591.205 Q123.589 591.205 121.76 594.77 Q119.955 598.312 119.955 605.441 Q119.955 612.548 121.76 616.113 Q123.589 619.654 127.2 619.654 Q130.834 619.654 132.64 616.113 Q134.468 612.548 134.468 605.441 Q134.468 598.312 132.64 594.77 Q130.834 591.205 127.2 591.205 M127.2 587.502 Q133.01 587.502 136.066 592.108 Q139.144 596.691 139.144 605.441 Q139.144 614.168 136.066 618.775 Q133.01 623.358 127.2 623.358 Q121.39 623.358 118.311 618.775 Q115.256 614.168 115.256 605.441 Q115.256 596.691 118.311 592.108 Q121.39 587.502 127.2 587.502 Z" fill="#000000" fill-rule="evenodd" fill-opacity="1" /><path clip-path="url(#clip160)" d="M147.362 616.807 L152.246 616.807 L152.246 622.687 L147.362 622.687 L147.362 616.807 Z" fill="#000000" fill-rule="evenodd" fill-opacity="1" /><path clip-path="url(#clip160)" d="M163.241 618.752 L170.88 618.752 L170.88 592.386 L162.57 594.053 L162.57 589.793 L170.834 588.127 L175.51 588.127 L175.51 618.752 L183.149 618.752 L183.149 622.687 L163.241 622.687 L163.241 618.752 Z" fill="#000000" fill-rule="evenodd" fill-opacity="1" /><path clip-path="url(#clip160)" d="M192.639 588.127 L210.996 588.127 L210.996 592.062 L196.922 592.062 L196.922 600.534 Q197.94 600.187 198.959 600.025 Q199.977 599.84 200.996 599.84 Q206.783 599.84 210.162 603.011 Q213.542 606.182 213.542 611.599 Q213.542 617.177 210.07 620.279 Q206.598 623.358 200.278 623.358 Q198.102 623.358 195.834 622.988 Q193.588 622.617 191.181 621.877 L191.181 617.177 Q193.264 618.312 195.487 618.867 Q197.709 619.423 200.186 619.423 Q204.19 619.423 206.528 617.316 Q208.866 615.21 208.866 611.599 Q208.866 607.988 206.528 605.881 Q204.19 603.775 200.186 603.775 Q198.311 603.775 196.436 604.191 Q194.584 604.608 192.639 605.488 L192.639 588.127 Z" fill="#000000" fill-rule="evenodd" fill-opacity="1" /><path clip-path="url(#clip160)" d="M126.205 331.595 Q122.593 331.595 120.765 335.16 Q118.959 338.701 118.959 345.831 Q118.959 352.937 120.765 356.502 Q122.593 360.044 126.205 360.044 Q129.839 360.044 131.644 356.502 Q133.473 352.937 133.473 345.831 Q133.473 338.701 131.644 335.16 Q129.839 331.595 126.205 331.595 M126.205 327.891 Q132.015 327.891 135.07 332.498 Q138.149 337.081 138.149 345.831 Q138.149 354.558 135.07 359.164 Q132.015 363.747 126.205 363.747 Q120.394 363.747 117.316 359.164 Q114.26 354.558 114.26 345.831 Q114.26 337.081 117.316 332.498 Q120.394 327.891 126.205 327.891 Z" fill="#000000" fill-rule="evenodd" fill-opacity="1" /><path clip-path="url(#clip160)" d="M146.366 357.197 L151.251 357.197 L151.251 363.076 L146.366 363.076 L146.366 357.197 Z" fill="#000000" fill-rule="evenodd" fill-opacity="1" /><path clip-path="url(#clip160)" d="M165.464 359.141 L181.783 359.141 L181.783 363.076 L159.839 363.076 L159.839 359.141 Q162.501 356.386 167.084 351.757 Q171.69 347.104 172.871 345.761 Q175.116 343.238 175.996 341.502 Q176.899 339.743 176.899 338.053 Q176.899 335.299 174.954 333.562 Q173.033 331.826 169.931 331.826 Q167.732 331.826 165.278 332.59 Q162.848 333.354 160.07 334.905 L160.07 330.183 Q162.894 329.049 165.348 328.47 Q167.802 327.891 169.839 327.891 Q175.209 327.891 178.403 330.576 Q181.598 333.262 181.598 337.752 Q181.598 339.882 180.788 341.803 Q180.001 343.701 177.894 346.294 Q177.315 346.965 174.214 350.183 Q171.112 353.377 165.464 359.141 Z" fill="#000000" fill-rule="evenodd" fill-opacity="1" /><path clip-path="url(#clip160)" d="M201.598 331.595 Q197.987 331.595 196.158 335.16 Q194.352 338.701 194.352 345.831 Q194.352 352.937 196.158 356.502 Q197.987 360.044 201.598 360.044 Q205.232 360.044 207.037 356.502 Q208.866 352.937 208.866 345.831 Q208.866 338.701 207.037 335.16 Q205.232 331.595 201.598 331.595 M201.598 327.891 Q207.408 327.891 210.463 332.498 Q213.542 337.081 213.542 345.831 Q213.542 354.558 210.463 359.164 Q207.408 363.747 201.598 363.747 Q195.787 363.747 192.709 359.164 Q189.653 354.558 189.653 345.831 Q189.653 337.081 192.709 332.498 Q195.787 327.891 201.598 327.891 Z" fill="#000000" fill-rule="evenodd" fill-opacity="1" /><path clip-path="url(#clip160)" d="M127.2 71.9844 Q123.589 71.9844 121.76 75.5492 Q119.955 79.0908 119.955 86.2204 Q119.955 93.3268 121.76 96.8916 Q123.589 100.433 127.2 100.433 Q130.834 100.433 132.64 96.8916 Q134.468 93.3268 134.468 86.2204 Q134.468 79.0908 132.64 75.5492 Q130.834 71.9844 127.2 71.9844 M127.2 68.2807 Q133.01 68.2807 136.066 72.8871 Q139.144 77.4704 139.144 86.2204 Q139.144 94.9472 136.066 99.5537 Q133.01 104.137 127.2 104.137 Q121.39 104.137 118.311 99.5537 Q115.256 94.9472 115.256 86.2204 Q115.256 77.4704 118.311 72.8871 Q121.39 68.2807 127.2 68.2807 Z" fill="#000000" fill-rule="evenodd" fill-opacity="1" /><path clip-path="url(#clip160)" d="M147.362 97.5861 L152.246 97.5861 L152.246 103.466 L147.362 103.466 L147.362 97.5861 Z" fill="#000000" fill-rule="evenodd" fill-opacity="1" /><path clip-path="url(#clip160)" d="M166.459 99.5305 L182.778 99.5305 L182.778 103.466 L160.834 103.466 L160.834 99.5305 Q163.496 96.7759 168.079 92.1463 Q172.686 87.4935 173.866 86.151 Q176.112 83.6278 176.991 81.8917 Q177.894 80.1325 177.894 78.4427 Q177.894 75.688 175.95 73.9519 Q174.028 72.2158 170.927 72.2158 Q168.727 72.2158 166.274 72.9797 Q163.843 73.7436 161.065 75.2945 L161.065 70.5723 Q163.89 69.4381 166.343 68.8594 Q168.797 68.2807 170.834 68.2807 Q176.204 68.2807 179.399 70.9658 Q182.593 73.651 182.593 78.1417 Q182.593 80.2714 181.783 82.1926 Q180.996 84.0908 178.889 86.6834 Q178.311 87.3546 175.209 90.5722 Q172.107 93.7667 166.459 99.5305 Z" fill="#000000" fill-rule="evenodd" fill-opacity="1" /><path clip-path="url(#clip160)" d="M192.639 68.9057 L210.996 68.9057 L210.996 72.8408 L196.922 72.8408 L196.922 81.313 Q197.94 80.9658 198.959 80.8038 Q199.977 80.6186 200.996 80.6186 Q206.783 80.6186 210.162 83.7899 Q213.542 86.9611 213.542 92.3778 Q213.542 97.9564 210.07 101.058 Q206.598 104.137 200.278 104.137 Q198.102 104.137 195.834 103.767 Q193.588 103.396 191.181 102.655 L191.181 97.9564 Q193.264 99.0907 195.487 99.6462 Q197.709 100.202 200.186 100.202 Q204.19 100.202 206.528 98.0953 Q208.866 95.9889 208.866 92.3778 Q208.866 88.7667 206.528 86.6602 Q204.19 84.5537 200.186 84.5537 Q198.311 84.5537 196.436 84.9704 Q194.584 85.3871 192.639 86.2667 L192.639 68.9057 Z" fill="#000000" fill-rule="evenodd" fill-opacity="1" /><path clip-path="url(#clip160)" d="M16.4842 1052.96 L16.4842 1025.65 L21.895 1025.65 L21.895 1046.53 L35.8996 1046.53 L35.8996 1027.68 L41.3104 1027.68 L41.3104 1046.53 L64.0042 1046.53 L64.0042 1052.96 L16.4842 1052.96 Z" fill="#000000" fill-rule="evenodd" fill-opacity="1" /><path clip-path="url(#clip160)" d="M32.4621 1004.23 Q32.4621 1008.94 36.1542 1011.67 Q39.8145 1014.41 46.212 1014.41 Q52.6095 1014.41 56.3017 1011.71 Q59.9619 1008.97 59.9619 1004.23 Q59.9619 999.548 56.2698 996.811 Q52.5777 994.073 46.212 994.073 Q39.8781 994.073 36.186 996.811 Q32.4621 999.548 32.4621 1004.23 M27.4968 1004.23 Q27.4968 996.588 32.4621 992.227 Q37.4273 987.867 46.212 987.867 Q54.9649 987.867 59.9619 992.227 Q64.9272 996.588 64.9272 1004.23 Q64.9272 1011.9 59.9619 1016.26 Q54.9649 1020.59 46.212 1020.59 Q37.4273 1020.59 32.4621 1016.26 Q27.4968 1011.9 27.4968 1004.23 Z" fill="#000000" fill-rule="evenodd" fill-opacity="1" /><path clip-path="url(#clip160)" d="M33.8307 957.502 Q33.2578 958.489 33.0032 959.667 Q32.7167 960.813 32.7167 962.213 Q32.7167 967.178 35.9632 969.852 Q39.1779 972.494 45.2253 972.494 L64.0042 972.494 L64.0042 978.382 L28.3562 978.382 L28.3562 972.494 L33.8944 972.494 Q30.6479 970.648 29.0883 967.688 Q27.4968 964.728 27.4968 960.494 Q27.4968 959.89 27.5923 959.158 Q27.656 958.425 27.8151 957.534 L33.8307 957.502 Z" fill="#000000" fill-rule="evenodd" fill-opacity="1" /><path clip-path="url(#clip160)" d="M29.7248 927.138 L35.1993 927.138 Q33.8307 929.621 33.1623 932.135 Q32.4621 934.618 32.4621 937.164 Q32.4621 942.861 36.0905 946.012 Q39.6872 949.163 46.212 949.163 Q52.7369 949.163 56.3653 946.012 Q59.9619 942.861 59.9619 937.164 Q59.9619 934.618 59.2935 932.135 Q58.5933 929.621 57.2247 927.138 L62.6355 927.138 Q63.7814 929.589 64.3543 932.231 Q64.9272 934.841 64.9272 937.801 Q64.9272 945.853 59.8664 950.596 Q54.8057 955.338 46.212 955.338 Q37.491 955.338 32.4939 950.564 Q27.4968 945.758 27.4968 937.419 Q27.4968 934.713 28.0697 932.135 Q28.6108 929.557 29.7248 927.138 Z" fill="#000000" fill-rule="evenodd" fill-opacity="1" /><path clip-path="url(#clip160)" d="M44.7161 886.461 L47.5806 886.461 L47.5806 913.388 Q53.6281 913.006 56.8109 909.76 Q59.9619 906.481 59.9619 900.657 Q59.9619 897.283 59.1344 894.132 Q58.3069 890.949 56.6518 887.83 L62.1899 887.83 Q63.5267 890.981 64.227 894.291 Q64.9272 897.601 64.9272 901.007 Q64.9272 909.537 59.9619 914.534 Q54.9967 919.499 46.5303 919.499 Q37.7774 919.499 32.6531 914.789 Q27.4968 910.046 27.4968 902.025 Q27.4968 894.832 32.1438 890.663 Q36.7589 886.461 44.7161 886.461 M42.9973 892.318 Q38.1912 892.381 35.3266 895.023 Q32.4621 897.633 32.4621 901.962 Q32.4621 906.863 35.2312 909.823 Q38.0002 912.752 43.0292 913.197 L42.9973 892.318 Z" fill="#000000" fill-rule="evenodd" fill-opacity="1" /><path clip-path="url(#clip160)" d="M32.4621 842.315 Q32.4621 847.026 36.1542 849.763 Q39.8145 852.5 46.212 852.5 Q52.6095 852.5 56.3017 849.795 Q59.9619 847.057 59.9619 842.315 Q59.9619 837.636 56.2698 834.899 Q52.5777 832.162 46.212 832.162 Q39.8781 832.162 36.186 834.899 Q32.4621 837.636 32.4621 842.315 M27.4968 842.315 Q27.4968 834.676 32.4621 830.316 Q37.4273 825.955 46.212 825.955 Q54.9649 825.955 59.9619 830.316 Q64.9272 834.676 64.9272 842.315 Q64.9272 849.986 59.9619 854.346 Q54.9649 858.675 46.212 858.675 Q37.4273 858.675 32.4621 854.346 Q27.4968 849.986 27.4968 842.315 Z" fill="#000000" fill-rule="evenodd" fill-opacity="1" /><path clip-path="url(#clip160)" d="M14.479 798.201 L19.3487 798.201 L19.3487 803.802 Q19.3487 806.953 20.6219 808.195 Q21.895 809.404 25.2052 809.404 L28.3562 809.404 L28.3562 799.76 L32.9077 799.76 L32.9077 809.404 L64.0042 809.404 L64.0042 815.293 L32.9077 815.293 L32.9077 820.894 L28.3562 820.894 L28.3562 815.293 L25.8736 815.293 Q19.9216 815.293 17.2162 812.523 Q14.479 809.754 14.479 803.739 L14.479 798.201 Z" fill="#000000" fill-rule="evenodd" fill-opacity="1" /><path clip-path="url(#clip160)" d="M28.3562 772.579 L28.3562 766.722 L64.0042 766.722 L64.0042 772.579 L28.3562 772.579 M14.479 772.579 L14.479 766.722 L21.895 766.722 L21.895 772.579 L14.479 772.579 Z" fill="#000000" fill-rule="evenodd" fill-opacity="1" /><path clip-path="url(#clip160)" d="M42.4881 724.836 L64.0042 724.836 L64.0042 730.692 L42.679 730.692 Q37.6183 730.692 35.1038 732.666 Q32.5894 734.639 32.5894 738.586 Q32.5894 743.328 35.6131 746.065 Q38.6368 748.803 43.8567 748.803 L64.0042 748.803 L64.0042 754.691 L28.3562 754.691 L28.3562 748.803 L33.8944 748.803 Q30.6797 746.702 29.0883 743.869 Q27.4968 741.005 27.4968 737.281 Q27.4968 731.138 31.3163 727.987 Q35.1038 724.836 42.4881 724.836 Z" fill="#000000" fill-rule="evenodd" fill-opacity="1" /><path clip-path="url(#clip160)" d="M14.479 695.108 L19.3487 695.108 L19.3487 700.71 Q19.3487 703.861 20.6219 705.102 Q21.895 706.312 25.2052 706.312 L28.3562 706.312 L28.3562 696.668 L32.9077 696.668 L32.9077 706.312 L64.0042 706.312 L64.0042 712.2 L32.9077 712.2 L32.9077 717.802 L28.3562 717.802 L28.3562 712.2 L25.8736 712.2 Q19.9216 712.2 17.2162 709.431 Q14.479 706.662 14.479 700.646 L14.479 695.108 Z" fill="#000000" fill-rule="evenodd" fill-opacity="1" /><path clip-path="url(#clip160)" d="M44.7161 659.715 L47.5806 659.715 L47.5806 686.642 Q53.6281 686.26 56.8109 683.013 Q59.9619 679.735 59.9619 673.91 Q59.9619 670.536 59.1344 667.385 Q58.3069 664.203 56.6518 661.083 L62.1899 661.083 Q63.5267 664.234 64.227 667.545 Q64.9272 670.855 64.9272 674.26 Q64.9272 682.79 59.9619 687.787 Q54.9967 692.753 46.5303 692.753 Q37.7774 692.753 32.6531 688.042 Q27.4968 683.3 27.4968 675.279 Q27.4968 668.086 32.1438 663.916 Q36.7589 659.715 44.7161 659.715 M42.9973 665.571 Q38.1912 665.635 35.3266 668.277 Q32.4621 670.887 32.4621 675.215 Q32.4621 680.117 35.2312 683.077 Q38.0002 686.005 43.0292 686.451 L42.9973 665.571 Z" fill="#000000" fill-rule="evenodd" fill-opacity="1" /><path clip-path="url(#clip160)" d="M29.7248 624.449 L35.1993 624.449 Q33.8307 626.931 33.1623 629.446 Q32.4621 631.928 32.4621 634.475 Q32.4621 640.172 36.0905 643.323 Q39.6872 646.474 46.212 646.474 Q52.7369 646.474 56.3653 643.323 Q59.9619 640.172 59.9619 634.475 Q59.9619 631.928 59.2935 629.446 Q58.5933 626.931 57.2247 624.449 L62.6355 624.449 Q63.7814 626.899 64.3543 629.541 Q64.9272 632.151 64.9272 635.111 Q64.9272 643.164 59.8664 647.906 Q54.8057 652.649 46.212 652.649 Q37.491 652.649 32.4939 647.874 Q27.4968 643.068 27.4968 634.729 Q27.4968 632.024 28.0697 629.446 Q28.6108 626.868 29.7248 624.449 Z" fill="#000000" fill-rule="evenodd" fill-opacity="1" /><path clip-path="url(#clip160)" d="M18.2347 608.471 L28.3562 608.471 L28.3562 596.408 L32.9077 596.408 L32.9077 608.471 L52.2594 608.471 Q56.6199 608.471 57.8613 607.293 Q59.1026 606.084 59.1026 602.423 L59.1026 596.408 L64.0042 596.408 L64.0042 602.423 Q64.0042 609.203 61.4897 611.781 Q58.9434 614.359 52.2594 614.359 L32.9077 614.359 L32.9077 618.656 L28.3562 618.656 L28.3562 614.359 L18.2347 614.359 L18.2347 608.471 Z" fill="#000000" fill-rule="evenodd" fill-opacity="1" /><path clip-path="url(#clip160)" d="M28.3562 588.705 L28.3562 582.849 L64.0042 582.849 L64.0042 588.705 L28.3562 588.705 M14.479 588.705 L14.479 582.849 L21.895 582.849 L21.895 588.705 L14.479 588.705 Z" fill="#000000" fill-rule="evenodd" fill-opacity="1" /><path clip-path="url(#clip160)" d="M32.4621 556.781 Q32.4621 561.492 36.1542 564.229 Q39.8145 566.966 46.212 566.966 Q52.6095 566.966 56.3017 564.261 Q59.9619 561.524 59.9619 556.781 Q59.9619 552.102 56.2698 549.365 Q52.5777 546.628 46.212 546.628 Q39.8781 546.628 36.186 549.365 Q32.4621 552.102 32.4621 556.781 M27.4968 556.781 Q27.4968 549.142 32.4621 544.782 Q37.4273 540.421 46.212 540.421 Q54.9649 540.421 59.9619 544.782 Q64.9272 549.142 64.9272 556.781 Q64.9272 564.452 59.9619 568.812 Q54.9649 573.141 46.212 573.141 Q37.4273 573.141 32.4621 568.812 Q27.4968 564.452 27.4968 556.781 Z" fill="#000000" fill-rule="evenodd" fill-opacity="1" /><path clip-path="url(#clip160)" d="M42.4881 501.081 L64.0042 501.081 L64.0042 506.938 L42.679 506.938 Q37.6183 506.938 35.1038 508.911 Q32.5894 510.884 32.5894 514.831 Q32.5894 519.574 35.6131 522.311 Q38.6368 525.048 43.8567 525.048 L64.0042 525.048 L64.0042 530.936 L28.3562 530.936 L28.3562 525.048 L33.8944 525.048 Q30.6797 522.947 29.0883 520.115 Q27.4968 517.25 27.4968 513.526 Q27.4968 507.383 31.3163 504.232 Q35.1038 501.081 42.4881 501.081 Z" fill="#000000" fill-rule="evenodd" fill-opacity="1" /><path clip-path="url(#clip160)" d="M55.9197 487.904 L55.9197 481.188 L61.3942 481.188 L71.5793 486.408 L71.5793 490.514 L61.3942 487.904 L55.9197 487.904 Z" fill="#000000" fill-rule="evenodd" fill-opacity="1" /><path clip-path="url(#clip160)" d="M20.049 433.923 L64.0042 417.468 L64.0042 423.674 L37.6501 433.668 L64.0042 445.954 L64.0042 452.161 L29.8203 436.533 L23.5183 438.888 Q19.5079 440.384 19.5079 443.79 L19.5079 446.845 L14.479 446.845 L14.5426 443.122 Q14.6381 435.928 20.049 433.923 Z" fill="#000000" fill-rule="evenodd" fill-opacity="1" /><circle clip-path="url(#clip162)" cx="309.067" cy="1384.24" r="14.4" fill="#009af9" fill-rule="evenodd" fill-opacity="1" stroke="#000000" stroke-opacity="1" stroke-width="3.2"/>
<circle clip-path="url(#clip162)" cx="348.75" cy="1358.28" r="14.4" fill="#009af9" fill-rule="evenodd" fill-opacity="1" stroke="#000000" stroke-opacity="1" stroke-width="3.2"/>
<circle clip-path="url(#clip162)" cx="388.434" cy="1332.32" r="14.4" fill="#009af9" fill-rule="evenodd" fill-opacity="1" stroke="#000000" stroke-opacity="1" stroke-width="3.2"/>
<circle clip-path="url(#clip162)" cx="428.117" cy="1306.36" r="14.4" fill="#009af9" fill-rule="evenodd" fill-opacity="1" stroke="#000000" stroke-opacity="1" stroke-width="3.2"/>
<circle clip-path="url(#clip162)" cx="467.8" cy="1280.39" r="14.4" fill="#009af9" fill-rule="evenodd" fill-opacity="1" stroke="#000000" stroke-opacity="1" stroke-width="3.2"/>
<circle clip-path="url(#clip162)" cx="507.483" cy="1254.43" r="14.4" fill="#009af9" fill-rule="evenodd" fill-opacity="1" stroke="#000000" stroke-opacity="1" stroke-width="3.2"/>
<circle clip-path="url(#clip162)" cx="547.167" cy="1228.47" r="14.4" fill="#009af9" fill-rule="evenodd" fill-opacity="1" stroke="#000000" stroke-opacity="1" stroke-width="3.2"/>
<circle clip-path="url(#clip162)" cx="586.85" cy="1202.51" r="14.4" fill="#009af9" fill-rule="evenodd" fill-opacity="1" stroke="#000000" stroke-opacity="1" stroke-width="3.2"/>
<circle clip-path="url(#clip162)" cx="626.533" cy="1176.55" r="14.4" fill="#009af9" fill-rule="evenodd" fill-opacity="1" stroke="#000000" stroke-opacity="1" stroke-width="3.2"/>
<circle clip-path="url(#clip162)" cx="666.216" cy="1150.59" r="14.4" fill="#009af9" fill-rule="evenodd" fill-opacity="1" stroke="#000000" stroke-opacity="1" stroke-width="3.2"/>
<circle clip-path="url(#clip162)" cx="705.9" cy="1124.63" r="14.4" fill="#009af9" fill-rule="evenodd" fill-opacity="1" stroke="#000000" stroke-opacity="1" stroke-width="3.2"/>
<circle clip-path="url(#clip162)" cx="745.583" cy="1098.67" r="14.4" fill="#009af9" fill-rule="evenodd" fill-opacity="1" stroke="#000000" stroke-opacity="1" stroke-width="3.2"/>
<circle clip-path="url(#clip162)" cx="785.266" cy="1072.71" r="14.4" fill="#009af9" fill-rule="evenodd" fill-opacity="1" stroke="#000000" stroke-opacity="1" stroke-width="3.2"/>
<circle clip-path="url(#clip162)" cx="824.95" cy="1046.74" r="14.4" fill="#009af9" fill-rule="evenodd" fill-opacity="1" stroke="#000000" stroke-opacity="1" stroke-width="3.2"/>
<circle clip-path="url(#clip162)" cx="864.633" cy="1020.78" r="14.4" fill="#009af9" fill-rule="evenodd" fill-opacity="1" stroke="#000000" stroke-opacity="1" stroke-width="3.2"/>
<circle clip-path="url(#clip162)" cx="904.316" cy="994.822" r="14.4" fill="#009af9" fill-rule="evenodd" fill-opacity="1" stroke="#000000" stroke-opacity="1" stroke-width="3.2"/>
<circle clip-path="url(#clip162)" cx="943.999" cy="968.861" r="14.4" fill="#009af9" fill-rule="evenodd" fill-opacity="1" stroke="#000000" stroke-opacity="1" stroke-width="3.2"/>
<circle clip-path="url(#clip162)" cx="983.683" cy="942.9" r="14.4" fill="#009af9" fill-rule="evenodd" fill-opacity="1" stroke="#000000" stroke-opacity="1" stroke-width="3.2"/>
<circle clip-path="url(#clip162)" cx="1023.37" cy="916.939" r="14.4" fill="#009af9" fill-rule="evenodd" fill-opacity="1" stroke="#000000" stroke-opacity="1" stroke-width="3.2"/>
<circle clip-path="url(#clip162)" cx="1063.05" cy="890.978" r="14.4" fill="#009af9" fill-rule="evenodd" fill-opacity="1" stroke="#000000" stroke-opacity="1" stroke-width="3.2"/>
<circle clip-path="url(#clip162)" cx="1102.73" cy="865.017" r="14.4" fill="#009af9" fill-rule="evenodd" fill-opacity="1" stroke="#000000" stroke-opacity="1" stroke-width="3.2"/>
<circle clip-path="url(#clip162)" cx="1142.42" cy="839.056" r="14.4" fill="#009af9" fill-rule="evenodd" fill-opacity="1" stroke="#000000" stroke-opacity="1" stroke-width="3.2"/>
<circle clip-path="url(#clip162)" cx="1182.1" cy="813.095" r="14.4" fill="#009af9" fill-rule="evenodd" fill-opacity="1" stroke="#000000" stroke-opacity="1" stroke-width="3.2"/>
<circle clip-path="url(#clip162)" cx="1221.78" cy="787.134" r="14.4" fill="#009af9" fill-rule="evenodd" fill-opacity="1" stroke="#000000" stroke-opacity="1" stroke-width="3.2"/>
<circle clip-path="url(#clip162)" cx="1261.47" cy="761.173" r="14.4" fill="#009af9" fill-rule="evenodd" fill-opacity="1" stroke="#000000" stroke-opacity="1" stroke-width="3.2"/>
<circle clip-path="url(#clip162)" cx="1301.15" cy="735.212" r="14.4" fill="#009af9" fill-rule="evenodd" fill-opacity="1" stroke="#000000" stroke-opacity="1" stroke-width="3.2"/>
<circle clip-path="url(#clip162)" cx="1340.83" cy="709.251" r="14.4" fill="#009af9" fill-rule="evenodd" fill-opacity="1" stroke="#000000" stroke-opacity="1" stroke-width="3.2"/>
<circle clip-path="url(#clip162)" cx="1380.52" cy="683.29" r="14.4" fill="#009af9" fill-rule="evenodd" fill-opacity="1" stroke="#000000" stroke-opacity="1" stroke-width="3.2"/>
<circle clip-path="url(#clip162)" cx="1420.2" cy="657.329" r="14.4" fill="#009af9" fill-rule="evenodd" fill-opacity="1" stroke="#000000" stroke-opacity="1" stroke-width="3.2"/>
<circle clip-path="url(#clip162)" cx="1459.88" cy="631.368" r="14.4" fill="#009af9" fill-rule="evenodd" fill-opacity="1" stroke="#000000" stroke-opacity="1" stroke-width="3.2"/>
<circle clip-path="url(#clip162)" cx="1499.57" cy="605.407" r="14.4" fill="#009af9" fill-rule="evenodd" fill-opacity="1" stroke="#000000" stroke-opacity="1" stroke-width="3.2"/>
<circle clip-path="url(#clip162)" cx="1539.25" cy="579.446" r="14.4" fill="#009af9" fill-rule="evenodd" fill-opacity="1" stroke="#000000" stroke-opacity="1" stroke-width="3.2"/>
<circle clip-path="url(#clip162)" cx="1578.93" cy="553.485" r="14.4" fill="#009af9" fill-rule="evenodd" fill-opacity="1" stroke="#000000" stroke-opacity="1" stroke-width="3.2"/>
<circle clip-path="url(#clip162)" cx="1618.62" cy="527.524" r="14.4" fill="#009af9" fill-rule="evenodd" fill-opacity="1" stroke="#000000" stroke-opacity="1" stroke-width="3.2"/>
<circle clip-path="url(#clip162)" cx="1658.3" cy="501.563" r="14.4" fill="#009af9" fill-rule="evenodd" fill-opacity="1" stroke="#000000" stroke-opacity="1" stroke-width="3.2"/>
<circle clip-path="url(#clip162)" cx="1697.98" cy="475.601" r="14.4" fill="#009af9" fill-rule="evenodd" fill-opacity="1" stroke="#000000" stroke-opacity="1" stroke-width="3.2"/>
<circle clip-path="url(#clip162)" cx="1737.67" cy="449.64" r="14.4" fill="#009af9" fill-rule="evenodd" fill-opacity="1" stroke="#000000" stroke-opacity="1" stroke-width="3.2"/>
<circle clip-path="url(#clip162)" cx="1777.35" cy="423.679" r="14.4" fill="#009af9" fill-rule="evenodd" fill-opacity="1" stroke="#000000" stroke-opacity="1" stroke-width="3.2"/>
<circle clip-path="url(#clip162)" cx="1817.03" cy="397.718" r="14.4" fill="#009af9" fill-rule="evenodd" fill-opacity="1" stroke="#000000" stroke-opacity="1" stroke-width="3.2"/>
<circle clip-path="url(#clip162)" cx="1856.71" cy="371.757" r="14.4" fill="#009af9" fill-rule="evenodd" fill-opacity="1" stroke="#000000" stroke-opacity="1" stroke-width="3.2"/>
<circle clip-path="url(#clip162)" cx="1896.4" cy="345.796" r="14.4" fill="#009af9" fill-rule="evenodd" fill-opacity="1" stroke="#000000" stroke-opacity="1" stroke-width="3.2"/>
<circle clip-path="url(#clip162)" cx="1936.08" cy="319.835" r="14.4" fill="#009af9" fill-rule="evenodd" fill-opacity="1" stroke="#000000" stroke-opacity="1" stroke-width="3.2"/>
<circle clip-path="url(#clip162)" cx="1975.76" cy="293.874" r="14.4" fill="#009af9" fill-rule="evenodd" fill-opacity="1" stroke="#000000" stroke-opacity="1" stroke-width="3.2"/>
<circle clip-path="url(#clip162)" cx="2015.45" cy="267.913" r="14.4" fill="#009af9" fill-rule="evenodd" fill-opacity="1" stroke="#000000" stroke-opacity="1" stroke-width="3.2"/>
<circle clip-path="url(#clip162)" cx="2055.13" cy="241.952" r="14.4" fill="#009af9" fill-rule="evenodd" fill-opacity="1" stroke="#000000" stroke-opacity="1" stroke-width="3.2"/>
<circle clip-path="url(#clip162)" cx="2094.81" cy="215.991" r="14.4" fill="#009af9" fill-rule="evenodd" fill-opacity="1" stroke="#000000" stroke-opacity="1" stroke-width="3.2"/>
<circle clip-path="url(#clip162)" cx="2134.5" cy="190.03" r="14.4" fill="#009af9" fill-rule="evenodd" fill-opacity="1" stroke="#000000" stroke-opacity="1" stroke-width="3.2"/>
<circle clip-path="url(#clip162)" cx="2174.18" cy="164.069" r="14.4" fill="#009af9" fill-rule="evenodd" fill-opacity="1" stroke="#000000" stroke-opacity="1" stroke-width="3.2"/>
<circle clip-path="url(#clip162)" cx="2213.86" cy="138.108" r="14.4" fill="#009af9" fill-rule="evenodd" fill-opacity="1" stroke="#000000" stroke-opacity="1" stroke-width="3.2"/>
<circle clip-path="url(#clip162)" cx="2253.55" cy="112.147" r="14.4" fill="#009af9" fill-rule="evenodd" fill-opacity="1" stroke="#000000" stroke-opacity="1" stroke-width="3.2"/>
<circle clip-path="url(#clip162)" cx="2293.23" cy="86.1857" r="14.4" fill="#009af9" fill-rule="evenodd" fill-opacity="1" stroke="#000000" stroke-opacity="1" stroke-width="3.2"/>
<polyline clip-path="url(#clip162)" style="stroke:#e26f46; stroke-linecap:round; stroke-linejoin:round; stroke-width:4; stroke-opacity:1; fill:none" points="
  -1853.67,2799.12 4455.97,-1328.69 
  "/>
<polyline clip-path="url(#clip162)" style="stroke:#3da44d; stroke-linecap:round; stroke-linejoin:round; stroke-width:4; stroke-opacity:1; fill:none" points="
  936.405,2799.12 936.405,-1328.69 
  "/>
<path clip-path="url(#clip160)" d="
M1368.15 300.469 L2282.65 300.469 L2282.65 93.1086 L1368.15 93.1086  Z
  " fill="#ffffff" fill-rule="evenodd" fill-opacity="1"/>
<polyline clip-path="url(#clip160)" style="stroke:#000000; stroke-linecap:round; stroke-linejoin:round; stroke-width:4; stroke-opacity:1; fill:none" points="
  1368.15,300.469 2282.65,300.469 2282.65,93.1086 1368.15,93.1086 1368.15,300.469 
  "/>
<circle clip-path="url(#clip160)" cx="1461.63" cy="144.949" r="23.04" fill="#009af9" fill-rule="evenodd" fill-opacity="1" stroke="#000000" stroke-opacity="1" stroke-width="5.12"/>
<path clip-path="url(#clip160)" d="M1577.35 128.803 L1577.35 133.363 Q1574.69 132.09 1572.33 131.465 Q1569.97 130.84 1567.77 130.84 Q1563.95 130.84 1561.86 132.321 Q1559.8 133.803 1559.8 136.534 Q1559.8 138.826 1561.17 140.007 Q1562.56 141.164 1566.4 141.882 L1569.22 142.46 Q1574.46 143.456 1576.93 145.979 Q1579.43 148.479 1579.43 152.692 Q1579.43 157.715 1576.05 160.307 Q1572.7 162.9 1566.19 162.9 Q1563.74 162.9 1560.96 162.344 Q1558.21 161.789 1555.24 160.701 L1555.24 155.886 Q1558.09 157.483 1560.82 158.293 Q1563.55 159.104 1566.19 159.104 Q1570.2 159.104 1572.37 157.53 Q1574.55 155.956 1574.55 153.039 Q1574.55 150.493 1572.97 149.057 Q1571.42 147.622 1567.86 146.905 L1565.01 146.349 Q1559.78 145.307 1557.44 143.085 Q1555.1 140.863 1555.1 136.905 Q1555.1 132.321 1558.32 129.682 Q1561.56 127.044 1567.23 127.044 Q1569.66 127.044 1572.19 127.483 Q1574.71 127.923 1577.35 128.803 Z" fill="#000000" fill-rule="evenodd" fill-opacity="1" /><path clip-path="url(#clip160)" d="M1597.33 164.636 Q1595.52 169.266 1593.81 170.678 Q1592.09 172.09 1589.22 172.09 L1585.82 172.09 L1585.82 168.525 L1588.32 168.525 Q1590.08 168.525 1591.05 167.692 Q1592.03 166.858 1593.21 163.756 L1593.97 161.812 L1583.48 136.303 L1588 136.303 L1596.1 156.581 L1604.2 136.303 L1608.71 136.303 L1597.33 164.636 Z" fill="#000000" fill-rule="evenodd" fill-opacity="1" /><path clip-path="url(#clip160)" d="M1634.78 141.28 Q1636.38 138.409 1638.6 137.044 Q1640.82 135.678 1643.83 135.678 Q1647.88 135.678 1650.08 138.525 Q1652.28 141.349 1652.28 146.581 L1652.28 162.229 L1648 162.229 L1648 146.719 Q1648 142.993 1646.68 141.187 Q1645.36 139.382 1642.65 139.382 Q1639.34 139.382 1637.42 141.581 Q1635.5 143.78 1635.5 147.576 L1635.5 162.229 L1631.21 162.229 L1631.21 146.719 Q1631.21 142.969 1629.9 141.187 Q1628.58 139.382 1625.82 139.382 Q1622.56 139.382 1620.64 141.604 Q1618.71 143.803 1618.71 147.576 L1618.71 162.229 L1614.43 162.229 L1614.43 136.303 L1618.71 136.303 L1618.71 140.331 Q1620.17 137.946 1622.21 136.812 Q1624.25 135.678 1627.05 135.678 Q1629.87 135.678 1631.84 137.113 Q1633.83 138.548 1634.78 141.28 Z" fill="#000000" fill-rule="evenodd" fill-opacity="1" /><path clip-path="url(#clip160)" d="M1679.39 149.289 Q1679.39 144.59 1677.44 141.928 Q1675.52 139.243 1672.14 139.243 Q1668.76 139.243 1666.82 141.928 Q1664.9 144.59 1664.9 149.289 Q1664.9 153.988 1666.82 156.673 Q1668.76 159.335 1672.14 159.335 Q1675.52 159.335 1677.44 156.673 Q1679.39 153.988 1679.39 149.289 M1664.9 140.238 Q1666.24 137.923 1668.27 136.812 Q1670.34 135.678 1673.18 135.678 Q1677.9 135.678 1680.84 139.428 Q1683.81 143.178 1683.81 149.289 Q1683.81 155.4 1680.84 159.15 Q1677.9 162.9 1673.18 162.9 Q1670.34 162.9 1668.27 161.789 Q1666.24 160.655 1664.9 158.34 L1664.9 162.229 L1660.61 162.229 L1660.61 126.21 L1664.9 126.21 L1664.9 140.238 Z" fill="#000000" fill-rule="evenodd" fill-opacity="1" /><path clip-path="url(#clip160)" d="M1700.91 139.289 Q1697.49 139.289 1695.5 141.974 Q1693.51 144.636 1693.51 149.289 Q1693.51 153.942 1695.47 156.627 Q1697.46 159.289 1700.91 159.289 Q1704.32 159.289 1706.31 156.604 Q1708.3 153.918 1708.3 149.289 Q1708.3 144.682 1706.31 141.997 Q1704.32 139.289 1700.91 139.289 M1700.91 135.678 Q1706.47 135.678 1709.64 139.289 Q1712.81 142.9 1712.81 149.289 Q1712.81 155.655 1709.64 159.289 Q1706.47 162.9 1700.91 162.9 Q1695.33 162.9 1692.16 159.289 Q1689.02 155.655 1689.02 149.289 Q1689.02 142.9 1692.16 139.289 Q1695.33 135.678 1700.91 135.678 Z" fill="#000000" fill-rule="evenodd" fill-opacity="1" /><path clip-path="url(#clip160)" d="M1719.87 126.21 L1724.13 126.21 L1724.13 162.229 L1719.87 162.229 L1719.87 126.21 Z" fill="#000000" fill-rule="evenodd" fill-opacity="1" /><path clip-path="url(#clip160)" d="M1733.04 136.303 L1737.3 136.303 L1737.3 162.229 L1733.04 162.229 L1733.04 136.303 M1733.04 126.21 L1737.3 126.21 L1737.3 131.604 L1733.04 131.604 L1733.04 126.21 Z" fill="#000000" fill-rule="evenodd" fill-opacity="1" /><path clip-path="url(#clip160)" d="M1764.87 137.298 L1764.87 141.28 Q1763.07 140.284 1761.24 139.798 Q1759.43 139.289 1757.58 139.289 Q1753.44 139.289 1751.14 141.928 Q1748.85 144.544 1748.85 149.289 Q1748.85 154.034 1751.14 156.673 Q1753.44 159.289 1757.58 159.289 Q1759.43 159.289 1761.24 158.803 Q1763.07 158.293 1764.87 157.298 L1764.87 161.233 Q1763.09 162.067 1761.17 162.483 Q1759.27 162.9 1757.12 162.9 Q1751.26 162.9 1747.81 159.219 Q1744.36 155.539 1744.36 149.289 Q1744.36 142.946 1747.83 139.312 Q1751.33 135.678 1757.39 135.678 Q1759.36 135.678 1761.24 136.095 Q1763.11 136.488 1764.87 137.298 Z" fill="#000000" fill-rule="evenodd" fill-opacity="1" /><path clip-path="url(#clip160)" d="M1803.92 146.025 Q1805.43 146.534 1806.84 148.201 Q1808.27 149.868 1809.71 152.784 L1814.45 162.229 L1809.43 162.229 L1805.01 153.363 Q1803.3 149.891 1801.68 148.756 Q1800.08 147.622 1797.3 147.622 L1792.21 147.622 L1792.21 162.229 L1787.53 162.229 L1787.53 127.669 L1798.09 127.669 Q1804.01 127.669 1806.93 130.145 Q1809.85 132.622 1809.85 137.622 Q1809.85 140.886 1808.32 143.039 Q1806.82 145.192 1803.92 146.025 M1792.21 131.511 L1792.21 143.78 L1798.09 143.78 Q1801.47 143.78 1803.18 142.229 Q1804.92 140.655 1804.92 137.622 Q1804.92 134.59 1803.18 133.062 Q1801.47 131.511 1798.09 131.511 L1792.21 131.511 Z" fill="#000000" fill-rule="evenodd" fill-opacity="1" /><path clip-path="url(#clip160)" d="M1840.33 148.201 L1840.33 150.284 L1820.75 150.284 Q1821.03 154.682 1823.39 156.997 Q1825.77 159.289 1830.01 159.289 Q1832.46 159.289 1834.76 158.687 Q1837.07 158.085 1839.34 156.881 L1839.34 160.909 Q1837.05 161.881 1834.64 162.391 Q1832.23 162.9 1829.76 162.9 Q1823.55 162.9 1819.92 159.289 Q1816.31 155.678 1816.31 149.52 Q1816.31 143.155 1819.73 139.428 Q1823.18 135.678 1829.01 135.678 Q1834.25 135.678 1837.28 139.057 Q1840.33 142.414 1840.33 148.201 M1836.07 146.951 Q1836.03 143.456 1834.11 141.372 Q1832.21 139.289 1829.06 139.289 Q1825.5 139.289 1823.34 141.303 Q1821.21 143.317 1820.89 146.974 L1836.07 146.951 Z" fill="#000000" fill-rule="evenodd" fill-opacity="1" /><path clip-path="url(#clip160)" d="M1864.38 148.965 Q1864.38 144.335 1862.46 141.789 Q1860.57 139.243 1857.12 139.243 Q1853.69 139.243 1851.77 141.789 Q1849.87 144.335 1849.87 148.965 Q1849.87 153.571 1851.77 156.118 Q1853.69 158.664 1857.12 158.664 Q1860.57 158.664 1862.46 156.118 Q1864.38 153.571 1864.38 148.965 M1868.64 159.011 Q1868.64 165.631 1865.7 168.849 Q1862.76 172.09 1856.7 172.09 Q1854.45 172.09 1852.46 171.742 Q1850.47 171.418 1848.6 170.724 L1848.6 166.58 Q1850.47 167.599 1852.3 168.085 Q1854.13 168.571 1856.03 168.571 Q1860.22 168.571 1862.3 166.372 Q1864.38 164.196 1864.38 159.775 L1864.38 157.668 Q1863.07 159.96 1861.01 161.094 Q1858.95 162.229 1856.07 162.229 Q1851.31 162.229 1848.39 158.594 Q1845.47 154.96 1845.47 148.965 Q1845.47 142.946 1848.39 139.312 Q1851.31 135.678 1856.07 135.678 Q1858.95 135.678 1861.01 136.812 Q1863.07 137.946 1864.38 140.238 L1864.38 136.303 L1868.64 136.303 L1868.64 159.011 Z" fill="#000000" fill-rule="evenodd" fill-opacity="1" /><path clip-path="url(#clip160)" d="M1892.44 140.284 Q1891.72 139.868 1890.87 139.682 Q1890.03 139.474 1889.01 139.474 Q1885.4 139.474 1883.46 141.835 Q1881.54 144.173 1881.54 148.571 L1881.54 162.229 L1877.26 162.229 L1877.26 136.303 L1881.54 136.303 L1881.54 140.331 Q1882.88 137.969 1885.03 136.835 Q1887.19 135.678 1890.26 135.678 Q1890.7 135.678 1891.24 135.747 Q1891.77 135.794 1892.42 135.909 L1892.44 140.284 Z" fill="#000000" fill-rule="evenodd" fill-opacity="1" /><path clip-path="url(#clip160)" d="M1918.04 148.201 L1918.04 150.284 L1898.46 150.284 Q1898.74 154.682 1901.1 156.997 Q1903.48 159.289 1907.72 159.289 Q1910.17 159.289 1912.46 158.687 Q1914.78 158.085 1917.05 156.881 L1917.05 160.909 Q1914.76 161.881 1912.35 162.391 Q1909.94 162.9 1907.46 162.9 Q1901.26 162.9 1897.63 159.289 Q1894.01 155.678 1894.01 149.52 Q1894.01 143.155 1897.44 139.428 Q1900.89 135.678 1906.72 135.678 Q1911.95 135.678 1914.99 139.057 Q1918.04 142.414 1918.04 148.201 M1913.78 146.951 Q1913.74 143.456 1911.82 141.372 Q1909.92 139.289 1906.77 139.289 Q1903.2 139.289 1901.05 141.303 Q1898.92 143.317 1898.6 146.974 L1913.78 146.951 Z" fill="#000000" fill-rule="evenodd" fill-opacity="1" /><path clip-path="url(#clip160)" d="M1941.56 137.067 L1941.56 141.094 Q1939.75 140.169 1937.81 139.706 Q1935.87 139.243 1933.78 139.243 Q1930.61 139.243 1929.01 140.215 Q1927.44 141.187 1927.44 143.131 Q1927.44 144.613 1928.57 145.469 Q1929.71 146.303 1933.13 147.067 L1934.59 147.391 Q1939.13 148.363 1941.03 150.145 Q1942.95 151.905 1942.95 155.076 Q1942.95 158.687 1940.08 160.793 Q1937.23 162.9 1932.23 162.9 Q1930.15 162.9 1927.88 162.483 Q1925.63 162.09 1923.13 161.28 L1923.13 156.881 Q1925.5 158.108 1927.79 158.733 Q1930.08 159.335 1932.32 159.335 Q1935.33 159.335 1936.95 158.317 Q1938.57 157.275 1938.57 155.4 Q1938.57 153.664 1937.39 152.738 Q1936.24 151.812 1932.28 150.956 L1930.8 150.608 Q1926.84 149.775 1925.08 148.062 Q1923.32 146.326 1923.32 143.317 Q1923.32 139.659 1925.91 137.669 Q1928.5 135.678 1933.27 135.678 Q1935.63 135.678 1937.72 136.025 Q1939.8 136.372 1941.56 137.067 Z" fill="#000000" fill-rule="evenodd" fill-opacity="1" /><path clip-path="url(#clip160)" d="M1966.26 137.067 L1966.26 141.094 Q1964.45 140.169 1962.51 139.706 Q1960.56 139.243 1958.48 139.243 Q1955.31 139.243 1953.71 140.215 Q1952.14 141.187 1952.14 143.131 Q1952.14 144.613 1953.27 145.469 Q1954.41 146.303 1957.83 147.067 L1959.29 147.391 Q1963.83 148.363 1965.73 150.145 Q1967.65 151.905 1967.65 155.076 Q1967.65 158.687 1964.78 160.793 Q1961.93 162.9 1956.93 162.9 Q1954.85 162.9 1952.58 162.483 Q1950.33 162.09 1947.83 161.28 L1947.83 156.881 Q1950.19 158.108 1952.49 158.733 Q1954.78 159.335 1957.02 159.335 Q1960.03 159.335 1961.65 158.317 Q1963.27 157.275 1963.27 155.4 Q1963.27 153.664 1962.09 152.738 Q1960.94 151.812 1956.98 150.956 L1955.5 150.608 Q1951.54 149.775 1949.78 148.062 Q1948.02 146.326 1948.02 143.317 Q1948.02 139.659 1950.61 137.669 Q1953.2 135.678 1957.97 135.678 Q1960.33 135.678 1962.42 136.025 Q1964.5 136.372 1966.26 137.067 Z" fill="#000000" fill-rule="evenodd" fill-opacity="1" /><path clip-path="url(#clip160)" d="M1974.43 136.303 L1978.69 136.303 L1978.69 162.229 L1974.43 162.229 L1974.43 136.303 M1974.43 126.21 L1978.69 126.21 L1978.69 131.604 L1974.43 131.604 L1974.43 126.21 Z" fill="#000000" fill-rule="evenodd" fill-opacity="1" /><path clip-path="url(#clip160)" d="M1997.65 139.289 Q1994.22 139.289 1992.23 141.974 Q1990.24 144.636 1990.24 149.289 Q1990.24 153.942 1992.21 156.627 Q1994.2 159.289 1997.65 159.289 Q2001.05 159.289 2003.04 156.604 Q2005.03 153.918 2005.03 149.289 Q2005.03 144.682 2003.04 141.997 Q2001.05 139.289 1997.65 139.289 M1997.65 135.678 Q2003.2 135.678 2006.37 139.289 Q2009.55 142.9 2009.55 149.289 Q2009.55 155.655 2006.37 159.289 Q2003.2 162.9 1997.65 162.9 Q1992.07 162.9 1988.9 159.289 Q1985.75 155.655 1985.75 149.289 Q1985.75 142.9 1988.9 139.289 Q1992.07 135.678 1997.65 135.678 Z" fill="#000000" fill-rule="evenodd" fill-opacity="1" /><path clip-path="url(#clip160)" d="M2038.16 146.581 L2038.16 162.229 L2033.9 162.229 L2033.9 146.719 Q2033.9 143.039 2032.46 141.21 Q2031.03 139.382 2028.16 139.382 Q2024.71 139.382 2022.72 141.581 Q2020.73 143.78 2020.73 147.576 L2020.73 162.229 L2016.44 162.229 L2016.44 136.303 L2020.73 136.303 L2020.73 140.331 Q2022.25 137.993 2024.31 136.835 Q2026.4 135.678 2029.11 135.678 Q2033.57 135.678 2035.87 138.456 Q2038.16 141.21 2038.16 146.581 Z" fill="#000000" fill-rule="evenodd" fill-opacity="1" /><polyline clip-path="url(#clip160)" style="stroke:#e26f46; stroke-linecap:round; stroke-linejoin:round; stroke-width:4; stroke-opacity:1; fill:none" points="
  1391.52,196.789 1531.74,196.789 
  "/>
<path clip-path="url(#clip160)" d="M1555.1 179.509 L1584.34 179.509 L1584.34 183.444 L1572.07 183.444 L1572.07 214.069 L1567.37 214.069 L1567.37 183.444 L1555.1 183.444 L1555.1 179.509 Z" fill="#000000" fill-rule="evenodd" fill-opacity="1" /><path clip-path="url(#clip160)" d="M1596.72 192.124 Q1596.01 191.708 1595.15 191.522 Q1594.32 191.314 1593.3 191.314 Q1589.69 191.314 1587.74 193.675 Q1585.82 196.013 1585.82 200.411 L1585.82 214.069 L1581.54 214.069 L1581.54 188.143 L1585.82 188.143 L1585.82 192.171 Q1587.16 189.809 1589.32 188.675 Q1591.47 187.518 1594.55 187.518 Q1594.99 187.518 1595.52 187.587 Q1596.05 187.634 1596.7 187.749 L1596.72 192.124 Z" fill="#000000" fill-rule="evenodd" fill-opacity="1" /><path clip-path="url(#clip160)" d="M1600.75 203.837 L1600.75 188.143 L1605.01 188.143 L1605.01 203.675 Q1605.01 207.356 1606.45 209.208 Q1607.88 211.036 1610.75 211.036 Q1614.2 211.036 1616.19 208.837 Q1618.21 206.638 1618.21 202.842 L1618.21 188.143 L1622.46 188.143 L1622.46 214.069 L1618.21 214.069 L1618.21 210.087 Q1616.65 212.448 1614.59 213.606 Q1612.56 214.74 1609.85 214.74 Q1605.38 214.74 1603.07 211.962 Q1600.75 209.184 1600.75 203.837 M1611.47 187.518 L1611.47 187.518 Z" fill="#000000" fill-rule="evenodd" fill-opacity="1" /><path clip-path="url(#clip160)" d="M1653.41 200.041 L1653.41 202.124 L1633.83 202.124 Q1634.11 206.522 1636.47 208.837 Q1638.85 211.129 1643.09 211.129 Q1645.54 211.129 1647.84 210.527 Q1650.15 209.925 1652.42 208.721 L1652.42 212.749 Q1650.13 213.721 1647.72 214.231 Q1645.31 214.74 1642.84 214.74 Q1636.63 214.74 1633 211.129 Q1629.39 207.518 1629.39 201.36 Q1629.39 194.995 1632.81 191.268 Q1636.26 187.518 1642.09 187.518 Q1647.33 187.518 1650.36 190.897 Q1653.41 194.254 1653.41 200.041 M1649.15 198.791 Q1649.11 195.296 1647.19 193.212 Q1645.29 191.129 1642.14 191.129 Q1638.58 191.129 1636.42 193.143 Q1634.29 195.157 1633.97 198.814 L1649.15 198.791 Z" fill="#000000" fill-rule="evenodd" fill-opacity="1" /><path clip-path="url(#clip160)" d="M1672.42 188.143 L1676.93 188.143 L1685.03 209.902 L1693.14 188.143 L1697.65 188.143 L1687.93 214.069 L1682.14 214.069 L1672.42 188.143 Z" fill="#000000" fill-rule="evenodd" fill-opacity="1" /><path clip-path="url(#clip160)" d="M1715.31 201.036 Q1710.15 201.036 1708.16 202.217 Q1706.17 203.397 1706.17 206.245 Q1706.17 208.513 1707.65 209.856 Q1709.15 211.175 1711.72 211.175 Q1715.27 211.175 1717.39 208.675 Q1719.55 206.152 1719.55 201.985 L1719.55 201.036 L1715.31 201.036 M1723.81 199.277 L1723.81 214.069 L1719.55 214.069 L1719.55 210.133 Q1718.09 212.495 1715.91 213.629 Q1713.74 214.74 1710.59 214.74 Q1706.61 214.74 1704.25 212.518 Q1701.91 210.272 1701.91 206.522 Q1701.91 202.147 1704.83 199.925 Q1707.77 197.703 1713.58 197.703 L1719.55 197.703 L1719.55 197.286 Q1719.55 194.347 1717.6 192.749 Q1715.68 191.129 1712.19 191.129 Q1709.96 191.129 1707.86 191.661 Q1705.75 192.194 1703.81 193.259 L1703.81 189.323 Q1706.15 188.421 1708.34 187.981 Q1710.54 187.518 1712.63 187.518 Q1718.25 187.518 1721.03 190.434 Q1723.81 193.351 1723.81 199.277 Z" fill="#000000" fill-rule="evenodd" fill-opacity="1" /><path clip-path="url(#clip160)" d="M1732.58 178.05 L1736.84 178.05 L1736.84 214.069 L1732.58 214.069 L1732.58 178.05 Z" fill="#000000" fill-rule="evenodd" fill-opacity="1" /><path clip-path="url(#clip160)" d="M1745.31 203.837 L1745.31 188.143 L1749.57 188.143 L1749.57 203.675 Q1749.57 207.356 1751.01 209.208 Q1752.44 211.036 1755.31 211.036 Q1758.76 211.036 1760.75 208.837 Q1762.77 206.638 1762.77 202.842 L1762.77 188.143 L1767.02 188.143 L1767.02 214.069 L1762.77 214.069 L1762.77 210.087 Q1761.21 212.448 1759.15 213.606 Q1757.12 214.74 1754.41 214.74 Q1749.94 214.74 1747.63 211.962 Q1745.31 209.184 1745.31 203.837 M1756.03 187.518 L1756.03 187.518 Z" fill="#000000" fill-rule="evenodd" fill-opacity="1" /><path clip-path="url(#clip160)" d="M1797.97 200.041 L1797.97 202.124 L1778.39 202.124 Q1778.67 206.522 1781.03 208.837 Q1783.41 211.129 1787.65 211.129 Q1790.1 211.129 1792.39 210.527 Q1794.71 209.925 1796.98 208.721 L1796.98 212.749 Q1794.69 213.721 1792.28 214.231 Q1789.87 214.74 1787.39 214.74 Q1781.19 214.74 1777.56 211.129 Q1773.95 207.518 1773.95 201.36 Q1773.95 194.995 1777.37 191.268 Q1780.82 187.518 1786.65 187.518 Q1791.89 187.518 1794.92 190.897 Q1797.97 194.254 1797.97 200.041 M1793.71 198.791 Q1793.67 195.296 1791.75 193.212 Q1789.85 191.129 1786.7 191.129 Q1783.14 191.129 1780.98 193.143 Q1778.85 195.157 1778.53 198.814 L1793.71 198.791 Z" fill="#000000" fill-rule="evenodd" fill-opacity="1" /><polyline clip-path="url(#clip160)" style="stroke:#3da44d; stroke-linecap:round; stroke-linejoin:round; stroke-width:4; stroke-opacity:1; fill:none" points="
  1391.52,248.629 1531.74,248.629 
  "/>
<path clip-path="url(#clip160)" d="M1555.1 231.349 L1559.8 231.349 L1559.8 252.344 Q1559.8 257.899 1561.82 260.353 Q1563.83 262.784 1568.34 262.784 Q1572.84 262.784 1574.85 260.353 Q1576.86 257.899 1576.86 252.344 L1576.86 231.349 L1581.56 231.349 L1581.56 252.923 Q1581.56 259.682 1578.21 263.131 Q1574.87 266.58 1568.34 266.58 Q1561.79 266.58 1558.44 263.131 Q1555.1 259.682 1555.1 252.923 L1555.1 231.349 Z" fill="#000000" fill-rule="evenodd" fill-opacity="1" /><path clip-path="url(#clip160)" d="M1594.27 262.02 L1594.27 275.77 L1589.99 275.77 L1589.99 239.983 L1594.27 239.983 L1594.27 243.918 Q1595.61 241.603 1597.65 240.492 Q1599.71 239.358 1602.56 239.358 Q1607.28 239.358 1610.22 243.108 Q1613.18 246.858 1613.18 252.969 Q1613.18 259.08 1610.22 262.83 Q1607.28 266.58 1602.56 266.58 Q1599.71 266.58 1597.65 265.469 Q1595.61 264.335 1594.27 262.02 M1608.76 252.969 Q1608.76 248.27 1606.82 245.608 Q1604.9 242.923 1601.52 242.923 Q1598.14 242.923 1596.19 245.608 Q1594.27 248.27 1594.27 252.969 Q1594.27 257.668 1596.19 260.353 Q1598.14 263.015 1601.52 263.015 Q1604.9 263.015 1606.82 260.353 Q1608.76 257.668 1608.76 252.969 Z" fill="#000000" fill-rule="evenodd" fill-opacity="1" /><path clip-path="url(#clip160)" d="M1624.36 262.02 L1624.36 275.77 L1620.08 275.77 L1620.08 239.983 L1624.36 239.983 L1624.36 243.918 Q1625.71 241.603 1627.74 240.492 Q1629.8 239.358 1632.65 239.358 Q1637.37 239.358 1640.31 243.108 Q1643.27 246.858 1643.27 252.969 Q1643.27 259.08 1640.31 262.83 Q1637.37 266.58 1632.65 266.58 Q1629.8 266.58 1627.74 265.469 Q1625.71 264.335 1624.36 262.02 M1638.85 252.969 Q1638.85 248.27 1636.91 245.608 Q1634.99 242.923 1631.61 242.923 Q1628.23 242.923 1626.28 245.608 Q1624.36 248.27 1624.36 252.969 Q1624.36 257.668 1626.28 260.353 Q1628.23 263.015 1631.61 263.015 Q1634.99 263.015 1636.91 260.353 Q1638.85 257.668 1638.85 252.969 Z" fill="#000000" fill-rule="evenodd" fill-opacity="1" /><path clip-path="url(#clip160)" d="M1672.51 251.881 L1672.51 253.964 L1652.93 253.964 Q1653.21 258.362 1655.57 260.677 Q1657.95 262.969 1662.19 262.969 Q1664.64 262.969 1666.93 262.367 Q1669.25 261.765 1671.52 260.561 L1671.52 264.589 Q1669.22 265.561 1666.82 266.071 Q1664.41 266.58 1661.93 266.58 Q1655.73 266.58 1652.09 262.969 Q1648.48 259.358 1648.48 253.2 Q1648.48 246.835 1651.91 243.108 Q1655.36 239.358 1661.19 239.358 Q1666.42 239.358 1669.46 242.737 Q1672.51 246.094 1672.51 251.881 M1668.25 250.631 Q1668.21 247.136 1666.28 245.052 Q1664.39 242.969 1661.24 242.969 Q1657.67 242.969 1655.52 244.983 Q1653.39 246.997 1653.07 250.654 L1668.25 250.631 Z" fill="#000000" fill-rule="evenodd" fill-opacity="1" /><path clip-path="url(#clip160)" d="M1694.52 243.964 Q1693.81 243.548 1692.95 243.362 Q1692.12 243.154 1691.1 243.154 Q1687.49 243.154 1685.54 245.515 Q1683.62 247.853 1683.62 252.251 L1683.62 265.909 L1679.34 265.909 L1679.34 239.983 L1683.62 239.983 L1683.62 244.011 Q1684.96 241.649 1687.12 240.515 Q1689.27 239.358 1692.35 239.358 Q1692.79 239.358 1693.32 239.427 Q1693.85 239.474 1694.5 239.589 L1694.52 243.964 Z" fill="#000000" fill-rule="evenodd" fill-opacity="1" /><path clip-path="url(#clip160)" d="M1732.67 252.969 Q1732.67 248.27 1730.73 245.608 Q1728.81 242.923 1725.43 242.923 Q1722.05 242.923 1720.1 245.608 Q1718.18 248.27 1718.18 252.969 Q1718.18 257.668 1720.1 260.353 Q1722.05 263.015 1725.43 263.015 Q1728.81 263.015 1730.73 260.353 Q1732.67 257.668 1732.67 252.969 M1718.18 243.918 Q1719.52 241.603 1721.56 240.492 Q1723.62 239.358 1726.47 239.358 Q1731.19 239.358 1734.13 243.108 Q1737.09 246.858 1737.09 252.969 Q1737.09 259.08 1734.13 262.83 Q1731.19 266.58 1726.47 266.58 Q1723.62 266.58 1721.56 265.469 Q1719.52 264.335 1718.18 262.02 L1718.18 265.909 L1713.9 265.909 L1713.9 229.89 L1718.18 229.89 L1718.18 243.918 Z" fill="#000000" fill-rule="evenodd" fill-opacity="1" /><path clip-path="url(#clip160)" d="M1754.2 242.969 Q1750.77 242.969 1748.78 245.654 Q1746.79 248.316 1746.79 252.969 Q1746.79 257.622 1748.76 260.307 Q1750.75 262.969 1754.2 262.969 Q1757.6 262.969 1759.59 260.284 Q1761.58 257.598 1761.58 252.969 Q1761.58 248.362 1759.59 245.677 Q1757.6 242.969 1754.2 242.969 M1754.2 239.358 Q1759.76 239.358 1762.93 242.969 Q1766.1 246.58 1766.1 252.969 Q1766.1 259.335 1762.93 262.969 Q1759.76 266.58 1754.2 266.58 Q1748.62 266.58 1745.45 262.969 Q1742.3 259.335 1742.3 252.969 Q1742.3 246.58 1745.45 242.969 Q1748.62 239.358 1754.2 239.358 Z" fill="#000000" fill-rule="evenodd" fill-opacity="1" /><path clip-path="url(#clip160)" d="M1772.72 255.677 L1772.72 239.983 L1776.98 239.983 L1776.98 255.515 Q1776.98 259.196 1778.41 261.048 Q1779.85 262.876 1782.72 262.876 Q1786.17 262.876 1788.16 260.677 Q1790.17 258.478 1790.17 254.682 L1790.17 239.983 L1794.43 239.983 L1794.43 265.909 L1790.17 265.909 L1790.17 261.927 Q1788.62 264.288 1786.56 265.446 Q1784.52 266.58 1781.82 266.58 Q1777.35 266.58 1775.03 263.802 Q1772.72 261.024 1772.72 255.677 M1783.44 239.358 L1783.44 239.358 Z" fill="#000000" fill-rule="evenodd" fill-opacity="1" /><path clip-path="url(#clip160)" d="M1824.76 250.261 L1824.76 265.909 L1820.5 265.909 L1820.5 250.399 Q1820.5 246.719 1819.06 244.89 Q1817.63 243.062 1814.76 243.062 Q1811.31 243.062 1809.32 245.261 Q1807.33 247.46 1807.33 251.256 L1807.33 265.909 L1803.04 265.909 L1803.04 239.983 L1807.33 239.983 L1807.33 244.011 Q1808.85 241.673 1810.91 240.515 Q1813 239.358 1815.7 239.358 Q1820.17 239.358 1822.46 242.136 Q1824.76 244.89 1824.76 250.261 Z" fill="#000000" fill-rule="evenodd" fill-opacity="1" /><path clip-path="url(#clip160)" d="M1850.31 243.918 L1850.31 229.89 L1854.57 229.89 L1854.57 265.909 L1850.31 265.909 L1850.31 262.02 Q1848.97 264.335 1846.91 265.469 Q1844.87 266.58 1842 266.58 Q1837.3 266.58 1834.34 262.83 Q1831.4 259.08 1831.4 252.969 Q1831.4 246.858 1834.34 243.108 Q1837.3 239.358 1842 239.358 Q1844.87 239.358 1846.91 240.492 Q1848.97 241.603 1850.31 243.918 M1835.8 252.969 Q1835.8 257.668 1837.72 260.353 Q1839.66 263.015 1843.04 263.015 Q1846.42 263.015 1848.37 260.353 Q1850.31 257.668 1850.31 252.969 Q1850.31 248.27 1848.37 245.608 Q1846.42 242.923 1843.04 242.923 Q1839.66 242.923 1837.72 245.608 Q1835.8 248.27 1835.8 252.969 Z" fill="#000000" fill-rule="evenodd" fill-opacity="1" /><path clip-path="url(#clip160)" d="M1888.46 242.969 Q1885.03 242.969 1883.04 245.654 Q1881.05 248.316 1881.05 252.969 Q1881.05 257.622 1883.02 260.307 Q1885.01 262.969 1888.46 262.969 Q1891.86 262.969 1893.85 260.284 Q1895.84 257.598 1895.84 252.969 Q1895.84 248.362 1893.85 245.677 Q1891.86 242.969 1888.46 242.969 M1888.46 239.358 Q1894.01 239.358 1897.19 242.969 Q1900.36 246.58 1900.36 252.969 Q1900.36 259.335 1897.19 262.969 Q1894.01 266.58 1888.46 266.58 Q1882.88 266.58 1879.71 262.969 Q1876.56 259.335 1876.56 252.969 Q1876.56 246.58 1879.71 242.969 Q1882.88 239.358 1888.46 239.358 Z" fill="#000000" fill-rule="evenodd" fill-opacity="1" /><path clip-path="url(#clip160)" d="M1920.54 229.89 L1920.54 233.432 L1916.47 233.432 Q1914.18 233.432 1913.27 234.358 Q1912.39 235.284 1912.39 237.691 L1912.39 239.983 L1919.41 239.983 L1919.41 243.293 L1912.39 243.293 L1912.39 265.909 L1908.11 265.909 L1908.11 243.293 L1904.04 243.293 L1904.04 239.983 L1908.11 239.983 L1908.11 238.177 Q1908.11 233.849 1910.13 231.881 Q1912.14 229.89 1916.51 229.89 L1920.54 229.89 Z" fill="#000000" fill-rule="evenodd" fill-opacity="1" /><path clip-path="url(#clip160)" d="M1943.39 232.622 L1943.39 239.983 L1952.16 239.983 L1952.16 243.293 L1943.39 243.293 L1943.39 257.367 Q1943.39 260.538 1944.25 261.441 Q1945.13 262.344 1947.79 262.344 L1952.16 262.344 L1952.16 265.909 L1947.79 265.909 Q1942.86 265.909 1940.98 264.08 Q1939.11 262.228 1939.11 257.367 L1939.11 243.293 L1935.98 243.293 L1935.98 239.983 L1939.11 239.983 L1939.11 232.622 L1943.39 232.622 Z" fill="#000000" fill-rule="evenodd" fill-opacity="1" /><path clip-path="url(#clip160)" d="M1972.79 243.964 Q1972.07 243.548 1971.21 243.362 Q1970.38 243.154 1969.36 243.154 Q1965.75 243.154 1963.81 245.515 Q1961.88 247.853 1961.88 252.251 L1961.88 265.909 L1957.6 265.909 L1957.6 239.983 L1961.88 239.983 L1961.88 244.011 Q1963.23 241.649 1965.38 240.515 Q1967.53 239.358 1970.61 239.358 Q1971.05 239.358 1971.58 239.427 Q1972.12 239.474 1972.76 239.589 L1972.79 243.964 Z" fill="#000000" fill-rule="evenodd" fill-opacity="1" /><path clip-path="url(#clip160)" d="M1989.04 252.876 Q1983.88 252.876 1981.88 254.057 Q1979.89 255.237 1979.89 258.085 Q1979.89 260.353 1981.38 261.696 Q1982.88 263.015 1985.45 263.015 Q1988.99 263.015 1991.12 260.515 Q1993.27 257.992 1993.27 253.825 L1993.27 252.876 L1989.04 252.876 M1997.53 251.117 L1997.53 265.909 L1993.27 265.909 L1993.27 261.973 Q1991.81 264.335 1989.64 265.469 Q1987.46 266.58 1984.31 266.58 Q1980.33 266.58 1977.97 264.358 Q1975.63 262.112 1975.63 258.362 Q1975.63 253.987 1978.55 251.765 Q1981.49 249.543 1987.3 249.543 L1993.27 249.543 L1993.27 249.126 Q1993.27 246.187 1991.33 244.589 Q1989.41 242.969 1985.91 242.969 Q1983.69 242.969 1981.58 243.501 Q1979.48 244.034 1977.53 245.099 L1977.53 241.163 Q1979.87 240.261 1982.07 239.821 Q1984.27 239.358 1986.35 239.358 Q1991.98 239.358 1994.75 242.274 Q1997.53 245.191 1997.53 251.117 Z" fill="#000000" fill-rule="evenodd" fill-opacity="1" /><path clip-path="url(#clip160)" d="M2006.31 239.983 L2010.56 239.983 L2010.56 265.909 L2006.31 265.909 L2006.31 239.983 M2006.31 229.89 L2010.56 229.89 L2010.56 235.284 L2006.31 235.284 L2006.31 229.89 Z" fill="#000000" fill-rule="evenodd" fill-opacity="1" /><path clip-path="url(#clip160)" d="M2041.03 250.261 L2041.03 265.909 L2036.77 265.909 L2036.77 250.399 Q2036.77 246.719 2035.33 244.89 Q2033.9 243.062 2031.03 243.062 Q2027.58 243.062 2025.59 245.261 Q2023.6 247.46 2023.6 251.256 L2023.6 265.909 L2019.31 265.909 L2019.31 239.983 L2023.6 239.983 L2023.6 244.011 Q2025.12 241.673 2027.18 240.515 Q2029.27 239.358 2031.98 239.358 Q2036.44 239.358 2038.74 242.136 Q2041.03 244.89 2041.03 250.261 Z" fill="#000000" fill-rule="evenodd" fill-opacity="1" /><path clip-path="url(#clip160)" d="M2049.52 239.983 L2053.78 239.983 L2053.78 265.909 L2049.52 265.909 L2049.52 239.983 M2049.52 229.89 L2053.78 229.89 L2053.78 235.284 L2049.52 235.284 L2049.52 229.89 Z" fill="#000000" fill-rule="evenodd" fill-opacity="1" /><path clip-path="url(#clip160)" d="M2084.24 250.261 L2084.24 265.909 L2079.99 265.909 L2079.99 250.399 Q2079.99 246.719 2078.55 244.89 Q2077.12 243.062 2074.24 243.062 Q2070.8 243.062 2068.81 245.261 Q2066.81 247.46 2066.81 251.256 L2066.81 265.909 L2062.53 265.909 L2062.53 239.983 L2066.81 239.983 L2066.81 244.011 Q2068.34 241.673 2070.4 240.515 Q2072.49 239.358 2075.19 239.358 Q2079.66 239.358 2081.95 242.136 Q2084.24 244.89 2084.24 250.261 Z" fill="#000000" fill-rule="evenodd" fill-opacity="1" /><path clip-path="url(#clip160)" d="M2109.8 252.645 Q2109.8 248.015 2107.88 245.469 Q2105.98 242.923 2102.53 242.923 Q2099.11 242.923 2097.18 245.469 Q2095.29 248.015 2095.29 252.645 Q2095.29 257.251 2097.18 259.798 Q2099.11 262.344 2102.53 262.344 Q2105.98 262.344 2107.88 259.798 Q2109.8 257.251 2109.8 252.645 M2114.06 262.691 Q2114.06 269.311 2111.12 272.529 Q2108.18 275.77 2102.12 275.77 Q2099.87 275.77 2097.88 275.422 Q2095.89 275.098 2094.01 274.404 L2094.01 270.26 Q2095.89 271.279 2097.72 271.765 Q2099.55 272.251 2101.44 272.251 Q2105.63 272.251 2107.72 270.052 Q2109.8 267.876 2109.8 263.455 L2109.8 261.348 Q2108.48 263.64 2106.42 264.774 Q2104.36 265.909 2101.49 265.909 Q2096.72 265.909 2093.8 262.274 Q2090.89 258.64 2090.89 252.645 Q2090.89 246.626 2093.8 242.992 Q2096.72 239.358 2101.49 239.358 Q2104.36 239.358 2106.42 240.492 Q2108.48 241.626 2109.8 243.918 L2109.8 239.983 L2114.06 239.983 L2114.06 262.691 Z" fill="#000000" fill-rule="evenodd" fill-opacity="1" /><path clip-path="url(#clip160)" d="M2154.96 243.918 L2154.96 229.89 L2159.22 229.89 L2159.22 265.909 L2154.96 265.909 L2154.96 262.02 Q2153.62 264.335 2151.56 265.469 Q2149.52 266.58 2146.65 266.58 Q2141.95 266.58 2138.99 262.83 Q2136.05 259.08 2136.05 252.969 Q2136.05 246.858 2138.99 243.108 Q2141.95 239.358 2146.65 239.358 Q2149.52 239.358 2151.56 240.492 Q2153.62 241.603 2154.96 243.918 M2140.45 252.969 Q2140.45 257.668 2142.37 260.353 Q2144.31 263.015 2147.69 263.015 Q2151.07 263.015 2153.02 260.353 Q2154.96 257.668 2154.96 252.969 Q2154.96 248.27 2153.02 245.608 Q2151.07 242.923 2147.69 242.923 Q2144.31 242.923 2142.37 245.608 Q2140.45 248.27 2140.45 252.969 Z" fill="#000000" fill-rule="evenodd" fill-opacity="1" /><path clip-path="url(#clip160)" d="M2179.78 252.876 Q2174.61 252.876 2172.62 254.057 Q2170.63 255.237 2170.63 258.085 Q2170.63 260.353 2172.11 261.696 Q2173.62 263.015 2176.19 263.015 Q2179.73 263.015 2181.86 260.515 Q2184.01 257.992 2184.01 253.825 L2184.01 252.876 L2179.78 252.876 M2188.27 251.117 L2188.27 265.909 L2184.01 265.909 L2184.01 261.973 Q2182.55 264.335 2180.38 265.469 Q2178.2 266.58 2175.05 266.58 Q2171.07 266.58 2168.71 264.358 Q2166.37 262.112 2166.37 258.362 Q2166.37 253.987 2169.29 251.765 Q2172.23 249.543 2178.04 249.543 L2184.01 249.543 L2184.01 249.126 Q2184.01 246.187 2182.07 244.589 Q2180.15 242.969 2176.65 242.969 Q2174.43 242.969 2172.32 243.501 Q2170.22 244.034 2168.27 245.099 L2168.27 241.163 Q2170.61 240.261 2172.81 239.821 Q2175.01 239.358 2177.09 239.358 Q2182.72 239.358 2185.49 242.274 Q2188.27 245.191 2188.27 251.117 Z" fill="#000000" fill-rule="evenodd" fill-opacity="1" /><path clip-path="url(#clip160)" d="M2201.26 232.622 L2201.26 239.983 L2210.03 239.983 L2210.03 243.293 L2201.26 243.293 L2201.26 257.367 Q2201.26 260.538 2202.11 261.441 Q2202.99 262.344 2205.66 262.344 L2210.03 262.344 L2210.03 265.909 L2205.66 265.909 Q2200.73 265.909 2198.85 264.08 Q2196.98 262.228 2196.98 257.367 L2196.98 243.293 L2193.85 243.293 L2193.85 239.983 L2196.98 239.983 L2196.98 232.622 L2201.26 232.622 Z" fill="#000000" fill-rule="evenodd" fill-opacity="1" /><path clip-path="url(#clip160)" d="M2227.42 252.876 Q2222.25 252.876 2220.26 254.057 Q2218.27 255.237 2218.27 258.085 Q2218.27 260.353 2219.75 261.696 Q2221.26 263.015 2223.83 263.015 Q2227.37 263.015 2229.5 260.515 Q2231.65 257.992 2231.65 253.825 L2231.65 252.876 L2227.42 252.876 M2235.91 251.117 L2235.91 265.909 L2231.65 265.909 L2231.65 261.973 Q2230.19 264.335 2228.02 265.469 Q2225.84 266.58 2222.69 266.58 Q2218.71 266.58 2216.35 264.358 Q2214.01 262.112 2214.01 258.362 Q2214.01 253.987 2216.93 251.765 Q2219.87 249.543 2225.68 249.543 L2231.65 249.543 L2231.65 249.126 Q2231.65 246.187 2229.71 244.589 Q2227.79 242.969 2224.29 242.969 Q2222.07 242.969 2219.96 243.501 Q2217.86 244.034 2215.91 245.099 L2215.91 241.163 Q2218.25 240.261 2220.45 239.821 Q2222.65 239.358 2224.73 239.358 Q2230.36 239.358 2233.13 242.274 Q2235.91 245.191 2235.91 251.117 Z" fill="#000000" fill-rule="evenodd" fill-opacity="1" /></svg>
