<?xml version="1.0" encoding="utf-8"?>
<svg xmlns="http://www.w3.org/2000/svg" xmlns:xlink="http://www.w3.org/1999/xlink" width="600" height="400" viewBox="0 0 2400 1600">
<defs>
  <clipPath id="clip190">
    <rect x="0" y="0" width="2400" height="1600"/>
  </clipPath>
</defs>
<path clip-path="url(#clip190)" d="
M0 1600 L2400 1600 L2400 0 L0 0  Z
  " fill="#ffffff" fill-rule="evenodd" fill-opacity="1"/>
<defs>
  <clipPath id="clip191">
    <rect x="480" y="0" width="1681" height="1600"/>
  </clipPath>
</defs>
<path clip-path="url(#clip190)" d="
M306.301 1486.45 L2352.76 1486.45 L2352.76 47.2441 L306.301 47.2441  Z
  " fill="#ffffff" fill-rule="evenodd" fill-opacity="1"/>
<defs>
  <clipPath id="clip192">
    <rect x="306" y="47" width="2047" height="1440"/>
  </clipPath>
</defs>
<polyline clip-path="url(#clip192)" style="stroke:#000000; stroke-linecap:round; stroke-linejoin:round; stroke-width:2; stroke-opacity:0.1; fill:none" points="
  731.956,1486.45 731.956,47.2441 
  "/>
<polyline clip-path="url(#clip192)" style="stroke:#000000; stroke-linecap:round; stroke-linejoin:round; stroke-width:2; stroke-opacity:0.1; fill:none" points="
  1191.63,1486.45 1191.63,47.2441 
  "/>
<polyline clip-path="url(#clip192)" style="stroke:#000000; stroke-linecap:round; stroke-linejoin:round; stroke-width:2; stroke-opacity:0.1; fill:none" points="
  1651.3,1486.45 1651.3,47.2441 
  "/>
<polyline clip-path="url(#clip192)" style="stroke:#000000; stroke-linecap:round; stroke-linejoin:round; stroke-width:2; stroke-opacity:0.1; fill:none" points="
  2110.97,1486.45 2110.97,47.2441 
  "/>
<polyline clip-path="url(#clip190)" style="stroke:#000000; stroke-linecap:round; stroke-linejoin:round; stroke-width:4; stroke-opacity:1; fill:none" points="
  306.301,1486.45 2352.76,1486.45 
  "/>
<polyline clip-path="url(#clip190)" style="stroke:#000000; stroke-linecap:round; stroke-linejoin:round; stroke-width:4; stroke-opacity:1; fill:none" points="
  731.956,1486.45 731.956,1467.55 
  "/>
<polyline clip-path="url(#clip190)" style="stroke:#000000; stroke-linecap:round; stroke-linejoin:round; stroke-width:4; stroke-opacity:1; fill:none" points="
  1191.63,1486.45 1191.63,1467.55 
  "/>
<polyline clip-path="url(#clip190)" style="stroke:#000000; stroke-linecap:round; stroke-linejoin:round; stroke-width:4; stroke-opacity:1; fill:none" points="
  1651.3,1486.45 1651.3,1467.55 
  "/>
<polyline clip-path="url(#clip190)" style="stroke:#000000; stroke-linecap:round; stroke-linejoin:round; stroke-width:4; stroke-opacity:1; fill:none" points="
  2110.97,1486.45 2110.97,1467.55 
  "/>
<path clip-path="url(#clip190)" d="M722.234 1514.29 L740.59 1514.29 L740.59 1518.22 L726.516 1518.22 L726.516 1526.7 Q727.535 1526.35 728.553 1526.19 Q729.572 1526 730.59 1526 Q736.377 1526 739.757 1529.17 Q743.137 1532.34 743.137 1537.76 Q743.137 1543.34 739.664 1546.44 Q736.192 1549.52 729.873 1549.52 Q727.697 1549.52 725.428 1549.15 Q723.183 1548.78 720.776 1548.04 L720.776 1543.34 Q722.859 1544.47 725.081 1545.03 Q727.303 1545.58 729.78 1545.58 Q733.785 1545.58 736.123 1543.48 Q738.461 1541.37 738.461 1537.76 Q738.461 1534.15 736.123 1532.04 Q733.785 1529.94 729.78 1529.94 Q727.905 1529.94 726.03 1530.35 Q724.178 1530.77 722.234 1531.65 L722.234 1514.29 Z" fill="#000000" fill-rule="evenodd" fill-opacity="1" /><path clip-path="url(#clip190)" d="M1166.31 1544.91 L1173.95 1544.91 L1173.95 1518.55 L1165.64 1520.21 L1165.64 1515.95 L1173.91 1514.29 L1178.58 1514.29 L1178.58 1544.91 L1186.22 1544.91 L1186.22 1548.85 L1166.31 1548.85 L1166.31 1544.91 Z" fill="#000000" fill-rule="evenodd" fill-opacity="1" /><path clip-path="url(#clip190)" d="M1205.67 1517.37 Q1202.06 1517.37 1200.23 1520.93 Q1198.42 1524.47 1198.42 1531.6 Q1198.42 1538.71 1200.23 1542.27 Q1202.06 1545.82 1205.67 1545.82 Q1209.3 1545.82 1211.11 1542.27 Q1212.93 1538.71 1212.93 1531.6 Q1212.93 1524.47 1211.11 1520.93 Q1209.3 1517.37 1205.67 1517.37 M1205.67 1513.66 Q1211.48 1513.66 1214.53 1518.27 Q1217.61 1522.85 1217.61 1531.6 Q1217.61 1540.33 1214.53 1544.94 Q1211.48 1549.52 1205.67 1549.52 Q1199.86 1549.52 1196.78 1544.94 Q1193.72 1540.33 1193.72 1531.6 Q1193.72 1522.85 1196.78 1518.27 Q1199.86 1513.66 1205.67 1513.66 Z" fill="#000000" fill-rule="evenodd" fill-opacity="1" /><path clip-path="url(#clip190)" d="M1626.48 1544.91 L1634.12 1544.91 L1634.12 1518.55 L1625.81 1520.21 L1625.81 1515.95 L1634.08 1514.29 L1638.75 1514.29 L1638.75 1544.91 L1646.39 1544.91 L1646.39 1548.85 L1626.48 1548.85 L1626.48 1544.91 Z" fill="#000000" fill-rule="evenodd" fill-opacity="1" /><path clip-path="url(#clip190)" d="M1655.88 1514.29 L1674.24 1514.29 L1674.24 1518.22 L1660.16 1518.22 L1660.16 1526.7 Q1661.18 1526.35 1662.2 1526.19 Q1663.22 1526 1664.24 1526 Q1670.02 1526 1673.4 1529.17 Q1676.78 1532.34 1676.78 1537.76 Q1676.78 1543.34 1673.31 1546.44 Q1669.84 1549.52 1663.52 1549.52 Q1661.34 1549.52 1659.08 1549.15 Q1656.83 1548.78 1654.42 1548.04 L1654.42 1543.34 Q1656.51 1544.47 1658.73 1545.03 Q1660.95 1545.58 1663.43 1545.58 Q1667.43 1545.58 1669.77 1543.48 Q1672.11 1541.37 1672.11 1537.76 Q1672.11 1534.15 1669.77 1532.04 Q1667.43 1529.94 1663.43 1529.94 Q1661.55 1529.94 1659.68 1530.35 Q1657.83 1530.77 1655.88 1531.65 L1655.88 1514.29 Z" fill="#000000" fill-rule="evenodd" fill-opacity="1" /><path clip-path="url(#clip190)" d="M2089.74 1544.91 L2106.06 1544.91 L2106.06 1548.85 L2084.12 1548.85 L2084.12 1544.91 Q2086.78 1542.16 2091.36 1537.53 Q2095.97 1532.88 2097.15 1531.53 Q2099.39 1529.01 2100.27 1527.27 Q2101.18 1525.51 2101.18 1523.82 Q2101.18 1521.07 2099.23 1519.33 Q2097.31 1517.6 2094.21 1517.6 Q2092.01 1517.6 2089.56 1518.36 Q2087.13 1519.13 2084.35 1520.68 L2084.35 1515.95 Q2087.17 1514.82 2089.63 1514.24 Q2092.08 1513.66 2094.12 1513.66 Q2099.49 1513.66 2102.68 1516.35 Q2105.88 1519.03 2105.88 1523.52 Q2105.88 1525.65 2105.07 1527.57 Q2104.28 1529.47 2102.17 1532.07 Q2101.59 1532.74 2098.49 1535.95 Q2095.39 1539.15 2089.74 1544.91 Z" fill="#000000" fill-rule="evenodd" fill-opacity="1" /><path clip-path="url(#clip190)" d="M2125.88 1517.37 Q2122.27 1517.37 2120.44 1520.93 Q2118.63 1524.47 2118.63 1531.6 Q2118.63 1538.71 2120.44 1542.27 Q2122.27 1545.82 2125.88 1545.82 Q2129.51 1545.82 2131.32 1542.27 Q2133.14 1538.71 2133.14 1531.6 Q2133.14 1524.47 2131.32 1520.93 Q2129.51 1517.37 2125.88 1517.37 M2125.88 1513.66 Q2131.69 1513.66 2134.74 1518.27 Q2137.82 1522.85 2137.82 1531.6 Q2137.82 1540.33 2134.74 1544.94 Q2131.69 1549.52 2125.88 1549.52 Q2120.07 1549.52 2116.99 1544.94 Q2113.93 1540.33 2113.93 1531.6 Q2113.93 1522.85 2116.99 1518.27 Q2120.07 1513.66 2125.88 1513.66 Z" fill="#000000" fill-rule="evenodd" fill-opacity="1" /><polyline clip-path="url(#clip192)" style="stroke:#000000; stroke-linecap:round; stroke-linejoin:round; stroke-width:2; stroke-opacity:0.1; fill:none" points="
  306.301,1450.71 2352.76,1450.71 
  "/>
<polyline clip-path="url(#clip192)" style="stroke:#000000; stroke-linecap:round; stroke-linejoin:round; stroke-width:2; stroke-opacity:0.1; fill:none" points="
  306.301,1131.26 2352.76,1131.26 
  "/>
<polyline clip-path="url(#clip192)" style="stroke:#000000; stroke-linecap:round; stroke-linejoin:round; stroke-width:2; stroke-opacity:0.1; fill:none" points="
  306.301,811.812 2352.76,811.812 
  "/>
<polyline clip-path="url(#clip192)" style="stroke:#000000; stroke-linecap:round; stroke-linejoin:round; stroke-width:2; stroke-opacity:0.1; fill:none" points="
  306.301,492.361 2352.76,492.361 
  "/>
<polyline clip-path="url(#clip192)" style="stroke:#000000; stroke-linecap:round; stroke-linejoin:round; stroke-width:2; stroke-opacity:0.1; fill:none" points="
  306.301,172.91 2352.76,172.91 
  "/>
<polyline clip-path="url(#clip190)" style="stroke:#000000; stroke-linecap:round; stroke-linejoin:round; stroke-width:4; stroke-opacity:1; fill:none" points="
  306.301,1486.45 306.301,47.2441 
  "/>
<polyline clip-path="url(#clip190)" style="stroke:#000000; stroke-linecap:round; stroke-linejoin:round; stroke-width:4; stroke-opacity:1; fill:none" points="
  306.301,1450.71 325.198,1450.71 
  "/>
<polyline clip-path="url(#clip190)" style="stroke:#000000; stroke-linecap:round; stroke-linejoin:round; stroke-width:4; stroke-opacity:1; fill:none" points="
  306.301,1131.26 325.198,1131.26 
  "/>
<polyline clip-path="url(#clip190)" style="stroke:#000000; stroke-linecap:round; stroke-linejoin:round; stroke-width:4; stroke-opacity:1; fill:none" points="
  306.301,811.812 325.198,811.812 
  "/>
<polyline clip-path="url(#clip190)" style="stroke:#000000; stroke-linecap:round; stroke-linejoin:round; stroke-width:4; stroke-opacity:1; fill:none" points="
  306.301,492.361 325.198,492.361 
  "/>
<polyline clip-path="url(#clip190)" style="stroke:#000000; stroke-linecap:round; stroke-linejoin:round; stroke-width:4; stroke-opacity:1; fill:none" points="
  306.301,172.91 325.198,172.91 
  "/>
<path clip-path="url(#clip190)" d="M258.356 1436.51 Q254.745 1436.51 252.917 1440.08 Q251.111 1443.62 251.111 1450.75 Q251.111 1457.86 252.917 1461.42 Q254.745 1464.96 258.356 1464.96 Q261.991 1464.96 263.796 1461.42 Q265.625 1457.86 265.625 1450.75 Q265.625 1443.62 263.796 1440.08 Q261.991 1436.51 258.356 1436.51 M258.356 1432.81 Q264.167 1432.81 267.222 1437.42 Q270.301 1442 270.301 1450.75 Q270.301 1459.48 267.222 1464.08 Q264.167 1468.67 258.356 1468.67 Q252.546 1468.67 249.468 1464.08 Q246.412 1459.48 246.412 1450.75 Q246.412 1442 249.468 1437.42 Q252.546 1432.81 258.356 1432.81 Z" fill="#000000" fill-rule="evenodd" fill-opacity="1" /><path clip-path="url(#clip190)" d="M54.5569 1151.06 L62.1958 1151.06 L62.1958 1124.69 L53.8856 1126.36 L53.8856 1122.1 L62.1495 1120.43 L66.8254 1120.43 L66.8254 1151.06 L74.4642 1151.06 L74.4642 1154.99 L54.5569 1154.99 L54.5569 1151.06 Z" fill="#000000" fill-rule="evenodd" fill-opacity="1" /><path clip-path="url(#clip190)" d="M83.9086 1149.11 L88.7928 1149.11 L88.7928 1154.99 L83.9086 1154.99 L83.9086 1149.11 Z" fill="#000000" fill-rule="evenodd" fill-opacity="1" /><path clip-path="url(#clip190)" d="M108.978 1123.51 Q105.367 1123.51 103.538 1127.07 Q101.733 1130.62 101.733 1137.75 Q101.733 1144.85 103.538 1148.42 Q105.367 1151.96 108.978 1151.96 Q112.612 1151.96 114.418 1148.42 Q116.246 1144.85 116.246 1137.75 Q116.246 1130.62 114.418 1127.07 Q112.612 1123.51 108.978 1123.51 M108.978 1119.81 Q114.788 1119.81 117.844 1124.41 Q120.922 1129 120.922 1137.75 Q120.922 1146.47 117.844 1151.08 Q114.788 1155.66 108.978 1155.66 Q103.168 1155.66 100.089 1151.08 Q97.0335 1146.47 97.0335 1137.75 Q97.0335 1129 100.089 1124.41 Q103.168 1119.81 108.978 1119.81 Z" fill="#000000" fill-rule="evenodd" fill-opacity="1" /><path clip-path="url(#clip190)" d="M157.311 1129.53 L146.732 1140.15 L157.311 1150.73 L154.556 1153.53 L143.931 1142.91 L133.306 1153.53 L130.575 1150.73 L141.131 1140.15 L130.575 1129.53 L133.306 1126.73 L143.931 1137.35 L154.556 1126.73 L157.311 1129.53 Z" fill="#000000" fill-rule="evenodd" fill-opacity="1" /><path clip-path="url(#clip190)" d="M169.672 1151.06 L177.311 1151.06 L177.311 1124.69 L169.001 1126.36 L169.001 1122.1 L177.265 1120.43 L181.94 1120.43 L181.94 1151.06 L189.579 1151.06 L189.579 1154.99 L169.672 1154.99 L169.672 1151.06 Z" fill="#000000" fill-rule="evenodd" fill-opacity="1" /><path clip-path="url(#clip190)" d="M209.024 1123.51 Q205.413 1123.51 203.584 1127.07 Q201.778 1130.62 201.778 1137.75 Q201.778 1144.85 203.584 1148.42 Q205.413 1151.96 209.024 1151.96 Q212.658 1151.96 214.463 1148.42 Q216.292 1144.85 216.292 1137.75 Q216.292 1130.62 214.463 1127.07 Q212.658 1123.51 209.024 1123.51 M209.024 1119.81 Q214.834 1119.81 217.889 1124.41 Q220.968 1129 220.968 1137.75 Q220.968 1146.47 217.889 1151.08 Q214.834 1155.66 209.024 1155.66 Q203.214 1155.66 200.135 1151.08 Q197.079 1146.47 197.079 1137.75 Q197.079 1129 200.135 1124.41 Q203.214 1119.81 209.024 1119.81 Z" fill="#000000" fill-rule="evenodd" fill-opacity="1" /><path clip-path="url(#clip190)" d="M220.968 1113.91 L245.08 1113.91 L245.08 1117.1 L220.968 1117.1 L220.968 1113.91 Z" fill="#000000" fill-rule="evenodd" fill-opacity="1" /><path clip-path="url(#clip190)" d="M253.317 1099.5 L268.232 1099.5 L268.232 1102.7 L256.797 1102.7 L256.797 1109.58 Q257.624 1109.3 258.452 1109.17 Q259.279 1109.02 260.107 1109.02 Q264.809 1109.02 267.555 1111.59 Q270.301 1114.17 270.301 1118.57 Q270.301 1123.1 267.48 1125.62 Q264.659 1128.13 259.524 1128.13 Q257.756 1128.13 255.913 1127.82 Q254.089 1127.52 252.133 1126.92 L252.133 1123.1 Q253.825 1124.03 255.631 1124.48 Q257.436 1124.93 259.449 1124.93 Q262.703 1124.93 264.602 1123.22 Q266.502 1121.51 266.502 1118.57 Q266.502 1115.64 264.602 1113.93 Q262.703 1112.21 259.449 1112.21 Q257.925 1112.21 256.402 1112.55 Q254.897 1112.89 253.317 1113.61 L253.317 1099.5 Z" fill="#000000" fill-rule="evenodd" fill-opacity="1" /><path clip-path="url(#clip190)" d="M57.7745 831.604 L74.0939 831.604 L74.0939 835.54 L52.1495 835.54 L52.1495 831.604 Q54.8115 828.85 59.3949 824.22 Q64.0013 819.567 65.1819 818.225 Q67.4272 815.702 68.3068 813.966 Q69.2096 812.206 69.2096 810.517 Q69.2096 807.762 67.2652 806.026 Q65.3439 804.29 62.2421 804.29 Q60.043 804.29 57.5893 805.054 Q55.1588 805.818 52.381 807.368 L52.381 802.646 Q55.2051 801.512 57.6588 800.933 Q60.1124 800.355 62.1495 800.355 Q67.5198 800.355 70.7142 803.04 Q73.9087 805.725 73.9087 810.216 Q73.9087 812.345 73.0985 814.267 Q72.3115 816.165 70.205 818.757 Q69.6263 819.429 66.5245 822.646 Q63.4226 825.841 57.7745 831.604 Z" fill="#000000" fill-rule="evenodd" fill-opacity="1" /><path clip-path="url(#clip190)" d="M83.9086 829.66 L88.7928 829.66 L88.7928 835.54 L83.9086 835.54 L83.9086 829.66 Z" fill="#000000" fill-rule="evenodd" fill-opacity="1" /><path clip-path="url(#clip190)" d="M108.978 804.058 Q105.367 804.058 103.538 807.623 Q101.733 811.165 101.733 818.294 Q101.733 825.401 103.538 828.966 Q105.367 832.507 108.978 832.507 Q112.612 832.507 114.418 828.966 Q116.246 825.401 116.246 818.294 Q116.246 811.165 114.418 807.623 Q112.612 804.058 108.978 804.058 M108.978 800.355 Q114.788 800.355 117.844 804.961 Q120.922 809.544 120.922 818.294 Q120.922 827.021 117.844 831.628 Q114.788 836.211 108.978 836.211 Q103.168 836.211 100.089 831.628 Q97.0335 827.021 97.0335 818.294 Q97.0335 809.544 100.089 804.961 Q103.168 800.355 108.978 800.355 Z" fill="#000000" fill-rule="evenodd" fill-opacity="1" /><path clip-path="url(#clip190)" d="M157.311 810.077 L146.732 820.702 L157.311 831.28 L154.556 834.081 L143.931 823.456 L133.306 834.081 L130.575 831.28 L141.131 820.702 L130.575 810.077 L133.306 807.276 L143.931 817.901 L154.556 807.276 L157.311 810.077 Z" fill="#000000" fill-rule="evenodd" fill-opacity="1" /><path clip-path="url(#clip190)" d="M169.672 831.604 L177.311 831.604 L177.311 805.239 L169.001 806.905 L169.001 802.646 L177.265 800.98 L181.94 800.98 L181.94 831.604 L189.579 831.604 L189.579 835.54 L169.672 835.54 L169.672 831.604 Z" fill="#000000" fill-rule="evenodd" fill-opacity="1" /><path clip-path="url(#clip190)" d="M209.024 804.058 Q205.413 804.058 203.584 807.623 Q201.778 811.165 201.778 818.294 Q201.778 825.401 203.584 828.966 Q205.413 832.507 209.024 832.507 Q212.658 832.507 214.463 828.966 Q216.292 825.401 216.292 818.294 Q216.292 811.165 214.463 807.623 Q212.658 804.058 209.024 804.058 M209.024 800.355 Q214.834 800.355 217.889 804.961 Q220.968 809.544 220.968 818.294 Q220.968 827.021 217.889 831.628 Q214.834 836.211 209.024 836.211 Q203.214 836.211 200.135 831.628 Q197.079 827.021 197.079 818.294 Q197.079 809.544 200.135 804.961 Q203.214 800.355 209.024 800.355 Z" fill="#000000" fill-rule="evenodd" fill-opacity="1" /><path clip-path="url(#clip190)" d="M220.968 794.456 L245.08 794.456 L245.08 797.653 L220.968 797.653 L220.968 794.456 Z" fill="#000000" fill-rule="evenodd" fill-opacity="1" /><path clip-path="url(#clip190)" d="M253.317 780.049 L268.232 780.049 L268.232 783.247 L256.797 783.247 L256.797 790.13 Q257.624 789.848 258.452 789.716 Q259.279 789.566 260.107 789.566 Q264.809 789.566 267.555 792.143 Q270.301 794.719 270.301 799.12 Q270.301 803.653 267.48 806.173 Q264.659 808.675 259.524 808.675 Q257.756 808.675 255.913 808.374 Q254.089 808.073 252.133 807.471 L252.133 803.653 Q253.825 804.575 255.631 805.026 Q257.436 805.477 259.449 805.477 Q262.703 805.477 264.602 803.766 Q266.502 802.054 266.502 799.12 Q266.502 796.186 264.602 794.475 Q262.703 792.763 259.449 792.763 Q257.925 792.763 256.402 793.102 Q254.897 793.44 253.317 794.155 L253.317 780.049 Z" fill="#000000" fill-rule="evenodd" fill-opacity="1" /><path clip-path="url(#clip190)" d="M67.9133 497.454 Q71.2698 498.172 73.1448 500.441 Q75.0429 502.709 75.0429 506.042 Q75.0429 511.158 71.5244 513.959 Q68.0059 516.76 61.5245 516.76 Q59.3486 516.76 57.0338 516.32 Q54.7421 515.903 52.2884 515.047 L52.2884 510.533 Q54.2328 511.667 56.5477 512.246 Q58.8625 512.825 61.3856 512.825 Q65.7837 512.825 68.0754 511.089 Q70.3902 509.353 70.3902 506.042 Q70.3902 502.987 68.2374 501.274 Q66.1078 499.538 62.2884 499.538 L58.2606 499.538 L58.2606 495.695 L62.4735 495.695 Q65.9226 495.695 67.7513 494.329 Q69.58 492.941 69.58 490.348 Q69.58 487.686 67.6819 486.274 Q65.8069 484.839 62.2884 484.839 Q60.3671 484.839 58.168 485.255 Q55.969 485.672 53.3301 486.552 L53.3301 482.385 Q55.9921 481.644 58.3069 481.274 Q60.6449 480.904 62.705 480.904 Q68.0291 480.904 71.1309 483.334 Q74.2327 485.742 74.2327 489.862 Q74.2327 492.732 72.5892 494.723 Q70.9457 496.691 67.9133 497.454 Z" fill="#000000" fill-rule="evenodd" fill-opacity="1" /><path clip-path="url(#clip190)" d="M83.9086 510.209 L88.7928 510.209 L88.7928 516.089 L83.9086 516.089 L83.9086 510.209 Z" fill="#000000" fill-rule="evenodd" fill-opacity="1" /><path clip-path="url(#clip190)" d="M108.978 484.607 Q105.367 484.607 103.538 488.172 Q101.733 491.714 101.733 498.843 Q101.733 505.95 103.538 509.515 Q105.367 513.056 108.978 513.056 Q112.612 513.056 114.418 509.515 Q116.246 505.95 116.246 498.843 Q116.246 491.714 114.418 488.172 Q112.612 484.607 108.978 484.607 M108.978 480.904 Q114.788 480.904 117.844 485.51 Q120.922 490.093 120.922 498.843 Q120.922 507.57 117.844 512.177 Q114.788 516.76 108.978 516.76 Q103.168 516.76 100.089 512.177 Q97.0335 507.57 97.0335 498.843 Q97.0335 490.093 100.089 485.51 Q103.168 480.904 108.978 480.904 Z" fill="#000000" fill-rule="evenodd" fill-opacity="1" /><path clip-path="url(#clip190)" d="M157.311 490.626 L146.732 501.251 L157.311 511.829 L154.556 514.63 L143.931 504.005 L133.306 514.63 L130.575 511.829 L141.131 501.251 L130.575 490.626 L133.306 487.825 L143.931 498.45 L154.556 487.825 L157.311 490.626 Z" fill="#000000" fill-rule="evenodd" fill-opacity="1" /><path clip-path="url(#clip190)" d="M169.672 512.153 L177.311 512.153 L177.311 485.788 L169.001 487.455 L169.001 483.195 L177.265 481.529 L181.94 481.529 L181.94 512.153 L189.579 512.153 L189.579 516.089 L169.672 516.089 L169.672 512.153 Z" fill="#000000" fill-rule="evenodd" fill-opacity="1" /><path clip-path="url(#clip190)" d="M209.024 484.607 Q205.413 484.607 203.584 488.172 Q201.778 491.714 201.778 498.843 Q201.778 505.95 203.584 509.515 Q205.413 513.056 209.024 513.056 Q212.658 513.056 214.463 509.515 Q216.292 505.95 216.292 498.843 Q216.292 491.714 214.463 488.172 Q212.658 484.607 209.024 484.607 M209.024 480.904 Q214.834 480.904 217.889 485.51 Q220.968 490.093 220.968 498.843 Q220.968 507.57 217.889 512.177 Q214.834 516.76 209.024 516.76 Q203.214 516.76 200.135 512.177 Q197.079 507.57 197.079 498.843 Q197.079 490.093 200.135 485.51 Q203.214 480.904 209.024 480.904 Z" fill="#000000" fill-rule="evenodd" fill-opacity="1" /><path clip-path="url(#clip190)" d="M220.968 475.005 L245.08 475.005 L245.08 478.202 L220.968 478.202 L220.968 475.005 Z" fill="#000000" fill-rule="evenodd" fill-opacity="1" /><path clip-path="url(#clip190)" d="M253.317 460.598 L268.232 460.598 L268.232 463.796 L256.797 463.796 L256.797 470.679 Q257.624 470.397 258.452 470.265 Q259.279 470.115 260.107 470.115 Q264.809 470.115 267.555 472.692 Q270.301 475.268 270.301 479.669 Q270.301 484.202 267.48 486.722 Q264.659 489.224 259.524 489.224 Q257.756 489.224 255.913 488.923 Q254.089 488.622 252.133 488.02 L252.133 484.202 Q253.825 485.124 255.631 485.575 Q257.436 486.026 259.449 486.026 Q262.703 486.026 264.602 484.315 Q266.502 482.603 266.502 479.669 Q266.502 476.735 264.602 475.024 Q262.703 473.312 259.449 473.312 Q257.925 473.312 256.402 473.651 Q254.897 473.989 253.317 474.704 L253.317 460.598 Z" fill="#000000" fill-rule="evenodd" fill-opacity="1" /><path clip-path="url(#clip190)" d="M66.5939 166.152 L54.7884 184.601 L66.5939 184.601 L66.5939 166.152 M65.367 162.078 L71.2466 162.078 L71.2466 184.601 L76.1772 184.601 L76.1772 188.49 L71.2466 188.49 L71.2466 196.638 L66.5939 196.638 L66.5939 188.49 L50.9921 188.49 L50.9921 183.976 L65.367 162.078 Z" fill="#000000" fill-rule="evenodd" fill-opacity="1" /><path clip-path="url(#clip190)" d="M83.9086 190.758 L88.7928 190.758 L88.7928 196.638 L83.9086 196.638 L83.9086 190.758 Z" fill="#000000" fill-rule="evenodd" fill-opacity="1" /><path clip-path="url(#clip190)" d="M108.978 165.156 Q105.367 165.156 103.538 168.721 Q101.733 172.263 101.733 179.392 Q101.733 186.499 103.538 190.064 Q105.367 193.605 108.978 193.605 Q112.612 193.605 114.418 190.064 Q116.246 186.499 116.246 179.392 Q116.246 172.263 114.418 168.721 Q112.612 165.156 108.978 165.156 M108.978 161.453 Q114.788 161.453 117.844 166.059 Q120.922 170.642 120.922 179.392 Q120.922 188.119 117.844 192.726 Q114.788 197.309 108.978 197.309 Q103.168 197.309 100.089 192.726 Q97.0335 188.119 97.0335 179.392 Q97.0335 170.642 100.089 166.059 Q103.168 161.453 108.978 161.453 Z" fill="#000000" fill-rule="evenodd" fill-opacity="1" /><path clip-path="url(#clip190)" d="M157.311 171.175 L146.732 181.8 L157.311 192.378 L154.556 195.179 L143.931 184.554 L133.306 195.179 L130.575 192.378 L141.131 181.8 L130.575 171.175 L133.306 168.374 L143.931 178.999 L154.556 168.374 L157.311 171.175 Z" fill="#000000" fill-rule="evenodd" fill-opacity="1" /><path clip-path="url(#clip190)" d="M169.672 192.703 L177.311 192.703 L177.311 166.337 L169.001 168.004 L169.001 163.744 L177.265 162.078 L181.94 162.078 L181.94 192.703 L189.579 192.703 L189.579 196.638 L169.672 196.638 L169.672 192.703 Z" fill="#000000" fill-rule="evenodd" fill-opacity="1" /><path clip-path="url(#clip190)" d="M209.024 165.156 Q205.413 165.156 203.584 168.721 Q201.778 172.263 201.778 179.392 Q201.778 186.499 203.584 190.064 Q205.413 193.605 209.024 193.605 Q212.658 193.605 214.463 190.064 Q216.292 186.499 216.292 179.392 Q216.292 172.263 214.463 168.721 Q212.658 165.156 209.024 165.156 M209.024 161.453 Q214.834 161.453 217.889 166.059 Q220.968 170.642 220.968 179.392 Q220.968 188.119 217.889 192.726 Q214.834 197.309 209.024 197.309 Q203.214 197.309 200.135 192.726 Q197.079 188.119 197.079 179.392 Q197.079 170.642 200.135 166.059 Q203.214 161.453 209.024 161.453 Z" fill="#000000" fill-rule="evenodd" fill-opacity="1" /><path clip-path="url(#clip190)" d="M220.968 155.554 L245.08 155.554 L245.08 158.751 L220.968 158.751 L220.968 155.554 Z" fill="#000000" fill-rule="evenodd" fill-opacity="1" /><path clip-path="url(#clip190)" d="M253.317 141.147 L268.232 141.147 L268.232 144.345 L256.797 144.345 L256.797 151.228 Q257.624 150.946 258.452 150.814 Q259.279 150.664 260.107 150.664 Q264.809 150.664 267.555 153.241 Q270.301 155.817 270.301 160.218 Q270.301 164.751 267.48 167.271 Q264.659 169.773 259.524 169.773 Q257.756 169.773 255.913 169.472 Q254.089 169.171 252.133 168.569 L252.133 164.751 Q253.825 165.673 255.631 166.124 Q257.436 166.575 259.449 166.575 Q262.703 166.575 264.602 164.864 Q266.502 163.152 266.502 160.218 Q266.502 157.284 264.602 155.573 Q262.703 153.861 259.449 153.861 Q257.925 153.861 256.402 154.2 Q254.897 154.538 253.317 155.253 L253.317 141.147 Z" fill="#000000" fill-rule="evenodd" fill-opacity="1" /><polyline clip-path="url(#clip192)" style="stroke:#009af9; stroke-linecap:round; stroke-linejoin:round; stroke-width:4; stroke-opacity:1; fill:none" points="
  364.219,1365.33 456.154,1300.29 548.088,1400.43 640.022,873.184 731.956,1445.72 823.89,1372.71 915.825,1416.56 1007.76,665.164 1099.69,1183.67 1191.63,1430.48 
  1283.56,1142.55 1375.5,1441.67 1467.43,1234.24 1559.36,1422.21 1651.3,1216.93 1743.23,1318.14 1835.17,1363.78 1927.1,1153.38 2019.03,1256.86 2110.97,1191.11 
  2202.9,1262.27 2294.84,1396.6 
  "/>
<polyline clip-path="url(#clip192)" style="stroke:#e26f46; stroke-linecap:round; stroke-linejoin:round; stroke-width:4; stroke-opacity:1; fill:none" points="
  364.219,1162.13 456.154,1098.08 548.088,1173.27 640.022,1205.93 731.956,1362.52 823.89,1061.67 915.825,1115.52 1007.76,1231.32 1099.69,1146.04 1191.63,1364.81 
  1283.56,1414.67 1375.5,1076.42 1467.43,1093.03 1559.36,905.427 1651.3,744.025 1743.23,1422.2 1835.17,1142.97 1927.1,1072.14 2019.03,883.056 2110.97,1065.08 
  2202.9,898.687 2294.84,1247.5 
  "/>
<polyline clip-path="url(#clip192)" style="stroke:#3da44d; stroke-linecap:round; stroke-linejoin:round; stroke-width:4; stroke-opacity:1; fill:none" points="
  364.219,885.679 456.154,1383.66 548.088,1394.52 640.022,1433.69 731.956,1317.02 823.89,1364.66 915.825,1371.09 1007.76,1192.5 1099.69,1386.74 1191.63,1355.62 
  1283.56,1426.5 1375.5,1402.73 1467.43,904.12 1559.36,1084.24 1651.3,1069.32 1743.23,1276.82 1835.17,1280.8 1927.1,1374.35 2019.03,1442.37 2110.97,1375.43 
  2202.9,747.323 2294.84,1436.29 
  "/>
<polyline clip-path="url(#clip192)" style="stroke:#c271d2; stroke-linecap:round; stroke-linejoin:round; stroke-width:4; stroke-opacity:1; fill:none" points="
  364.219,985.753 456.154,1318.33 548.088,1148.17 640.022,1208.96 731.956,1445.43 823.89,1318.21 915.825,1385.94 1007.76,1137.1 1099.69,1184.08 1191.63,1036.69 
  1283.56,1110.12 1375.5,836.757 1467.43,1378.89 1559.36,1322.45 1651.3,1068.73 1743.23,1310.43 1835.17,1360.36 1927.1,1404.43 2019.03,1166.21 2110.97,658.299 
  2202.9,897.48 2294.84,1422.75 
  "/>
<polyline clip-path="url(#clip192)" style="stroke:#ac8d18; stroke-linecap:round; stroke-linejoin:round; stroke-width:4; stroke-opacity:1; fill:none" points="
  364.219,994.45 456.154,1246.14 548.088,1237.64 640.022,1183.43 731.956,1297.5 823.89,1180.28 915.825,1004.57 1007.76,1087.81 1099.69,968.626 1191.63,1254.71 
  1283.56,1195.15 1375.5,1192.35 1467.43,1055.62 1559.36,1203.72 1651.3,1159.81 1743.23,1226.87 1835.17,1149.22 1927.1,856.404 2019.03,1245.85 2110.97,1118.87 
  2202.9,1299.46 2294.84,877.706 
  "/>
<polyline clip-path="url(#clip192)" style="stroke:#00a9ad; stroke-linecap:round; stroke-linejoin:round; stroke-width:4; stroke-opacity:1; fill:none" points="
  364.219,1412.58 456.154,1349.92 548.088,1266.86 640.022,1234.61 731.956,87.9763 823.89,1395.55 915.825,1362.48 1007.76,1404.34 1099.69,1003.86 1191.63,1272.91 
  1283.56,1090.82 1375.5,1168.15 1467.43,1022.03 1559.36,1258.15 1651.3,1244.08 1743.23,1062.43 1835.17,1071.6 1927.1,1197.67 2019.03,1412.26 2110.97,1376.94 
  2202.9,1081.95 2294.84,1178.84 
  "/>
<polyline clip-path="url(#clip192)" style="stroke:#ed5d92; stroke-linecap:round; stroke-linejoin:round; stroke-width:4; stroke-opacity:1; fill:none" points="
  364.219,1396.59 456.154,1275.24 548.088,1113.35 640.022,1412.37 731.956,1121.74 823.89,1261.06 915.825,1373.6 1007.76,1381.57 1099.69,1122.96 1191.63,1410.32 
  1283.56,1157.12 1375.5,924.599 1467.43,962.874 1559.36,1174.81 1651.3,1161.82 1743.23,1410.37 1835.17,1283.28 1927.1,1191.48 2019.03,538.752 2110.97,1347.86 
  2202.9,1024.88 2294.84,1391.43 
  "/>
<path clip-path="url(#clip190)" d="
M2003.01 509.938 L2284.54 509.938 L2284.54 95.2176 L2003.01 95.2176  Z
  " fill="#ffffff" fill-rule="evenodd" fill-opacity="1"/>
<polyline clip-path="url(#clip190)" style="stroke:#000000; stroke-linecap:round; stroke-linejoin:round; stroke-width:4; stroke-opacity:1; fill:none" points="
  2003.01,509.938 2284.54,509.938 2284.54,95.2176 2003.01,95.2176 2003.01,509.938 
  "/>
<polyline clip-path="url(#clip190)" style="stroke:#009af9; stroke-linecap:round; stroke-linejoin:round; stroke-width:4; stroke-opacity:1; fill:none" points="
  2025.75,147.058 2162.18,147.058 
  "/>
<path clip-path="url(#clip190)" d="M2198.76 166.745 Q2196.96 171.375 2195.24 172.787 Q2193.53 174.199 2190.66 174.199 L2187.26 174.199 L2187.26 170.634 L2189.76 170.634 Q2191.52 170.634 2192.49 169.8 Q2193.46 168.967 2194.64 165.865 L2195.41 163.921 L2184.92 138.412 L2189.43 138.412 L2197.54 158.689 L2205.64 138.412 L2210.15 138.412 L2198.76 166.745 Z" fill="#000000" fill-rule="evenodd" fill-opacity="1" /><path clip-path="url(#clip190)" d="M2217.44 160.402 L2225.08 160.402 L2225.08 134.037 L2216.77 135.703 L2216.77 131.444 L2225.04 129.778 L2229.71 129.778 L2229.71 160.402 L2237.35 160.402 L2237.35 164.338 L2217.44 164.338 L2217.44 160.402 Z" fill="#000000" fill-rule="evenodd" fill-opacity="1" /><polyline clip-path="url(#clip190)" style="stroke:#e26f46; stroke-linecap:round; stroke-linejoin:round; stroke-width:4; stroke-opacity:1; fill:none" points="
  2025.75,198.898 2162.18,198.898 
  "/>
<path clip-path="url(#clip190)" d="M2198.76 218.585 Q2196.96 223.215 2195.24 224.627 Q2193.53 226.039 2190.66 226.039 L2187.26 226.039 L2187.26 222.474 L2189.76 222.474 Q2191.52 222.474 2192.49 221.64 Q2193.46 220.807 2194.64 217.705 L2195.41 215.761 L2184.92 190.252 L2189.43 190.252 L2197.54 210.529 L2205.64 190.252 L2210.15 190.252 L2198.76 218.585 Z" fill="#000000" fill-rule="evenodd" fill-opacity="1" /><path clip-path="url(#clip190)" d="M2220.66 212.242 L2236.98 212.242 L2236.98 216.178 L2215.04 216.178 L2215.04 212.242 Q2217.7 209.488 2222.28 204.858 Q2226.89 200.205 2228.07 198.863 Q2230.31 196.34 2231.19 194.604 Q2232.1 192.844 2232.1 191.155 Q2232.1 188.4 2230.15 186.664 Q2228.23 184.928 2225.13 184.928 Q2222.93 184.928 2220.48 185.692 Q2218.05 186.455 2215.27 188.006 L2215.27 183.284 Q2218.09 182.15 2220.55 181.571 Q2223 180.993 2225.04 180.993 Q2230.41 180.993 2233.6 183.678 Q2236.8 186.363 2236.8 190.854 Q2236.8 192.983 2235.99 194.905 Q2235.2 196.803 2233.09 199.395 Q2232.51 200.067 2229.41 203.284 Q2226.31 206.479 2220.66 212.242 Z" fill="#000000" fill-rule="evenodd" fill-opacity="1" /><polyline clip-path="url(#clip190)" style="stroke:#3da44d; stroke-linecap:round; stroke-linejoin:round; stroke-width:4; stroke-opacity:1; fill:none" points="
  2025.75,250.738 2162.18,250.738 
  "/>
<path clip-path="url(#clip190)" d="M2198.76 270.425 Q2196.96 275.055 2195.24 276.467 Q2193.53 277.879 2190.66 277.879 L2187.26 277.879 L2187.26 274.314 L2189.76 274.314 Q2191.52 274.314 2192.49 273.48 Q2193.46 272.647 2194.64 269.545 L2195.41 267.601 L2184.92 242.092 L2189.43 242.092 L2197.54 262.369 L2205.64 242.092 L2210.15 242.092 L2198.76 270.425 Z" fill="#000000" fill-rule="evenodd" fill-opacity="1" /><path clip-path="url(#clip190)" d="M2230.8 249.383 Q2234.16 250.101 2236.03 252.369 Q2237.93 254.638 2237.93 257.971 Q2237.93 263.087 2234.41 265.888 Q2230.89 268.689 2224.41 268.689 Q2222.24 268.689 2219.92 268.249 Q2217.63 267.832 2215.18 266.976 L2215.18 262.462 Q2217.12 263.596 2219.43 264.175 Q2221.75 264.754 2224.27 264.754 Q2228.67 264.754 2230.96 263.018 Q2233.28 261.281 2233.28 257.971 Q2233.28 254.916 2231.12 253.203 Q2228.99 251.467 2225.18 251.467 L2221.15 251.467 L2221.15 247.624 L2225.36 247.624 Q2228.81 247.624 2230.64 246.258 Q2232.47 244.87 2232.47 242.277 Q2232.47 239.615 2230.57 238.203 Q2228.69 236.768 2225.18 236.768 Q2223.25 236.768 2221.05 237.184 Q2218.86 237.601 2216.22 238.481 L2216.22 234.314 Q2218.88 233.573 2221.19 233.203 Q2223.53 232.833 2225.59 232.833 Q2230.92 232.833 2234.02 235.263 Q2237.12 237.67 2237.12 241.791 Q2237.12 244.661 2235.48 246.652 Q2233.83 248.62 2230.8 249.383 Z" fill="#000000" fill-rule="evenodd" fill-opacity="1" /><polyline clip-path="url(#clip190)" style="stroke:#c271d2; stroke-linecap:round; stroke-linejoin:round; stroke-width:4; stroke-opacity:1; fill:none" points="
  2025.75,302.578 2162.18,302.578 
  "/>
<path clip-path="url(#clip190)" d="M2198.76 322.265 Q2196.96 326.895 2195.24 328.307 Q2193.53 329.719 2190.66 329.719 L2187.26 329.719 L2187.26 326.154 L2189.76 326.154 Q2191.52 326.154 2192.49 325.32 Q2193.46 324.487 2194.64 321.385 L2195.41 319.441 L2184.92 293.932 L2189.43 293.932 L2197.54 314.209 L2205.64 293.932 L2210.15 293.932 L2198.76 322.265 Z" fill="#000000" fill-rule="evenodd" fill-opacity="1" /><path clip-path="url(#clip190)" d="M2229.48 289.372 L2217.68 307.821 L2229.48 307.821 L2229.48 289.372 M2228.25 285.298 L2234.13 285.298 L2234.13 307.821 L2239.06 307.821 L2239.06 311.709 L2234.13 311.709 L2234.13 319.858 L2229.48 319.858 L2229.48 311.709 L2213.88 311.709 L2213.88 307.196 L2228.25 285.298 Z" fill="#000000" fill-rule="evenodd" fill-opacity="1" /><polyline clip-path="url(#clip190)" style="stroke:#ac8d18; stroke-linecap:round; stroke-linejoin:round; stroke-width:4; stroke-opacity:1; fill:none" points="
  2025.75,354.418 2162.18,354.418 
  "/>
<path clip-path="url(#clip190)" d="M2198.76 374.105 Q2196.96 378.735 2195.24 380.147 Q2193.53 381.559 2190.66 381.559 L2187.26 381.559 L2187.26 377.994 L2189.76 377.994 Q2191.52 377.994 2192.49 377.16 Q2193.46 376.327 2194.64 373.225 L2195.41 371.281 L2184.92 345.772 L2189.43 345.772 L2197.54 366.049 L2205.64 345.772 L2210.15 345.772 L2198.76 374.105 Z" fill="#000000" fill-rule="evenodd" fill-opacity="1" /><path clip-path="url(#clip190)" d="M2216.68 337.138 L2235.04 337.138 L2235.04 341.073 L2220.96 341.073 L2220.96 349.545 Q2221.98 349.198 2223 349.036 Q2224.02 348.85 2225.04 348.85 Q2230.82 348.85 2234.2 352.022 Q2237.58 355.193 2237.58 360.61 Q2237.58 366.188 2234.11 369.29 Q2230.64 372.369 2224.32 372.369 Q2222.14 372.369 2219.87 371.998 Q2217.63 371.628 2215.22 370.887 L2215.22 366.188 Q2217.3 367.323 2219.53 367.878 Q2221.75 368.434 2224.23 368.434 Q2228.23 368.434 2230.57 366.327 Q2232.91 364.221 2232.91 360.61 Q2232.91 356.999 2230.57 354.892 Q2228.23 352.786 2224.23 352.786 Q2222.35 352.786 2220.48 353.202 Q2218.62 353.619 2216.68 354.499 L2216.68 337.138 Z" fill="#000000" fill-rule="evenodd" fill-opacity="1" /><polyline clip-path="url(#clip190)" style="stroke:#00a9ad; stroke-linecap:round; stroke-linejoin:round; stroke-width:4; stroke-opacity:1; fill:none" points="
  2025.75,406.258 2162.18,406.258 
  "/>
<path clip-path="url(#clip190)" d="M2198.76 425.945 Q2196.96 430.575 2195.24 431.987 Q2193.53 433.399 2190.66 433.399 L2187.26 433.399 L2187.26 429.834 L2189.76 429.834 Q2191.52 429.834 2192.49 429 Q2193.46 428.167 2194.64 425.065 L2195.41 423.121 L2184.92 397.612 L2189.43 397.612 L2197.54 417.889 L2205.64 397.612 L2210.15 397.612 L2198.76 425.945 Z" fill="#000000" fill-rule="evenodd" fill-opacity="1" /><path clip-path="url(#clip190)" d="M2227.21 404.394 Q2224.06 404.394 2222.21 406.547 Q2220.38 408.7 2220.38 412.45 Q2220.38 416.176 2222.21 418.352 Q2224.06 420.505 2227.21 420.505 Q2230.36 420.505 2232.19 418.352 Q2234.04 416.176 2234.04 412.45 Q2234.04 408.7 2232.19 406.547 Q2230.36 404.394 2227.21 404.394 M2236.49 389.741 L2236.49 394.001 Q2234.74 393.167 2232.93 392.728 Q2231.15 392.288 2229.39 392.288 Q2224.76 392.288 2222.3 395.413 Q2219.87 398.538 2219.53 404.857 Q2220.89 402.843 2222.95 401.778 Q2225.01 400.69 2227.49 400.69 Q2232.7 400.69 2235.71 403.862 Q2238.74 407.01 2238.74 412.45 Q2238.74 417.774 2235.59 420.991 Q2232.44 424.209 2227.21 424.209 Q2221.22 424.209 2218.05 419.626 Q2214.87 415.019 2214.87 406.292 Q2214.87 398.098 2218.76 393.237 Q2222.65 388.353 2229.2 388.353 Q2230.96 388.353 2232.74 388.7 Q2234.55 389.047 2236.49 389.741 Z" fill="#000000" fill-rule="evenodd" fill-opacity="1" /><polyline clip-path="url(#clip190)" style="stroke:#ed5d92; stroke-linecap:round; stroke-linejoin:round; stroke-width:4; stroke-opacity:1; fill:none" points="
  2025.75,458.098 2162.18,458.098 
  "/>
<path clip-path="url(#clip190)" d="M2198.76 477.785 Q2196.96 482.415 2195.24 483.827 Q2193.53 485.239 2190.66 485.239 L2187.26 485.239 L2187.26 481.674 L2189.76 481.674 Q2191.52 481.674 2192.49 480.84 Q2193.46 480.007 2194.64 476.905 L2195.41 474.961 L2184.92 449.452 L2189.43 449.452 L2197.54 469.729 L2205.64 449.452 L2210.15 449.452 L2198.76 477.785 Z" fill="#000000" fill-rule="evenodd" fill-opacity="1" /><path clip-path="url(#clip190)" d="M2215.45 440.818 L2237.68 440.818 L2237.68 442.808 L2225.13 475.378 L2220.24 475.378 L2232.05 444.753 L2215.45 444.753 L2215.45 440.818 Z" fill="#000000" fill-rule="evenodd" fill-opacity="1" /></svg>
